%FSTAX24Y24*%
%MOIN*%
%IN card16pad.gto *%
%ADD10C,0.0057*%
%ADD11C,0.0086*%
%ADD12C,0.0100*%
D10*X00096Y008966D02*G01Y009309D01*X001132D01*X001189Y009252D01*
Y009195D01*X001132Y009138D01*X001189Y00908D01*Y009023D01*
X001132Y008966D01*X00096D01*X001132Y009138D02*X00096D01*
X001303Y009095D02*X001517D01*Y009123D01*X001446Y009195D01*X001375D01*
X001303Y009138D01*Y009038D01*Y009023D01*X00136Y008966D01*X001475D01*
X001517Y008995D01*X001646Y009223D02*Y008966D01*Y009123D02*
X001717Y009195D01*X001789D01*X00186Y009123D01*Y008966D01*
X002203Y009309D02*Y008966D01*Y009123D02*X002132Y009195D01*X00206D01*
X001989Y009138D01*Y009038D01*X00206Y008966D01*X002132D01*
X002203Y009038D01*X002903Y009252D02*X002846Y009309D01*X002732D01*
X002675Y009252D01*Y009023D01*X002732Y008966D01*X002846D01*
X002903Y009023D01*Y009109D01*X002846D01*X003017Y008966D02*Y009309D01*
X003246Y008966D01*Y009309D01*X003589Y009252D02*X003532Y009309D01*
X00336D01*Y008966D01*X003532D01*X003589Y009023D01*Y009252D01*
X004046Y009195D02*Y008838D01*Y009038D02*X004117Y008966D01*X004189D01*
X00426Y009038D01*Y009123D01*X004189Y009195D01*X004117D01*
X004046Y009138D01*X004496Y009188D02*Y008966D01*Y00928D02*Y009288D01*
X004732Y009223D02*Y008966D01*Y009123D02*X004803Y009195D01*X004875D01*
X004946Y009123D01*Y008966D01*X005417Y009038D02*Y009123D01*
X005489Y009195D01*X00556D01*X005632Y009123D01*Y009038D01*
X00556Y008966D01*X005489D01*X005417Y009038D01*X005975Y009195D02*
Y008966D01*Y009023D02*X005917Y008966D01*X005817D01*X00576Y009023D01*
Y009195D01*X00616Y009252D02*Y008995D01*X006189Y008966D01*X006232D01*
X00626Y008995D01*X006103Y009195D02*X006217D01*X006532Y008966D02*
X00656D01*X006517Y008923D01*X006546Y00898D01*X00656Y008966D02*
Y008995D01*X006532D01*Y008966D01*X00096Y002009D02*Y001666D01*
Y001738D02*X001032Y001666D01*X001103D01*X001175Y001738D01*Y001823D01*
X001103Y001895D01*X001032D01*X00096Y001838D01*X001303Y001923D02*
Y001666D01*X001517Y001852D02*X001446Y001895D01*X001375D01*
X001303Y001852D01*X001753Y001888D02*Y001666D01*Y00198D02*Y001988D01*
X002089Y002009D02*Y001666D01*Y001823D02*X002017Y001895D01*X001946D01*
X001875Y001838D01*Y001738D01*X001946Y001666D01*X002017D01*
X002089Y001738D01*X002432D02*X00236Y001666D01*X002289D01*
X002217Y001738D01*Y001838D01*X002289Y001895D01*X00236D01*
X002432Y001823D01*Y001609D01*X00236Y001538D01*X002289D01*
X002217Y00158D01*X00256Y001795D02*X002775D01*Y001823D01*
X002703Y001895D01*X002632D01*X00256Y001838D01*Y001738D01*Y001723D01*
X002617Y001666D01*X002732D01*X002775Y001695D01*X003353Y001888D02*
Y001666D01*Y00198D02*Y001988D01*X003475Y001923D02*Y001666D01*
Y001823D02*X003546Y001895D01*X003617D01*X003689Y001823D01*Y001666D01*
X003817Y001895D02*Y001538D01*Y001738D02*X003889Y001666D01*X00396D01*
X004032Y001738D01*Y001823D01*X00396Y001895D01*X003889D01*
X003817Y001838D01*X004375Y001895D02*Y001666D01*Y001723D02*
X004317Y001666D01*X004217D01*X00416Y001723D01*Y001895D01*
X00456Y001952D02*Y001695D01*X004589Y001666D01*X004632D01*
X00466Y001695D01*X004503Y001895D02*X004617D01*X005189D02*Y001538D01*
Y001738D02*X00526Y001666D01*X005332D01*X005403Y001738D01*Y001823D01*
X005332Y001895D01*X00526D01*X005189Y001838D01*X005639Y001888D02*
Y001666D01*Y00198D02*Y001988D01*X00576Y001923D02*Y001666D01*Y001823D02*
X005832Y001895D01*X005903D01*X005975Y001823D01*Y001666D01*X006246D02*
X006175D01*X006103Y001695D02*X006132Y001666D01*X006289D01*
X006317Y001695D01*Y001752D01*X006289Y00178D01*X006132D01*
X006103Y001809D01*Y001866D01*X006132Y001895D01*X006289D01*
X006317Y001866D01*X006789Y001738D02*Y001823D01*X00686Y001895D01*
X006932D01*X007003Y001823D01*Y001738D01*X006932Y001666D01*X00686D01*
X006789Y001738D01*X007132Y001923D02*Y001666D01*Y001823D02*
X007203Y001895D01*X007275D01*X007346Y001823D01*Y001666D01*X007532D02*
Y002009D01*X007817Y001895D02*X007846D01*X007946Y001666D01*
X008032Y001895D02*Y001866D01*X007889Y001538D01*X00786D01*
X008246Y001666D02*X008275D01*Y001695D01*X008246D01*Y001666D01*
X008846Y002009D02*Y001666D01*X009075D01*X009189Y001795D02*X009403D01*
Y001823D01*X009332Y001895D01*X00926D01*X009189Y001838D01*Y001738D01*
Y001723D01*X009246Y001666D01*X00936D01*X009403Y001695D01*
X00976Y001666D02*Y001895D01*X009532Y00174D02*X009552Y001812D01*
X009583Y00186D01*X009623Y001886D01*X009652Y001895D01*X009675D01*
X009715D01*X00976Y001872D01*X009532Y001738D02*Y00172D01*
X009535Y001709D01*X009543Y001695D01*X009563Y001683D01*
X009603Y001666D01*X009666D01*X009726Y001692D01*X00976Y001723D01*
X009875Y001895D02*X009989Y001666D01*X010103Y001895D01*
X010217Y001795D02*X010432D01*Y001823D01*X01036Y001895D01*X010289D01*
X010217Y001838D01*Y001738D01*Y001723D01*X010275Y001666D01*X010389D01*
X010432Y001695D01*X010903Y001738D02*Y001823D01*X010975Y001895D01*
X011046D01*X011117Y001823D01*Y001738D01*X011046Y001666D01*X010975D01*
X010903Y001738D01*X01146Y001895D02*Y001666D01*Y001723D02*
X011403Y001666D01*X011303D01*X011246Y001723D01*Y001895D01*
X011646Y001952D02*Y001695D01*X011675Y001666D01*X011717D01*
X011746Y001695D01*X011589Y001895D02*X011703D01*X011932D02*Y001538D01*
Y001738D02*X012003Y001666D01*X012075D01*X012146Y001738D01*Y001823D01*
X012075Y001895D01*X012003D01*X011932Y001838D01*X012489Y001895D02*
Y001666D01*Y001723D02*X012432Y001666D01*X012332D01*X012275Y001723D01*
Y001895D01*X012675Y001952D02*Y001695D01*X012703Y001666D01*X012746D01*
X012775Y001695D01*X012617Y001895D02*X012732D01*X013103Y001666D02*
X013032D01*X01296Y001695D02*X012989Y001666D01*X013146D01*
X013175Y001695D01*Y001752D01*X013146Y00178D01*X012989D01*
X01296Y001809D01*Y001866D01*X012989Y001895D01*X013146D01*
X013175Y001866D01*X013753Y001888D02*Y001666D01*Y00198D02*Y001988D01*
X014017Y001666D02*X013946D01*X013875Y001695D02*X013903Y001666D01*
X01406D01*X014089Y001695D01*Y001752D01*X01406Y00178D01*X013903D01*
X013875Y001809D01*Y001866D01*X013903Y001895D01*X01406D01*
X014089Y001866D01*X014217Y001738D02*Y001823D01*X014289Y001895D01*
X01436D01*X014432Y001823D01*Y001738D01*X01436Y001666D01*X014289D01*
X014217Y001738D01*X014617Y001666D02*Y002009D01*X015132Y001666D02*
Y001895D01*X014903Y00174D02*X014923Y001812D01*X014955Y00186D01*
X014995Y001886D01*X015023Y001895D01*X015046D01*X015086D01*
X015132Y001872D01*X014903Y001738D02*Y00172D01*X014906Y001709D01*
X014915Y001695D01*X014935Y001683D01*X014975Y001666D01*X015037D01*
X015097Y001692D01*X015132Y001723D01*X015303Y001952D02*Y001695D01*
X015332Y001666D01*X015375D01*X015403Y001695D01*X015246Y001895D02*
X01536D01*X015589Y001795D02*X015803D01*Y001823D01*X015732Y001895D01*
X01566D01*X015589Y001838D01*Y001738D01*Y001723D01*X015646Y001666D01*
X01576D01*X015803Y001695D01*X016146Y002009D02*Y001666D01*Y001823D02*
X016075Y001895D01*X016003D01*X015932Y001838D01*Y001738D01*
X016003Y001666D01*X016075D01*X016146Y001738D01*X01636Y001666D02*
X016389D01*Y001695D01*X01636D01*Y001666D01*X01346Y006266D02*Y00658D01*
X013489Y006609D01*X013546D01*X013575Y00658D01*Y006566D01*
X013403Y006438D02*X013517D01*X013717Y006338D02*Y006423D01*
X013789Y006495D01*X01386D01*X013932Y006423D01*Y006338D01*
X01386Y006266D01*X013789D01*X013717Y006338D01*X01406Y006523D02*
Y006266D01*X014275Y006452D02*X014203Y006495D01*X014132D01*
X01406Y006452D01*X014803Y006552D02*X01486Y006609D01*Y006266D01*
X014917D01*X01486D02*X014803D01*X015317Y006552D02*X01526Y006609D01*
X015146D01*X015089Y006552D01*Y006323D01*X015146Y006266D01*X01526D01*
X015317Y006323D01*Y006409D01*X01526Y006466D01*X015146D01*
X015089Y006409D01*X015775Y006495D02*Y006138D01*Y006338D02*
X015846Y006266D01*X015917D01*X015989Y006338D01*Y006423D01*
X015917Y006495D01*X015846D01*X015775Y006438D01*X016225Y006488D02*
Y006266D01*Y00658D02*Y006588D01*X016346Y006523D02*Y006266D01*
Y006423D02*X016417Y006495D01*X016489D01*X01656Y006423D01*Y006266D01*
X017189Y006495D02*Y006466D01*X017146Y006495D01*X017132D01*
X017103Y00648D01*X01706Y006438D01*X017032Y006366D01*Y006338D01*
X017046Y006295D01*X017103Y006266D01*X017175D01*X017246Y006309D01*
X017375Y006609D02*Y006266D01*Y006438D02*X017446Y006495D01*X017517D01*
X017589Y006423D01*Y006266D01*X017825Y006488D02*Y006266D01*Y00658D02*
Y006588D01*X017946Y006495D02*Y006138D01*Y006338D02*X018017Y006266D01*
X018089D01*X01816Y006338D01*Y006423D01*X018089Y006495D01*X018017D01*
X017946Y006438D01*X018432Y006266D02*X01836D01*X018289Y006295D02*
X018317Y006266D01*X018475D01*X018503Y006295D01*Y006352D01*
X018475Y00638D01*X018317D01*X018289Y006409D01*Y006466D01*
X018317Y006495D01*X018475D01*X018503Y006466D01*X01346Y008166D02*
Y00848D01*X013489Y008509D01*X013546D01*X013575Y00848D01*Y008466D01*
X013403Y008338D02*X013517D01*X013717Y008238D02*Y008323D01*
X013789Y008395D01*X01386D01*X013932Y008323D01*Y008238D01*
X01386Y008166D01*X013789D01*X013717Y008238D01*X01406Y008423D02*
Y008166D01*X014275Y008352D02*X014203Y008395D01*X014132D01*
X01406Y008352D01*X014803Y008452D02*X01486Y008509D01*Y008166D01*
X014917D01*X01486D02*X014803D01*X01526D02*Y008509D01*X015089Y008309D01*
X015317D01*X015775Y008395D02*Y008038D01*Y008238D02*X015846Y008166D01*
X015917D01*X015989Y008238D01*Y008323D01*X015917Y008395D01*X015846D01*
X015775Y008338D01*X016225Y008388D02*Y008166D01*Y00848D02*Y008488D01*
X016346Y008423D02*Y008166D01*Y008323D02*X016417Y008395D01*X016489D01*
X01656Y008323D01*Y008166D01*X017189Y008395D02*Y008366D01*
X017146Y008395D01*X017132D01*X017103Y00838D01*X01706Y008338D01*
X017032Y008266D01*Y008238D01*X017046Y008195D01*X017103Y008166D01*
X017175D01*X017246Y008209D01*X017375Y008509D02*Y008166D01*Y008338D02*
X017446Y008395D01*X017517D01*X017589Y008323D01*Y008166D01*
X017825Y008388D02*Y008166D01*Y00848D02*Y008488D01*X017946Y008395D02*
Y008038D01*Y008238D02*X018017Y008166D01*X018089D01*X01816Y008238D01*
Y008323D01*X018089Y008395D01*X018017D01*X017946Y008338D01*
X018432Y008166D02*X01836D01*X018289Y008195D02*X018317Y008166D01*
X018475D01*X018503Y008195D01*Y008252D01*X018475Y00828D01*X018317D01*
X018289Y008309D01*Y008366D01*X018317Y008395D01*X018475D01*
X018503Y008366D01*X001117Y008438D02*X001046D01*X000975Y008466D02*
X001003Y008438D01*X00116D01*X001189Y008466D01*Y008523D01*
X00116Y008552D01*X001003D01*X000975Y00858D01*Y008638D01*
X001003Y008666D01*X00116D01*X001189Y008638D01*X001317Y008509D02*
Y008595D01*X001389Y008666D01*X00146D01*X001532Y008595D01*Y008509D01*
X00146Y008438D01*X001389D01*X001317Y008509D01*X001717Y008438D02*
Y00878D01*X002217D02*Y008438D01*Y008595D02*X002146Y008666D01*
X002075D01*X002003Y008609D01*Y008509D01*X002075Y008438D01*X002146D01*
X002217Y008509D01*X002346Y008566D02*X00256D01*Y008595D01*
X002489Y008666D01*X002417D01*X002346Y008609D01*Y008509D01*Y008495D01*
X002403Y008438D01*X002517D01*X00256Y008466D01*X002689Y008695D02*
Y008438D01*X002903Y008623D02*X002832Y008666D01*X00276D01*
X002689Y008623D01*X003432Y008723D02*Y008466D01*X00346Y008438D01*
X003503D01*X003532Y008466D01*X003375Y008666D02*X003489D01*
X003717Y008509D02*Y008595D01*X003789Y008666D01*X00386D01*
X003932Y008595D01*Y008509D01*X00386Y008438D01*X003789D01*
X003717Y008509D01*X004403Y008695D02*Y008438D01*X004617Y008623D02*
X004546Y008666D01*X004475D01*X004403Y008623D01*X004975Y008438D02*
Y008666D01*X004746Y008512D02*X004766Y008583D01*X004797Y008632D01*
X004837Y008658D01*X004866Y008666D01*X004889D01*X004929D01*
X004975Y008643D01*X004746Y008509D02*Y008492D01*X004749Y00848D01*
X004757Y008466D01*X004777Y008455D01*X004817Y008438D01*X00488D01*
X00494Y008463D01*X004975Y008495D01*X005196Y008659D02*Y008438D01*
Y008752D02*Y008759D01*X005375Y008438D02*Y00878D01*X005746Y008438D02*
X005775D01*Y008466D01*X005746D01*Y008438D01*X011853Y016745D02*
X01191Y016802D01*Y016459D01*X011967D01*X01191D02*X011853D01*
X012196Y016745D02*X012253Y016802D01*Y016459D01*X01231D01*X012253D02*
X012196D01*X000917Y010738D02*Y010823D01*X000989Y010895D01*X00106D01*
X001132Y010823D01*Y010738D01*X00106Y010666D01*X000989D01*
X000917Y010738D01*X001317Y010952D02*Y010695D01*X001346Y010666D01*
X001389D01*X001417Y010695D01*X00126Y010895D02*X001375D01*
X001603Y011009D02*Y010666D01*Y010838D02*X001675Y010895D01*X001746D01*
X001817Y010823D01*Y010666D01*X001946Y010795D02*X00216D01*Y010823D01*
X002089Y010895D01*X002017D01*X001946Y010838D01*Y010738D01*Y010723D01*
X002003Y010666D01*X002117D01*X00216Y010695D01*X002289Y010923D02*
Y010666D01*X002503Y010852D02*X002432Y010895D01*X00236D01*
X002289Y010852D01*X003117Y010666D02*X003046D01*X002975Y010695D02*
X003003Y010666D01*X00316D01*X003189Y010695D01*Y010752D01*
X00316Y01078D01*X003003D01*X002975Y010809D01*Y010866D01*
X003003Y010895D01*X00316D01*X003189Y010866D01*X003425Y010888D02*
Y010666D01*Y01098D02*Y010988D01*X003875Y011009D02*Y010666D01*
Y010823D02*X003803Y010895D01*X003732D01*X00366Y010838D01*Y010738D01*
X003732Y010666D01*X003803D01*X003875Y010738D01*X004003Y010795D02*
X004217D01*Y010823D01*X004146Y010895D01*X004075D01*X004003Y010838D01*
Y010738D01*Y010723D01*X00406Y010666D01*X004175D01*X004217Y010695D01*
X004432Y010666D02*X00446D01*Y010695D01*X004432D01*Y010666D01*
X00096Y002223D02*Y002566D01*X001346D02*Y002223D01*Y00238D02*
X001275Y002452D01*X001203D01*X001132Y002395D01*Y002295D01*
X001203Y002223D01*X001275D01*X001346Y002295D01*X001475Y002352D02*
X001689D01*Y00238D01*X001617Y002452D01*X001546D01*X001475Y002395D01*
Y002295D01*Y00228D01*X001532Y002223D01*X001646D01*X001689Y002252D01*
X001817Y00248D02*Y002223D01*Y00238D02*X001889Y002452D01*X00196D01*
X002032Y00238D01*Y002223D01*X002217Y002509D02*Y002252D01*
X002246Y002223D01*X002289D01*X002317Y002252D01*X00216Y002452D02*
X002275D01*X00261Y002445D02*Y002223D01*Y002538D02*Y002545D01*
X002817Y002223D02*Y002538D01*X002846Y002566D01*X002903D01*
X002932Y002538D01*Y002523D01*X00276Y002395D02*X002875D01*
X003075Y002452D02*X003103D01*X003203Y002223D01*X003289Y002452D02*
Y002423D01*X003146Y002095D01*X003117D01*X003817Y002223D02*Y002566D01*
X003989Y002223D02*X004217Y002566D01*X00456Y002509D02*X004503Y002566D01*
X004389D01*X004332Y002509D01*Y00228D01*X004389Y002223D01*X004503D01*
X00456Y00228D01*Y002509D01*X005017Y002452D02*Y002095D01*Y002295D02*
X005089Y002223D01*X00516D01*X005232Y002295D01*Y00238D01*
X00516Y002452D01*X005089D01*X005017Y002395D01*X005467Y002445D02*
Y002223D01*Y002538D02*Y002545D01*X005589Y00248D02*Y002223D01*Y00238D02*
X00566Y002452D01*X005732D01*X005803Y00238D01*Y002223D01*X006075D02*
X006003D01*X005932Y002252D02*X00596Y002223D01*X006117D01*
X006146Y002252D01*Y002309D01*X006117Y002338D01*X00596D01*
X005932Y002366D01*Y002423D01*X00596Y002452D01*X006117D01*
X006146Y002423D01*X006617Y002295D02*Y00238D01*X006689Y002452D01*
X00676D01*X006832Y00238D01*Y002295D01*X00676Y002223D01*X006689D01*
X006617Y002295D01*X007046Y002223D02*Y002538D01*X007075Y002566D01*
X007132D01*X00716Y002538D01*Y002523D01*X006989Y002395D02*X007103D01*
X007803Y002452D02*Y002423D01*X00776Y002452D01*X007746D01*
X007717Y002438D01*X007675Y002395D01*X007646Y002323D01*Y002295D01*
X00766Y002252D01*X007717Y002223D01*X007789D01*X00786Y002266D01*
X007989Y002566D02*Y002223D01*Y002395D02*X00806Y002452D01*X008132D01*
X008203Y00238D01*Y002223D01*X008439Y002445D02*Y002223D01*Y002538D02*
Y002545D01*X00856Y002452D02*Y002095D01*Y002295D02*X008632Y002223D01*
X008703D01*X008775Y002295D01*Y00238D01*X008703Y002452D01*X008632D01*
X00856Y002395D01*X008989Y002223D02*X009017D01*Y002252D01*X008989D01*
Y002223D01*X009589Y002566D02*Y00228D01*X009646Y002223D01*X00976D01*
X009817Y00228D01*Y002566D01*X010075Y002223D02*X010003D01*
X009932Y002252D02*X00996Y002223D01*X010117D01*X010146Y002252D01*
Y002309D01*X010117Y002338D01*X00996D01*X009932Y002366D01*Y002423D01*
X00996Y002452D01*X010117D01*X010146Y002423D01*X010275Y002352D02*
X010489D01*Y00238D01*X010417Y002452D01*X010346D01*X010275Y002395D01*
Y002295D01*Y00228D01*X010332Y002223D01*X010446D01*X010489Y002252D01*
X011103Y002223D02*X011032D01*X01096Y002252D02*X010989Y002223D01*
X011146D01*X011175Y002252D01*Y002309D01*X011146Y002338D01*X010989D01*
X01096Y002366D01*Y002423D01*X010989Y002452D01*X011146D01*
X011175Y002423D01*X011303Y002452D02*Y002095D01*Y002295D02*
X011375Y002223D01*X011446D01*X011517Y002295D01*Y00238D01*
X011446Y002452D01*X011375D01*X011303Y002395D01*X011703Y002223D02*
Y002566D01*X012096Y002445D02*Y002223D01*Y002538D02*Y002545D01*
X012275Y002509D02*Y002252D01*X012303Y002223D01*X012346D01*
X012375Y002252D01*X012217Y002452D02*X012332D01*X012903D02*Y002095D01*
Y002295D02*X012975Y002223D01*X013046D01*X013117Y002295D01*Y00238D01*
X013046Y002452D01*X012975D01*X012903Y002395D01*X013475Y002223D02*
Y002452D01*X013246Y002298D02*X013266Y002369D01*X013297Y002418D01*
X013337Y002443D01*X013366Y002452D01*X013389D01*X013429D01*
X013475Y002429D01*X013246Y002295D02*Y002278D01*X013249Y002266D01*
X013257Y002252D01*X013277Y00224D01*X013317Y002223D01*X01338D01*
X01344Y002249D01*X013475Y00228D01*X013803Y002566D02*Y002223D01*
Y00238D02*X013732Y002452D01*X01366D01*X013589Y002395D01*Y002295D01*
X01366Y002223D01*X013732D01*X013803Y002295D01*X014075Y002223D02*
X014003D01*X013932Y002252D02*X01396Y002223D01*X014117D01*
X014146Y002252D01*Y002309D01*X014117Y002338D01*X01396D01*
X013932Y002366D01*Y002423D01*X01396Y002452D01*X014117D01*
X014146Y002423D01*X014675Y002509D02*Y002252D01*X014703Y002223D01*
X014746D01*X014775Y002252D01*X014617Y002452D02*X014732D01*
X01496Y002295D02*Y00238D01*X015032Y002452D01*X015103D01*
X015175Y00238D01*Y002295D01*X015103Y002223D01*X015032D01*
X01496Y002295D01*X00096Y011216D02*Y011559D01*X001132Y011473D02*
Y011216D01*Y011373D02*X001203Y011445D01*X001275D01*X001346Y011373D01*
Y011216D01*X001617D02*X001546D01*X001475Y011245D02*X001503Y011216D01*
X00166D01*X001689Y011245D01*Y011302D01*X00166Y01133D01*X001503D01*
X001475Y011359D01*Y011416D01*X001503Y011445D01*X00166D01*
X001689Y011416D01*X001817Y011345D02*X002032D01*Y011373D01*
X00196Y011445D01*X001889D01*X001817Y011388D01*Y011288D01*Y011273D01*
X001875Y011216D01*X001989D01*X002032Y011245D01*X00216Y011473D02*
Y011216D01*X002375Y011402D02*X002303Y011445D01*X002232D01*
X00216Y011402D01*X00256Y011502D02*Y011245D01*X002589Y011216D01*
X002632D01*X00266Y011245D01*X002503Y011445D02*X002617D01*X003346D02*
Y011416D01*X003303Y011445D01*X003289D01*X00326Y01143D01*
X003217Y011388D01*X003189Y011316D01*Y011288D01*X003203Y011245D01*
X00326Y011216D01*X003332D01*X003403Y011259D01*X003532Y011559D02*
Y011216D01*Y011388D02*X003603Y011445D01*X003675D01*X003746Y011373D01*
Y011216D01*X003982Y011438D02*Y011216D01*Y01153D02*Y011538D01*
X004217Y011445D02*Y011088D01*Y011288D02*X004289Y011216D01*X00436D01*
X004432Y011288D01*Y011373D01*X00436Y011445D01*X004289D01*
X004217Y011388D01*X004989Y011216D02*Y01153D01*X005017Y011559D01*
X005075D01*X005103Y01153D01*Y011516D01*X004932Y011388D02*X005046D01*
X005246Y011473D02*Y011216D01*X00546Y011402D02*X005389Y011445D01*
X005317D01*X005246Y011402D01*X005589Y011288D02*Y011373D01*
X00566Y011445D01*X005732D01*X005803Y011373D01*Y011288D01*
X005732Y011216D01*X00566D01*X005589Y011288D01*X006039Y011216D02*
Y011373D01*X006092Y011444D01*X006146Y011373D01*Y011216D01*
X005932Y011373D02*X005985Y011444D01*X006039Y011373D01*
X005932Y011473D02*Y011216D01*X001117Y006138D02*X001046D01*
X000975Y006166D02*X001003Y006138D01*X00116D01*X001189Y006166D01*
Y006223D01*X00116Y006252D01*X001003D01*X000975Y00628D01*Y006338D01*
X001003Y006366D01*X00116D01*X001189Y006338D01*X001317Y006209D02*
Y006295D01*X001389Y006366D01*X00146D01*X001532Y006295D01*Y006209D01*
X00146Y006138D01*X001389D01*X001317Y006209D01*X001717Y006138D02*
Y00648D01*X002217D02*Y006138D01*Y006295D02*X002146Y006366D01*
X002075D01*X002003Y006309D01*Y006209D01*X002075Y006138D01*X002146D01*
X002217Y006209D01*X002346Y006266D02*X00256D01*Y006295D01*
X002489Y006366D01*X002417D01*X002346Y006309D01*Y006209D01*Y006195D01*
X002403Y006138D01*X002517D01*X00256Y006166D01*X002689Y006395D02*
Y006138D01*X002903Y006323D02*X002832Y006366D01*X00276D01*
X002689Y006323D01*X003432Y006423D02*Y006166D01*X00346Y006138D01*
X003503D01*X003532Y006166D01*X003375Y006366D02*X003489D01*
X003717Y006209D02*Y006295D01*X003789Y006366D01*X00386D01*
X003932Y006295D01*Y006209D01*X00386Y006138D01*X003789D01*
X003717Y006209D01*X004403Y006395D02*Y006138D01*X004617Y006323D02*
X004546Y006366D01*X004475D01*X004403Y006323D01*X004975Y006138D02*
Y006366D01*X004746Y006212D02*X004766Y006283D01*X004797Y006332D01*
X004837Y006358D01*X004866Y006366D01*X004889D01*X004929D01*
X004975Y006343D01*X004746Y006209D02*Y006192D01*X004749Y00618D01*
X004757Y006166D01*X004777Y006155D01*X004817Y006138D01*X00488D01*
X00494Y006163D01*X004975Y006195D01*X005196Y006359D02*Y006138D01*
Y006452D02*Y006459D01*X005489Y006138D02*Y00648D01*X00586Y006138D02*
X005889D01*Y006166D01*X00586D01*Y006138D01*X000989Y004166D02*
Y003809D01*Y004009D02*X00106Y003938D01*X001132D01*X001203Y004009D01*
Y004095D01*X001132Y004166D01*X00106D01*X000989Y004109D01*
X001439Y004159D02*Y003938D01*Y004252D02*Y004259D01*X001675Y004195D02*
Y003938D01*Y004095D02*X001746Y004166D01*X001817D01*X001889Y004095D01*
Y003938D01*X00216D02*X002089D01*X002017Y003966D02*X002046Y003938D01*
X002203D01*X002232Y003966D01*Y004023D01*X002203Y004052D01*X002046D01*
X002017Y00408D01*Y004138D01*X002046Y004166D01*X002203D01*
X002232Y004138D01*X002932Y003938D02*Y004166D01*X002703Y004012D02*
X002723Y004083D01*X002755Y004132D01*X002795Y004158D01*
X002823Y004166D01*X002846D01*X002886D01*X002932Y004143D01*
X002703Y004009D02*Y003992D01*X002706Y00398D01*X002715Y003966D01*
X002735Y003955D01*X002775Y003938D01*X002837D01*X002897Y003963D01*
X002932Y003995D01*X003046Y004195D02*Y003938D01*Y004095D02*
X003117Y004166D01*X003189D01*X00326Y004095D01*Y003938D01*
X003603Y00428D02*Y003938D01*Y004095D02*X003532Y004166D01*X00346D01*
X003389Y004109D01*Y004009D01*X00346Y003938D01*X003532D01*
X003603Y004009D01*X004132Y004223D02*Y003966D01*X00416Y003938D01*
X004203D01*X004232Y003966D01*X004075Y004166D02*X004189D01*
X004417Y004195D02*Y003938D01*X004632Y004123D02*X00456Y004166D01*
X004489D01*X004417Y004123D01*X004867Y004159D02*Y003938D01*Y004252D02*
Y004259D01*X00521Y003938D02*Y004095D01*X005263Y004166D01*
X005317Y004095D01*Y003938D01*X005103Y004095D02*X005156Y004166D01*
X00521Y004094D01*X005103Y004195D02*Y003938D01*X005532D02*X00556D01*
Y003966D01*X005532D01*Y003938D01*X001203Y004752D02*X001146Y004809D01*
X001032D01*X000975Y004752D01*Y004695D01*X001032Y004638D01*X001146D01*
X001203Y00458D01*Y004523D01*X001146Y004466D01*X001032D01*
X000975Y004523D01*X001317Y004538D02*Y004623D01*X001389Y004695D01*
X00146D01*X001532Y004623D01*Y004538D01*X00146Y004466D01*X001389D01*
X001317Y004538D01*X001717Y004466D02*Y004809D01*X002217D02*Y004466D01*
Y004623D02*X002146Y004695D01*X002075D01*X002003Y004638D01*Y004538D01*
X002075Y004466D01*X002146D01*X002217Y004538D01*X002346Y004595D02*
X00256D01*Y004623D01*X002489Y004695D01*X002417D01*X002346Y004638D01*
Y004538D01*Y004523D01*X002403Y004466D01*X002517D01*X00256Y004495D01*
X002689Y004723D02*Y004466D01*X002903Y004652D02*X002832Y004695D01*
X00276D01*X002689Y004652D01*X003375Y004723D02*Y004466D01*
X003589Y004652D02*X003517Y004695D01*X003446D01*X003375Y004652D01*
X003717Y004595D02*X003932D01*Y004623D01*X00386Y004695D01*X003789D01*
X003717Y004638D01*Y004538D01*Y004523D01*X003775Y004466D01*X003889D01*
X003932Y004495D01*X004167Y004466D02*Y004623D01*X004221Y004694D01*
X004275Y004623D01*Y004466D01*X00406Y004623D02*X004114Y004694D01*
X004167Y004623D01*X00406Y004723D02*Y004466D01*X004632D02*Y004695D01*
X004403Y00454D02*X004423Y004612D01*X004455Y00466D01*X004495Y004686D01*
X004523Y004695D01*X004546D01*X004586D01*X004632Y004672D01*
X004403Y004538D02*Y00452D01*X004406Y004509D01*X004415Y004495D01*
X004435Y004483D01*X004475Y004466D01*X004537D01*X004597Y004492D01*
X004632Y004523D01*X004853Y004688D02*Y004466D01*Y00478D02*Y004788D01*
X005089Y004723D02*Y004466D01*Y004623D02*X00516Y004695D01*X005232D01*
X005303Y004623D01*Y004466D01*X005539Y004688D02*Y004466D01*Y00478D02*
Y004788D01*X005775Y004723D02*Y004466D01*Y004623D02*X005846Y004695D01*
X005917D01*X005989Y004623D01*Y004466D01*X006332Y004538D02*
X00626Y004466D01*X006189D01*X006117Y004538D01*Y004638D01*
X006189Y004695D01*X00626D01*X006332Y004623D01*Y004409D01*
X00626Y004338D01*X006189D01*X006117Y00438D01*X013796Y016745D02*
X013853Y016802D01*Y016459D01*X01391D01*X013853D02*X013796D01*
X014082Y016745D02*X014139Y016802D01*X014253D01*X01431Y016745D01*
Y016688D01*X014253Y01663D01*X01431Y016573D01*Y016516D01*
X014253Y016459D01*X014139D01*X014082Y016516D01*X014253Y01663D02*
X014196D01*X00306Y014709D02*X003117Y014766D01*X003232D01*
X003289Y014709D01*Y014652D01*X003232Y014595D01*X00306Y01448D01*
Y014423D01*X003289D01*X00731Y014716D02*X007253Y014773D01*X007139D01*
X007082Y014716D01*Y014488D01*X007139Y01443D01*X007253D01*
X00731Y014488D01*Y014573D01*X007253Y01463D01*X007139D01*
X007082Y014573D01*X00526Y014423D02*Y014766D01*X005089Y014566D01*
X005317D01*X002096Y016802D02*X002153Y016859D01*Y016516D01*X00221D01*
X002153D02*X002096D01*X016796Y014795D02*X016853Y014852D01*Y014509D01*
X01691D01*X016853D02*X016796D01*X017253D02*Y014852D01*
X017082Y014652D01*X01731D01*X015796Y017302D02*X015853Y017359D01*
Y017016D01*X01591D01*X015853D02*X015796D01*X016082Y017302D02*
X016139Y017359D01*X016253D01*X01631Y017302D01*Y017245D01*
X016253Y017188D01*X01631Y01713D01*Y017073D01*X016253Y017016D01*
X016139D01*X016082Y017073D01*X016253Y017188D02*X016196D01*
X010953Y014402D02*X011182D01*X01346Y009216D02*Y008959D01*
X013489Y00893D01*X013532D01*X01356Y008959D01*X013403Y009159D02*
X013517D01*X013746Y009002D02*Y009088D01*X013817Y009159D01*X013889D01*
X01396Y009088D01*Y009002D01*X013889Y00893D01*X013817D01*
X013746Y009002D01*X014089Y009159D02*Y008802D01*Y009002D02*
X01416Y00893D01*X014232D01*X014303Y009002D01*Y009088D01*
X014232Y009159D01*X01416D01*X014089Y009102D01*X014775Y009188D02*
Y00893D01*Y009088D02*X014846Y009159D01*X014917D01*X014989Y009088D01*
Y00893D01*X015332Y009159D02*Y00893D01*Y008988D02*X015275Y00893D01*
X015175D01*X015117Y008988D01*Y009159D01*X015567Y00893D02*Y009088D01*
X015621Y009159D01*X015675Y009088D01*Y00893D01*X01546Y009088D02*
X015514Y009159D01*X015567Y009087D01*X01546Y009188D02*Y00893D01*
X015803Y009273D02*Y00893D01*Y009002D02*X015875Y00893D01*X015946D01*
X016017Y009002D01*Y009088D01*X015946Y009159D01*X015875D01*
X015803Y009102D01*X016146Y009059D02*X01636D01*Y009088D01*
X016289Y009159D01*X016217D01*X016146Y009102D01*Y009002D01*Y008988D01*
X016203Y00893D01*X016317D01*X01636Y008959D01*X016489Y009188D02*
Y00893D01*X016703Y009116D02*X016632Y009159D01*X01656D01*
X016489Y009116D01*X008053Y016859D02*X008282D01*X00811Y016516D01*
X00096Y006666D02*Y007009D01*X001132D01*X001189Y006952D01*Y006895D01*
X001132Y006838D01*X001189Y00678D01*Y006723D01*X001132Y006666D01*
X00096D01*X001132Y006838D02*X00096D01*X001303Y006795D02*X001517D01*
Y006823D01*X001446Y006895D01*X001375D01*X001303Y006838D01*Y006738D01*
Y006723D01*X00136Y006666D01*X001475D01*X001517Y006695D01*
X001646Y006923D02*Y006666D01*Y006823D02*X001717Y006895D01*X001789D01*
X00186Y006823D01*Y006666D01*X002203Y007009D02*Y006666D01*Y006823D02*
X002132Y006895D01*X00206D01*X001989Y006838D01*Y006738D01*
X00206Y006666D01*X002132D01*X002203Y006738D01*X002675Y007009D02*
X002789Y006666D01*X002903Y007009D01*X003175Y006895D02*Y006866D01*
X003132Y006895D01*X003117D01*X003089Y00688D01*X003046Y006838D01*
X003017Y006766D01*Y006738D01*X003032Y006695D01*X003089Y006666D01*
X00316D01*X003232Y006709D01*X003517Y006895D02*Y006866D01*
X003475Y006895D01*X00346D01*X003432Y00688D01*X003389Y006838D01*
X00336Y006766D01*Y006738D01*X003375Y006695D01*X003432Y006666D01*
X003503D01*X003575Y006709D01*X004046Y006895D02*Y006538D01*Y006738D02*
X004117Y006666D01*X004189D01*X00426Y006738D01*Y006823D01*
X004189Y006895D01*X004117D01*X004046Y006838D01*X004496Y006888D02*
Y006666D01*Y00698D02*Y006988D01*X004732Y006923D02*Y006666D01*
Y006823D02*X004803Y006895D01*X004875D01*X004946Y006823D01*Y006666D01*
X005525Y006888D02*Y006666D01*Y00698D02*Y006988D01*X00576Y006923D02*
Y006666D01*Y006823D02*X005832Y006895D01*X005903D01*X005975Y006823D01*
Y006666D01*X006189D02*X006217D01*X006175Y006623D01*X006203Y00668D01*
X006217Y006666D02*Y006695D01*X006189D01*Y006666D01*X012925Y014402D02*
X013153D01*X009367Y005834D02*X009482Y005491D01*X009596Y005834D01*
X009867Y00572D02*Y005691D01*X009825Y00572D01*X00981D01*
X009782Y005705D01*X009739Y005663D01*X00971Y005591D01*Y005563D01*
X009725Y00552D01*X009782Y005491D01*X009853D01*X009925Y005534D01*
X01021Y00572D02*Y005691D01*X010167Y00572D01*X010153D01*
X010125Y005705D01*X010082Y005663D01*X010053Y005591D01*Y005563D01*
X010067Y00552D01*X010125Y005491D01*X010196D01*X010267Y005534D01*
X017946Y014509D02*X01806Y014166D01*X018175Y014509D01*X018446Y014395D02*
Y014366D01*X018403Y014395D01*X018389D01*X01836Y01438D01*
X018317Y014338D01*X018289Y014266D01*Y014238D01*X018303Y014195D01*
X01836Y014166D01*X018432D01*X018503Y014209D01*X018789Y014395D02*
Y014366D01*X018746Y014395D01*X018732D01*X018703Y01438D01*
X01866Y014338D01*X018632Y014266D01*Y014238D01*X018646Y014195D01*
X018703Y014166D01*X018775D01*X018846Y014209D01*X014925Y014402D02*
X015153D01*X009075Y01473D02*X009117D01*X00926Y014502D01*X009303D01*
Y01473D02*X009075Y014502D01*Y014402D02*X009303D01*X009253Y014123D02*
X00931Y01418D01*Y014238D01*X009253Y014295D01*X009139D01*
X009082Y014238D01*Y01418D01*X009139Y014123D01*X009253D01*
X00931Y014066D01*Y014009D01*X009253Y013952D01*X009139D01*
X009082Y014009D01*Y014066D01*X009139Y014123D01*X010082Y016516D02*
X010139Y016459D01*X010253D01*X01031Y016516D01*Y016745D01*
X010253Y016802D01*X010139D01*X010082Y016745D01*Y016659D01*
X010139Y016602D01*X010253D01*X01031Y016659D01*X010075Y017238D02*
X010117D01*X01026Y017009D01*X010303D01*Y017238D02*X010075Y017009D01*
Y016909D02*X010303D01*X010796Y014238D02*X010853Y014295D01*Y013952D01*
X01091D01*X010853D02*X010796D01*X01131Y014238D02*X011253Y014295D01*
X011139D01*X011082Y014238D01*Y014009D01*X011139Y013952D01*X011253D01*
X01131Y014009D01*Y014238D01*X011196Y01418D02*Y014066D01*
X011953Y017238D02*X011996D01*X012139Y017009D01*X012182D01*Y017238D02*
X011953Y017009D01*X010953Y01473D02*X010996D01*X011139Y014502D01*
X011182D01*Y01473D02*X010953Y014502D01*X016925Y014402D02*X017153D01*
X014796Y014238D02*X014853Y014295D01*Y013952D01*X01491D01*X014853D02*
X014796D01*X015253D02*Y014295D01*X015082Y014095D01*X01531D01*
X01321Y011216D02*Y011559D01*X013382D01*X013439Y011502D01*Y011445D01*
X013382Y011388D01*X01321D01*X01366Y011438D02*Y011216D01*Y01153D02*
Y011538D01*X013782Y011473D02*Y011216D01*Y011373D02*X013853Y011445D01*
X013925D01*X013996Y011373D01*Y011216D01*X014467Y011473D02*Y011216D01*
Y011373D02*X014539Y011445D01*X01461D01*X014682Y011373D01*Y011216D01*
X015025Y011445D02*Y011216D01*Y011273D02*X014967Y011216D01*X014867D01*
X01481Y011273D01*Y011445D01*X01526Y011216D02*Y011373D01*
X015313Y011444D01*X015367Y011373D01*Y011216D01*X015153Y011373D02*
X015206Y011444D01*X01526Y011373D01*X015153Y011473D02*Y011216D01*
X015496Y011559D02*Y011216D01*Y011288D02*X015567Y011216D01*X015639D01*
X01571Y011288D01*Y011373D01*X015639Y011445D01*X015567D01*
X015496Y011388D01*X015839Y011345D02*X016053D01*Y011373D01*
X015982Y011445D01*X01591D01*X015839Y011388D01*Y011288D01*Y011273D01*
X015896Y011216D01*X01601D01*X016053Y011245D01*X016182Y011473D02*
Y011216D01*X016396Y011402D02*X016325Y011445D01*X016253D01*
X016182Y011402D01*X016667Y011216D02*X016596D01*X016525Y011245D02*
X016553Y011216D01*X01671D01*X016739Y011245D01*Y011302D01*
X01671Y01133D01*X016553D01*X016525Y011359D01*Y011416D01*
X016553Y011445D01*X01671D01*X016739Y011416D01*X016953Y011245D02*
X016982D01*Y011273D01*X016953D01*Y011245D01*Y011473D02*X016982D01*
Y011502D01*X016953D01*Y011473D01*X01346Y007216D02*Y006873D01*
Y006945D02*X013532Y006873D01*X013603D01*X013675Y006945D01*Y00703D01*
X013603Y007102D01*X013532D01*X01346Y007045D01*X013803Y006945D02*
Y00703D01*X013875Y007102D01*X013946D01*X014017Y00703D01*Y006945D01*
X013946Y006873D01*X013875D01*X013803Y006945D01*X014203Y007159D02*
Y006902D01*X014232Y006873D01*X014275D01*X014303Y006902D01*
X014146Y007102D02*X01426D01*X014546Y007159D02*Y006902D01*
X014575Y006873D01*X014617D01*X014646Y006902D01*X014489Y007102D02*
X014603D01*X014832Y006945D02*Y00703D01*X014903Y007102D01*X014975D01*
X015046Y00703D01*Y006945D01*X014975Y006873D01*X014903D01*
X014832Y006945D01*X015282Y006873D02*Y00703D01*X015335Y007101D01*
X015389Y00703D01*Y006873D01*X015175Y00703D02*X015228Y007101D01*
X015281Y00703D01*X015175Y00713D02*Y006873D01*X01586Y00713D02*
Y006873D01*Y00703D02*X015932Y007102D01*X016003D01*X016075Y00703D01*
Y006873D01*X016417Y007102D02*Y006873D01*Y00693D02*X01636Y006873D01*
X01626D01*X016203Y00693D01*Y007102D01*X016653Y006873D02*Y00703D01*
X016706Y007101D01*X01676Y00703D01*Y006873D01*X016546Y00703D02*
X016599Y007101D01*X016653Y00703D01*X016546Y00713D02*Y006873D01*
X016889Y007216D02*Y006873D01*Y006945D02*X01696Y006873D01*X017032D01*
X017103Y006945D01*Y00703D01*X017032Y007102D01*X01696D01*
X016889Y007045D01*X017232Y007002D02*X017446D01*Y00703D01*
X017375Y007102D01*X017303D01*X017232Y007045D01*Y006945D01*Y00693D01*
X017289Y006873D01*X017403D01*X017446Y006902D01*X017575Y00713D02*
Y006873D01*X017789Y007059D02*X017717Y007102D01*X017646D01*
X017575Y007059D01*X011953Y016909D02*X012182D01*X015796Y016745D02*
X015853Y016802D01*Y016459D01*X01591D01*X015853D02*X015796D01*
X01631Y016802D02*X016082D01*Y01663D01*X016139Y016688D01*X016253D01*
X01631Y01663D01*Y016516D01*X016253Y016459D01*X016139D01*
X016082Y016516D01*X015925Y016909D02*X016153D01*X016796Y014238D02*
X016853Y014295D01*Y013952D01*X01691D01*X016853D02*X016796D01*
X01731Y014238D02*X017253Y014295D01*X017139D01*X017082Y014238D01*
Y014009D01*X017139Y013952D01*X017253D01*X01731Y014009D01*Y014095D01*
X017253Y014152D01*X017139D01*X017082Y014095D01*D11*X0082Y004845D02*
X008285Y00493D01*Y004416D01*X008371D01*X008285D02*X0082D01*D10*
X013403Y010409D02*X01346Y010466D01*Y010123D01*X013517D01*X01346D02*
X013403D01*X013689Y010295D02*X013917D01*X014032Y010466D02*X01426D01*
X014089Y010123D01*X014803D02*Y010438D01*X014832Y010466D01*X014889D01*
X014917Y010438D01*Y010423D01*X014746Y010295D02*X01486D01*
X01506Y010195D02*Y01028D01*X015132Y010352D01*X015203D01*
X015275Y01028D01*Y010195D01*X015203Y010123D01*X015132D01*
X01506Y010195D01*X015403Y01038D02*Y010123D01*X015617Y010309D02*
X015546Y010352D01*X015475D01*X015403Y010309D01*X016317Y010123D02*
Y010352D01*X016089Y010198D02*X016109Y010269D01*X01614Y010318D01*
X01618Y010343D01*X016209Y010352D01*X016232D01*X016272D01*
X016317Y010329D01*X016089Y010195D02*Y010178D01*X016092Y010166D01*
X0161Y010152D01*X01612Y01014D01*X01616Y010123D01*X016223D01*
X016283Y010149D01*X016317Y01018D01*X016489Y010123D02*Y010466D01*
X016832Y010123D02*Y010466D01*X017617Y010352D02*Y010323D01*
X017575Y010352D01*X01756D01*X017532Y010338D01*X017489Y010295D01*
X01746Y010223D01*Y010195D01*X017475Y010152D01*X017532Y010123D01*
X017603D01*X017675Y010166D01*X017803Y010466D02*Y010123D01*Y010295D02*
X017875Y010352D01*X017946D01*X018017Y01028D01*Y010123D01*
X018253Y010345D02*Y010123D01*Y010438D02*Y010445D01*X018489Y010352D02*
Y009995D01*Y010195D02*X01856Y010123D01*X018632D01*X018703Y010195D01*
Y01028D01*X018632Y010352D01*X01856D01*X018489Y010295D01*
X018975Y010123D02*X018903D01*X018832Y010152D02*X01886Y010123D01*
X019017D01*X019046Y010152D01*Y010209D01*X019017Y010238D01*X01886D01*
X018832Y010266D01*Y010323D01*X01886Y010352D01*X019017D01*
X019046Y010323D01*X014796Y014795D02*X014853Y014852D01*Y014509D01*
X01491D01*X014853D02*X014796D01*X015082Y014795D02*X015139Y014852D01*
X015253D01*X01531Y014795D01*Y014738D01*X015253Y01468D01*
X015082Y014566D01*Y014509D01*X01531D01*X012796Y014795D02*
X012853Y014852D01*Y014509D01*X01291D01*X012853D02*X012796D01*
X01331Y014795D02*X013253Y014852D01*X013139D01*X013082Y014795D01*
Y014566D01*X013139Y014509D01*X013253D01*X01331Y014566D01*Y014795D01*
X013196Y014738D02*Y014623D01*X013903Y016909D02*X014132D01*
X006267Y016859D02*X006039D01*Y016688D01*X006096Y016745D01*X00621D01*
X006267Y016688D01*Y016573D01*X00621Y016516D01*X006096D01*
X006039Y016573D01*D11*X018471Y003716D02*X018985D01*Y003459D01*
X0189Y003373D01*X018814D01*X018728Y003459D01*X018642Y003373D01*
X018557D01*X018471Y003459D01*Y003716D01*X018728Y003459D02*Y003716D01*
X0189Y002859D02*X018985Y002945D01*Y003116D01*X0189Y003202D01*
X018557D01*X018471Y003116D01*Y002945D01*X018557Y002859D01*X0189D01*
X018471Y002516D02*X018985D01*Y002345D01*Y002516D02*Y002688D01*
X018471Y002002D02*X018985D01*Y00183D01*Y002002D02*Y002173D01*
X0189Y001316D02*X018985Y001402D01*Y001573D01*X0189Y001659D01*
X018557D01*X018471Y001573D01*Y001402D01*X018557Y001316D01*X0189D01*
X018471Y001145D02*X018985D01*X018728Y000973D01*X018985Y000802D01*
X018471D01*D10*X013796Y017302D02*X013853Y017359D01*Y017016D01*
X01391D01*X013853D02*X013796D01*X014139Y017302D02*X014196Y017359D01*
Y017016D01*X014253D01*X014196D02*X014139D01*X012796Y014238D02*
X012853Y014295D01*Y013952D01*X01291D01*X012853D02*X012796D01*
X013082Y014238D02*X013139Y014295D01*X013253D01*X01331Y014238D01*
Y01418D01*X013253Y014123D01*X013082Y014009D01*Y013952D01*X01331D01*
X004039Y016802D02*X004096Y016859D01*X00421D01*X004267Y016802D01*
Y016745D01*X00421Y016688D01*X004267Y01663D01*Y016573D01*
X00421Y016516D01*X004096D01*X004039Y016573D01*X00421Y016688D02*
X004153D01*X001203Y014452D02*X001146Y014509D01*X001032D01*
X000975Y014452D01*Y014223D01*X001032Y014166D01*X001146D01*
X001203Y014223D01*Y014309D01*X001146D01*X001317Y014166D02*Y014509D01*
X001546Y014166D01*Y014509D01*X001889Y014452D02*X001832Y014509D01*
X00166D01*Y014166D01*X001832D01*X001889Y014223D01*Y014452D01*D12*
X01196Y004091D02*Y003716D01*X01221D02*X01171D01*X011835Y003591D02*
X012085D01*X011973Y003466D02*X011948D01*X009585Y005216D02*Y005416D01*
X009485Y005316D02*X009685D01*
M02*