%FSTAX24Y24*%
%MOIN*%
%IN card16pad.gts *%
%ADD10C,0.0100*%
%ADD11C,0.0300*%
%ADD12C,0.0800*%
%ADD13R,0.0800X0.0800*%
D10*X012277Y004875D02*G01X007677D01*Y013175D01*X012277D01*Y004875D01*
G36*G01X007677D01*Y013175D01*X012277D01*Y004875D01*G37*
X00071Y017366D02*G01Y020866D01*X019335D01*Y017366D01*X00071D01*G36*
G01Y020866D01*X019335D01*Y017366D01*X00071D01*G37*X00246Y015666D02*
G01X002538Y015676D01*X00261Y015706D01*X002672Y015754D01*
X00272Y015816D01*X00275Y015888D01*X00276Y015966D01*Y016166D01*
X00275Y016244D01*X00272Y016316D01*X002672Y016378D01*X00261Y016426D01*
X002538Y016456D01*X00246Y016466D01*X002383Y016456D01*X00231Y016426D01*
X002248Y016378D01*X0022Y016316D01*X00217Y016244D01*X00216Y016166D01*
Y015966D01*X00217Y015888D01*X0022Y015816D01*X002248Y015754D01*
X00231Y015706D01*X002383Y015676D01*X00246Y015666D01*G36*
G01X002538Y015676D01*X00261Y015706D01*X002672Y015754D01*
X00272Y015816D01*X00275Y015888D01*X00276Y015966D01*Y016166D01*
X00275Y016244D01*X00272Y016316D01*X002672Y016378D01*X00261Y016426D01*
X002538Y016456D01*X00246Y016466D01*X002383Y016456D01*X00231Y016426D01*
X002248Y016378D01*X0022Y016316D01*X00217Y016244D01*X00216Y016166D01*
Y015966D01*X00217Y015888D01*X0022Y015816D01*X002248Y015754D01*
X00231Y015706D01*X002383Y015676D01*X00246Y015666D01*G37*X00446D02*
G01X004538Y015676D01*X00461Y015706D01*X004672Y015754D01*
X00472Y015816D01*X00475Y015888D01*X00476Y015966D01*Y016166D01*
X00475Y016244D01*X00472Y016316D01*X004672Y016378D01*X00461Y016426D01*
X004538Y016456D01*X00446Y016466D01*X004383Y016456D01*X00431Y016426D01*
X004248Y016378D01*X0042Y016316D01*X00417Y016244D01*X00416Y016166D01*
Y015966D01*X00417Y015888D01*X0042Y015816D01*X004248Y015754D01*
X00431Y015706D01*X004383Y015676D01*X00446Y015666D01*G36*
G01X004538Y015676D01*X00461Y015706D01*X004672Y015754D01*
X00472Y015816D01*X00475Y015888D01*X00476Y015966D01*Y016166D01*
X00475Y016244D01*X00472Y016316D01*X004672Y016378D01*X00461Y016426D01*
X004538Y016456D01*X00446Y016466D01*X004383Y016456D01*X00431Y016426D01*
X004248Y016378D01*X0042Y016316D01*X00417Y016244D01*X00416Y016166D01*
Y015966D01*X00417Y015888D01*X0042Y015816D01*X004248Y015754D01*
X00431Y015706D01*X004383Y015676D01*X00446Y015666D01*G37*X00646D02*
G01X006538Y015676D01*X00661Y015706D01*X006672Y015754D01*
X00672Y015816D01*X00675Y015888D01*X00676Y015966D01*Y016166D01*
X00675Y016244D01*X00672Y016316D01*X006672Y016378D01*X00661Y016426D01*
X006538Y016456D01*X00646Y016466D01*X006383Y016456D01*X00631Y016426D01*
X006248Y016378D01*X0062Y016316D01*X00617Y016244D01*X00616Y016166D01*
Y015966D01*X00617Y015888D01*X0062Y015816D01*X006248Y015754D01*
X00631Y015706D01*X006383Y015676D01*X00646Y015666D01*G36*
G01X006538Y015676D01*X00661Y015706D01*X006672Y015754D01*
X00672Y015816D01*X00675Y015888D01*X00676Y015966D01*Y016166D01*
X00675Y016244D01*X00672Y016316D01*X006672Y016378D01*X00661Y016426D01*
X006538Y016456D01*X00646Y016466D01*X006383Y016456D01*X00631Y016426D01*
X006248Y016378D01*X0062Y016316D01*X00617Y016244D01*X00616Y016166D01*
Y015966D01*X00617Y015888D01*X0062Y015816D01*X006248Y015754D01*
X00631Y015706D01*X006383Y015676D01*X00646Y015666D01*G37*X00846D02*
G01X008538Y015676D01*X00861Y015706D01*X008672Y015754D01*
X00872Y015816D01*X00875Y015888D01*X00876Y015966D01*Y016166D01*
X00875Y016244D01*X00872Y016316D01*X008672Y016378D01*X00861Y016426D01*
X008538Y016456D01*X00846Y016466D01*X008383Y016456D01*X00831Y016426D01*
X008248Y016378D01*X0082Y016316D01*X00817Y016244D01*X00816Y016166D01*
Y015966D01*X00817Y015888D01*X0082Y015816D01*X008248Y015754D01*
X00831Y015706D01*X008383Y015676D01*X00846Y015666D01*G36*
G01X008538Y015676D01*X00861Y015706D01*X008672Y015754D01*
X00872Y015816D01*X00875Y015888D01*X00876Y015966D01*Y016166D01*
X00875Y016244D01*X00872Y016316D01*X008672Y016378D01*X00861Y016426D01*
X008538Y016456D01*X00846Y016466D01*X008383Y016456D01*X00831Y016426D01*
X008248Y016378D01*X0082Y016316D01*X00817Y016244D01*X00816Y016166D01*
Y015966D01*X00817Y015888D01*X0082Y015816D01*X008248Y015754D01*
X00831Y015706D01*X008383Y015676D01*X00846Y015666D01*G37*X01046D02*
G01X010538Y015676D01*X01061Y015706D01*X010672Y015754D01*
X01072Y015816D01*X01075Y015888D01*X01076Y015966D01*Y016166D01*
X01075Y016244D01*X01072Y016316D01*X010672Y016378D01*X01061Y016426D01*
X010538Y016456D01*X01046Y016466D01*X010383Y016456D01*X01031Y016426D01*
X010248Y016378D01*X0102Y016316D01*X01017Y016244D01*X01016Y016166D01*
Y015966D01*X01017Y015888D01*X0102Y015816D01*X010248Y015754D01*
X01031Y015706D01*X010383Y015676D01*X01046Y015666D01*G36*
G01X010538Y015676D01*X01061Y015706D01*X010672Y015754D01*
X01072Y015816D01*X01075Y015888D01*X01076Y015966D01*Y016166D01*
X01075Y016244D01*X01072Y016316D01*X010672Y016378D01*X01061Y016426D01*
X010538Y016456D01*X01046Y016466D01*X010383Y016456D01*X01031Y016426D01*
X010248Y016378D01*X0102Y016316D01*X01017Y016244D01*X01016Y016166D01*
Y015966D01*X01017Y015888D01*X0102Y015816D01*X010248Y015754D01*
X01031Y015706D01*X010383Y015676D01*X01046Y015666D01*G37*X01246D02*
G01X012538Y015676D01*X01261Y015706D01*X012672Y015754D01*
X01272Y015816D01*X01275Y015888D01*X01276Y015966D01*Y016166D01*
X01275Y016244D01*X01272Y016316D01*X012672Y016378D01*X01261Y016426D01*
X012538Y016456D01*X01246Y016466D01*X012383Y016456D01*X01231Y016426D01*
X012248Y016378D01*X0122Y016316D01*X01217Y016244D01*X01216Y016166D01*
Y015966D01*X01217Y015888D01*X0122Y015816D01*X012248Y015754D01*
X01231Y015706D01*X012383Y015676D01*X01246Y015666D01*G36*
G01X012538Y015676D01*X01261Y015706D01*X012672Y015754D01*
X01272Y015816D01*X01275Y015888D01*X01276Y015966D01*Y016166D01*
X01275Y016244D01*X01272Y016316D01*X012672Y016378D01*X01261Y016426D01*
X012538Y016456D01*X01246Y016466D01*X012383Y016456D01*X01231Y016426D01*
X012248Y016378D01*X0122Y016316D01*X01217Y016244D01*X01216Y016166D01*
Y015966D01*X01217Y015888D01*X0122Y015816D01*X012248Y015754D01*
X01231Y015706D01*X012383Y015676D01*X01246Y015666D01*G37*X01446D02*
G01X014538Y015676D01*X01461Y015706D01*X014672Y015754D01*
X01472Y015816D01*X01475Y015888D01*X01476Y015966D01*Y016166D01*
X01475Y016244D01*X01472Y016316D01*X014672Y016378D01*X01461Y016426D01*
X014538Y016456D01*X01446Y016466D01*X014383Y016456D01*X01431Y016426D01*
X014248Y016378D01*X0142Y016316D01*X01417Y016244D01*X01416Y016166D01*
Y015966D01*X01417Y015888D01*X0142Y015816D01*X014248Y015754D01*
X01431Y015706D01*X014383Y015676D01*X01446Y015666D01*G36*
G01X014538Y015676D01*X01461Y015706D01*X014672Y015754D01*
X01472Y015816D01*X01475Y015888D01*X01476Y015966D01*Y016166D01*
X01475Y016244D01*X01472Y016316D01*X014672Y016378D01*X01461Y016426D01*
X014538Y016456D01*X01446Y016466D01*X014383Y016456D01*X01431Y016426D01*
X014248Y016378D01*X0142Y016316D01*X01417Y016244D01*X01416Y016166D01*
Y015966D01*X01417Y015888D01*X0142Y015816D01*X014248Y015754D01*
X01431Y015706D01*X014383Y015676D01*X01446Y015666D01*G37*X01646D02*
G01X016538Y015676D01*X01661Y015706D01*X016672Y015754D01*
X01672Y015816D01*X01675Y015888D01*X01676Y015966D01*Y016166D01*
X01675Y016244D01*X01672Y016316D01*X016672Y016378D01*X01661Y016426D01*
X016538Y016456D01*X01646Y016466D01*X016383Y016456D01*X01631Y016426D01*
X016248Y016378D01*X0162Y016316D01*X01617Y016244D01*X01616Y016166D01*
Y015966D01*X01617Y015888D01*X0162Y015816D01*X016248Y015754D01*
X01631Y015706D01*X016383Y015676D01*X01646Y015666D01*G36*
G01X016538Y015676D01*X01661Y015706D01*X016672Y015754D01*
X01672Y015816D01*X01675Y015888D01*X01676Y015966D01*Y016166D01*
X01675Y016244D01*X01672Y016316D01*X016672Y016378D01*X01661Y016426D01*
X016538Y016456D01*X01646Y016466D01*X016383Y016456D01*X01631Y016426D01*
X016248Y016378D01*X0162Y016316D01*X01617Y016244D01*X01616Y016166D01*
Y015966D01*X01617Y015888D01*X0162Y015816D01*X016248Y015754D01*
X01631Y015706D01*X016383Y015676D01*X01646Y015666D01*G37*
X00346Y014866D02*G01X003538Y014876D01*X00361Y014906D01*
X003672Y014954D01*X00372Y015016D01*X00375Y015088D01*X00376Y015166D01*
Y015366D01*X00375Y015444D01*X00372Y015516D01*X003672Y015578D01*
X00361Y015626D01*X003538Y015656D01*X00346Y015666D01*X003383Y015656D01*
X00331Y015626D01*X003248Y015578D01*X0032Y015516D01*X00317Y015444D01*
X00316Y015366D01*Y015166D01*X00317Y015088D01*X0032Y015016D01*
X003248Y014954D01*X00331Y014906D01*X003383Y014876D01*X00346Y014866D01*
G36*G01X003538Y014876D01*X00361Y014906D01*X003672Y014954D01*
X00372Y015016D01*X00375Y015088D01*X00376Y015166D01*Y015366D01*
X00375Y015444D01*X00372Y015516D01*X003672Y015578D01*X00361Y015626D01*
X003538Y015656D01*X00346Y015666D01*X003383Y015656D01*X00331Y015626D01*
X003248Y015578D01*X0032Y015516D01*X00317Y015444D01*X00316Y015366D01*
Y015166D01*X00317Y015088D01*X0032Y015016D01*X003248Y014954D01*
X00331Y014906D01*X003383Y014876D01*X00346Y014866D01*G37*X00546D02*
G01X005538Y014876D01*X00561Y014906D01*X005672Y014954D01*
X00572Y015016D01*X00575Y015088D01*X00576Y015166D01*Y015366D01*
X00575Y015444D01*X00572Y015516D01*X005672Y015578D01*X00561Y015626D01*
X005538Y015656D01*X00546Y015666D01*X005383Y015656D01*X00531Y015626D01*
X005248Y015578D01*X0052Y015516D01*X00517Y015444D01*X00516Y015366D01*
Y015166D01*X00517Y015088D01*X0052Y015016D01*X005248Y014954D01*
X00531Y014906D01*X005383Y014876D01*X00546Y014866D01*G36*
G01X005538Y014876D01*X00561Y014906D01*X005672Y014954D01*
X00572Y015016D01*X00575Y015088D01*X00576Y015166D01*Y015366D01*
X00575Y015444D01*X00572Y015516D01*X005672Y015578D01*X00561Y015626D01*
X005538Y015656D01*X00546Y015666D01*X005383Y015656D01*X00531Y015626D01*
X005248Y015578D01*X0052Y015516D01*X00517Y015444D01*X00516Y015366D01*
Y015166D01*X00517Y015088D01*X0052Y015016D01*X005248Y014954D01*
X00531Y014906D01*X005383Y014876D01*X00546Y014866D01*G37*X00746D02*
G01X007538Y014876D01*X00761Y014906D01*X007672Y014954D01*
X00772Y015016D01*X00775Y015088D01*X00776Y015166D01*Y015366D01*
X00775Y015444D01*X00772Y015516D01*X007672Y015578D01*X00761Y015626D01*
X007538Y015656D01*X00746Y015666D01*X007383Y015656D01*X00731Y015626D01*
X007248Y015578D01*X0072Y015516D01*X00717Y015444D01*X00716Y015366D01*
Y015166D01*X00717Y015088D01*X0072Y015016D01*X007248Y014954D01*
X00731Y014906D01*X007383Y014876D01*X00746Y014866D01*G36*
G01X007538Y014876D01*X00761Y014906D01*X007672Y014954D01*
X00772Y015016D01*X00775Y015088D01*X00776Y015166D01*Y015366D01*
X00775Y015444D01*X00772Y015516D01*X007672Y015578D01*X00761Y015626D01*
X007538Y015656D01*X00746Y015666D01*X007383Y015656D01*X00731Y015626D01*
X007248Y015578D01*X0072Y015516D01*X00717Y015444D01*X00716Y015366D01*
Y015166D01*X00717Y015088D01*X0072Y015016D01*X007248Y014954D01*
X00731Y014906D01*X007383Y014876D01*X00746Y014866D01*G37*X00946D02*
G01X009538Y014876D01*X00961Y014906D01*X009672Y014954D01*
X00972Y015016D01*X00975Y015088D01*X00976Y015166D01*Y015366D01*
X00975Y015444D01*X00972Y015516D01*X009672Y015578D01*X00961Y015626D01*
X009538Y015656D01*X00946Y015666D01*X009383Y015656D01*X00931Y015626D01*
X009248Y015578D01*X0092Y015516D01*X00917Y015444D01*X00916Y015366D01*
Y015166D01*X00917Y015088D01*X0092Y015016D01*X009248Y014954D01*
X00931Y014906D01*X009383Y014876D01*X00946Y014866D01*G36*
G01X009538Y014876D01*X00961Y014906D01*X009672Y014954D01*
X00972Y015016D01*X00975Y015088D01*X00976Y015166D01*Y015366D01*
X00975Y015444D01*X00972Y015516D01*X009672Y015578D01*X00961Y015626D01*
X009538Y015656D01*X00946Y015666D01*X009383Y015656D01*X00931Y015626D01*
X009248Y015578D01*X0092Y015516D01*X00917Y015444D01*X00916Y015366D01*
Y015166D01*X00917Y015088D01*X0092Y015016D01*X009248Y014954D01*
X00931Y014906D01*X009383Y014876D01*X00946Y014866D01*G37*X01146D02*
G01X011538Y014876D01*X01161Y014906D01*X011672Y014954D01*
X01172Y015016D01*X01175Y015088D01*X01176Y015166D01*Y015366D01*
X01175Y015444D01*X01172Y015516D01*X011672Y015578D01*X01161Y015626D01*
X011538Y015656D01*X01146Y015666D01*X011383Y015656D01*X01131Y015626D01*
X011248Y015578D01*X0112Y015516D01*X01117Y015444D01*X01116Y015366D01*
Y015166D01*X01117Y015088D01*X0112Y015016D01*X011248Y014954D01*
X01131Y014906D01*X011383Y014876D01*X01146Y014866D01*G36*
G01X011538Y014876D01*X01161Y014906D01*X011672Y014954D01*
X01172Y015016D01*X01175Y015088D01*X01176Y015166D01*Y015366D01*
X01175Y015444D01*X01172Y015516D01*X011672Y015578D01*X01161Y015626D01*
X011538Y015656D01*X01146Y015666D01*X011383Y015656D01*X01131Y015626D01*
X011248Y015578D01*X0112Y015516D01*X01117Y015444D01*X01116Y015366D01*
Y015166D01*X01117Y015088D01*X0112Y015016D01*X011248Y014954D01*
X01131Y014906D01*X011383Y014876D01*X01146Y014866D01*G37*X01346D02*
G01X013538Y014876D01*X01361Y014906D01*X013672Y014954D01*
X01372Y015016D01*X01375Y015088D01*X01376Y015166D01*Y015366D01*
X01375Y015444D01*X01372Y015516D01*X013672Y015578D01*X01361Y015626D01*
X013538Y015656D01*X01346Y015666D01*X013383Y015656D01*X01331Y015626D01*
X013248Y015578D01*X0132Y015516D01*X01317Y015444D01*X01316Y015366D01*
Y015166D01*X01317Y015088D01*X0132Y015016D01*X013248Y014954D01*
X01331Y014906D01*X013383Y014876D01*X01346Y014866D01*G36*
G01X013538Y014876D01*X01361Y014906D01*X013672Y014954D01*
X01372Y015016D01*X01375Y015088D01*X01376Y015166D01*Y015366D01*
X01375Y015444D01*X01372Y015516D01*X013672Y015578D01*X01361Y015626D01*
X013538Y015656D01*X01346Y015666D01*X013383Y015656D01*X01331Y015626D01*
X013248Y015578D01*X0132Y015516D01*X01317Y015444D01*X01316Y015366D01*
Y015166D01*X01317Y015088D01*X0132Y015016D01*X013248Y014954D01*
X01331Y014906D01*X013383Y014876D01*X01346Y014866D01*G37*X01546D02*
G01X015538Y014876D01*X01561Y014906D01*X015672Y014954D01*
X01572Y015016D01*X01575Y015088D01*X01576Y015166D01*Y015366D01*
X01575Y015444D01*X01572Y015516D01*X015672Y015578D01*X01561Y015626D01*
X015538Y015656D01*X01546Y015666D01*X015383Y015656D01*X01531Y015626D01*
X015248Y015578D01*X0152Y015516D01*X01517Y015444D01*X01516Y015366D01*
Y015166D01*X01517Y015088D01*X0152Y015016D01*X015248Y014954D01*
X01531Y014906D01*X015383Y014876D01*X01546Y014866D01*G36*
G01X015538Y014876D01*X01561Y014906D01*X015672Y014954D01*
X01572Y015016D01*X01575Y015088D01*X01576Y015166D01*Y015366D01*
X01575Y015444D01*X01572Y015516D01*X015672Y015578D01*X01561Y015626D01*
X015538Y015656D01*X01546Y015666D01*X015383Y015656D01*X01531Y015626D01*
X015248Y015578D01*X0152Y015516D01*X01517Y015444D01*X01516Y015366D01*
Y015166D01*X01517Y015088D01*X0152Y015016D01*X015248Y014954D01*
X01531Y014906D01*X015383Y014876D01*X01546Y014866D01*G37*X01746D02*
G01X017538Y014876D01*X01761Y014906D01*X017672Y014954D01*
X01772Y015016D01*X01775Y015088D01*X01776Y015166D01*Y015366D01*
X01775Y015444D01*X01772Y015516D01*X017672Y015578D01*X01761Y015626D01*
X017538Y015656D01*X01746Y015666D01*X017383Y015656D01*X01731Y015626D01*
X017248Y015578D01*X0172Y015516D01*X01717Y015444D01*X01716Y015366D01*
Y015166D01*X01717Y015088D01*X0172Y015016D01*X017248Y014954D01*
X01731Y014906D01*X017383Y014876D01*X01746Y014866D01*G36*
G01X017538Y014876D01*X01761Y014906D01*X017672Y014954D01*
X01772Y015016D01*X01775Y015088D01*X01776Y015166D01*Y015366D01*
X01775Y015444D01*X01772Y015516D01*X017672Y015578D01*X01761Y015626D01*
X017538Y015656D01*X01746Y015666D01*X017383Y015656D01*X01731Y015626D01*
X017248Y015578D01*X0172Y015516D01*X01717Y015444D01*X01716Y015366D01*
Y015166D01*X01717Y015088D01*X0172Y015016D01*X017248Y014954D01*
X01731Y014906D01*X017383Y014876D01*X01746Y014866D01*G37*
%LPC*%
%LPD*%
D12*X01146Y005591D03*X00846Y011591D03*Y010591D03*Y009591D03*Y008591D03*
Y007591D03*Y006591D03*D13*Y005591D03*D12*X01146Y006591D03*Y007591D03*
Y008591D03*Y009591D03*Y010591D03*Y011591D03*Y012591D03*X00846D03*
M02*