%FSTAX24Y24*%
%MOIN*%
%IN card16pad.gtl *%
%ADD10C,0.0100*%
%ADD11C,0.0150*%
%ADD12C,0.0200*%
%ADD13C,0.0300*%
%ADD14C,0.0600*%
%ADD15R,0.0600X0.0600*%
D14*X01146Y005591D03*X00846Y011591D03*Y010591D03*Y009591D03*Y008591D03*
Y007591D03*Y006591D03*D15*Y005591D03*D14*X01146Y006591D03*Y007591D03*
Y008591D03*Y009591D03*Y010591D03*Y011591D03*Y012591D03*X00846D03*D13*
X01546Y013866D03*X00346D03*X01346D03*X00146D03*X00746D03*X00546D03*
X01446D03*X01646D03*X01846D03*X01746D03*X01146D03*X00946D03*X00246D03*
X00446D03*X00646D03*X00846D03*X01046D03*X01246D03*D14*X01746Y020216D02*
G01Y017716D01*X01046Y020216D02*Y017716D01*X01646Y020216D02*Y017716D01*
X01546Y020216D02*Y017716D01*X00646Y020216D02*Y017716D01*
X00546Y020216D02*Y017716D01*X00146Y020216D02*Y017716D01*
X00246Y020216D02*Y017716D01*X01146Y020216D02*Y017716D01*
X01246Y020216D02*Y017716D01*X00946Y020216D02*Y017716D01*
X01846Y020216D02*Y017716D01*X00846Y020216D02*Y017716D01*
X00746Y020216D02*Y017716D01*X01446Y020216D02*Y017716D01*
X01346Y020216D02*Y017716D01*X00346Y020216D02*Y017716D01*
X00446Y020216D02*Y017716D01*D12*X00146Y017591D02*Y013466D01*
X00156Y013366D01*X00776D01*X00786Y013266D01*D13*Y004191D01*D12*
X01206D01*D13*Y012691D01*D12*X01846Y017591D02*Y013466D01*
X01836Y013366D01*X00916D01*D13*X01086Y013266D02*Y004866D01*D12*
X00906D01*D11*X00246Y016216D02*Y017441D01*X00346Y018191D02*Y015416D01*
X00446Y016216D02*Y017591D01*X00546Y015416D02*Y018191D01*
X00646Y016216D02*Y017591D01*X00746Y015416D02*Y018191D01*
X00846Y016216D02*Y017591D01*X00946Y015416D02*Y018191D01*
X01046Y016216D02*Y017591D01*X01146Y015416D02*Y018191D01*
X01246Y016216D02*Y017591D01*X01346Y015416D02*Y018191D01*
X01446Y016216D02*Y017591D01*X01546Y015416D02*Y018191D01*
X01646Y016216D02*Y017591D01*X01746Y015416D02*Y018191D01*
X00246Y013866D02*Y015916D01*X00346Y015116D02*Y013866D01*X00446D02*
Y015916D01*X00546Y013866D02*Y015116D01*X00646Y013866D02*Y015916D01*
X00746Y013866D02*Y015116D01*X00846Y013866D02*Y015916D01*
X00946Y013866D02*Y015116D01*X01046Y013866D02*Y015916D01*
X01146Y013866D02*Y015116D01*X01246Y013866D02*Y015916D01*
X01346Y013866D02*Y015116D01*X01446Y013866D02*Y015916D01*
X01546Y013866D02*Y015116D01*X01646Y013866D02*Y015916D01*
X01746Y013866D02*Y015116D01*D10*X01721Y015366D02*X017222Y015443D01*
X017258Y015513D01*X017313Y015568D01*X017383Y015604D01*X01746Y015616D01*
X017537Y015604D01*X017607Y015568D01*X017662Y015513D01*
X017698Y015443D01*X01771Y015366D01*X01721D01*X01741Y015516D02*
X01731D01*X01761D01*X01726Y015466D02*X01766D01*X01771Y015166D02*
X017698Y015089D01*X017662Y015019D01*X017607Y014964D01*
X017537Y014928D01*X01746Y014916D01*X017383Y014928D01*X017313Y014964D01*
X017258Y015019D01*X017222Y015089D01*X01721Y015166D01*X01771D01*
X01751Y015016D02*X01761D01*X01731D01*X01766Y015066D02*X01726D01*
X01521Y015366D02*X015222Y015443D01*X015258Y015513D01*X015313Y015568D01*
X015383Y015604D01*X01546Y015616D01*X015537Y015604D01*X015607Y015568D01*
X015662Y015513D01*X015698Y015443D01*X01571Y015366D01*X01521D01*
X01541Y015516D02*X01531D01*X01561D01*X01526Y015466D02*X01566D01*
X01571Y015166D02*X015698Y015089D01*X015662Y015019D01*X015607Y014964D01*
X015537Y014928D01*X01546Y014916D01*X015383Y014928D01*X015313Y014964D01*
X015258Y015019D01*X015222Y015089D01*X01521Y015166D01*X01571D01*
X01551Y015016D02*X01561D01*X01531D01*X01566Y015066D02*X01526D01*
X01321Y015366D02*X013222Y015443D01*X013258Y015513D01*X013313Y015568D01*
X013383Y015604D01*X01346Y015616D01*X013537Y015604D01*X013607Y015568D01*
X013662Y015513D01*X013698Y015443D01*X01371Y015366D01*X01321D01*
X01341Y015516D02*X01331D01*X01361D01*X01326Y015466D02*X01366D01*
X01371Y015166D02*X013698Y015089D01*X013662Y015019D01*X013607Y014964D01*
X013537Y014928D01*X01346Y014916D01*X013383Y014928D01*X013313Y014964D01*
X013258Y015019D01*X013222Y015089D01*X01321Y015166D01*X01371D01*
X01351Y015016D02*X01361D01*X01331D01*X01366Y015066D02*X01326D01*
X01121Y015366D02*X011222Y015443D01*X011258Y015513D01*X011313Y015568D01*
X011383Y015604D01*X01146Y015616D01*X011537Y015604D01*X011607Y015568D01*
X011662Y015513D01*X011698Y015443D01*X01171Y015366D01*X01121D01*
X01141Y015516D02*X01131D01*X01161D01*X01126Y015466D02*X01166D01*
X01171Y015166D02*X011698Y015089D01*X011662Y015019D01*X011607Y014964D01*
X011537Y014928D01*X01146Y014916D01*X011383Y014928D01*X011313Y014964D01*
X011258Y015019D01*X011222Y015089D01*X01121Y015166D01*X01171D01*
X01151Y015016D02*X01161D01*X01131D01*X01166Y015066D02*X01126D01*
X00921Y015366D02*X009222Y015443D01*X009258Y015513D01*X009313Y015568D01*
X009383Y015604D01*X00946Y015616D01*X009537Y015604D01*X009607Y015568D01*
X009662Y015513D01*X009698Y015443D01*X00971Y015366D01*X00921D01*
X00941Y015516D02*X00931D01*X00961D01*X00926Y015466D02*X00966D01*
X00971Y015166D02*X009698Y015089D01*X009662Y015019D01*X009607Y014964D01*
X009537Y014928D01*X00946Y014916D01*X009383Y014928D01*X009313Y014964D01*
X009258Y015019D01*X009222Y015089D01*X00921Y015166D01*X00971D01*
X00951Y015016D02*X00961D01*X00931D01*X00966Y015066D02*X00926D01*
X00721Y015366D02*X007222Y015443D01*X007258Y015513D01*X007313Y015568D01*
X007383Y015604D01*X00746Y015616D01*X007537Y015604D01*X007607Y015568D01*
X007662Y015513D01*X007698Y015443D01*X00771Y015366D01*X00721D01*
X00741Y015516D02*X00731D01*X00761D01*X00726Y015466D02*X00766D01*
X00771Y015166D02*X007698Y015089D01*X007662Y015019D01*X007607Y014964D01*
X007537Y014928D01*X00746Y014916D01*X007383Y014928D01*X007313Y014964D01*
X007258Y015019D01*X007222Y015089D01*X00721Y015166D01*X00771D01*
X00751Y015016D02*X00761D01*X00731D01*X00766Y015066D02*X00726D01*
X00521Y015366D02*X005222Y015443D01*X005258Y015513D01*X005313Y015568D01*
X005383Y015604D01*X00546Y015616D01*X005537Y015604D01*X005607Y015568D01*
X005662Y015513D01*X005698Y015443D01*X00571Y015366D01*X00521D01*
X00541Y015516D02*X00531D01*X00561D01*X00526Y015466D02*X00566D01*
X00571Y015166D02*X005698Y015089D01*X005662Y015019D01*X005607Y014964D01*
X005537Y014928D01*X00546Y014916D01*X005383Y014928D01*X005313Y014964D01*
X005258Y015019D01*X005222Y015089D01*X00521Y015166D01*X00571D01*
X00551Y015016D02*X00561D01*X00531D01*X00566Y015066D02*X00526D01*
X00321Y015366D02*X003222Y015443D01*X003258Y015513D01*X003313Y015568D01*
X003383Y015604D01*X00346Y015616D01*X003537Y015604D01*X003607Y015568D01*
X003662Y015513D01*X003698Y015443D01*X00371Y015366D01*X00321D01*
X00341Y015516D02*X00331D01*X00361D01*X00326Y015466D02*X00366D01*
X00371Y015166D02*X003698Y015089D01*X003662Y015019D01*X003607Y014964D01*
X003537Y014928D01*X00346Y014916D01*X003383Y014928D01*X003313Y014964D01*
X003258Y015019D01*X003222Y015089D01*X00321Y015166D01*X00371D01*
X00351Y015016D02*X00361D01*X00331D01*X00366Y015066D02*X00326D01*
X01621Y016166D02*X016222Y016243D01*X016258Y016313D01*X016313Y016368D01*
X016383Y016404D01*X01646Y016416D01*X016537Y016404D01*X016607Y016368D01*
X016662Y016313D01*X016698Y016243D01*X01671Y016166D01*X01621D01*
X01641Y016316D02*X01631D01*X01661D01*X01626Y016266D02*X01666D01*
X01671Y015966D02*X016698Y015889D01*X016662Y015819D01*X016607Y015764D01*
X016537Y015728D01*X01646Y015716D01*X016383Y015728D01*X016313Y015764D01*
X016258Y015819D01*X016222Y015889D01*X01621Y015966D01*X01671D01*
X01651Y015816D02*X01661D01*X01631D01*X01666Y015866D02*X01626D01*
X01421Y016166D02*X014222Y016243D01*X014258Y016313D01*X014313Y016368D01*
X014383Y016404D01*X01446Y016416D01*X014537Y016404D01*X014607Y016368D01*
X014662Y016313D01*X014698Y016243D01*X01471Y016166D01*X01421D01*
X01441Y016316D02*X01431D01*X01461D01*X01426Y016266D02*X01466D01*
X01471Y015966D02*X014698Y015889D01*X014662Y015819D01*X014607Y015764D01*
X014537Y015728D01*X01446Y015716D01*X014383Y015728D01*X014313Y015764D01*
X014258Y015819D01*X014222Y015889D01*X01421Y015966D01*X01471D01*
X01451Y015816D02*X01461D01*X01431D01*X01466Y015866D02*X01426D01*
X01221Y016166D02*X012222Y016243D01*X012258Y016313D01*X012313Y016368D01*
X012383Y016404D01*X01246Y016416D01*X012537Y016404D01*X012607Y016368D01*
X012662Y016313D01*X012698Y016243D01*X01271Y016166D01*X01221D01*
X01241Y016316D02*X01231D01*X01261D01*X01226Y016266D02*X01266D01*
X01271Y015966D02*X012698Y015889D01*X012662Y015819D01*X012607Y015764D01*
X012537Y015728D01*X01246Y015716D01*X012383Y015728D01*X012313Y015764D01*
X012258Y015819D01*X012222Y015889D01*X01221Y015966D01*X01271D01*
X01251Y015816D02*X01261D01*X01231D01*X01266Y015866D02*X01226D01*
X01021Y016166D02*X010222Y016243D01*X010258Y016313D01*X010313Y016368D01*
X010383Y016404D01*X01046Y016416D01*X010537Y016404D01*X010607Y016368D01*
X010662Y016313D01*X010698Y016243D01*X01071Y016166D01*X01021D01*
X01041Y016316D02*X01031D01*X01061D01*X01026Y016266D02*X01066D01*
X01071Y015966D02*X010698Y015889D01*X010662Y015819D01*X010607Y015764D01*
X010537Y015728D01*X01046Y015716D01*X010383Y015728D01*X010313Y015764D01*
X010258Y015819D01*X010222Y015889D01*X01021Y015966D01*X01071D01*
X01051Y015816D02*X01061D01*X01031D01*X01066Y015866D02*X01026D01*
X00821Y016166D02*X008222Y016243D01*X008258Y016313D01*X008313Y016368D01*
X008383Y016404D01*X00846Y016416D01*X008537Y016404D01*X008607Y016368D01*
X008662Y016313D01*X008698Y016243D01*X00871Y016166D01*X00821D01*
X00841Y016316D02*X00831D01*X00861D01*X00826Y016266D02*X00866D01*
X00871Y015966D02*X008698Y015889D01*X008662Y015819D01*X008607Y015764D01*
X008537Y015728D01*X00846Y015716D01*X008383Y015728D01*X008313Y015764D01*
X008258Y015819D01*X008222Y015889D01*X00821Y015966D01*X00871D01*
X00851Y015816D02*X00861D01*X00831D01*X00866Y015866D02*X00826D01*
X00621Y016166D02*X006222Y016243D01*X006258Y016313D01*X006313Y016368D01*
X006383Y016404D01*X00646Y016416D01*X006537Y016404D01*X006607Y016368D01*
X006662Y016313D01*X006698Y016243D01*X00671Y016166D01*X00621D01*
X00641Y016316D02*X00631D01*X00661D01*X00626Y016266D02*X00666D01*
X00671Y015966D02*X006698Y015889D01*X006662Y015819D01*X006607Y015764D01*
X006537Y015728D01*X00646Y015716D01*X006383Y015728D01*X006313Y015764D01*
X006258Y015819D01*X006222Y015889D01*X00621Y015966D01*X00671D01*
X00651Y015816D02*X00661D01*X00631D01*X00666Y015866D02*X00626D01*
X00421Y016166D02*X004222Y016243D01*X004258Y016313D01*X004313Y016368D01*
X004383Y016404D01*X00446Y016416D01*X004537Y016404D01*X004607Y016368D01*
X004662Y016313D01*X004698Y016243D01*X00471Y016166D01*X00421D01*
X00441Y016316D02*X00431D01*X00461D01*X00426Y016266D02*X00466D01*
X00471Y015966D02*X004698Y015889D01*X004662Y015819D01*X004607Y015764D01*
X004537Y015728D01*X00446Y015716D01*X004383Y015728D01*X004313Y015764D01*
X004258Y015819D01*X004222Y015889D01*X00421Y015966D01*X00471D01*
X00451Y015816D02*X00461D01*X00431D01*X00466Y015866D02*X00426D01*
X00221Y016166D02*X002222Y016243D01*X002258Y016313D01*X002313Y016368D01*
X002383Y016404D01*X00246Y016416D01*X002537Y016404D01*X002607Y016368D01*
X002662Y016313D01*X002698Y016243D01*X00271Y016166D01*X00221D01*
X00241Y016316D02*X00231D01*X00261D01*X00226Y016266D02*X00266D01*
X00271Y015966D02*X002698Y015889D01*X002662Y015819D01*X002607Y015764D01*
X002537Y015728D01*X00246Y015716D01*X002383Y015728D01*X002313Y015764D01*
X002258Y015819D01*X002222Y015889D01*X00221Y015966D01*X00271D01*
X00251Y015816D02*X00261D01*X00231D01*X00266Y015866D02*X00226D01*D13*
X00906Y013266D02*Y004866D01*
M02*