%FSTAX24Y24*%
%MOIN*%
%IN card16pad.gbl *%
%ADD10C,0.0150*%
%ADD11C,0.0300*%
%ADD12C,0.0600*%
%ADD13R,0.0600X0.0600*%
D12*X01146Y005591D03*X00846Y011591D03*Y010591D03*Y009591D03*Y008591D03*
Y007591D03*Y006591D03*D13*Y005591D03*D12*X01146Y006591D03*Y007591D03*
Y008591D03*Y009591D03*Y010591D03*Y011591D03*Y012591D03*X00846D03*D11*
X01546Y013866D03*X00346D03*X01346D03*X00146D03*X00746D03*X00546D03*
X01446D03*X01646D03*X01846D03*X01746D03*X01146D03*X00946D03*X00246D03*
X00446D03*X00646D03*X00846D03*X01046D03*X01246D03*D10*X01146Y005591D02*
G01X01746Y008366D01*Y017716D01*D12*Y020216D01*X01046D02*Y017716D01*D10*
Y013616D01*X01146Y012591D01*Y006591D02*X01646Y008866D01*Y017716D01*D12*
Y020216D01*D10*X01146Y007591D02*X01546Y009366D01*Y017716D01*D12*
Y020216D01*D10*X00846Y009591D02*X00646Y010366D01*Y017716D01*D12*
Y020216D01*D10*X00146Y013866D02*Y017716D01*D12*Y020216D01*D10*
X00846Y005591D02*X00246Y008366D01*Y017716D01*D12*Y020216D01*X01146D02*
Y017716D01*D10*Y013866D01*X01221Y013116D01*Y011866D01*X01146Y011591D01*
D12*X01246Y020216D02*Y017716D01*D10*Y013866D01*X01271Y013616D01*
Y011116D01*X01146Y010591D01*D12*X00946Y020216D02*Y017716D01*D10*
Y013591D01*X00846Y012591D01*D12*X01846Y020216D02*Y017716D01*D10*
Y013866D01*D12*X00846Y020216D02*Y017716D01*D10*Y013866D01*
X00771Y013116D01*Y011866D01*X00846Y011591D01*Y010591D02*
X00721Y011116D01*Y013616D01*X00746Y013866D01*Y017716D01*D12*Y020216D01*
D10*X01146Y008591D02*X01446Y009866D01*Y017716D01*D12*Y020216D01*D10*
X01146Y009591D02*X01346Y010366D01*Y017716D01*D12*Y020216D01*X00346D02*
Y017716D01*D10*Y008866D01*X00846Y006591D01*Y007591D02*X00446Y009341D01*
Y017716D01*D12*Y020216D01*D10*X00846Y008591D02*X00546Y009866D01*
Y017716D01*D12*Y020216D01*
M02*