M48
FMAT,2
INCH,LZ
T1C0.0200
T2C0.0300
%
T1
X01546Y013866
X00346Y013866
X01346Y013866
X00146Y013866
X00746Y013866
X00546Y013866
X01446Y013866
X01646Y013866
X01846Y013866
X01746Y013866
X01146Y013866
X00946Y013866
X00246Y013866
X00446Y013866
X00646Y013866
X00846Y013866
X01046Y013866
X01246Y013866
T2
X01146Y005591
X00846Y011591
X00846Y010591
X00846Y009591
X00846Y008591
X00846Y007591
X00846Y006591
X00846Y005591
X01146Y006591
X01146Y007591
X01146Y008591
X01146Y009591
X01146Y010591
X01146Y011591
X01146Y012591
X00846Y012591
M30
