%FSTAX24Y24*%
%MOIN*%
%IN card16pad.gbo *%
%ADD10C,0.0050*%
%ADD11C,0.0057*%
%ADD12C,0.0100*%
D11*X000589Y000291D02*G01X000646Y000348D01*Y000463D01*X000589Y00052D01*
X000532D01*X000475Y000463D01*X00036Y000291D01*X000303D01*Y00052D01*
X000589Y000863D02*X000646Y000805D01*Y000691D01*X000589Y000634D01*
X00036D01*X000303Y000691D01*Y000805D01*X00036Y000863D01*X000589D01*
X000532Y000748D02*X000417D01*X000589Y001034D02*X000646Y001091D01*
X000303D01*Y001148D01*Y001091D02*Y001034D01*X000589Y00132D02*
X000646Y001377D01*Y001491D01*X000589Y001548D01*X000532D01*
X000475Y001491D01*X00036Y00132D01*X000303D01*Y001548D01*
X000532Y002005D02*X00036D01*X000303Y002048D01*Y002077D01*
X00036Y00212D01*X000303Y002163D01*Y002191D01*X00036Y002234D01*
X000532D01*X00036Y00212D02*X000489D01*X000532Y002348D02*X00036D01*
X000303Y002391D01*Y00242D01*X00036Y002463D01*X000303Y002505D01*
Y002534D01*X00036Y002577D01*X000532D01*X00036Y002463D02*X000489D01*
X000532Y002691D02*X00036D01*X000303Y002734D01*Y002763D01*
X00036Y002805D01*X000303Y002848D01*Y002877D01*X00036Y00292D01*
X000532D01*X00036Y002805D02*X000489D01*X000303Y00312D02*Y003148D01*
X000332D01*Y00312D01*X000303D01*X000375Y003591D02*X000303Y00352D01*
Y003448D01*X000375Y003377D01*X000475D01*X000532Y003448D01*Y00352D01*
X00046Y003591D01*X000246D01*X000175Y00352D01*Y003448D01*
X000217Y003377D01*X000303Y003948D02*X000532D01*X000377Y00372D02*
X000449Y00374D01*X000497Y003771D01*X000523Y003811D01*X000532Y00384D01*
Y003863D01*Y003903D01*X000509Y003948D01*X000375Y00372D02*X000357D01*
X000346Y003723D01*X000332Y003731D01*X00032Y003751D01*X000303Y003791D01*
Y003854D01*X000329Y003914D01*X00036Y003948D01*X000532Y004277D02*
X000303D01*X00036D02*X000303Y00422D01*Y00412D01*X00036Y004063D01*
X000532D01*Y004563D02*X000503D01*X000532Y00452D01*Y004505D01*
X000517Y004477D01*X000475Y004434D01*X000403Y004405D01*X000375D01*
X000332Y00442D01*X000303Y004477D01*Y004548D01*X000346Y00462D01*
X000646Y004777D02*X000303D01*X000389D02*X00056Y004948D01*X000303D02*
X000432Y00482D01*X000303Y005177D02*Y005205D01*X000332D01*Y005177D01*
X000303D01*X000532Y005591D02*X000503D01*X000532Y005548D01*Y005534D01*
X000517Y005505D01*X000475Y005463D01*X000403Y005434D01*X000375D01*
X000332Y005448D01*X000303Y005505D01*Y005577D01*X000346Y005648D01*
X000375Y005777D02*X00046D01*X000532Y005848D01*Y00592D01*
X00046Y005991D01*X000375D01*X000303Y00592D01*Y005848D01*
X000375Y005777D01*X000303Y006227D02*X00046D01*X000531Y00628D01*
X00046Y006334D01*X000303D01*X00046Y00612D02*X000531Y006173D01*
X00046Y006227D01*X00056Y00612D02*X000303D01*D12*X001189Y000384D02*
X018689D01*X001189Y000433D02*X018689D01*X001189Y000483D02*X018689D01*
X001189Y000532D02*X018689D01*X001189Y000582D02*X018689D01*
X001189Y000631D02*X018689D01*X001189Y00068D02*X018689D01*
X001189Y00073D02*X018689D01*X001189Y000779D02*X018689D01*
X001189Y000829D02*X018689D01*X001189Y000878D02*X018689D01*
X001189Y000928D02*X018689D01*X001189Y000977D02*X018689D01*
X001189Y001027D02*X018689D01*X001189Y001076D02*X018689D01*
X001189Y001125D02*X018689D01*X001189Y001175D02*X018689D01*
X001189Y001224D02*X018689D01*X001189Y001274D02*X018689D01*
X001189Y001323D02*X018689D01*X001189Y001373D02*X018689D01*
X001189Y001422D02*X018689D01*X001189Y001472D02*X018689D01*
X001189Y001521D02*X018689D01*X001189Y00157D02*X018689D01*
X001189Y00162D02*X018689D01*X001189Y001669D02*X018689D01*
X001189Y001719D02*X018689D01*X001189Y001768D02*X018689D01*
X001189Y001818D02*X018689D01*X001189Y001867D02*X018689D01*
X001189Y001916D02*X018689D01*X001189Y001966D02*X018689D01*
X001189Y002015D02*X018689D01*X001189Y002065D02*X018689D01*
X001189Y002114D02*X018689D01*X001189Y002164D02*X018689D01*
X001189Y002213D02*X018689D01*X001189Y002263D02*X018689D01*
X001189Y002312D02*X018689D01*X001189Y002361D02*X018689D01*
X001189Y002411D02*X018689D01*X001189Y00246D02*X018689D01*
X001189Y00251D02*X018689D01*X001189Y002559D02*X018689D01*
X001189Y002609D02*X018689D01*X001189Y002658D02*X018689D01*
X001189Y002707D02*X018689D01*X001189Y002757D02*X018689D01*
X001189Y002806D02*X018689D01*X001189Y002856D02*X018689D01*
X001189Y002905D02*X018689D01*X001189Y002955D02*X018689D01*
X001189Y003004D02*X018689D01*X001189Y003054D02*X018689D01*
X001189Y003103D02*X018689D01*X001189Y003152D02*X018689D01*
X001189Y003202D02*X018689D01*X001189Y003251D02*X018689D01*
X001189Y003301D02*X018689D01*X001189Y00335D02*X018689D01*
X001189Y0034D02*X018689D01*X001189Y003449D02*X018689D01*
X001189Y003498D02*X018689D01*X001189Y003548D02*X018689D01*
X001189Y003597D02*X018689D01*X001189Y003647D02*X018689D01*
X001189Y003696D02*X018689D01*X001189Y003746D02*X018689D01*
X001189Y003795D02*X018689D01*X001189Y003845D02*X018689D01*
X001189Y003894D02*X018689D01*X001189Y003943D02*X018689D01*
X001189Y003993D02*X018689D01*X001189Y004042D02*X018689D01*
X001189Y004092D02*X018689D01*X001189Y004141D02*X018689D01*
X001189Y004191D02*X018689D01*X001189Y00424D02*X018689D01*
X001189Y004289D02*X018689D01*X001189Y004339D02*X018689D01*
X001189Y004388D02*X018689D01*X001189Y004438D02*X018689D01*
X001189Y004487D02*X018689D01*X001189Y004537D02*X018689D01*
X001189Y004586D02*X018689D01*X001189Y004636D02*X018689D01*
X001189Y004685D02*X018689D01*X001189Y004734D02*X018689D01*
X001185Y000316D02*X018685D01*X001185Y000366D02*X018685D01*
X001185Y000415D02*X018685D01*X001185Y000464D02*X018685D01*
X001185Y000514D02*X018685D01*X001185Y000563D02*X018685D01*
X001185Y000613D02*X018685D01*X001185Y000662D02*X018685D01*
X001185Y000712D02*X018685D01*X001185Y000761D02*X018685D01*
X001185Y000811D02*X018685D01*X001185Y00086D02*X018685D01*
X001185Y000909D02*X018685D01*X001185Y000959D02*X018685D01*
X001185Y001008D02*X018685D01*X001185Y001058D02*X018685D01*
X001185Y001107D02*X018685D01*X001185Y001157D02*X018685D01*
X001185Y001206D02*X018685D01*X001185Y001255D02*X018685D01*
X001185Y001305D02*X018685D01*X001185Y001354D02*X018685D01*
X001185Y001404D02*X018685D01*X001185Y001453D02*X018685D01*
X001185Y001503D02*X018685D01*X001185Y001552D02*X018685D01*
X001185Y001602D02*X018685D01*X001185Y001651D02*X018685D01*
X001185Y0017D02*X018685D01*X001185Y00175D02*X018685D01*
X001185Y001799D02*X018685D01*X001185Y001849D02*X018685D01*
X001185Y001898D02*X018685D01*X001185Y001948D02*X018685D01*
X001185Y001997D02*X018685D01*X001185Y002046D02*X018685D01*
X001185Y002096D02*X018685D01*X001185Y002145D02*X018685D01*
X001185Y002195D02*X018685D01*X001185Y002244D02*X018685D01*
X001185Y002294D02*X018685D01*X001185Y002343D02*X018685D01*
X001185Y002393D02*X018685D01*X001185Y002442D02*X018685D01*
X001185Y002491D02*X018685D01*X001185Y002541D02*X018685D01*
X001185Y00259D02*X018685D01*X001185Y00264D02*X018685D01*
X001185Y002689D02*X018685D01*X001185Y002739D02*X018685D01*
X001185Y002788D02*X018685D01*X001185Y002837D02*X018685D01*
X001185Y002887D02*X018685D01*X001185Y002936D02*X018685D01*
X001185Y002986D02*X018685D01*X001185Y003035D02*X018685D01*
X001185Y003085D02*X018685D01*X001185Y003134D02*X018685D01*
X001185Y003184D02*X018685D01*X001185Y003233D02*X018685D01*
X001185Y003282D02*X018685D01*X001185Y003332D02*X018685D01*
X001185Y003381D02*X018685D01*X001185Y003431D02*X018685D01*
X001185Y00348D02*X018685D01*X001185Y00353D02*X018685D01*
X001185Y003579D02*X018685D01*X001185Y003628D02*X018685D01*
X001185Y003678D02*X018685D01*X001185Y003727D02*X018685D01*
X001185Y003777D02*X018685D01*X001185Y003826D02*X018685D01*
X001185Y003876D02*X018685D01*X001185Y003925D02*X018685D01*
X001185Y003975D02*X018685D01*X001185Y004024D02*X018685D01*
X001185Y004073D02*X018685D01*X001185Y004123D02*X018685D01*
X001185Y004172D02*X018685D01*X001185Y004222D02*X018685D01*
X001185Y004271D02*X018685D01*X001185Y004321D02*X018685D01*
X001185Y00437D02*X018685D01*X001185Y00442D02*X018685D01*
X001185Y004469D02*X018685D01*X001185Y004518D02*X018685D01*
X001185Y004568D02*X018685D01*X001185Y004617D02*X018685D01*
X001185Y004667D02*X018685D01*D10*X01021Y005091D02*X01096D01*Y013091D01*
X00896D01*Y005091D01*X00971D01*X009722Y005168D01*X009758Y005238D01*
X009813Y005293D01*X009883Y005329D01*X00996Y005341D01*X010037Y005329D01*
X010107Y005293D01*X010162Y005238D01*X010198Y005168D01*X01021Y005091D01*
D12*X018689Y000384D02*Y004784D01*X001189D01*Y000384D01*X018689D01*
X018685Y000316D02*Y004716D01*X001185D01*Y000316D01*X018685D01*
M02*