M48
FMAT,2
INCH,LZ
T1C0.1250
T2C0.0984
T3C0.0150
T4C0.0250
T5C0.0300
T6C0.0450
%
T1
X009551Y009092
X037301Y009092
T2
X000788Y036271
X046064Y036271
X046051Y000842
X010426Y024967
X036426Y024967
X000775Y000842
T3
X035176Y013092
X036426Y012717
X035551Y012092
X023426Y016092
X003801Y005967
X008926Y013342
X006801Y012092
X002926Y012467
X004301Y013342
X005301Y013342
X041551Y005342
X024926Y013467
X022551Y019092
X041926Y006092
X023801Y016592
X005801Y005217
X003426Y004967
X016551Y009592
X015551Y009217
X034676Y008592
X015051Y008592
X016051Y008092
X033926Y008092
X023801Y013467
T4
X027801Y022342
X026801Y022342
X001801Y021717
X005801Y024717
X004801Y024717
X003801Y024717
X002801Y024717
X001801Y024717
X002801Y021717
X003801Y021717
X004801Y021717
X005801Y021717
X006801Y021717
X007801Y021717
X007801Y024717
X006801Y024717
X039051Y032467
X043051Y035467
X042051Y035467
X041051Y035467
X040051Y035467
X039051Y035467
X040051Y032467
X041051Y032467
X042051Y032467
X043051Y032467
X044051Y032467
X045051Y032467
X045051Y035467
X044051Y035467
X045051Y020717
X042551Y020717
X041551Y020717
X039051Y020717
X027801Y031092
X026801Y031092
X013551Y02193
X033301Y01993
X008926Y010717
X008926Y014217
X034551Y023717
X038051Y023717
X029176Y034467
X032051Y034467
X029176Y021717
X032051Y021717
X024926Y023217
X021926Y027217
X021926Y026217
X021926Y025217
X021926Y024217
X021926Y023217
X024926Y024217
X024926Y025217
X024926Y026217
X024926Y027217
X024926Y028217
X024926Y029217
X021926Y029217
X021926Y028217
X019051Y020342
X020051Y020342
X028551Y029467
X032051Y029467
X013551Y02393
X033301Y02193
X014801Y027467
X018301Y027467
X028551Y020717
X032051Y020717
X008801Y023717
X012301Y023717
X014801Y029467
X018301Y029467
X028551Y024717
X032051Y024717
X028551Y016717
X032051Y016717
X013551Y03268
X037926Y007467
X037926Y003967
X027801Y029092
X026801Y029092
X034551Y015717
X038051Y015717
X040551Y009217
X044051Y009217
X029176Y026467
X032051Y026467
X029176Y019717
X032051Y019717
X029176Y023717
X032051Y023717
X027801Y016342
X026801Y016342
X008801Y019717
X012301Y019717
X019051Y024342
X020051Y024342
X013551Y03468
X033301Y01593
X013551Y01993
X025801Y029467
X025801Y031967
X001801Y015717
X004301Y015717
X029176Y017717
X032051Y017717
X017676Y030467
X014801Y030467
X017676Y017717
X014801Y017717
X029176Y030467
X032051Y030467
X013551Y01593
X039051Y004217
X043051Y007217
X042051Y007217
X041051Y007217
X040051Y007217
X039051Y007217
X040051Y004217
X041051Y004217
X042051Y004217
X043051Y004217
X044051Y004217
X045051Y004217
X045051Y007217
X044051Y007217
X039051Y021717
X043051Y024717
X042051Y024717
X041051Y024717
X040051Y024717
X039051Y024717
X040051Y021717
X041051Y021717
X042051Y021717
X043051Y021717
X044051Y021717
X045051Y021717
X045051Y024717
X044051Y024717
X039051Y016717
X043051Y019717
X042051Y019717
X041051Y019717
X040051Y019717
X039051Y019717
X040051Y016717
X041051Y016717
X042051Y016717
X043051Y016717
X044051Y016717
X045051Y016717
X045051Y019717
X044051Y019717
X001801Y027467
X005801Y030467
X004801Y030467
X003801Y030467
X002801Y030467
X001801Y030467
X002801Y027467
X003801Y027467
X004801Y027467
X005801Y027467
X006801Y027467
X007801Y027467
X007801Y030467
X006801Y030467
X027801Y018342
X026801Y018342
X027801Y024342
X026801Y024342
X033301Y03068
X028551Y035467
X032051Y035467
X027801Y027092
X026801Y027092
X026051Y014717
X020926Y014717
X014801Y016717
X018301Y016717
X021926Y015592
X024926Y021592
X021926Y023217
X024926Y029217
X039051Y007217
X045051Y004217
X001801Y007217
X007801Y004217
X039051Y014217
X045051Y011217
X001801Y014217
X007801Y011217
X039051Y019717
X045051Y016717
X001801Y019717
X007801Y016717
X039051Y024717
X045051Y021717
X001801Y024717
X007801Y021717
X039051Y030467
X045051Y027467
X001801Y030467
X007801Y027467
X039051Y035467
X045051Y032467
X001801Y035467
X007801Y032467
X025801Y025967
X025801Y028467
X019051Y033092
X020051Y033092
X013551Y01793
X013551Y02668
X017676Y021717
X014801Y021717
X024676Y030217
X024676Y033092
X034551Y021717
X038051Y021717
X028551Y022717
X032051Y022717
X021051Y031967
X021051Y029467
X021051Y019592
X021051Y016092
X025801Y019592
X025801Y016092
X014801Y031467
X018301Y031467
X034551Y026467
X038051Y026467
X008801Y015717
X012301Y015717
X028551Y027467
X032051Y027467
X034551Y017717
X038051Y017717
X028551Y018717
X032051Y018717
X014801Y033467
X018301Y033467
X019051Y035092
X020051Y035092
X008801Y032467
X012301Y032467
X014801Y018717
X018301Y018717
X033301Y02868
X033301Y02668
X013551Y02868
X036926Y010717
X036926Y014217
X001301Y031467
X003801Y031467
X040551Y008217
X044051Y008217
X019051Y027092
X020051Y027092
X013551Y03068
X033301Y02393
X008801Y026467
X012301Y026467
X034551Y019717
X038051Y019717
X017676Y032467
X014801Y032467
X017676Y026467
X014801Y026467
X029176Y028467
X032051Y028467
X017676Y015717
X014801Y015717
X039051Y015717
X041551Y015717
X029176Y015717
X032051Y015717
X043051Y031467
X045551Y031467
X045551Y026467
X043051Y026467
X002801Y010217
X006301Y010217
X035926Y010717
X035926Y014217
X021051Y023842
X021051Y020342
X025801Y023842
X025801Y020342
X022176Y030217
X022176Y033717
X037926Y014217
X037926Y010717
X028551Y031467
X032051Y031467
X034551Y034467
X038051Y034467
X001801Y004217
X005801Y007217
X004801Y007217
X003801Y007217
X002801Y007217
X001801Y007217
X002801Y004217
X003801Y004217
X004801Y004217
X005801Y004217
X006801Y004217
X007801Y004217
X007801Y007217
X006801Y007217
X039051Y027467
X043051Y030467
X042051Y030467
X041051Y030467
X040051Y030467
X039051Y030467
X040051Y027467
X041051Y027467
X042051Y027467
X043051Y027467
X044051Y027467
X045051Y027467
X045051Y030467
X044051Y030467
X023426Y035092
X023426Y036092
X010926Y010717
X010926Y014217
X023426Y030842
X023426Y034342
X008801Y017717
X012301Y017717
X014801Y022717
X018301Y022717
X019051Y022342
X020051Y022342
X005801Y020717
X008301Y020717
X014801Y024717
X018301Y024717
X009926Y010717
X009926Y014217
X034551Y032467
X038051Y032467
X008801Y034467
X012301Y034467
X008801Y021717
X012301Y021717
X034551Y030467
X038051Y030467
X008801Y030467
X012301Y030467
X033301Y01793
X036926Y003967
X036926Y007467
X019051Y018342
X020051Y018342
X027801Y033092
X026801Y033092
X027801Y020342
X026801Y020342
X019051Y029092
X020051Y029092
X005301Y026467
X007801Y026467
X027801Y035092
X026801Y035092
X045051Y015717
X042551Y015717
X008926Y003967
X008926Y007467
X028551Y033467
X032051Y033467
X005301Y015717
X007801Y015717
X005801Y031467
X008301Y031467
X006301Y008217
X002801Y008217
X019051Y031092
X020051Y031092
X014801Y035467
X018301Y035467
X040551Y010217
X044051Y010217
X008801Y028467
X012301Y028467
X009926Y007467
X009926Y003967
X002801Y009217
X006301Y009217
X021426Y034217
X022176Y034717
X021426Y035217
X017676Y019717
X014801Y019717
X001801Y011217
X005801Y014217
X004801Y014217
X003801Y014217
X002801Y014217
X001801Y014217
X002801Y011217
X003801Y011217
X004801Y011217
X005801Y011217
X006801Y011217
X007801Y011217
X007801Y014217
X006801Y014217
X001801Y016717
X005801Y019717
X004801Y019717
X003801Y019717
X002801Y019717
X001801Y019717
X002801Y016717
X003801Y016717
X004801Y016717
X005801Y016717
X006801Y016717
X007801Y016717
X007801Y019717
X006801Y019717
X001801Y032467
X005801Y035467
X004801Y035467
X003801Y035467
X002801Y035467
X001801Y035467
X002801Y032467
X003801Y032467
X004801Y032467
X005801Y032467
X006801Y032467
X007801Y032467
X007801Y035467
X006801Y035467
X024926Y015592
X021926Y019592
X021926Y018592
X021926Y017592
X021926Y016592
X021926Y015592
X024926Y016592
X024926Y017592
X024926Y018592
X024926Y019592
X024926Y020592
X024926Y021592
X021926Y021592
X021926Y020592
X025426Y035092
X033301Y03468
X033301Y03268
X042051Y026467
X039551Y026467
X029176Y032467
X032051Y032467
X017676Y023717
X014801Y023717
X017676Y028467
X014801Y028467
X017676Y034467
X014801Y034467
X001801Y020717
X004301Y020717
X039551Y031467
X042051Y031467
X003801Y026467
X001301Y026467
X021051Y028467
X021051Y025967
X014801Y020717
X018301Y020717
X019051Y016342
X020051Y016342
X034551Y028467
X038051Y028467
X039051Y011217
X043051Y014217
X042051Y014217
X041051Y014217
X040051Y014217
X039051Y014217
X040051Y011217
X041051Y011217
X042051Y011217
X043051Y011217
X044051Y011217
X045051Y011217
X045051Y014217
X044051Y014217
T5
X013551Y022717
X033301Y020717
X013551Y024717
X033301Y022717
X013551Y033467
X013551Y035467
X033301Y016717
X013551Y020717
X013551Y016717
X033301Y031467
X026051Y01393
X020926Y01393
X013551Y018717
X013551Y027467
X033301Y029467
X033301Y027467
X013551Y029467
X013551Y031467
X033301Y024717
X033301Y018717
X025426Y034305
X033301Y035467
X033301Y033467
T6
X005801Y002467
X044051Y002467
X046051Y002467
X006801Y002467
X000801Y002467
X008801Y002467
X003801Y002467
X009801Y002467
X040051Y002467
X004801Y002467
X013051Y010967
X022051Y010967
X023051Y010967
X024051Y010967
X025051Y010967
X026051Y010967
X027051Y010967
X028051Y010967
X029051Y010967
X030051Y010967
X031051Y010967
X014051Y010967
X032051Y010967
X033051Y010967
X034051Y010967
X034051Y012527
X033051Y012527
X032051Y012527
X031051Y012527
X030051Y012527
X029051Y012527
X028051Y012527
X015051Y010967
X027051Y012527
X026051Y012527
X025051Y012527
X024051Y012527
X023051Y012527
X022051Y012527
X021051Y012527
X020051Y012527
X019051Y012527
X018051Y012527
X016051Y010967
X017051Y012527
X016051Y012527
X015051Y012527
X014051Y012527
X013051Y012527
X017051Y010967
X018051Y010967
X019051Y010967
X020051Y010967
X021051Y010967
X007801Y002467
X038051Y002467
X041051Y002467
X042051Y002467
X045051Y002467
X039051Y002467
X037051Y002467
X043051Y002467
X001801Y002467
X002801Y002467
M30
