%FSTAX24Y24*%
%MOIN*%
%IN LAYER2.GBR *%
%ADD10C,0.0100*%
%ADD11C,0.0150*%
%ADD12C,0.0300*%
%ADD13C,0.0500*%
%ADD14C,0.0600*%
%ADD15C,0.0650*%
%ADD16C,0.0984*%
%ADD17C,0.1250*%
%ADD18R,0.0500X0.0500*%
G54D13*X034551Y015717D03*G54D18*X033301Y01593D03*G54D13*
X032051Y015717D03*X038051D03*X044051Y009217D03*X012301Y019717D03*
G54D18*X013551Y01993D03*G54D13*X014801Y019717D03*X025801Y031967D03*
X004301Y015717D03*X042051Y007217D03*X041051D03*X040051D03*G54D15*
X044051Y002467D03*X026051Y010967D03*G54D13*X040051Y004217D03*
X041051D03*X042051D03*G54D12*X033926Y008092D03*G54D13*
X043051Y004217D03*X037926Y003967D03*X044051Y004217D03*X045051D03*
Y011217D03*Y015717D03*Y016717D03*Y020717D03*Y021717D03*
X045551Y026467D03*X039551D03*X039051Y020717D03*X045051Y027467D03*
X045551Y031467D03*X045051Y032467D03*Y007217D03*X044051D03*G54D18*
X039051Y021717D03*G54D13*X042051Y024717D03*X040051D03*Y021717D03*
X041051D03*X042051D03*X043051D03*X045051Y024717D03*X044051D03*G54D18*
X039051Y016717D03*G54D14*X033301D03*G54D13*X032051D03*
X042051Y019717D03*X041051D03*Y024717D03*X039051Y019717D03*X038051D03*
Y021717D03*Y023717D03*X039051Y024717D03*X038051Y026467D03*
X040051Y016717D03*X041051D03*X043051D03*X044051Y021717D03*
X045051Y019717D03*X044051D03*X043051Y024717D03*X004801Y030467D03*
X003801D03*X005801Y035467D03*X002801Y027467D03*X003801D03*X005801D03*
X006801D03*X007801Y030467D03*X006801D03*X007801Y035467D03*X028551D03*
X027801Y035092D03*X032051Y035467D03*G54D14*X033301D03*G54D13*
X040051Y030467D03*X018301Y016717D03*X019051Y016342D03*
X028551Y016717D03*X027801Y016342D03*X028551Y024717D03*
X027801Y024342D03*X032051Y024717D03*G54D14*X033301D03*G54D13*
X014801Y029467D03*G54D14*X013551D03*G54D13*X004801Y027467D03*
X018301Y029467D03*X019051Y029092D03*X012301Y023717D03*G54D18*
X013551Y02393D03*G54D13*X014801Y023717D03*X028551Y020717D03*
X027801Y020342D03*X032051Y020717D03*G54D14*X033301D03*G54D13*
X043051Y019717D03*X014801Y027467D03*G54D14*X013551D03*G54D13*
X018301D03*X019051Y027092D03*X028551Y029467D03*X027801Y029092D03*
X032051Y029467D03*G54D14*X033301D03*G54D18*X039051Y027467D03*
X024926Y023217D03*G54D13*X021926Y027217D03*Y026217D03*Y021592D03*
Y025217D03*Y024217D03*Y023217D03*X024926Y024217D03*Y025217D03*
Y020592D03*Y026217D03*Y027217D03*Y029217D03*X021926D03*Y018592D03*
Y028217D03*X029176Y034467D03*Y032467D03*Y030467D03*Y028467D03*
Y026467D03*Y023717D03*Y021717D03*Y019717D03*Y017717D03*Y015717D03*
G54D14*X026051Y01393D03*X020926D03*G54D13*X039051Y015717D03*
X034551Y023717D03*G54D18*X033301Y02393D03*G54D13*X032051Y023717D03*
G54D16*X046051Y000842D03*X046064Y036271D03*X000788D03*G54D13*
X041551Y020717D03*X042551D03*G54D18*X039051Y032467D03*G54D13*
X042051Y035467D03*X040051D03*Y032467D03*X041051D03*X042051D03*
X043051D03*X044051D03*Y035467D03*G54D18*X001801Y021717D03*G54D13*
X005801Y024717D03*X006801Y019717D03*X004801Y024717D03*X003801D03*
Y019717D03*X002801Y024717D03*X001801D03*Y019717D03*X002801Y021717D03*
X003801D03*X004801D03*X005801D03*X006801D03*X007801D03*Y026467D03*
Y027467D03*X001301Y026467D03*Y031467D03*X001801Y020717D03*Y015717D03*
X007801Y004217D03*Y011217D03*Y024717D03*X006801D03*X024676Y030217D03*
Y033092D03*X034551Y021717D03*G54D18*X033301Y02193D03*G54D13*
X032051Y021717D03*X028551Y022717D03*X027801Y022342D03*
X032051Y022717D03*G54D14*X033301D03*G54D13*X040051Y019717D03*
X021051Y031967D03*Y029467D03*Y019592D03*Y016092D03*G54D12*X023426D03*
G54D13*X025801Y019592D03*Y016092D03*X014801Y031467D03*G54D14*
X013551D03*G54D18*X001801Y027467D03*G54D13*X018301Y031467D03*
X019051Y031092D03*X034551Y026467D03*G54D18*X033301Y02668D03*G54D13*
X032051Y026467D03*X008801Y015717D03*X012301D03*G54D18*X013551Y01593D03*
G54D13*X014801Y015717D03*X028551Y027467D03*X027801Y027092D03*
X032051Y027467D03*G54D14*X033301D03*G54D13*X034551Y017717D03*G54D18*
X033301Y01793D03*G54D13*X032051Y017717D03*X038051D03*X028551Y018717D03*
X027801Y018342D03*X032051Y018717D03*G54D14*X033301D03*G54D13*
X042051Y016717D03*X014801Y033467D03*G54D14*X013551D03*G54D13*
X002801Y030467D03*X018301Y033467D03*X019051Y033092D03*
X014801Y018717D03*G54D14*X013551D03*G54D18*X001801Y016717D03*G54D13*
X018301Y018717D03*X019051Y018342D03*X003801Y031467D03*
X044051Y008217D03*X008801Y026467D03*Y023717D03*Y021717D03*Y019717D03*
X012301Y026467D03*G54D18*X013551Y02668D03*G54D13*X014801Y026467D03*
X034551Y019717D03*G54D18*X033301Y01993D03*G54D13*X032051Y019717D03*
X014801Y032467D03*G54D18*X013551Y03268D03*G54D13*X012301Y032467D03*
G54D15*X046051Y002467D03*G54D12*X041926Y006092D03*G54D15*
X003801Y002467D03*X024051Y010967D03*X009801Y002467D03*
X018051Y010967D03*G54D13*X041551Y015717D03*G54D16*X010426Y024967D03*
X036426D03*G54D13*X043051Y031467D03*Y026467D03*X002801Y010217D03*
X021051Y023842D03*Y020342D03*X025801Y023842D03*Y020342D03*
X022176Y030217D03*Y033717D03*X028551Y031467D03*X027801Y031092D03*
X032051Y031467D03*G54D14*X033301D03*G54D13*X042051Y027467D03*
X034551Y034467D03*G54D18*X033301Y03468D03*G54D13*X032051Y034467D03*
G54D18*X001801Y004217D03*G54D13*X005801Y007217D03*G54D12*Y005217D03*
G54D13*X004801Y007217D03*X001801D03*X003801Y004217D03*X005801D03*
X006801D03*X007801Y007217D03*X042051Y030467D03*X041051D03*Y035467D03*
X040051Y027467D03*X041051D03*X043051D03*X045051Y035467D03*
X044051Y027467D03*X045051Y030467D03*X044051D03*X043051Y035467D03*
X010926Y014217D03*X003801Y014217D03*X023426Y030842D03*Y034342D03*
Y035092D03*X008801Y017717D03*X012301D03*G54D18*X013551Y01793D03*G54D13*
X014801Y017717D03*Y022717D03*G54D14*X013551D03*G54D13*
X005801Y019717D03*X018301Y022717D03*X019051Y022342D03*
X005801Y020717D03*X008301D03*G54D15*X004801Y002467D03*
X023051Y010967D03*G54D12*X023801Y013467D03*G54D16*X000775Y000842D03*
G54D15*X022051Y010967D03*X005801Y002467D03*X027051Y010967D03*
X043051Y002467D03*X029051Y010967D03*X041051Y002467D03*
X031051Y010967D03*X039051Y002467D03*X014051Y010967D03*
X000801Y002467D03*G54D13*X002801Y007217D03*G54D15*X032051Y010967D03*
X038051Y002467D03*X033051Y010967D03*X037051Y002467D03*
X034051Y010967D03*Y012527D03*X033051D03*G54D13*X036926Y014217D03*
X041051Y014217D03*G54D15*X031051Y012527D03*G54D13*X035926Y014217D03*
X044051Y014217D03*G54D15*X030051Y012527D03*G54D13*X040051Y011217D03*
X044051Y010217D03*G54D15*X029051Y012527D03*X028051D03*X027051D03*
X026051D03*X025051D03*X024051D03*X023051D03*X022051D03*X021051D03*
X020051D03*X019051D03*X018051D03*X016051D03*G54D12*X016551Y009592D03*
G54D15*X015051Y012527D03*G54D12*X015551Y009217D03*G54D15*
X013051Y012527D03*G54D13*X008926Y003967D03*G54D15*X017051Y010967D03*
Y012527D03*G54D18*X020926Y014717D03*G54D13*X021426Y034217D03*G54D18*
X026051Y014717D03*G54D15*X019051Y010967D03*X008801Y002467D03*
X020051Y010967D03*X007801Y002467D03*X021051Y010967D03*
X006801Y002467D03*G54D13*X014801Y024717D03*G54D14*X013551D03*G54D13*
X018301D03*X019051Y024342D03*X034551Y032467D03*G54D18*X033301Y03268D03*
G54D13*X032051Y032467D03*X012301Y034467D03*G54D18*X013551Y03468D03*
G54D13*X014801Y034467D03*X012301Y021717D03*G54D18*X013551Y02193D03*
G54D13*X014801Y021717D03*X034551Y030467D03*G54D18*X033301Y03068D03*
G54D13*X032051Y030467D03*X012301D03*G54D18*X013551Y03068D03*G54D13*
X014801Y030467D03*X036926Y003967D03*Y007467D03*X037926Y007467D03*
X039051Y007217D03*X040551Y008217D03*Y009217D03*Y010217D03*
X037926Y010717D03*X036926D03*X035926D03*G54D17*X009551Y009092D03*
X037301D03*G54D13*X005301Y026467D03*X042551Y015717D03*
X044051Y016717D03*X008926Y007467D03*X009926Y007467D03*
X010926Y010717D03*X009926D03*X008926D03*X028551Y033467D03*
X027801Y033092D03*X032051Y033467D03*G54D14*X033301D03*G54D13*
X043051Y030467D03*X005301Y015717D03*X006801Y016717D03*
X005801Y031467D03*X008301D03*X006301Y008217D03*X002801Y004217D03*
Y008217D03*G54D15*X042051Y002467D03*X028051Y010967D03*G54D12*
X024926Y013467D03*G54D15*X045051Y002467D03*G54D13*X014801Y035467D03*
G54D14*X013551D03*G54D13*X005801Y030467D03*X018301Y035467D03*
X019051Y035092D03*X008801Y028467D03*X012301D03*G54D18*X013551Y02868D03*
G54D13*X014801Y028467D03*X009926Y003967D03*G54D15*X014051Y012527D03*
G54D13*X002801Y009217D03*X006301D03*X006801Y007217D03*
X022176Y034717D03*X021426Y035217D03*X023426Y036092D03*
X039051Y035467D03*X038051Y034467D03*Y032467D03*Y030467D03*X039051D03*
X026801Y035092D03*G54D18*X025426D03*G54D13*X026801Y033092D03*
Y031092D03*Y029092D03*Y027092D03*Y024342D03*Y022342D03*Y020342D03*
Y018342D03*Y016342D03*X008801Y034467D03*Y032467D03*Y030467D03*
X001801Y035467D03*Y030467D03*X020051Y035092D03*Y033092D03*Y031092D03*
Y029092D03*Y027092D03*Y024342D03*Y022342D03*Y020342D03*Y018342D03*
Y016342D03*X021926Y015592D03*X005801Y014217D03*X004801D03*X002801D03*
X001801D03*X002801Y011217D03*X004801D03*X005801D03*X007801Y014217D03*
X006801D03*X009926Y014217D03*X004801Y019717D03*X002801Y016717D03*
X003801D03*X004801D03*G54D14*X013551D03*G54D13*X014801D03*X005801D03*
X007801D03*Y015717D03*X017676D03*Y017717D03*Y019717D03*Y021717D03*
Y023717D03*Y026467D03*Y028467D03*Y030467D03*Y032467D03*Y034467D03*
X007801Y019717D03*G54D18*X001801Y032467D03*G54D13*X004801Y035467D03*
X003801D03*X002801D03*Y032467D03*X003801D03*X004801D03*X005801D03*
X006801D03*X007801D03*X006801Y035467D03*G54D18*X024926Y015592D03*
G54D13*X021926Y019592D03*Y017592D03*X024926Y016592D03*Y017592D03*
Y028217D03*X025801Y029467D03*X024926Y018592D03*Y019592D03*Y021592D03*
X021926Y020592D03*G54D12*X022551Y019092D03*G54D14*X025426Y034305D03*
G54D15*X001801Y002467D03*G54D13*X042051Y026467D03*G54D15*
X002801Y002467D03*X025051Y010967D03*G54D13*X004301Y020717D03*
X039551Y031467D03*X042051D03*X003801Y026467D03*X021051Y028467D03*
Y025967D03*X014801Y020717D03*G54D14*X013551D03*G54D13*
X002801Y019717D03*X018301Y020717D03*X019051Y020342D03*
X034551Y028467D03*G54D18*X033301Y02868D03*G54D13*X032051Y028467D03*
X038051D03*G54D18*X039051Y011217D03*G54D15*X030051Y010967D03*
X040051Y002467D03*G54D13*X042051Y014217D03*X039051D03*
X041051Y011217D03*X042051D03*G54D12*X035551Y012092D03*G54D13*
X043051Y011217D03*X037926Y014217D03*G54D15*X032051Y012527D03*G54D13*
X044051Y011217D03*X045051Y014217D03*X025801Y025967D03*Y028467D03*
G54D12*X016051Y008092D03*G54D15*Y010967D03*G54D12*X015051Y008592D03*
G54D15*Y010967D03*G54D12*X034676Y008592D03*G54D18*X039051Y004217D03*
G54D12*X003426Y004967D03*G54D13*X004801Y004217D03*G54D15*
X013051Y010967D03*G54D12*X023801Y016592D03*G54D13*X021926D03*G54D12*
X041551Y005342D03*G54D13*X043051Y007217D03*G54D12*X005301Y013342D03*
G54D13*X006801Y011217D03*G54D12*X004301Y013342D03*G54D13*
X003801Y011217D03*G54D12*X002926Y012467D03*G54D18*X001801Y011217D03*
G54D12*X006801Y012092D03*G54D13*X008926Y014217D03*G54D12*Y013342D03*
G54D13*X006301Y010217D03*G54D12*X003801Y005967D03*G54D13*Y007217D03*
G54D12*X036426Y012717D03*G54D13*X043051Y014217D03*G54D12*
X035176Y013092D03*G54D13*X040051Y014217D03*X001801Y035467D03*
X007801Y032467D03*X039051Y035467D03*X045051Y032467D03*
X001801Y030467D03*X007801Y027467D03*X039051Y030467D03*
X045051Y027467D03*X001801Y024717D03*X007801Y021717D03*
X039051Y024717D03*X045051Y021717D03*X001801Y019717D03*
X007801Y016717D03*X039051Y019717D03*X045051Y016717D03*
X001801Y014217D03*X007801Y011217D03*X039051Y014217D03*
X045051Y011217D03*X001801Y007217D03*X007801Y004217D03*
X039051Y007217D03*X045051Y004217D03*X021926Y023217D03*
X024926Y029217D03*X021926Y015592D03*X024926Y021592D03*G54D10*
G01X034551Y015717D02*X033301Y01593D01*X032051Y015717*X012301Y019717D02*
X013551Y01993D01*X014801Y019717*X040051Y007217D02*Y005217D01*
X040301Y004967*X043301*X043551Y004717*Y003217*X044051Y002467*G54D11*
G01X042051Y000467D01*X026301*X026051Y000717*Y010967*X042051Y004217D02*
X040801Y003092D01*X034176*X033926Y003342*Y008092*G54D10*
G01X043051Y004217D02*Y004467D01*X042801Y004717*X038176*X037926Y004467*
Y003967*G54D12*G01X045051Y004217D02*X045551Y004717D01*Y010717*
X045051Y011217*X045551Y011717*Y015217*X045051Y015717*Y016717*
X045551Y017217*Y020217*X045051Y020717*Y021717*X045551Y022217*Y026467*
X043926*X043301Y025842*X041801*X041176Y026467*X039551*Y021217*
X039051Y020717*X045551Y026467D02*Y026967D01*X045051Y027467*
X045551Y027967*Y031467*X045051Y032467*G54D10*G01X039051Y016717D02*
X033301D01*X032051*X041051Y019717D02*Y020217D01*X040551Y021217*Y022467*
X041051Y023967*Y024717*G54D12*G01X039051Y019717D02*X038051D01*Y021717*
Y023717*Y024217*X038551Y024717*X039051*X038551*X038051Y025217*Y026467*
G54D10*G01X043051Y016717D02*Y017467D01*X043551Y018967*Y020217*
X044051Y021217*Y021717*Y019717D02*Y020217D01*X044551Y021217*Y022467*
X043102Y024035*X043051Y024717*X003801Y030467D02*X003301Y030967D01*
Y033217*X005801Y034717*Y035467*X006801Y030467D02*Y030967D01*
X006301Y031967*Y033217*X007801Y034717*Y035467*X028551D02*
X027801Y035092D01*X032051Y035467D02*X033301D01*X036801*X037051Y035217*
Y029967*X037301Y029717*X039301*X040051Y030467*X018301Y016717D02*
X019051Y016342D01*X028551Y016717D02*X027801Y016342D01*
X028551Y024717D02*X027801Y024342D01*X032051Y024717D02*X033301D01*
X014801Y029467D02*X013551D01*X011551*X011051Y028967*X005551*
X004801Y028217*Y027467*X018301Y029467D02*X019051Y029092D01*
X012301Y023717D02*X013551Y02393D01*X014801Y023717*X028551Y020717D02*
X027801Y020342D01*X032051Y020717D02*X033301D01*X036301*X036551Y020467*
Y018717*X036801Y018467*X042051*X043051Y019717*X014801Y027467D02*
X013551D01*X018301D02*X019051Y027092D01*X028551Y029467D02*
X027801Y029092D01*X032051Y029467D02*X033301D01*X035301*X035551Y029217*
Y027717*X035801Y027467*X039051*X021926Y026217D02*X022301D01*
X022551Y025967*Y021842*X022301Y021592*X021926*X024926Y025217D02*
X024551D01*X024301Y024967*Y020842*X024551Y020592*X024926*
X021926Y029217D02*X022551D01*X022926Y028842*Y018967*X022551Y018592*
X021926*G54D12*G01X029176Y034467D02*Y032467D01*Y030467*Y028467*Y026467*
Y023717*Y021717*Y019717*Y017717*Y015717*Y014467*X028676Y013967*
X026051Y01393*X020926*X029176Y015717D02*X029676Y015217D01*X038551*
X039051Y015717*G54D10*G01X034551Y023717D02*X033301Y02393D01*
X032051Y023717*X005801Y024717D02*Y023967D01*X006301Y022467*Y021217*
X006801Y020217*Y019717*X003801Y024717D02*X003301Y022467D01*Y020217*
X003801Y019717*G54D12*G01X001801Y024717D02*Y023967D01*X002301Y022467*
Y020217*X001801Y019717*X007801Y021717D02*X008301Y022217D01*Y025967*
X007801Y026467*Y027467*Y026467D02*X007176Y025842D01*X001926*
X001301Y026467*Y028467*Y031467*X001926Y025842D02*X001301Y025217D01*
Y021217*X001801Y020717*X001301Y020217*Y016217*X001801Y015717*
X001301Y015217*Y009967*X001551Y009717*X001801*X007051*X007301Y009467*
Y004717*X007801Y004217*X007051Y009717D02*X007801Y010467D01*Y011217*
G54D10*G01X034551Y021717D02*X033301Y02193D01*X032051Y021717*
X028551Y022717D02*X027801Y022342D01*X032051Y022717D02*X033301D01*
X036801*X037051Y022467*Y018967*X037301Y018717*X039801*X040051Y018967*
Y019717*X021051Y016092D02*X023426D01*X014801Y031467D02*X013551D01*
X011051*X010801Y031217*Y029467*X010551Y029217*X002801*X001801Y028217*
Y027467*X018301Y031467D02*X019051Y031092D01*X034551Y026467D02*
X033301Y02668D01*X032051Y026467*X012301Y015717D02*X013551Y01593D01*
X014801Y015717*X028551Y027467D02*X027801Y027092D01*X032051Y027467D02*
X033301D01*X034551Y017717D02*X033301Y01793D01*X032051Y017717*
X028551Y018717D02*X027801Y018342D01*X032051Y018717D02*X033301D01*
X035801*X036051Y018467*Y017217*X036301Y016967*X038301*X039051Y017717*
X041801*X042051Y017467*Y016717*X014801Y033467D02*X013551D01*X010551*
X010301Y033217*Y029717*X010051Y029467*X003051*X002801Y029717*Y030467*
X018301Y033467D02*X019051Y033092D01*X014801Y018717D02*X013551D01*
X010551Y018467*X002051*X001801Y018217*Y016717*X018301Y018717D02*
X019051Y018342D01*G54D12*G01X008801Y026467D02*Y023717D01*Y021717*
Y019717*G54D10*G01X012301Y026467D02*X013551Y02668D01*X014801Y026467*
X034551Y019717D02*X033301Y01993D01*X032051Y019717*X014801Y032467D02*
X013551Y03268D01*X012301Y032467*X046051Y002467D02*Y003217D01*
X045801Y003467*X044801*X044551Y003717*Y005842*X044301Y006092*X041926*
G54D11*G01X003801Y002467D02*X005551Y000717D01*X023801*X024051Y000967*
Y010967*X009801Y002467D02*X017801D01*X018051Y002717*Y010967*G54D10*
G01X028551Y031467D02*X027801Y031092D01*X032051Y031467D02*X033301D01*
X035801*X036051Y031217*Y029467*X036301Y029217*X041051*X042051Y028217*
Y027467*X034551Y034467D02*X033301Y03468D01*X032051Y034467*
X005801Y007217D02*Y005217D01*X041051Y030467D02*Y030967D01*
X040551Y031967*Y033217*X041051Y034717*Y035467*X043051Y027467D02*
Y028217D01*X044551Y029717*Y033217*X045051Y035467*X044051Y030467D02*
Y030967D01*X043551Y031967*Y033217*X043051Y034717*Y035467*
X010926Y014217D02*X010926Y014592D01*X010676Y014842*X004051*
X003801Y014592*Y014217*X023426Y034342D02*Y035092D01*X012301Y017717D02*
X013551Y01793D01*X014801Y017717*Y022717D02*X013551D01*X010051*
X009801Y022467*Y019217*X009551Y018967*X006051*X005801Y019217*Y019717*
X018301Y022717D02*X019051Y022342D01*G54D11*G01X004801Y002467D02*
X006301Y000967D01*X022801*X023051Y001217*Y010967*G54D10*G01Y011467D01*
X023551Y011967*Y013217*X023801Y013467*G54D11*G01X022051Y010967D02*
Y001467D01*X021801Y001217*X006926*X005801Y002467*X027051Y010967D02*
Y000967D01*X027301Y000717*X041301*X043051Y002467*X029051Y010967D02*
Y001467D01*X029301Y001217*X039801*X041051Y002467*X031051Y010967D02*
Y001967D01*X031301Y001717*X038426*X039051Y002467*X014051Y010967D02*
Y003342D01*X013801Y003092*X001301*X000801Y002467*G54D10*G01Y005217D01*
X002801Y007217*G54D11*G01X032051Y010967D02*Y002217D01*X032301Y001967*
X037676*X038051Y002467*X033051Y010967D02*Y002717D01*X033301Y002467*
X037051*G54D10*G01X033051Y012527D02*Y013467D01*X033301Y013717*X036676*
X036926Y013967*Y014217*Y014342*X037176Y014592*X040801*X041051Y014342*
Y014217*X031051Y012527D02*Y013967D01*X031301Y014217*X035926*Y014592*
X036176Y014842*X043801*X044051Y014592*Y014217*X030051Y012527D02*
X030926Y011717D01*X039801*X040051Y011467*Y011217*X041551Y010217*
X044051Y010217*X016051Y012527D02*X016551Y011967D01*Y009592*
X015051Y012527D02*X015551Y011967D01*Y009217*X013051Y012527D02*
X011676Y011217D01*Y006717*X008926Y003967*G54D12*G01X017051Y010967D02*
Y012527D01*Y014217*X017551Y014717*X020926*X024176*Y016842*
X023426Y017592*Y029092*X021426Y032842*Y034217*X024176Y014717D02*
X026051D01*G54D11*G01X019051Y010967D02*Y002217D01*X018801Y001967*
X009176*X008801Y002467*X020051Y010967D02*Y001967D01*X019801Y001717*
X008426*X007801Y002467*X021051Y010967D02*Y001717D01*X020801Y001467*
X007676*X006801Y002467*G54D10*G01X014801Y024717D02*X013551D01*
X018301D02*X019051Y024342D01*X034551Y032467D02*X033301Y03268D01*
X032051Y032467*X012301Y034467D02*X013551Y03468D01*X014801Y034467*
X012301Y021717D02*X013551Y02193D01*X014801Y021717*X034551Y030467D02*
X033301Y03068D01*X032051Y030467*X012301D02*X013551Y03068D01*
X014801Y030467*G54D12*G01X036926Y007467D02*X037926Y007467D01*X038801*
X039051Y007217*X039926Y008217*X040551*Y009217*Y010217*X038676*
X038176Y010717*X037926*X036926*X035926*G54D10*G01X042551Y015717D02*
X044051Y016717D01*G54D12*G01X008926Y007467D02*X009926Y007467D01*
X010551*X010926Y007842*X010926Y010717*X009926*X008926*G54D10*
G01X028551Y033467D02*X027801Y033092D01*X032051Y033467D02*X033301D01*
X036301*X036551Y033217*Y029717*X036801Y029467*X042801*X043051Y029717*
Y030467*X005301Y015717D02*X005801D01*X006801Y016717*X006301Y008217D02*
X005551D01*X005301Y007967*Y005842*X005051Y005592*X003051*
X002801Y005342*Y004217*G54D11*G01X042051Y002467D02*X040551Y000967D01*
X028301*X028051Y001217*Y010967*G54D10*G01Y011467D01*X027551Y011967*
Y012842*X027301Y013092*X025301*X024926Y013467*X014801Y035467D02*
X013551D01*X010051*X009801Y035217*Y029967*X009551Y029717*X006301*
X005801Y030467*X018301Y035467D02*X019051Y035092D01*X012301Y028467D02*
X013551Y02868D01*X014801Y028467*X009926Y003967D02*X012301Y006342D01*
Y011217*X012801Y011717*X013176*X014051Y012592*Y012527*
X006301Y009217D02*X006801Y008717D01*Y007217*G54D12*
G01X021426Y035217D02*Y036092D01*X023426*X026176*X026801Y035467*
X027426Y036092*X038426*X039051Y035467*X038051Y034467*Y032467*Y030467*
X039051*X026801Y035467D02*Y035092D01*X025426*X026801D02*Y033092D01*
Y031092*Y029092*Y027092*Y024342*Y022342*Y020342*Y018342*Y016342*
X021426Y036092D02*X020676D01*X020051Y035467*X019426Y036092*X009426*
X008801Y035467*Y034467*Y032467*Y030467*Y035467D02*X008176Y036092D01*
X002426*X001801Y035467*Y034717*X002301Y033217*Y031967*X001801Y030967*
Y030467*X020051Y035467D02*Y035092D01*Y033092*Y031092*Y029092*Y027092*
Y024342*Y022342*Y020342*Y018342*Y016342*Y015967*X020676Y015342*X021676*
X021926Y015592*G54D10*G01X006801Y014217D02*Y014342D01*X007051Y014592*
X009676*X009926Y014342*Y014217*X004801Y016717D02*Y017967D01*
X005051Y018217*X010051*X010301Y017967*Y016967*X010551Y016717*X013551*
X014801*G54D12*G01X007801D02*Y015717D01*X008301Y015217*X017176*
X017676Y015717*Y017717*Y019717*Y021717*Y023717*Y026467*Y028467*Y030467*
Y032467*Y034467*G54D10*G01X024926Y017592D02*X024301D01*X023926Y017967*
Y027842*X024301Y028217*X024926*X025801Y029467*X021926Y020592D02*
X022301D01*X022551Y020342*Y019092*G54D11*G01X002801Y002467D02*
X004801Y000467D01*X024801*X025051Y000717*Y010967*G54D10*
G01X014801Y020717D02*X013551D01*X010551*X010301Y020467*Y018967*
X010051Y018717*X003051*X002801Y018967*Y019717*X018301Y020717D02*
X019051Y020342D01*X034551Y028467D02*X033301Y02868D01*X032051Y028467*
X039051Y011217D02*X038801Y011467D01*X030551*X030051Y010967*G54D11*
G01Y001717D01*X030301Y001467*X039176*X040051Y002467*G54D10*
G01X042051Y011217D02*Y011842D01*X041801Y012092*X035551*
X043051Y011217D02*X043068Y01213D01*X042798Y0124*X034833*Y01321*
X035091Y013467*X037676*X037926Y013717*Y014217*X034833Y0124D02*
X034401Y011967D01*X032551*X032051Y012527*G54D11*G01X016051Y008092D02*
Y010967D01*X015051Y008592D02*Y010967D01*X034676Y008592D02*Y003717D01*
X034926Y003467*X038801*X039051Y003717*Y004217*G54D10*
G01X003426Y004967D02*X004551D01*X004801Y004717*Y004217*G54D11*
G01X005426Y003467D01*X012801*X013051Y003717*Y010967*G54D10*
G01X023801Y016592D02*X021926D01*X041551Y005342D02*Y006217D01*
X041801Y006467*X042801*X043051Y006717*Y007217*X005301Y013342D02*
Y012967D01*X006801Y011467*Y011217*X004301Y013342D02*X003801Y012842D01*
Y011217*X002926Y012467D02*X001801Y011217D01*X006801Y012092D02*
X008926Y014217D01*Y013342D02*X007301Y011717D01*Y010842*X006676Y010217*
X006301*X003801Y005967D02*Y007217D01*X036426Y012717D02*X042801D01*
X043051Y012967*Y014217*X035176Y013092D02*X039801D01*X040051Y013342*
Y014217*
M02*