%FSTAX24Y24*%
%MOIN*%
%IN SILK2.GBR *%
%ADD10C,0.0100*%
G54D10*G01X005551Y033592D02*X007801Y032467D01*X005301Y033217D02*
X005676Y033967D01*X003676Y034967*X003301Y034217*X005301Y033217*
X001801Y035467D02*X003551Y034592D01*X042801Y033592D02*
X045051Y032467D01*X042551Y033217D02*X042926Y033967D01*X040926Y034967*
X040551Y034217*X042551Y033217*X039051Y035467D02*X040801Y034592D01*
X005551Y028592D02*X007801Y027467D01*X005301Y028217D02*
X005676Y028967D01*X003676Y029967*X003301Y029217*X005301Y028217*
X001801Y030467D02*X003551Y029592D01*X042801Y028592D02*
X045051Y027467D01*X042551Y028217D02*X042926Y028967D01*X040926Y029967*
X040551Y029217*X042551Y028217*X039051Y030467D02*X040801Y029592D01*
X005551Y022842D02*X007801Y021717D01*X005301Y022467D02*
X005676Y023217D01*X003676Y024217*X003301Y023467*X005301Y022467*
X001801Y024717D02*X003551Y023842D01*X042801Y022842D02*
X045051Y021717D01*X042551Y022467D02*X042926Y023217D01*X040926Y024217*
X040551Y023467*X042551Y022467*X039051Y024717D02*X040801Y023842D01*
X005551Y017842D02*X007801Y016717D01*X005301Y017467D02*
X005676Y018217D01*X003676Y019217*X003301Y018467*X005301Y017467*
X001801Y019717D02*X003551Y018842D01*X042801Y017842D02*
X045051Y016717D01*X042551Y017467D02*X042926Y018217D01*X040926Y019217*
X040551Y018467*X042551Y017467*X039051Y019717D02*X040801Y018842D01*
X005551Y012342D02*X007801Y011217D01*X005301Y011967D02*
X005676Y012717D01*X003676Y013717*X003301Y012967*X005301Y011967*
X001801Y014217D02*X003551Y013342D01*X042801Y012342D02*
X045051Y011217D01*X042551Y011967D02*X042926Y012717D01*X040926Y013717*
X040551Y012967*X042551Y011967*X039051Y014217D02*X040801Y013342D01*
X005551Y005342D02*X007801Y004217D01*X005301Y004967D02*
X005676Y005717D01*X003676Y006717*X003301Y005967*X005301Y004967*
X001801Y007217D02*X003551Y006342D01*X042801Y005342D02*
X045051Y004217D01*X042551Y004967D02*X042926Y005717D01*X040926Y006717*
X040551Y005967*X042551Y004967*X039051Y007217D02*X040801Y006342D01*
X023801Y026967D02*X024926Y029217D01*X024176Y026717D02*
X023426Y027092D01*X022426Y025092*X023176Y024717*X024176Y026717*
X021926Y023217D02*X022801Y024967D01*X023801Y019342D02*
X024926Y021592D01*X024176Y019092D02*X023426Y019467D01*X022426Y017467*
X023176Y017092*X024176Y019092*X021926Y015592D02*X022801Y017342D01*
M02*