%FSTAX24Y24*%
%MOIN*%
%IN SILK1.GBR *%
%ADD10C,0.0041*%
%ADD11C,0.0050*%
%ADD12C,0.0054*%
%ADD13C,0.0057*%
%ADD14C,0.0071*%
%ADD15C,0.0080*%
%ADD16C,0.0100*%
G54D16*G01X027351Y030092D02*X027524Y030077D01*X027693Y030032*
X027851Y029958*X027994Y029858*X028117Y029735*Y02845*X027994Y028326*
X027851Y028226*X027693Y028153*X027524Y028108*X027351Y028092*
X027177Y028108*X027009Y028153*X026851Y028226*X026708Y028326*
X026585Y02845*X026485Y028592*X026411Y02875*X026366Y028919*
X026351Y029092*X026366Y029266*X026411Y029434*X026485Y029592*
X026585Y029735*X026708Y029858*X026851Y029958*X027009Y030032*
X027177Y030077*X027351Y030092*G54D15*G01X037551Y015317D02*
X037501Y015267D01*X035101*X035051Y015317*Y016117*X035101Y016167*
X037501*X037551Y016117*Y015317*X043551Y008817D02*X043501Y008767D01*
X041101*X041051Y008817*Y009617*X041101Y009667*X043501*X043551Y009617*
Y008817*X031676Y026842D02*Y026092D01*X029551*Y026842*X031676*
X031301Y026092D02*Y026842D01*G54D10*G01X036761Y001926D02*
X036802Y001967D01*Y001719*X036844*X036802D02*X036761D01*
X037714Y001926D02*X037755Y001967D01*X037838*X037879Y001926*Y001885*
X037838Y001843*X037714Y00176*Y001719*X037879*X038708Y001926D02*
X038749Y001967D01*X038832*X038874Y001926*Y001885*X038832Y001843*
X038874Y001802*Y00176*X038832Y001719*X038749*X038708Y00176*
X038832Y001843D02*X038791D01*X039826Y001719D02*Y001967D01*
X039702Y001822*X039868*X040862Y001967D02*X040696D01*Y001843*
X040738Y001885*X040821*X040862Y001843*Y00176*X040821Y001719*X040738*
X040696Y00176*X041856Y001926D02*X041815Y001967D01*X041732*
X041691Y001926*Y00176*X041732Y001719*X041815*X041856Y00176*Y001822*
X041815Y001864*X041732*X041691Y001822*X042685Y001967D02*X042851D01*
X042726Y001719*X043804Y001843D02*X043845Y001885D01*Y001926*
X043804Y001967*X043721*X043679Y001926*Y001885*X043721Y001843*X043804*
X043845Y001802*Y00176*X043804Y001719*X043721*X043679Y00176*Y001802*
X043721Y001843*X044674Y00176D02*X044715Y001719D01*X044798*
X044839Y00176*Y001926*X044798Y001967*X044715*X044674Y001926*Y001864*
X044715Y001822*X044798*X044839Y001864*X045709Y001926D02*
X045751Y001967D01*Y001719*X045792*X045751D02*X045709D01*
X046082Y001926D02*X046041Y001967D01*X045958*X045916Y001926*Y00176*
X045958Y001719*X046041*X046082Y00176*Y001926*X045999Y001885D02*
Y001802D01*G54D15*G01X031676Y024092D02*Y023342D01*X029551*Y024092*
X031676*X031301Y023342D02*Y024092D01*X031676Y020092D02*Y019342D01*
X029551*Y020092*X031676*X031301Y019342D02*Y020092D01*G54D16*
G01X027351Y017342D02*X027524Y017327D01*X027693Y017282*X027851Y017208*
X027994Y017108*X028117Y016985*Y0157*X027994Y015576*X027851Y015476*
X027693Y015403*X027524Y015358*X027351Y015342*X027177Y015358*
X027009Y015403*X026851Y015476*X026708Y015576*X026585Y0157*
X026485Y015842*X026411Y016*X026366Y016169*X026351Y016342*
X026366Y016516*X026411Y016684*X026485Y016842*X026585Y016985*
X026708Y017108*X026851Y017208*X027009Y017282*X027177Y017327*
X027351Y017342*G54D15*G01X011801Y019317D02*X011751Y019267D01*X009351*
X009301Y019317*Y020117*X009351Y020167*X011751*X011801Y020117*Y019317*
G54D16*G01X019501Y023342D02*X019327Y023358D01*X019159Y023403*
X019001Y023476*X018858Y023576*X018735Y0237*Y024985*X018858Y025108*
X019001Y025208*X019159Y025282*X019327Y025327*X019501Y025342*
X019674Y025327*X019843Y025282*X020001Y025208*X020144Y025108*
X020267Y024985*X020367Y024842*X02044Y024684*X020486Y024516*
X020501Y024342*X020486Y024169*X02044Y024*X020367Y023842*X020267Y0237*
X020144Y023576*X020001Y023476*X019843Y023403*X019674Y023358*
X019501Y023342*X014551Y035074D02*X014536Y035247D01*X01449Y035416*
X014417Y035574*X014317Y035717*X014194Y03584*X014051Y03594*
X013893Y036013*X013724Y036059*X013551Y036074*X013377Y036059*
X013209Y036013*X013051Y03594*X012908Y03584*X012785Y035717*
X012685Y035574*X012611Y035416*X012566Y035247*X012551Y035074*
X012566Y0349*X012611Y034732*X012685Y034574*X012785Y034431*
X012908Y034308*X013051Y034208*X013209Y034134*X013377Y034089*
X013551Y034074*X013724Y034089*X013893Y034134*X014051Y034208*
X014194Y034308*X014317Y034431*X014417Y034574*X01449Y034732*
X014536Y0349*X014551Y035074*X034301Y016324D02*X034286Y016497D01*
X03424Y016666*X034167Y016824*X034067Y016967*X033944Y01709*
X033801Y01719*X033643Y017263*X033474Y017309*X033301Y017324*
X033127Y017309*X032959Y017263*X032801Y01719*X032658Y01709*
X032535Y016967*X032435Y016824*X032361Y016666*X032316Y016497*
X032301Y016324*X032316Y01615*X032361Y015982*X032435Y015824*
X032535Y015681*X032658Y015558*X032801Y015458*X032959Y015384*
X033127Y015339*X033301Y015324*X033474Y015339*X033643Y015384*
X033801Y015458*X033944Y015558*X034067Y015681*X034167Y015824*
X03424Y015982*X034286Y01615*X034301Y016324*X014551Y020324D02*
X014536Y020497D01*X01449Y020666*X014417Y020824*X014317Y020967*
X014194Y02109*X014051Y02119*X013893Y021263*X013724Y021309*
X013551Y021324*X013377Y021309*X013209Y021263*X013051Y02119*
X012908Y02109*X012785Y020967*X012685Y020824*X012611Y020666*
X012566Y020497*X012551Y020324*X012566Y02015*X012611Y019982*
X012685Y019824*X012785Y019681*X012908Y019558*X013051Y019458*
X013209Y019384*X013377Y019339*X013551Y019324*X013724Y019339*
X013893Y019384*X014051Y019458*X014194Y019558*X014317Y019681*
X014417Y019824*X01449Y019982*X014536Y02015*X014551Y020324*
X025801Y029817D02*X02589Y029827D01*X025974Y029857*X02605Y029905*
X026113Y029968*X026161Y030044*X026191Y030128*X026201Y030217*Y031217*
X026191Y031306*X026161Y031391*X026113Y031467*X02605Y03153*
X025974Y031578*X02589Y031607*X025801Y031617*X025712Y031607*
X025627Y031578*X025551Y03153*X025488Y031467*X02544Y031391*
X025411Y031306*X025401Y031217*Y030217*X025411Y030128*X02544Y030044*
X025488Y029968*X025551Y029905*X025627Y029857*X025712Y029827*
X025801Y029817*X002151Y015717D02*X002161Y015628D01*X00219Y015544*
X002238Y015468*X002301Y015405*X002377Y015357*X002462Y015327*
X002551Y015317*X003551*X00364Y015327*X003724Y015357*X0038Y015405*
X003863Y015468*X003911Y015544*X003941Y015628*X003951Y015717*
X003941Y015806*X003911Y015891*X003863Y015967*X0038Y01603*
X003724Y016078*X00364Y016107*X003551Y016117*X002551*X002462Y016107*
X002377Y016078*X002301Y01603*X002238Y015967*X00219Y015891*
X002161Y015806*X002151Y015717*G54D15*G01X031676Y018092D02*Y017342D01*
X029551*Y018092*X031676*X031301Y017342D02*Y018092D01*X015176Y030092D02*
Y030842D01*X017301*Y030092*X015176*X015551Y030842D02*Y030092D01*
X015176Y017342D02*Y018092D01*X017301*Y017342*X015176*X015551Y018092D02*
Y017342D01*X031676Y030842D02*Y030092D01*X029551*Y030842*X031676*
X031301Y030092D02*Y030842D01*G54D16*G01X014551Y016324D02*
X014536Y016497D01*X01449Y016666*X014417Y016824*X014317Y016967*
X014194Y01709*X014051Y01719*X013893Y017263*X013724Y017309*
X013551Y017324*X013377Y017309*X013209Y017263*X013051Y01719*
X012908Y01709*X012785Y016967*X012685Y016824*X012611Y016666*
X012566Y016497*X012551Y016324*X012566Y01615*X012611Y015982*
X012685Y015824*X012785Y015681*X012908Y015558*X013051Y015458*
X013209Y015384*X013377Y015339*X013551Y015324*X013724Y015339*
X013893Y015384*X014051Y015458*X014194Y015558*X014317Y015681*
X014417Y015824*X01449Y015982*X014536Y01615*X014551Y016324*G54D11*
G01X038551Y005467D02*Y004717D01*X045551*Y006717*X038551*Y005967*
X038628Y005955*X038698Y00592*X038753Y005864*X038789Y005795*
X038801Y005717*X038789Y00564*X038753Y00557*X038698Y005515*
X038628Y00548*X038551Y005467*Y022967D02*Y022217D01*X045551*Y024217*
X038551*Y023467*X038628Y023455*X038698Y02342*X038753Y023364*
X038789Y023295*X038801Y023217*X038789Y02314*X038753Y02307*
X038698Y023015*X038628Y02298*X038551Y022967*Y017967D02*Y017217D01*
X045551*Y019217*X038551*Y018467*X038628Y018455*X038698Y01842*
X038753Y018364*X038789Y018295*X038801Y018217*X038789Y01814*
X038753Y01807*X038698Y018015*X038628Y01798*X038551Y017967*
X001301Y028717D02*Y027967D01*X008301*Y029967*X001301*Y029217*
X001378Y029205*X001448Y02917*X001503Y029114*X001539Y029045*
X001551Y028967*X001539Y02889*X001503Y02882*X001448Y028765*
X001378Y02873*X001301Y028717*G54D16*G01X027351Y023342D02*
X027524Y023327D01*X027693Y023282*X027851Y023208*X027994Y023108*
X028117Y022985*Y0217*X027994Y021576*X027851Y021476*X027693Y021403*
X027524Y021358*X027351Y021342*X027177Y021358*X027009Y021403*
X026851Y021476*X026708Y021576*X026585Y0217*X026485Y021842*X026411Y022*
X026366Y022169*X026351Y022342*X026366Y022516*X026411Y022684*
X026485Y022842*X026585Y022985*X026708Y023108*X026851Y023208*
X027009Y023282*X027177Y023327*X027351Y023342*Y019342D02*
X027524Y019327D01*X027693Y019282*X027851Y019208*X027994Y019108*
X028117Y018985*Y0177*X027994Y017576*X027851Y017476*X027693Y017403*
X027524Y017358*X027351Y017342*X027177Y017358*X027009Y017403*
X026851Y017476*X026708Y017576*X026585Y0177*X026485Y017842*X026411Y018*
X026366Y018169*X026351Y018342*X026366Y018516*X026411Y018684*
X026485Y018842*X026585Y018985*X026708Y019108*X026851Y019208*
X027009Y019282*X027177Y019327*X027351Y019342*Y025342D02*
X027524Y025327D01*X027693Y025282*X027851Y025208*X027994Y025108*
X028117Y024985*Y0237*X027994Y023576*X027851Y023476*X027693Y023403*
X027524Y023358*X027351Y023342*X027177Y023358*X027009Y023403*
X026851Y023476*X026708Y023576*X026585Y0237*X026485Y023842*X026411Y024*
X026366Y024169*X026351Y024342*X026366Y024516*X026411Y024684*
X026485Y024842*X026585Y024985*X026708Y025108*X026851Y025208*
X027009Y025282*X027177Y025327*X027351Y025342*X034301Y031074D02*
X034286Y031247D01*X03424Y031416*X034167Y031574*X034067Y031717*
X033944Y03184*X033801Y03194*X033643Y032013*X033474Y032059*
X033301Y032074*X033127Y032059*X032959Y032013*X032801Y03194*
X032658Y03184*X032535Y031717*X032435Y031574*X032361Y031416*
X032316Y031247*X032301Y031074*X032316Y0309*X032361Y030732*
X032435Y030574*X032535Y030431*X032658Y030308*X032801Y030208*
X032959Y030134*X033127Y030089*X033301Y030074*X033474Y030089*
X033643Y030134*X033801Y030208*X033944Y030308*X034067Y030431*
X034167Y030574*X03424Y030732*X034286Y0309*X034301Y031074*G54D15*
G01X031551Y035067D02*X031501Y035017D01*X029101*X029051Y035067*Y035867*
X029101Y035917*X031501*X031551Y035867*Y035067*G54D16*
G01X027351Y028092D02*X027524Y028077D01*X027693Y028032*X027851Y027958*
X027994Y027858*X028117Y027735*Y02645*X027994Y026326*X027851Y026226*
X027693Y026153*X027524Y026108*X027351Y026092*X027177Y026108*
X027009Y026153*X026851Y026226*X026708Y026326*X026585Y02645*
X026485Y026592*X026411Y02675*X026366Y026919*X026351Y027092*
X026366Y027266*X026411Y027434*X026485Y027592*X026585Y027735*
X026708Y027858*X026851Y027958*X027009Y028032*X027177Y028077*
X027351Y028092*X025051Y014324D02*X025066Y01415D01*X025111Y013982*
X025185Y013824*X025285Y013681*X025408Y013558*X025551Y013458*
X025709Y013384*X025877Y013339*X026051Y013324*X026224Y013339*
X026393Y013384*X026551Y013458*X026694Y013558*X026817Y013681*
X026917Y013824*X02699Y013982*X027036Y01415*X027051Y014324*
X027036Y014497*X02699Y014666*X026917Y014824*X026817Y014966*
X026694Y01509*X026551Y01519*X026393Y015263*X026224Y015309*
X026051Y015324*X025877Y015309*X025709Y015263*X025551Y01519*
X025408Y01509*X025285Y014966*X025185Y014824*X025111Y014666*
X025066Y014497*X025051Y014324*X019926D02*X019941Y01415D01*
X019986Y013982*X02006Y013824*X02016Y013681*X020283Y013558*
X020426Y013458*X020584Y013384*X020752Y013339*X020926Y013324*
X021099Y013339*X021268Y013384*X021426Y013458*X021569Y013558*
X021692Y013681*X021792Y013824*X021865Y013982*X021911Y01415*
X021926Y014324*X021911Y014497*X021865Y014666*X021792Y014824*
X021692Y014966*X021569Y01509*X021426Y01519*X021268Y015263*
X021099Y015309*X020926Y015324*X020752Y015309*X020584Y015263*
X020426Y01519*X020283Y01509*X02016Y014966*X02006Y014824*X019986Y014666*
X019941Y014497*X019926Y014324*G54D15*G01X017801Y016317D02*
X017751Y016267D01*X015351*X015301Y016317*Y017117*X015351Y017167*
X017751*X017801Y017117*Y016317*X037526Y004467D02*X037476Y004517D01*
Y006917*X037526Y006967*X038326*X038376Y006917*Y004517*X038326Y004467*
X037526*G54D10*G01X000669Y001925D02*X00071Y001966D01*Y001717*X000751*
X00071D02*X000669D01*X000917Y001925D02*X000959Y001966D01*Y001717*X001*
X000959D02*X000917D01*X001663Y001925D02*X001704Y001966D01*Y001717*
X001746*X001704D02*X001663D01*X00187Y001925D02*X001911Y001966D01*
X001994*X002036Y001925*Y001883*X001994Y001842*X00187Y001759*Y001717*
X002036*X002657Y001925D02*X002699Y001966D01*Y001717*X00274*X002699D02*
X002657D01*X002864Y001925D02*X002906Y001966D01*X002989*X00303Y001925*
Y001883*X002989Y001842*X00303Y0018*Y001759*X002989Y001717*X002906*
X002864Y001759*X002989Y001842D02*X002947D01*X003651Y001925D02*
X003693Y001966D01*Y001717*X003734*X003693D02*X003651D01*X003983D02*
Y001966D01*X003859Y001821*X004024*X004646Y001925D02*X004687Y001966D01*
Y001717*X004729*X004687D02*X004646D01*X005019Y001966D02*X004853D01*
Y001842*X004894Y001883*X004977*X005019Y001842*Y001759*X004977Y001717*
X004894*X004853Y001759*X00564Y001925D02*X005681Y001966D01*Y001717*
X005723*X005681D02*X00564D01*X006013Y001925D02*X005971Y001966D01*
X005889*X005847Y001925*Y001759*X005889Y001717*X005971*X006013Y001759*
Y001821*X005971Y001862*X005889*X005847Y001821*X006634Y001925D02*
X006676Y001966D01*Y001717*X006717*X006676D02*X006634D01*
X006841Y001966D02*X007007D01*X006883Y001717*X007629Y001925D02*
X00767Y001966D01*Y001717*X007711*X00767D02*X007629D01*X00796Y001842D02*
X008001Y001883D01*Y001925*X00796Y001966*X007877*X007836Y001925*Y001883*
X007877Y001842*X00796*X008001Y0018*Y001759*X00796Y001717*X007877*
X007836Y001759*Y0018*X007877Y001842*X008623Y001925D02*
X008664Y001966D01*Y001717*X008706*X008664D02*X008623D01*
X00883Y001759D02*X008871Y001717D01*X008954*X008996Y001759*Y001925*
X008954Y001966*X008871*X00883Y001925*Y001862*X008871Y001821*X008954*
X008996Y001862*X009576Y001925D02*X009617Y001966D01*X0097*
X009741Y001925*Y001883*X0097Y001842*X009576Y001759*Y001717*X009741*
X00999Y001925D02*X009949Y001966D01*X009866*X009824Y001925*Y001759*
X009866Y001717*X009949*X00999Y001759*Y001925*X009907Y001883D02*
Y0018D01*G54D16*G01X014551Y033074D02*X014536Y033247D01*X01449Y033416*
X014417Y033574*X014317Y033717*X014194Y03384*X014051Y03394*
X013893Y034013*X013724Y034059*X013551Y034074*X013377Y034059*
X013209Y034013*X013051Y03394*X012908Y03384*X012785Y033717*
X012685Y033574*X012611Y033416*X012566Y033247*X012551Y033074*
X012566Y0329*X012611Y032732*X012685Y032574*X012785Y032431*
X012908Y032308*X013051Y032208*X013209Y032134*X013377Y032089*
X013551Y032074*X013724Y032089*X013893Y032134*X014051Y032208*
X014194Y032308*X014317Y032431*X014417Y032574*X01449Y032732*
X014536Y0329*X014551Y033074*G54D15*G01X031551Y016317D02*
X031501Y016267D01*X029101*X029051Y016317*Y017117*X029101Y017167*
X031501*X031551Y017117*Y016317*Y024317D02*X031501Y024267D01*X029101*
X029051Y024317*Y025117*X029101Y025167*X031501*X031551Y025117*Y024317*
X017801Y029067D02*X017751Y029017D01*X015351*X015301Y029067*Y029867*
X015351Y029917*X017751*X017801Y029867*Y029067*X011801Y023317D02*
X011751Y023267D01*X009351*X009301Y023317*Y024117*X009351Y024167*
X011751*X011801Y024117*Y023317*X031551Y020317D02*X031501Y020267D01*
X029101*X029051Y020317*Y021117*X029101Y021167*X031501*X031551Y021117*
Y020317*X017801Y027067D02*X017751Y027017D01*X015351*X015301Y027067*
Y027867*X015351Y027917*X017751*X017801Y027867*Y027067*G54D16*
G01X034301Y022324D02*X034286Y022497D01*X03424Y022666*X034167Y022824*
X034067Y022967*X033944Y02309*X033801Y02319*X033643Y023263*
X033474Y023309*X033301Y023324*X033127Y023309*X032959Y023263*
X032801Y02319*X032658Y02309*X032535Y022967*X032435Y022824*
X032361Y022666*X032316Y022497*X032301Y022324*X032316Y02215*
X032361Y021982*X032435Y021824*X032535Y021681*X032658Y021558*
X032801Y021458*X032959Y021384*X033127Y021339*X033301Y021324*
X033474Y021339*X033643Y021384*X033801Y021458*X033944Y021558*
X034067Y021681*X034167Y021824*X03424Y021982*X034286Y02215*
X034301Y022324*X014551Y024324D02*X014536Y024497D01*X01449Y024666*
X014417Y024824*X014317Y024967*X014194Y02509*X014051Y02519*
X013893Y025263*X013724Y025309*X013551Y025324*X013377Y025309*
X013209Y025263*X013051Y02519*X012908Y02509*X012785Y024967*
X012685Y024824*X012611Y024666*X012566Y024497*X012551Y024324*
X012566Y02415*X012611Y023982*X012685Y023824*X012785Y023681*
X012908Y023558*X013051Y023458*X013209Y023384*X013377Y023339*
X013551Y023324*X013724Y023339*X013893Y023384*X014051Y023458*
X014194Y023558*X014317Y023681*X014417Y023824*X01449Y023982*
X014536Y02415*X014551Y024324*G54D15*G01X031551Y029067D02*
X031501Y029017D01*X029101*X029051Y029067*Y029867*X029101Y029917*
X031501*X031551Y029867*Y029067*G54D16*G01X019501Y019342D02*
X019327Y019358D01*X019159Y019403*X019001Y019476*X018858Y019576*
X018735Y0197*Y020985*X018858Y021108*X019001Y021208*X019159Y021282*
X019327Y021327*X019501Y021342*X019674Y021327*X019843Y021282*
X020001Y021208*X020144Y021108*X020267Y020985*X020367Y020842*
X02044Y020684*X020486Y020516*X020501Y020342*X020486Y020169*X02044Y02*
X020367Y019842*X020267Y0197*X020144Y019576*X020001Y019476*
X019843Y019403*X019674Y019358*X019501Y019342*G54D11*
G01X023676Y022717D02*X024426D01*Y029717*X022426*Y022717*X023176*
X023188Y022795*X023224Y022864*X023279Y02292*X023348Y022955*
X023426Y022967*X023503Y022955*X023573Y02292*X023628Y022864*
X023664Y022795*X023676Y022717*G54D15*G01X031676Y022092D02*Y021342D01*
X029551*Y022092*X031676*X031301Y021342D02*Y022092D01*X031676Y034842D02*
Y034092D01*X029551*Y034842*X031676*X031301Y034092D02*Y034842D01*
X037551Y023317D02*X037501Y023267D01*X035101*X035051Y023317*Y024117*
X035101Y024167*X037501*X037551Y024117*Y023317*X009326Y013717D02*
X009376Y013667D01*Y011267*X009326Y011217*X008526*X008476Y011267*
Y013667*X008526Y013717*X009326*G54D16*G01X034301Y020324D02*
X034286Y020497D01*X03424Y020666*X034167Y020824*X034067Y020967*
X033944Y02109*X033801Y02119*X033643Y021263*X033474Y021309*
X033301Y021324*X033127Y021309*X032959Y021263*X032801Y02119*
X032658Y02109*X032535Y020967*X032435Y020824*X032361Y020666*
X032316Y020497*X032301Y020324*X032316Y02015*X032361Y019982*
X032435Y019824*X032535Y019681*X032658Y019558*X032801Y019458*
X032959Y019384*X033127Y019339*X033301Y019324*X033474Y019339*
X033643Y019384*X033801Y019458*X033944Y019558*X034067Y019681*
X034167Y019824*X03424Y019982*X034286Y02015*X034301Y020324*
X014551Y022324D02*X014536Y022497D01*X01449Y022666*X014417Y022824*
X014317Y022967*X014194Y02309*X014051Y02319*X013893Y023263*
X013724Y023309*X013551Y023324*X013377Y023309*X013209Y023263*
X013051Y02319*X012908Y02309*X012785Y022967*X012685Y022824*
X012611Y022666*X012566Y022497*X012551Y022324*X012566Y02215*
X012611Y021982*X012685Y021824*X012785Y021681*X012908Y021558*
X013051Y021458*X013209Y021384*X013377Y021339*X013551Y021324*
X013724Y021339*X013893Y021384*X014051Y021458*X014194Y021558*
X014317Y021681*X014417Y021824*X01449Y021982*X014536Y02215*
X014551Y022324*X027351Y032092D02*X027524Y032077D01*X027693Y032032*
X027851Y031958*X027994Y031858*X028117Y031735*Y03045*X027994Y030326*
X027851Y030226*X027693Y030153*X027524Y030108*X027351Y030092*
X027177Y030108*X027009Y030153*X026851Y030226*X026708Y030326*
X026585Y03045*X026485Y030592*X026411Y03075*X026366Y030919*
X026351Y031092*X026366Y031266*X026411Y031434*X026485Y031592*
X026585Y031735*X026708Y031858*X026851Y031958*X027009Y032032*
X027177Y032077*X027351Y032092*X041201Y020717D02*X041191Y020806D01*
X041161Y020891*X041113Y020967*X04105Y02103*X040974Y021078*
X04089Y021107*X040801Y021117*X039801*X039712Y021107*X039627Y021078*
X039551Y02103*X039488Y020967*X03944Y020891*X039411Y020806*
X039401Y020717*X039411Y020628*X03944Y020544*X039488Y020468*
X039551Y020405*X039627Y020357*X039712Y020327*X039801Y020317*X040801*
X04089Y020327*X040974Y020357*X04105Y020405*X041113Y020468*
X041161Y020544*X041191Y020628*X041201Y020717*X044701D02*
X044691Y020806D01*X044661Y020891*X044613Y020967*X04455Y02103*
X044474Y021078*X04439Y021107*X044301Y021117*X043301*X043212Y021107*
X043127Y021078*X043051Y02103*X042988Y020967*X04294Y020891*
X042911Y020806*X042901Y020717*X042911Y020628*X04294Y020544*
X042988Y020468*X043051Y020405*X043127Y020357*X043212Y020327*
X043301Y020317*X044301*X04439Y020327*X044474Y020357*X04455Y020405*
X044613Y020468*X044661Y020544*X044691Y020628*X044701Y020717*G54D11*
G01X038551Y033717D02*Y032967D01*X045551*Y034967*X038551*Y034217*
X038628Y034205*X038698Y03417*X038753Y034114*X038789Y034045*
X038801Y033967*X038789Y03389*X038753Y03382*X038698Y033765*
X038628Y03373*X038551Y033717*X001301Y022967D02*Y022217D01*X008301*
Y024217*X001301*Y023467*X001378Y023455*X001448Y02342*X001503Y023364*
X001539Y023295*X001551Y023217*X001539Y02314*X001503Y02307*
X001448Y023015*X001378Y02298*X001301Y022967*G54D16*
G01X019501Y032092D02*X019327Y032108D01*X019159Y032153*X019001Y032226*
X018858Y032326*X018735Y03245*Y033735*X018858Y033858*X019001Y033958*
X019159Y034032*X019327Y034077*X019501Y034092*X019674Y034077*
X019843Y034032*X020001Y033958*X020144Y033858*X020267Y033735*
X020367Y033592*X02044Y033434*X020486Y033266*X020501Y033092*
X020486Y032919*X02044Y03275*X020367Y032592*X020267Y03245*
X020144Y032326*X020001Y032226*X019843Y032153*X019674Y032108*
X019501Y032092*X014551Y018324D02*X014536Y018497D01*X01449Y018666*
X014417Y018824*X014317Y018967*X014194Y01909*X014051Y01919*
X013893Y019263*X013724Y019309*X013551Y019324*X013377Y019309*
X013209Y019263*X013051Y01919*X012908Y01909*X012785Y018967*
X012685Y018824*X012611Y018666*X012566Y018497*X012551Y018324*
X012566Y01815*X012611Y017982*X012685Y017824*X012785Y017681*
X012908Y017558*X013051Y017458*X013209Y017384*X013377Y017339*
X013551Y017324*X013724Y017339*X013893Y017384*X014051Y017458*
X014194Y017558*X014317Y017681*X014417Y017824*X01449Y017982*
X014536Y01815*X014551Y018324*Y027074D02*X014536Y027247D01*
X01449Y027416*X014417Y027574*X014317Y027717*X014194Y02784*
X014051Y02794*X013893Y028013*X013724Y028059*X013551Y028074*
X013377Y028059*X013209Y028013*X013051Y02794*X012908Y02784*
X012785Y027717*X012685Y027574*X012611Y027416*X012566Y027247*
X012551Y027074*X012566Y0269*X012611Y026732*X012685Y026574*
X012785Y026431*X012908Y026308*X013051Y026208*X013209Y026134*
X013377Y026089*X013551Y026074*X013724Y026089*X013893Y026134*
X014051Y026208*X014194Y026308*X014317Y026431*X014417Y026574*
X01449Y026732*X014536Y0269*X014551Y027074*G54D15*G01X015176Y021342D02*
Y022092D01*X017301*Y021342*X015176*X015551Y022092D02*Y021342D01*
X024301Y032717D02*X025051D01*Y030592*X024301*Y032717*X025051Y032342D02*
X024301D01*X037551Y021317D02*X037501Y021267D01*X035101*X035051Y021317*
Y022117*X035101Y022167*X037501*X037551Y022117*Y021317*
X031551Y022317D02*X031501Y022267D01*X029101*X029051Y022317*Y023117*
X029101Y023167*X031501*X031551Y023117*Y022317*G54D16*
G01X021051Y031617D02*X020962Y031607D01*X020877Y031578*X020801Y03153*
X020738Y031467*X02069Y031391*X020661Y031306*X020651Y031217*Y030217*
X020661Y030128*X02069Y030044*X020738Y029968*X020801Y029905*
X020877Y029857*X020962Y029827*X021051Y029817*X02114Y029827*
X021224Y029857*X0213Y029905*X021363Y029968*X021411Y030044*
X021441Y030128*X021451Y030217*Y031217*X021441Y031306*X021411Y031391*
X021363Y031467*X0213Y03153*X021224Y031578*X02114Y031607*X021051Y031617*
G54D15*G01X020651Y016592D02*X020601Y016642D01*Y019042*X020651Y019092*
X021451*X021501Y019042*Y016642*X021451Y016592*X020651*X025401D02*
X025351Y016642D01*Y019042*X025401Y019092*X026201*X026251Y019042*
Y016642*X026201Y016592*X025401*X017801Y031067D02*X017751Y031017D01*
X015351*X015301Y031067*Y031867*X015351Y031917*X017751*X017801Y031867*
Y031067*X037551Y026067D02*X037501Y026017D01*X035101*X035051Y026067*
Y026867*X035101Y026917*X037501*X037551Y026867*Y026067*
X011801Y015317D02*X011751Y015267D01*X009351*X009301Y015317*Y016117*
X009351Y016167*X011751*X011801Y016117*Y015317*X031551Y027067D02*
X031501Y027017D01*X029101*X029051Y027067*Y027867*X029101Y027917*
X031501*X031551Y027867*Y027067*X037551Y017317D02*X037501Y017267D01*
X035101*X035051Y017317*Y018117*X035101Y018167*X037501*X037551Y018117*
Y017317*X031551Y018317D02*X031501Y018267D01*X029101*X029051Y018317*
Y019117*X029101Y019167*X031501*X031551Y019117*Y018317*
X017801Y033067D02*X017751Y033017D01*X015351*X015301Y033067*Y033867*
X015351Y033917*X017751*X017801Y033867*Y033067*G54D16*
G01X019501Y034092D02*X019327Y034108D01*X019159Y034153*X019001Y034226*
X018858Y034326*X018735Y03445*Y035735*X018858Y035858*X019001Y035958*
X019159Y036032*X019327Y036077*X019501Y036092*X019674Y036077*
X019843Y036032*X020001Y035958*X020144Y035858*X020267Y035735*
X020367Y035592*X02044Y035434*X020486Y035266*X020501Y035092*
X020486Y034919*X02044Y03475*X020367Y034592*X020267Y03445*
X020144Y034326*X020001Y034226*X019843Y034153*X019674Y034108*
X019501Y034092*G54D15*G01X011801Y032067D02*X011751Y032017D01*X009351*
X009301Y032067*Y032867*X009351Y032917*X011751*X011801Y032867*Y032067*
X017801Y018317D02*X017751Y018267D01*X015351*X015301Y018317*Y019117*
X015351Y019167*X017751*X017801Y019117*Y018317*G54D16*
G01X034301Y029074D02*X034286Y029247D01*X03424Y029416*X034167Y029574*
X034067Y029717*X033944Y02984*X033801Y02994*X033643Y030013*
X033474Y030059*X033301Y030074*X033127Y030059*X032959Y030013*
X032801Y02994*X032658Y02984*X032535Y029717*X032435Y029574*
X032361Y029416*X032316Y029247*X032301Y029074*X032316Y0289*
X032361Y028732*X032435Y028574*X032535Y028431*X032658Y028308*
X032801Y028208*X032959Y028134*X033127Y028089*X033301Y028074*
X033474Y028089*X033643Y028134*X033801Y028208*X033944Y028308*
X034067Y028431*X034167Y028574*X03424Y028732*X034286Y0289*
X034301Y029074*Y027074D02*X034286Y027247D01*X03424Y027416*
X034167Y027574*X034067Y027717*X033944Y02784*X033801Y02794*
X033643Y028013*X033474Y028059*X033301Y028074*X033127Y028059*
X032959Y028013*X032801Y02794*X032658Y02784*X032535Y027717*
X032435Y027574*X032361Y027416*X032316Y027247*X032301Y027074*
X032316Y0269*X032361Y026732*X032435Y026574*X032535Y026431*
X032658Y026308*X032801Y026208*X032959Y026134*X033127Y026089*
X033301Y026074*X033474Y026089*X033643Y026134*X033801Y026208*
X033944Y026308*X034067Y026431*X034167Y026574*X03424Y026732*
X034286Y0269*X034301Y027074*X014551Y029074D02*X014536Y029247D01*
X01449Y029416*X014417Y029574*X014317Y029717*X014194Y02984*
X014051Y02994*X013893Y030013*X013724Y030059*X013551Y030074*
X013377Y030059*X013209Y030013*X013051Y02994*X012908Y02984*
X012785Y029717*X012685Y029574*X012611Y029416*X012566Y029247*
X012551Y029074*X012566Y0289*X012611Y028732*X012685Y028574*
X012785Y028431*X012908Y028308*X013051Y028208*X013209Y028134*
X013377Y028089*X013551Y028074*X013724Y028089*X013893Y028134*
X014051Y028208*X014194Y028308*X014317Y028431*X014417Y028574*
X01449Y028732*X014536Y0289*X014551Y029074*G54D15*G01X037326Y013717D02*
X037376Y013667D01*Y011267*X037326Y011217*X036526*X036476Y011267*
Y013667*X036526Y013717*X037326*G54D13*G01X030788Y002247D02*Y002018D01*
Y001904*Y002018D02*X030845Y002076D01*X031017Y001904*X030845Y002076D02*
X031017Y002247D01*X03136D02*X031131D01*Y002076*Y001904*X03136*
X031131Y002076D02*X031303D01*X031703Y002247D02*X031474D01*Y002076*
Y001904*X031703*X031474Y002076D02*X031645D01*X031817Y001904D02*
Y002247D01*X031988*X032045Y00219*Y002133*X031988Y002076*X031817*
X032503Y001904D02*Y002247D01*X032674*X032731Y00219*Y002133*
X032674Y002076*X032731Y001904*X032674Y002076D02*X032503D01*
X032903Y001904D02*Y002247D01*X033417Y00219D02*X03336Y002247D01*X033245*
X033188Y00219*Y001961*X033245Y001904*X03336*X033417Y001961*Y002047*
X03336*X033531Y002247D02*Y002076D01*Y001904*Y002076D02*X03376D01*
Y002247*Y002076D02*Y001904D01*X033988D02*Y002247D01*X034103*X033988D02*
X033874D01*X03456Y002076D02*X034788D01*G54D16*G01X001651Y031467D02*
X001661Y031378D01*X00169Y031294*X001738Y031218*X001801Y031155*
X001877Y031107*X001962Y031077*X002051Y031067*X003051*X00314Y031077*
X003224Y031107*X0033Y031155*X003363Y031218*X003411Y031294*
X003441Y031378*X003451Y031467*X003441Y031556*X003411Y031641*
X003363Y031717*X0033Y03178*X003224Y031828*X00314Y031857*X003051Y031867*
X002051*X001962Y031857*X001877Y031828*X001801Y03178*X001738Y031717*
X00169Y031641*X001661Y031556*X001651Y031467*G54D15*
G01X043551Y007817D02*X043501Y007767D01*X041101*X041051Y007817*Y008617*
X041101Y008667*X043501*X043551Y008617*Y007817*G54D16*
G01X019501Y026092D02*X019327Y026108D01*X019159Y026153*X019001Y026226*
X018858Y026326*X018735Y02645*Y027735*X018858Y027858*X019001Y027958*
X019159Y028032*X019327Y028077*X019501Y028092*X019674Y028077*
X019843Y028032*X020001Y027958*X020144Y027858*X020267Y027735*
X020367Y027592*X02044Y027434*X020486Y027266*X020501Y027092*
X020486Y026919*X02044Y02675*X020367Y026592*X020267Y02645*
X020144Y026326*X020001Y026226*X019843Y026153*X019674Y026108*
X019501Y026092*X014551Y031074D02*X014536Y031247D01*X01449Y031416*
X014417Y031574*X014317Y031717*X014194Y03184*X014051Y03194*
X013893Y032013*X013724Y032059*X013551Y032074*X013377Y032059*
X013209Y032013*X013051Y03194*X012908Y03184*X012785Y031717*
X012685Y031574*X012611Y031416*X012566Y031247*X012551Y031074*
X012566Y0309*X012611Y030732*X012685Y030574*X012785Y030431*
X012908Y030308*X013051Y030208*X013209Y030134*X013377Y030089*
X013551Y030074*X013724Y030089*X013893Y030134*X014051Y030208*
X014194Y030308*X014317Y030431*X014417Y030574*X01449Y030732*
X014536Y0309*X014551Y031074*X034301Y024324D02*X034286Y024497D01*
X03424Y024666*X034167Y024824*X034067Y024967*X033944Y02509*
X033801Y02519*X033643Y025263*X033474Y025309*X033301Y025324*
X033127Y025309*X032959Y025263*X032801Y02519*X032658Y02509*
X032535Y024967*X032435Y024824*X032361Y024666*X032316Y024497*
X032301Y024324*X032316Y02415*X032361Y023982*X032435Y023824*
X032535Y023681*X032658Y023558*X032801Y023458*X032959Y023384*
X033127Y023339*X033301Y023324*X033474Y023339*X033643Y023384*
X033801Y023458*X033944Y023558*X034067Y023681*X034167Y023824*
X03424Y023982*X034286Y02415*X034301Y024324*G54D15*G01X011801Y026067D02*
X011751Y026017D01*X009351*X009301Y026067*Y026867*X009351Y026917*
X011751*X011801Y026867*Y026067*X037551Y019317D02*X037501Y019267D01*
X035101*X035051Y019317*Y020117*X035101Y020167*X037501*X037551Y020117*
Y019317*X015176Y032092D02*Y032842D01*X017301*Y032092*X015176*
X015551Y032842D02*Y032092D01*X015176Y026092D02*Y026842D01*X017301*
Y026092*X015176*X015551Y026842D02*Y026092D01*X031676Y028842D02*
Y028092D01*X029551*Y028842*X031676*X031301Y028092D02*Y028842D01*
X015176Y015342D02*Y016092D01*X017301*Y015342*X015176*X015551Y016092D02*
Y015342D01*G54D16*G01X039401Y015717D02*X039411Y015628D01*X03944Y015544*
X039488Y015468*X039551Y015405*X039627Y015357*X039712Y015327*
X039801Y015317*X040801*X04089Y015327*X040974Y015357*X04105Y015405*
X041113Y015468*X041161Y015544*X041191Y015628*X041201Y015717*
X041191Y015806*X041161Y015891*X041113Y015967*X04105Y01603*
X040974Y016078*X04089Y016107*X040801Y016117*X039801*X039712Y016107*
X039627Y016078*X039551Y01603*X039488Y015967*X03944Y015891*
X039411Y015806*X039401Y015717*G54D15*G01X031676Y016092D02*Y015342D01*
X029551*Y016092*X031676*X031301Y015342D02*Y016092D01*G54D16*
G01X043401Y031467D02*X043411Y031378D01*X04344Y031294*X043488Y031218*
X043551Y031155*X043627Y031107*X043712Y031077*X043801Y031067*X044801*
X04489Y031077*X044974Y031107*X04505Y031155*X045113Y031218*
X045161Y031294*X045191Y031378*X045201Y031467*X045191Y031556*
X045161Y031641*X045113Y031717*X04505Y03178*X044974Y031828*
X04489Y031857*X044801Y031867*X043801*X043712Y031857*X043627Y031828*
X043551Y03178*X043488Y031717*X04344Y031641*X043411Y031556*
X043401Y031467*X045201Y026467D02*X045191Y026556D01*X045161Y026641*
X045113Y026717*X04505Y02678*X044974Y026828*X04489Y026857*
X044801Y026867*X043801*X043712Y026857*X043627Y026828*X043551Y02678*
X043488Y026717*X04344Y026641*X043411Y026556*X043401Y026467*
X043411Y026378*X04344Y026294*X043488Y026218*X043551Y026155*
X043627Y026107*X043712Y026077*X043801Y026067*X044801*X04489Y026077*
X044974Y026107*X04505Y026155*X045113Y026218*X045161Y026294*
X045191Y026378*X045201Y026467*G54D15*G01X005801Y009817D02*
X005751Y009767D01*X003351*X003301Y009817*Y010617*X003351Y010667*
X005751*X005801Y010617*Y009817*X036326Y013717D02*X036376Y013667D01*
Y011267*X036326Y011217*X035526*X035476Y011267*Y013667*X035526Y013717*
X036326*X020651Y020842D02*X020601Y020892D01*Y023292*X020651Y023342*
X021451*X021501Y023292*Y020892*X021451Y020842*X020651*X025401D02*
X025351Y020892D01*Y023292*X025401Y023342*X026201*X026251Y023292*
Y020892*X026201Y020842*X025401*X022576Y033217D02*X022626Y033167D01*
Y030767*X022576Y030717*X021776*X021726Y030767*Y033167*X021776Y033217*
X022576*X037526Y011217D02*X037476Y011267D01*Y013667*X037526Y013717*
X038326*X038376Y013667*Y011267*X038326Y011217*X037526*
X031551Y031067D02*X031501Y031017D01*X029101*X029051Y031067*Y031867*
X029101Y031917*X031501*X031551Y031867*Y031067*X037551Y034067D02*
X037501Y034017D01*X035101*X035051Y034067*Y034867*X035101Y034917*
X037501*X037551Y034867*Y034067*G54D11*G01X001301Y005467D02*Y004717D01*
X008301*Y006717*X001301*Y005967*X001378Y005955*X001448Y00592*
X001503Y005864*X001539Y005795*X001551Y005717*X001539Y00564*
X001503Y00557*X001448Y005515*X001378Y00548*X001301Y005467*
X038551Y028717D02*Y027967D01*X045551*Y029967*X038551*Y029217*
X038628Y029205*X038698Y02917*X038753Y029114*X038789Y029045*
X038801Y028967*X038789Y02889*X038753Y02882*X038698Y028765*
X038628Y02873*X038551Y028717*G54D16*G01X024426Y035542D02*
X024411Y035369D01*X024365Y0352*X024292Y035042*X024192Y0349*
X024069Y034776*X022783*X02266Y0349*X02256Y035042*X022486Y0352*
X022441Y035369*X022426Y035542*X022441Y035716*X022486Y035884*
X02256Y036042*X02266Y036185*X022783Y036308*X022926Y036408*
X023084Y036482*X023252Y036527*X023426Y036542*X023599Y036527*
X023768Y036482*X023926Y036408*X024069Y036308*X024192Y036185*
X024292Y036042*X024365Y035884*X024411Y035716*X024426Y035542*G54D15*
G01X011326Y013717D02*X011376Y013667D01*Y011267*X011326Y011217*X010526*
X010476Y011267*Y013667*X010526Y013717*X011326*X023826Y033842D02*
X023876Y033792D01*Y031392*X023826Y031342*X023026*X022976Y031392*
Y033792*X023026Y033842*X023826*X011801Y017317D02*X011751Y017267D01*
X009351*X009301Y017317*Y018117*X009351Y018167*X011751*X011801Y018117*
Y017317*X017801Y022317D02*X017751Y022267D01*X015351*X015301Y022317*
Y023117*X015351Y023167*X017751*X017801Y023117*Y022317*G54D16*
G01X019501Y021342D02*X019327Y021358D01*X019159Y021403*X019001Y021476*
X018858Y021576*X018735Y0217*Y022985*X018858Y023108*X019001Y023208*
X019159Y023282*X019327Y023327*X019501Y023342*X019674Y023327*
X019843Y023282*X020001Y023208*X020144Y023108*X020267Y022985*
X020367Y022842*X02044Y022684*X020486Y022516*X020501Y022342*
X020486Y022169*X02044Y022*X020367Y021842*X020267Y0217*X020144Y021576*
X020001Y021476*X019843Y021403*X019674Y021358*X019501Y021342*
X006151Y020717D02*X006161Y020628D01*X00619Y020544*X006238Y020468*
X006301Y020405*X006377Y020357*X006462Y020327*X006551Y020317*X007551*
X00764Y020327*X007724Y020357*X0078Y020405*X007863Y020468*
X007911Y020544*X007941Y020628*X007951Y020717*X007941Y020806*
X007911Y020891*X007863Y020967*X0078Y02103*X007724Y021078*X00764Y021107*
X007551Y021117*X006551*X006462Y021107*X006377Y021078*X006301Y02103*
X006238Y020967*X00619Y020891*X006161Y020806*X006151Y020717*
X035801Y008017D02*Y006167D01*X011051*X038801Y008017D02*Y010217D01*
X008051Y008017D02*Y010217D01*X038801*X011051Y006167D02*Y008017D01*
X008051*X036551D02*X038801D01*X036051D02*X036551D01*X035801D02*
X036051D01*X009554Y008479D02*X009676Y008491D01*X009793Y008527*
X009901Y008585*X009996Y008662*X010073Y008757*X010131Y008865*
X010167Y008982*X010179Y009104*X010167Y009226*X010131Y009344*
X010073Y009452*X009996Y009546*X009901Y009624*X009793Y009682*
X009676Y009717*X009554Y009729*X009432Y009717*X009315Y009682*
X009207Y009624*X009112Y009546*X009034Y009452*X008976Y009344*
X008941Y009226*X008929Y009104*X008941Y008982*X008976Y008865*
X009034Y008757*X009112Y008662*X009207Y008585*X009315Y008527*
X009432Y008491*X009554Y008479*X037304D02*X037426Y008491D01*
X037543Y008527*X037651Y008585*X037746Y008662*X037823Y008757*
X037881Y008865*X037917Y008982*X037929Y009104*X037917Y009226*
X037881Y009344*X037823Y009452*X037746Y009546*X037651Y009624*
X037543Y009682*X037426Y009717*X037304Y009729*X037182Y009717*
X037065Y009682*X036957Y009624*X036862Y009546*X036784Y009452*
X036726Y009344*X036691Y009226*X036679Y009104*X036691Y008982*
X036726Y008865*X036784Y008757*X036862Y008662*X036957Y008585*
X037065Y008527*X037182Y008491*X037304Y008479*G54D15*
G01X017801Y024317D02*X017751Y024267D01*X015351*X015301Y024317*Y025117*
X015351Y025167*X017751*X017801Y025117*Y024317*X010326Y013717D02*
X010376Y013667D01*Y011267*X010326Y011217*X009526*X009476Y011267*
Y013667*X009526Y013717*X010326*X037551Y032067D02*X037501Y032017D01*
X035101*X035051Y032067*Y032867*X035101Y032917*X037501*X037551Y032867*
Y032067*X011801Y034067D02*X011751Y034017D01*X009351*X009301Y034067*
Y034867*X009351Y034917*X011751*X011801Y034867*Y034067*Y021317D02*
X011751Y021267D01*X009351*X009301Y021317*Y022117*X009351Y022167*
X011751*X011801Y022117*Y021317*X037551Y030067D02*X037501Y030017D01*
X035101*X035051Y030067*Y030867*X035101Y030917*X037501*X037551Y030867*
Y030067*X011801D02*X011751Y030017D01*X009351*X009301Y030067*Y030867*
X009351Y030917*X011751*X011801Y030867*Y030067*G54D16*
G01X034301Y018324D02*X034286Y018497D01*X03424Y018666*X034167Y018824*
X034067Y018967*X033944Y01909*X033801Y01919*X033643Y019263*
X033474Y019309*X033301Y019324*X033127Y019309*X032959Y019263*
X032801Y01919*X032658Y01909*X032535Y018967*X032435Y018824*
X032361Y018666*X032316Y018497*X032301Y018324*X032316Y01815*
X032361Y017982*X032435Y017824*X032535Y017681*X032658Y017558*
X032801Y017458*X032959Y017384*X033127Y017339*X033301Y017324*
X033474Y017339*X033643Y017384*X033801Y017458*X033944Y017558*
X034067Y017681*X034167Y017824*X03424Y017982*X034286Y01815*
X034301Y018324*G54D15*G01X037326Y006967D02*X037376Y006917D01*Y004517*
X037326Y004467*X036526*X036476Y004517*Y006917*X036526Y006967*X037326*
G54D16*G01X019501Y017342D02*X019327Y017358D01*X019159Y017403*
X019001Y017476*X018858Y017576*X018735Y0177*Y018985*X018858Y019108*
X019001Y019208*X019159Y019282*X019327Y019327*X019501Y019342*
X019674Y019327*X019843Y019282*X020001Y019208*X020144Y019108*
X020267Y018985*X020367Y018842*X02044Y018684*X020486Y018516*
X020501Y018342*X020486Y018169*X02044Y018*X020367Y017842*X020267Y0177*
X020144Y017576*X020001Y017476*X019843Y017403*X019674Y017358*
X019501Y017342*X027351Y034092D02*X027524Y034077D01*X027693Y034032*
X027851Y033958*X027994Y033858*X028117Y033735*Y03245*X027994Y032326*
X027851Y032226*X027693Y032153*X027524Y032108*X027351Y032092*
X027177Y032108*X027009Y032153*X026851Y032226*X026708Y032326*
X026585Y03245*X026485Y032592*X026411Y03275*X026366Y032919*
X026351Y033092*X026366Y033266*X026411Y033434*X026485Y033592*
X026585Y033735*X026708Y033858*X026851Y033958*X027009Y034032*
X027177Y034077*X027351Y034092*Y021342D02*X027524Y021327D01*
X027693Y021282*X027851Y021208*X027994Y021108*X028117Y020985*Y0197*
X027994Y019576*X027851Y019476*X027693Y019403*X027524Y019358*
X027351Y019342*X027177Y019358*X027009Y019403*X026851Y019476*
X026708Y019576*X026585Y0197*X026485Y019842*X026411Y02*X026366Y020169*
X026351Y020342*X026366Y020516*X026411Y020684*X026485Y020842*
X026585Y020985*X026708Y021108*X026851Y021208*X027009Y021282*
X027177Y021327*X027351Y021342*X019501Y028092D02*X019327Y028108D01*
X019159Y028153*X019001Y028226*X018858Y028326*X018735Y02845*Y029735*
X018858Y029858*X019001Y029958*X019159Y030032*X019327Y030077*
X019501Y030092*X019674Y030077*X019843Y030032*X020001Y029958*
X020144Y029858*X020267Y029735*X020367Y029592*X02044Y029434*
X020486Y029266*X020501Y029092*X020486Y028919*X02044Y02875*
X020367Y028592*X020267Y02845*X020144Y028326*X020001Y028226*
X019843Y028153*X019674Y028108*X019501Y028092*X005651Y026467D02*
X005661Y026378D01*X00569Y026294*X005738Y026218*X005801Y026155*
X005877Y026107*X005962Y026077*X006051Y026067*X007051*X00714Y026077*
X007224Y026107*X0073Y026155*X007363Y026218*X007411Y026294*
X007441Y026378*X007451Y026467*X007441Y026556*X007411Y026641*
X007363Y026717*X0073Y02678*X007224Y026828*X00714Y026857*X007051Y026867*
X006051*X005962Y026857*X005877Y026828*X005801Y02678*X005738Y026717*
X00569Y026641*X005661Y026556*X005651Y026467*X027351Y036092D02*
X027524Y036077D01*X027693Y036032*X027851Y035958*X027994Y035858*
X028117Y035735*Y03445*X027994Y034326*X027851Y034226*X027693Y034153*
X027524Y034108*X027351Y034092*X027177Y034108*X027009Y034153*
X026851Y034226*X026708Y034326*X026585Y03445*X026485Y034592*
X026411Y03475*X026366Y034919*X026351Y035092*X026366Y035266*
X026411Y035434*X026485Y035592*X026585Y035735*X026708Y035858*
X026851Y035958*X027009Y036032*X027177Y036077*X027351Y036092*
X044701Y015717D02*X044691Y015806D01*X044661Y015891*X044613Y015967*
X04455Y01603*X044474Y016078*X04439Y016107*X044301Y016117*X043301*
X043212Y016107*X043127Y016078*X043051Y01603*X042988Y015967*
X04294Y015891*X042911Y015806*X042901Y015717*X042911Y015628*
X04294Y015544*X042988Y015468*X043051Y015405*X043127Y015357*
X043212Y015327*X043301Y015317*X044301*X04439Y015327*X044474Y015357*
X04455Y015405*X044613Y015468*X044661Y015544*X044691Y015628*
X044701Y015717*G54D15*G01X009326Y006967D02*X009376Y006917D01*Y004517*
X009326Y004467*X008526*X008476Y004517*Y006917*X008526Y006967*X009326*
X031551Y033067D02*X031501Y033017D01*X029101*X029051Y033067*Y033867*
X029101Y033917*X031501*X031551Y033867*Y033067*G54D16*
G01X005651Y015717D02*X005661Y015628D01*X00569Y015544*X005738Y015468*
X005801Y015405*X005877Y015357*X005962Y015327*X006051Y015317*X007051*
X00714Y015327*X007224Y015357*X0073Y015405*X007363Y015468*
X007411Y015544*X007441Y015628*X007451Y015717*X007441Y015806*
X007411Y015891*X007363Y015967*X0073Y01603*X007224Y016078*X00714Y016107*
X007051Y016117*X006051*X005962Y016107*X005877Y016078*X005801Y01603*
X005738Y015967*X00569Y015891*X005661Y015806*X005651Y015717*
X006151Y031467D02*X006161Y031378D01*X00619Y031294*X006238Y031218*
X006301Y031155*X006377Y031107*X006462Y031077*X006551Y031067*X007551*
X00764Y031077*X007724Y031107*X0078Y031155*X007863Y031218*
X007911Y031294*X007941Y031378*X007951Y031467*X007941Y031556*
X007911Y031641*X007863Y031717*X0078Y03178*X007724Y031828*X00764Y031857*
X007551Y031867*X006551*X006462Y031857*X006377Y031828*X006301Y03178*
X006238Y031717*X00619Y031641*X006161Y031556*X006151Y031467*G54D15*
G01X003301Y008617D02*X003351Y008667D01*X005751*X005801Y008617*Y007817*
X005751Y007767*X003351*X003301Y007817*Y008617*G54D16*
G01X019501Y030092D02*X019327Y030108D01*X019159Y030153*X019001Y030226*
X018858Y030326*X018735Y03045*Y031735*X018858Y031858*X019001Y031958*
X019159Y032032*X019327Y032077*X019501Y032092*X019674Y032077*
X019843Y032032*X020001Y031958*X020144Y031858*X020267Y031735*
X020367Y031592*X02044Y031434*X020486Y031266*X020501Y031092*
X020486Y030919*X02044Y03075*X020367Y030592*X020267Y03045*
X020144Y030326*X020001Y030226*X019843Y030153*X019674Y030108*
X019501Y030092*G54D15*G01X017801Y035067D02*X017751Y035017D01*X015351*
X015301Y035067*Y035867*X015351Y035917*X017751*X017801Y035867*Y035067*
X043551Y009817D02*X043501Y009767D01*X041101*X041051Y009817*Y010617*
X041101Y010667*X043501*X043551Y010617*Y009817*X011801Y028067D02*
X011751Y028017D01*X009351*X009301Y028067*Y028867*X009351Y028917*
X011751*X011801Y028867*Y028067*X009526Y004467D02*X009476Y004517D01*
Y006917*X009526Y006967*X010326*X010376Y006917*Y004517*X010326Y004467*
X009526*X005801Y008817D02*X005751Y008767D01*X003351*X003301Y008817*
Y009617*X003351Y009667*X005751*X005801Y009617*Y008817*
X021026Y033817D02*Y035617D01*X021826*X022326Y035117*Y034317*
X021826Y033817*X021026*X015176Y019342D02*Y020092D01*X017301*Y019342*
X015176*X015551Y020092D02*Y019342D01*G54D11*G01X001301Y012467D02*
Y011717D01*X008301*Y013717*X001301*Y012967*X001378Y012955*
X001448Y01292*X001503Y012864*X001539Y012795*X001551Y012717*
X001539Y01264*X001503Y01257*X001448Y012515*X001378Y01248*
X001301Y012467*Y017967D02*Y017217D01*X008301*Y019217*X001301*Y018467*
X001378Y018455*X001448Y01842*X001503Y018364*X001539Y018295*
X001551Y018217*X001539Y01814*X001503Y01807*X001448Y018015*
X001378Y01798*X001301Y017967*Y033717D02*Y032967D01*X008301*Y034967*
X001301*Y034217*X001378Y034205*X001448Y03417*X001503Y034114*
X001539Y034045*X001551Y033967*X001539Y03389*X001503Y03382*
X001448Y033765*X001378Y03373*X001301Y033717*X023676Y015092D02*
X024426D01*Y022092*X022426*Y015092*X023176*X023188Y01517*
X023224Y015239*X023279Y015295*X023348Y01533*X023426Y015342*
X023503Y01533*X023573Y015295*X023628Y015239*X023664Y01517*
X023676Y015092*G54D16*G01X024426Y034699D02*X024441Y034525D01*
X024486Y034357*X02456Y034199*X02466Y034056*X024783Y033933*
X024926Y033833*X025084Y033759*X025252Y033714*X025426Y033699*
X025599Y033714*X025768Y033759*X025926Y033833*X026069Y033933*
X026192Y034056*X026292Y034199*X026365Y034357*X026411Y034525*
X026426Y034699*X026411Y034872*X026365Y035041*X026292Y035199*
X026192Y035342*X026069Y035465*X025926Y035565*X025768Y035638*
X025599Y035684*X025426Y035699*X025252Y035684*X025084Y035638*
X024926Y035565*X024783Y035465*X02466Y035342*X02456Y035199*
X024486Y035041*X024441Y034872*X024426Y034699*X034301Y035074D02*
X034286Y035247D01*X03424Y035416*X034167Y035574*X034067Y035717*
X033944Y03584*X033801Y03594*X033643Y036013*X033474Y036059*
X033301Y036074*X033127Y036059*X032959Y036013*X032801Y03594*
X032658Y03584*X032535Y035717*X032435Y035574*X032361Y035416*
X032316Y035247*X032301Y035074*X032316Y0349*X032361Y034732*
X032435Y034574*X032535Y034431*X032658Y034308*X032801Y034208*
X032959Y034134*X033127Y034089*X033301Y034074*X033474Y034089*
X033643Y034134*X033801Y034208*X033944Y034308*X034067Y034431*
X034167Y034574*X03424Y034732*X034286Y0349*X034301Y035074*Y033074D02*
X034286Y033247D01*X03424Y033416*X034167Y033574*X034067Y033717*
X033944Y03384*X033801Y03394*X033643Y034013*X033474Y034059*
X033301Y034074*X033127Y034059*X032959Y034013*X032801Y03394*
X032658Y03384*X032535Y033717*X032435Y033574*X032361Y033416*
X032316Y033247*X032301Y033074*X032316Y0329*X032361Y032732*
X032435Y032574*X032535Y032431*X032658Y032308*X032801Y032208*
X032959Y032134*X033127Y032089*X033301Y032074*X033474Y032089*
X033643Y032134*X033801Y032208*X033944Y032308*X034067Y032431*
X034167Y032574*X03424Y032732*X034286Y0329*X034301Y033074*
X041701Y026467D02*X041691Y026556D01*X041661Y026641*X041613Y026717*
X04155Y02678*X041474Y026828*X04139Y026857*X041301Y026867*X040301*
X040212Y026857*X040127Y026828*X040051Y02678*X039988Y026717*
X03994Y026641*X039911Y026556*X039901Y026467*X039911Y026378*
X03994Y026294*X039988Y026218*X040051Y026155*X040127Y026107*
X040212Y026077*X040301Y026067*X041301*X04139Y026077*X041474Y026107*
X04155Y026155*X041613Y026218*X041661Y026294*X041691Y026378*
X041701Y026467*G54D15*G01X031676Y032842D02*Y032092D01*X029551*Y032842*
X031676*X031301Y032092D02*Y032842D01*X015176Y023342D02*Y024092D01*
X017301*Y023342*X015176*X015551Y024092D02*Y023342D01*X015176Y028092D02*
Y028842D01*X017301*Y028092*X015176*X015551Y028842D02*Y028092D01*
X015176Y034092D02*Y034842D01*X017301*Y034092*X015176*X015551Y034842D02*
Y034092D01*G54D16*G01X002151Y020717D02*X002161Y020628D01*X00219Y020544*
X002238Y020468*X002301Y020405*X002377Y020357*X002462Y020327*
X002551Y020317*X003551*X00364Y020327*X003724Y020357*X0038Y020405*
X003863Y020468*X003911Y020544*X003941Y020628*X003951Y020717*
X003941Y020806*X003911Y020891*X003863Y020967*X0038Y02103*
X003724Y021078*X00364Y021107*X003551Y021117*X002551*X002462Y021107*
X002377Y021078*X002301Y02103*X002238Y020967*X00219Y020891*
X002161Y020806*X002151Y020717*X039901Y031467D02*X039911Y031378D01*
X03994Y031294*X039988Y031218*X040051Y031155*X040127Y031107*
X040212Y031077*X040301Y031067*X041301*X04139Y031077*X041474Y031107*
X04155Y031155*X041613Y031218*X041661Y031294*X041691Y031378*
X041701Y031467*X041691Y031556*X041661Y031641*X041613Y031717*
X04155Y03178*X041474Y031828*X04139Y031857*X041301Y031867*X040301*
X040212Y031857*X040127Y031828*X040051Y03178*X039988Y031717*
X03994Y031641*X039911Y031556*X039901Y031467*X003451Y026467D02*
X003441Y026556D01*X003411Y026641*X003363Y026717*X0033Y02678*
X003224Y026828*X00314Y026857*X003051Y026867*X002051*X001962Y026857*
X001877Y026828*X001801Y02678*X001738Y026717*X00169Y026641*
X001661Y026556*X001651Y026467*X001661Y026378*X00169Y026294*
X001738Y026218*X001801Y026155*X001877Y026107*X001962Y026077*
X002051Y026067*X003051*X00314Y026077*X003224Y026107*X0033Y026155*
X003363Y026218*X003411Y026294*X003441Y026378*X003451Y026467*
X021051Y028117D02*X020962Y028107D01*X020877Y028078*X020801Y02803*
X020738Y027967*X02069Y027891*X020661Y027806*X020651Y027717*Y026717*
X020661Y026628*X02069Y026544*X020738Y026468*X020801Y026405*
X020877Y026357*X020962Y026327*X021051Y026317*X02114Y026327*
X021224Y026357*X0213Y026405*X021363Y026468*X021411Y026544*
X021441Y026628*X021451Y026717*Y027717*X021441Y027806*X021411Y027891*
X021363Y027967*X0213Y02803*X021224Y028078*X02114Y028107*X021051Y028117*
G54D15*G01X017801Y020317D02*X017751Y020267D01*X015351*X015301Y020317*
Y021117*X015351Y021167*X017751*X017801Y021117*Y020317*G54D16*
G01X019501Y015342D02*X019327Y015358D01*X019159Y015403*X019001Y015476*
X018858Y015576*X018735Y0157*Y016985*X018858Y017108*X019001Y017208*
X019159Y017282*X019327Y017327*X019501Y017342*X019674Y017327*
X019843Y017282*X020001Y017208*X020144Y017108*X020267Y016985*
X020367Y016842*X02044Y016684*X020486Y016516*X020501Y016342*
X020486Y016169*X02044Y016*X020367Y015842*X020267Y0157*X020144Y015576*
X020001Y015476*X019843Y015403*X019674Y015358*X019501Y015342*G54D15*
G01X037551Y028067D02*X037501Y028017D01*X035101*X035051Y028067*Y028867*
X035101Y028917*X037501*X037551Y028867*Y028067*G54D11*
G01X038551Y012467D02*Y011717D01*X045551*Y013717*X038551*Y012967*
X038628Y012955*X038698Y01292*X038753Y012864*X038789Y012795*
X038801Y012717*X038789Y01264*X038753Y01257*X038698Y012515*
X038628Y01248*X038551Y012467*G54D16*G01X025801Y026317D02*
X02589Y026327D01*X025974Y026357*X02605Y026405*X026113Y026468*
X026161Y026544*X026191Y026628*X026201Y026717*Y027717*X026191Y027806*
X026161Y027891*X026113Y027967*X02605Y02803*X025974Y028078*
X02589Y028107*X025801Y028117*X025712Y028107*X025627Y028078*
X025551Y02803*X025488Y027967*X02544Y027891*X025411Y027806*
X025401Y027717*Y026717*X025411Y026628*X02544Y026544*X025488Y026468*
X025551Y026405*X025627Y026357*X025712Y026327*X025801Y026317*G54D12*
G01X020421Y004892D02*Y005217D01*X02053*X020421D02*X020313D01*
X020639D02*Y005055D01*Y004892*Y005055D02*X020856D01*Y005217*Y005055D02*
Y004892D01*X020964D02*X021073Y005217D01*X021141Y005014*X021181Y004892*
X021141Y005014D02*X021005D01*X02129Y004892D02*Y005217D01*
X021507Y004892*Y005217*X021616D02*Y005D01*Y004892*Y005D02*
X02167Y005055D01*X021833Y004892*X02167Y005055D02*X021833Y005217D01*
X022159Y005163D02*X022104Y005217D01*X021996*X021941Y005163*Y005109*
X021996Y005055*X022104*X022159Y005*Y004946*X022104Y004892*X021996*
X021941Y004946*X022701Y004892D02*Y005217D01*X02281*X022701D02*
X022593D01*X023136Y005163D02*X023081Y005217D01*X022973*X022919Y005163*
Y004946*X022973Y004892*X023081*X023136Y004946*Y005163*X02357Y005217D02*
X023624Y004892D01*X023679Y005217*X023733Y004892*X023787Y005217*
X02395Y004892D02*Y005217D01*X024221Y004892D02*Y005217D01*
X024439Y004892*Y005217*X024764Y005163D02*X02471Y005217D01*X024547*
Y004892*X02471*X024764Y004946*Y005163*X02509D02*X025036Y005217D01*
X024873*Y004892*X025036*X02509Y004946*Y005163*X025199Y004892D02*
Y005217D01*X025361*X025416Y005163*Y005109*X025361Y005055*
X025416Y004892*X025361Y005055D02*X025199D01*X025524Y004892D02*
X025633Y005217D01*X025701Y005014*X025741Y004892*X025701Y005014D02*
X025565D01*X02585Y005217D02*Y005D01*Y004892*Y005D02*X025904Y005055D01*
X026067Y004892*X025904Y005055D02*X026067Y005217D01*X026393D02*
X026176D01*Y005055*Y004892*X026393*X026176Y005055D02*X026339D01*G54D13*
G01X020322Y005753D02*X020379Y00581D01*X020494*X020551Y005753*Y005696*
X020494Y005639*X020322Y005525*Y005467*X020551*X020894Y005753D02*
X020836Y00581D01*X020722*X020665Y005753*Y005525*X020722Y005467*X020836*
X020894Y005525*Y005753*X020779Y005696D02*Y005582D01*X021065Y005753D02*
X021122Y00581D01*Y005467*X021179*X021122D02*X021065D01*X021522D02*
Y00581D01*X021351Y00561*X021579*X022036Y00581D02*X022094Y005467D01*
X022151Y00581*X022208Y005467*X022265Y00581*X022379D02*
X022436Y005467D01*X022494Y00581*X022551Y005467*X022608Y00581*
X022722D02*X022779Y005467D01*X022836Y00581*X022894Y005467*
X022951Y00581*X023151Y005467D02*X023179D01*Y005496*X023151*Y005467*
X023636Y005753D02*X023579Y00581D01*X023465*X023408Y005753*Y005525*
X023465Y005467*X023579*X023636Y005525*Y00561*X023579*X023751Y005467D02*
X023865Y00581D01*X023936Y005596*X023979Y005467*X023936Y005596D02*
X023794D01*X024094Y00581D02*Y005525D01*X024151Y005467*X024265*
X024322Y005525*Y00581*X024665Y005753D02*X024608Y00581D01*X024494*
X024436Y005753*Y005525*X024494Y005467*X024608*X024665Y005525*
X024779Y00581D02*Y005582D01*Y005467*Y005582D02*X024836Y005639D01*
X025008Y005467*X024836Y005639D02*X025008Y00581D01*X025208Y005467D02*
X025236D01*Y005496*X025208*Y005467*X025694Y005753D02*X025636Y00581D01*
X025522*X025465Y005753*Y005525*X025522Y005467*X025636*X025694Y005525*
X026036Y005753D02*X025979Y00581D01*X025865*X025808Y005753*Y005525*
X025865Y005467*X025979*X026036Y005525*Y005753*X026151Y005467D02*
Y00581D01*X026265Y005639*X026379Y00581*Y005467*G54D11*
G01X015551Y004592D02*X015603Y004601D01*X01565Y004625*X015687Y004662*
X015711Y004709*X01572Y004761*X015717Y007932*X034832Y00795*Y000568*
X034844Y000458*X03488Y000354*X034939Y000261*X035017Y000183*
X03511Y000124*X035214Y000088*X035324Y000076*X03552*Y-012916*X015729*
Y-007166*X012305Y-00505*X012319Y002216*X012305Y00795*X01538Y007932*
X015382Y004761*X01539Y004709*X015414Y004662*X015452Y004625*
X015499Y004601*X015551Y004592*G54D14*G01X004122Y023396D02*X004408D01*
X004194Y022967*X004765D02*Y023396D01*X004551Y023146*X004836*
X004979Y023396D02*Y022967D01*X005265*X005694Y023325D02*
X005622Y023396D01*X005479*X005408Y023325*Y023039*X005479Y022967*
X005622*X005694Y023039*Y023325*X005551Y023253D02*Y02311D01*
X006051Y022967D02*Y023396D01*X005836Y023146*X006122*X041372Y034146D02*
X041658D01*X041444Y033717*X042015D02*Y034146D01*X041801Y033896*X042086*
X042229Y034146D02*Y033717D01*X042515*X042944Y034075D02*
X042872Y034146D01*X042729*X042658Y034075*Y033789*X042729Y033717*
X042872*X042944Y033789*Y034075*X042801Y034003D02*Y03386D01*
X043301Y033717D02*Y034146D01*X043086Y033896*X043372*G54D13*
G01X043169Y020517D02*Y02086D01*X042998Y02066*X043226*X043569Y020803D02*
X043512Y02086D01*X043398*X043341Y020803*Y020575*X043398Y020517*X043512*
X043569Y020575*Y020803*X043455Y020746D02*Y020632D01*X043912Y020803D02*
X043855Y02086D01*X043741*X043684Y020803*Y020575*X043741Y020517*X043855*
X043912Y020575*Y020803*X043798Y020746D02*Y020632D01*X044026Y020517D02*
Y02086D01*X044198*X044255Y020803*Y020746*X044198Y020689*X044026*
X044598Y02086D02*X044369D01*Y020689*Y020517*Y020689D02*X044541D01*
X039669Y020517D02*Y02086D01*X039498Y02066*X039726*X040069Y020803D02*
X040012Y02086D01*X039898*X039841Y020803*Y020575*X039898Y020517*X040012*
X040069Y020575*Y020803*X039955Y020746D02*Y020632D01*X040412Y020803D02*
X040355Y02086D01*X040241*X040184Y020803*Y020575*X040241Y020517*X040355*
X040412Y020575*Y020803*X040298Y020746D02*Y020632D01*X040526Y020517D02*
Y02086D01*X040698*X040755Y020803*Y020746*X040698Y020689*X040526*
X041098Y02086D02*X040869D01*Y020689*Y020517*Y020689D02*X041041D01*
X012815Y021531D02*X012758Y021588D01*Y021702*X012815Y021759*X012872*
X012929Y021702*X012986Y021759*X013044*X013101Y021702*Y021588*
X013044Y021531*X012929Y021702D02*Y021645D01*X013101Y021959D02*
Y021988D01*X013072*Y021959*X013101*X012815Y022217D02*X012758Y022274D01*
Y022388*X012815Y022445*X012872*X012929Y022388*X012986Y022445*X013044*
X013101Y022388*Y022274*X013044Y022217*X012929Y022388D02*Y022331D01*
X012758Y022559D02*X013044D01*X013101Y022617*Y022731*X013044Y022788*
X012758*Y023131D02*Y022902D01*X012929*X013101*X012929D02*Y023074D01*
X032565Y019531D02*X032508Y019588D01*Y019702*X032565Y019759*X032622*
X032679Y019702*X032736Y019759*X032794*X032851Y019702*Y019588*
X032794Y019531*X032679Y019702D02*Y019645D01*X032851Y019959D02*
Y019988D01*X032822*Y019959*X032851*X032565Y020217D02*X032508Y020274D01*
Y020388*X032565Y020445*X032622*X032679Y020388*X032736Y020445*X032794*
X032851Y020388*Y020274*X032794Y020217*X032679Y020388D02*Y020331D01*
X032508Y020559D02*X032794D01*X032851Y020617*Y020731*X032794Y020788*
X032508*Y021131D02*Y020902D01*X032679*X032851*X032679D02*Y021074D01*
X009011Y012753D02*X009069Y012696D01*X008726*Y012639*Y012696D02*
Y012753D01*X009011Y012239D02*X009069Y012296D01*Y01241*X009011Y012467*
X008783*X008726Y01241*Y012296*X008783Y012239*X009011*X008954Y012353D02*
X00884D01*X009069Y012125D02*X00884D01*X008726*X00884D02*
X008897Y012067D01*X008726Y011896*X008897Y012067D02*X009069Y011896D01*
X036186Y023803D02*X036129Y02386D01*X036015*X035958Y023803*Y023575*
X036015Y023517*X036129*X036186Y023575*Y02366*X036129Y023717*X036015*
X035958Y02366*X036472Y023689D02*X036529Y023746D01*Y023803*
X036472Y02386*X036358*X036301Y023803*Y023746*X036358Y023689*X036472*
X036529Y023632*Y023575*X036472Y023517*X036358*X036301Y023575*Y023632*
X036358Y023689*X036644Y02386D02*Y023632D01*Y023517*Y023632D02*
X036701Y023689D01*X036872Y023517*X036701Y023689D02*X036872Y02386D01*
X029305Y034553D02*X029362Y03461D01*Y034267*X029419*X029362D02*
X029305D01*X029591D02*Y03461D01*X029819Y034267*Y03461*X030162D02*
X029934D01*Y034439*X029991Y034496*X030105*X030162Y034439*Y034325*
X030105Y034267*X029991*X029934Y034325*X030276Y034553D02*
X030334Y03461D01*X030448*X030505Y034553*Y034496*X030448Y034439*
X030276Y034325*Y034267*X030505*X030619Y034553D02*X030676Y03461D01*
X030791*X030848Y034553*Y034496*X030791Y034439*X030619Y034325*Y034267*
X030848*X031191Y034553D02*X031134Y03461D01*X031019*X030962Y034553*
Y034325*X031019Y034267*X031134*X031191Y034325*Y03441*X031134Y034467*
X031019*X030962Y03441*X031305Y034267D02*Y03461D01*X031476*
X031534Y034553*Y034496*X031476Y034439*X031534Y034382*Y034325*
X031476Y034267*X031305*X031476Y034439D02*X031305D01*X029305Y021803D02*
X029362Y02186D01*Y021517*X029419*X029362D02*X029305D01*X029591D02*
Y02186D01*X029819Y021517*Y02186*X030162D02*X029934D01*Y021689*
X029991Y021746*X030105*X030162Y021689*Y021575*X030105Y021517*X029991*
X029934Y021575*X030276Y021803D02*X030334Y02186D01*X030448*
X030505Y021803*Y021746*X030448Y021689*X030276Y021575*Y021517*X030505*
X030619Y021803D02*X030676Y02186D01*X030791*X030848Y021803*Y021746*
X030791Y021689*X030619Y021575*Y021517*X030848*X031191Y021803D02*
X031134Y02186D01*X031019*X030962Y021803*Y021575*X031019Y021517*X031134*
X031191Y021575*Y02166*X031134Y021717*X031019*X030962Y02166*
X031305Y021517D02*Y02186D01*X031476*X031534Y021803*Y021746*
X031476Y021689*X031534Y021632*Y021575*X031476Y021517*X031305*
X031476Y021689D02*X031305D01*G54D14*G01X023247Y025789D02*Y026075D01*
X023676Y02586*Y026432D02*X023247D01*X023497Y026217*Y026503*
X023319Y026932D02*X023247Y02686D01*Y026717*X023319Y026646*X023604*
X023676Y026717*Y02686*X023604Y026932*X023319*X02339Y026789D02*
X023533D01*X023319Y027075D02*X023247Y027146D01*Y027289*X023319Y02736*
X02339*X023461Y027289*X023604Y027075*X023676*Y02736*G54D13*
G01X030129Y029267D02*Y02961D01*X029958Y02941*X030186*X030301Y02961D02*
X030529D01*X030358Y029267*X030872Y029553D02*X030815Y02961D01*X030701*
X030644Y029553*Y029325*X030701Y029267*X030815*X030872Y029325*Y029553*
X030758Y029496D02*Y029382D01*X012815Y023531D02*X012758Y023588D01*
Y023702*X012815Y023759*X012872*X012929Y023702*X012986Y023759*X013044*
X013101Y023702*Y023588*X013044Y023531*X012929Y023702D02*Y023645D01*
X013101Y023959D02*Y023988D01*X013072*Y023959*X013101*X012815Y024217D02*
X012758Y024274D01*Y024388*X012815Y024445*X012872*X012929Y024388*
X012986Y024445*X013044*X013101Y024388*Y024274*X013044Y024217*
X012929Y024388D02*Y024331D01*X012758Y024559D02*X013044D01*
X013101Y024617*Y024731*X013044Y024788*X012758*Y025131D02*Y024902D01*
X012929*X013101*X012929D02*Y025074D01*X032565Y021531D02*
X032508Y021588D01*Y021702*X032565Y021759*X032622*X032679Y021702*
X032736Y021759*X032794*X032851Y021702*Y021588*X032794Y021531*
X032679Y021702D02*Y021645D01*X032851Y021959D02*Y021988D01*X032822*
Y021959*X032851*X032565Y022217D02*X032508Y022274D01*Y022388*
X032565Y022445*X032622*X032679Y022388*X032736Y022445*X032794*
X032851Y022388*Y022274*X032794Y022217*X032679Y022388D02*Y022331D01*
X032508Y022559D02*X032794D01*X032851Y022617*Y022731*X032794Y022788*
X032508*Y023131D02*Y022902D01*X032679*X032851*X032679D02*Y023074D01*
X016379Y027267D02*Y02761D01*X016208Y02741*X016436*X016551Y02761D02*
X016779D01*X016608Y027267*X017122Y027553D02*X017065Y02761D01*X016951*
X016894Y027553*Y027325*X016951Y027267*X017065*X017122Y027325*Y027553*
X017008Y027496D02*Y027382D01*X030129Y020517D02*Y02086D01*X029958Y02066*
X030186*X030301Y02086D02*X030529D01*X030358Y020517*X030872Y020803D02*
X030815Y02086D01*X030701*X030644Y020803*Y020575*X030701Y020517*X030815*
X030872Y020575*Y020803*X030758Y020746D02*Y020632D01*X010436Y023803D02*
X010379Y02386D01*X010265*X010208Y023803*Y023575*X010265Y023517*X010379*
X010436Y023575*Y02366*X010379Y023717*X010265*X010208Y02366*
X010722Y023689D02*X010779Y023746D01*Y023803*X010722Y02386*X010608*
X010551Y023803*Y023746*X010608Y023689*X010722*X010779Y023632*Y023575*
X010722Y023517*X010608*X010551Y023575*Y023632*X010608Y023689*
X010894Y02386D02*Y023632D01*Y023517*Y023632D02*X010951Y023689D01*
X011122Y023517*X010951Y023689D02*X011122Y02386D01*X016379Y029267D02*
Y02961D01*X016208Y02941*X016436*X016551Y02961D02*X016779D01*
X016608Y029267*X017122Y029553D02*X017065Y02961D01*X016951*
X016894Y029553*Y029325*X016951Y029267*X017065*X017122Y029325*Y029553*
X017008Y029496D02*Y029382D01*X030129Y024517D02*Y02486D01*X029958Y02466*
X030186*X030301Y02486D02*X030529D01*X030358Y024517*X030872Y024803D02*
X030815Y02486D01*X030701*X030644Y024803*Y024575*X030701Y024517*X030815*
X030872Y024575*Y024803*X030758Y024746D02*Y024632D01*X030129Y016517D02*
Y01686D01*X029958Y01666*X030186*X030301Y01686D02*X030529D01*
X030358Y016517*X030872Y016803D02*X030815Y01686D01*X030701*
X030644Y016803*Y016575*X030701Y016517*X030815*X030872Y016575*Y016803*
X030758Y016746D02*Y016632D01*X012815Y032281D02*X012758Y032338D01*
Y032452*X012815Y032509*X012872*X012929Y032452*X012986Y032509*X013044*
X013101Y032452*Y032338*X013044Y032281*X012929Y032452D02*Y032395D01*
X013101Y032709D02*Y032738D01*X013072*Y032709*X013101*X012815Y032967D02*
X012758Y033024D01*Y033138*X012815Y033195*X012872*X012929Y033138*
X012986Y033195*X013044*X013101Y033138*Y033024*X013044Y032967*
X012929Y033138D02*Y033081D01*X012758Y033309D02*X013044D01*
X013101Y033367*Y033481*X013044Y033538*X012758*Y033881D02*Y033652D01*
X012929*X013101*X012929D02*Y033824D01*X03784Y005432D02*
X037783Y005489D01*X038126*Y005546*Y005489D02*Y005432D01*
X03784Y005946D02*X037783Y005889D01*Y005775*X03784Y005717*X038069*
X038126Y005775*Y005889*X038069Y005946*X03784*X037897Y005832D02*
X038011D01*X037783Y00606D02*X038011D01*X038126*X038011D02*
X037954Y006117D01*X038126Y006289*X037954Y006117D02*X037783Y006289D01*
X036186Y015803D02*X036129Y01586D01*X036015*X035958Y015803*Y015575*
X036015Y015517*X036129*X036186Y015575*Y01566*X036129Y015717*X036015*
X035958Y01566*X036472Y015689D02*X036529Y015746D01*Y015803*
X036472Y01586*X036358*X036301Y015803*Y015746*X036358Y015689*X036472*
X036529Y015632*Y015575*X036472Y015517*X036358*X036301Y015575*Y015632*
X036358Y015689*X036644Y01586D02*Y015632D01*Y015517*Y015632D02*
X036701Y015689D01*X036872Y015517*X036701Y015689D02*X036872Y01586D01*
X042015Y009303D02*X042072Y00936D01*Y009017*X042129*X042072D02*
X042015D01*X042529Y009303D02*X042472Y00936D01*X042358*X042301Y009303*
Y009075*X042358Y009017*X042472*X042529Y009075*Y009303*
X042415Y009246D02*Y009132D01*X042644Y00936D02*Y009132D01*Y009017*
Y009132D02*X042701Y009189D01*X042872Y009017*X042701Y009189D02*
X042872Y00936D01*X029305Y026553D02*X029362Y02661D01*Y026267*X029419*
X029362D02*X029305D01*X029591D02*Y02661D01*X029819Y026267*Y02661*
X030162D02*X029934D01*Y026439*X029991Y026496*X030105*X030162Y026439*
Y026325*X030105Y026267*X029991*X029934Y026325*X030276Y026553D02*
X030334Y02661D01*X030448*X030505Y026553*Y026496*X030448Y026439*
X030276Y026325*Y026267*X030505*X030619Y026553D02*X030676Y02661D01*
X030791*X030848Y026553*Y026496*X030791Y026439*X030619Y026325*Y026267*
X030848*X031191Y026553D02*X031134Y02661D01*X031019*X030962Y026553*
Y026325*X031019Y026267*X031134*X031191Y026325*Y02641*X031134Y026467*
X031019*X030962Y02641*X031305Y026267D02*Y02661D01*X031476*
X031534Y026553*Y026496*X031476Y026439*X031534Y026382*Y026325*
X031476Y026267*X031305*X031476Y026439D02*X031305D01*X029305Y019803D02*
X029362Y01986D01*Y019517*X029419*X029362D02*X029305D01*X029591D02*
Y01986D01*X029819Y019517*Y01986*X030162D02*X029934D01*Y019689*
X029991Y019746*X030105*X030162Y019689*Y019575*X030105Y019517*X029991*
X029934Y019575*X030276Y019803D02*X030334Y01986D01*X030448*
X030505Y019803*Y019746*X030448Y019689*X030276Y019575*Y019517*X030505*
X030619Y019803D02*X030676Y01986D01*X030791*X030848Y019803*Y019746*
X030791Y019689*X030619Y019575*Y019517*X030848*X031191Y019803D02*
X031134Y01986D01*X031019*X030962Y019803*Y019575*X031019Y019517*X031134*
X031191Y019575*Y01966*X031134Y019717*X031019*X030962Y01966*
X031305Y019517D02*Y01986D01*X031476*X031534Y019803*Y019746*
X031476Y019689*X031534Y019632*Y019575*X031476Y019517*X031305*
X031476Y019689D02*X031305D01*X029305Y023803D02*X029362Y02386D01*
Y023517*X029419*X029362D02*X029305D01*X029591D02*Y02386D01*
X029819Y023517*Y02386*X030162D02*X029934D01*Y023689*X029991Y023746*
X030105*X030162Y023689*Y023575*X030105Y023517*X029991*X029934Y023575*
X030276Y023803D02*X030334Y02386D01*X030448*X030505Y023803*Y023746*
X030448Y023689*X030276Y023575*Y023517*X030505*X030619Y023803D02*
X030676Y02386D01*X030791*X030848Y023803*Y023746*X030791Y023689*
X030619Y023575*Y023517*X030848*X031191Y023803D02*X031134Y02386D01*
X031019*X030962Y023803*Y023575*X031019Y023517*X031134*X031191Y023575*
Y02366*X031134Y023717*X031019*X030962Y02366*X031305Y023517D02*
Y02386D01*X031476*X031534Y023803*Y023746*X031476Y023689*X031534Y023632*
Y023575*X031476Y023517*X031305*X031476Y023689D02*X031305D01*
X010436Y019803D02*X010379Y01986D01*X010265*X010208Y019803*Y019575*
X010265Y019517*X010379*X010436Y019575*Y01966*X010379Y019717*X010265*
X010208Y01966*X010722Y019689D02*X010779Y019746D01*Y019803*
X010722Y01986*X010608*X010551Y019803*Y019746*X010608Y019689*X010722*
X010779Y019632*Y019575*X010722Y019517*X010608*X010551Y019575*Y019632*
X010608Y019689*X010894Y01986D02*Y019632D01*Y019517*Y019632D02*
X010951Y019689D01*X011122Y019517*X010951Y019689D02*X011122Y01986D01*
X012815Y034281D02*X012758Y034338D01*Y034452*X012815Y034509*X012872*
X012929Y034452*X012986Y034509*X013044*X013101Y034452*Y034338*
X013044Y034281*X012929Y034452D02*Y034395D01*X013101Y034709D02*
Y034738D01*X013072*Y034709*X013101*X012815Y034967D02*X012758Y035024D01*
Y035138*X012815Y035195*X012872*X012929Y035138*X012986Y035195*X013044*
X013101Y035138*Y035024*X013044Y034967*X012929Y035138D02*Y035081D01*
X012758Y035309D02*X013044D01*X013101Y035367*Y035481*X013044Y035538*
X012758*Y035881D02*Y035652D01*X012929*X013101*X012929D02*Y035824D01*
X032565Y015531D02*X032508Y015588D01*Y015702*X032565Y015759*X032622*
X032679Y015702*X032736Y015759*X032794*X032851Y015702*Y015588*
X032794Y015531*X032679Y015702D02*Y015645D01*X032851Y015959D02*
Y015988D01*X032822*Y015959*X032851*X032565Y016217D02*X032508Y016274D01*
Y016388*X032565Y016445*X032622*X032679Y016388*X032736Y016445*X032794*
X032851Y016388*Y016274*X032794Y016217*X032679Y016388D02*Y016331D01*
X032508Y016559D02*X032794D01*X032851Y016617*Y016731*X032794Y016788*
X032508*Y017131D02*Y016902D01*X032679*X032851*X032679D02*Y017074D01*
X012815Y019531D02*X012758Y019588D01*Y019702*X012815Y019759*X012872*
X012929Y019702*X012986Y019759*X013044*X013101Y019702*Y019588*
X013044Y019531*X012929Y019702D02*Y019645D01*X013101Y019959D02*
Y019988D01*X013072*Y019959*X013101*X012815Y020217D02*X012758Y020274D01*
Y020388*X012815Y020445*X012872*X012929Y020388*X012986Y020445*X013044*
X013101Y020388*Y020274*X013044Y020217*X012929Y020388D02*Y020331D01*
X012758Y020559D02*X013044D01*X013101Y020617*Y020731*X013044Y020788*
X012758*Y021131D02*Y020902D01*X012929*X013101*X012929D02*Y021074D01*
X026001Y030086D02*X025658D01*X025858Y029915*Y030143*X025715Y030486D02*
X025658Y030429D01*Y030315*X025715Y030257*X025944*X026001Y030315*
Y030429*X025944Y030486*X025715*X025772Y030372D02*X025886D01*
X025715Y030829D02*X025658Y030772D01*Y030657*X025715Y0306*X025944*
X026001Y030657*Y030772*X025944Y030829*X025715*X025772Y030715D02*
X025886D01*X026001Y030943D02*X025658D01*Y031115*X025715Y031172*X025772*
X025829Y031115*Y030943*X025658Y031515D02*Y031286D01*X025829*X026001*
X025829D02*Y031457D01*X002419Y015517D02*Y01586D01*X002248Y01566*
X002476*X002819Y015803D02*X002762Y01586D01*X002648*X002591Y015803*
Y015575*X002648Y015517*X002762*X002819Y015575*Y015803*
X002705Y015746D02*Y015632D01*X003162Y015803D02*X003105Y01586D01*
X002991*X002934Y015803*Y015575*X002991Y015517*X003105*X003162Y015575*
Y015803*X003048Y015746D02*Y015632D01*X003276Y015517D02*Y01586D01*
X003448*X003505Y015803*Y015746*X003448Y015689*X003276*X003848Y01586D02*
X003619D01*Y015689*Y015517*Y015689D02*X003791D01*X029305Y017803D02*
X029362Y01786D01*Y017517*X029419*X029362D02*X029305D01*X029591D02*
Y01786D01*X029819Y017517*Y01786*X030162D02*X029934D01*Y017689*
X029991Y017746*X030105*X030162Y017689*Y017575*X030105Y017517*X029991*
X029934Y017575*X030276Y017803D02*X030334Y01786D01*X030448*
X030505Y017803*Y017746*X030448Y017689*X030276Y017575*Y017517*X030505*
X030619Y017803D02*X030676Y01786D01*X030791*X030848Y017803*Y017746*
X030791Y017689*X030619Y017575*Y017517*X030848*X031191Y017803D02*
X031134Y01786D01*X031019*X030962Y017803*Y017575*X031019Y017517*X031134*
X031191Y017575*Y01766*X031134Y017717*X031019*X030962Y01766*
X031305Y017517D02*Y01786D01*X031476*X031534Y017803*Y017746*
X031476Y017689*X031534Y017632*Y017575*X031476Y017517*X031305*
X031476Y017689D02*X031305D01*X015555Y030553D02*X015612Y03061D01*
Y030267*X015669*X015612D02*X015555D01*X015841D02*Y03061D01*
X016069Y030267*Y03061*X016412D02*X016184D01*Y030439*X016241Y030496*
X016355*X016412Y030439*Y030325*X016355Y030267*X016241*X016184Y030325*
X016526Y030553D02*X016584Y03061D01*X016698*X016755Y030553*Y030496*
X016698Y030439*X016526Y030325*Y030267*X016755*X016869Y030553D02*
X016926Y03061D01*X017041*X017098Y030553*Y030496*X017041Y030439*
X016869Y030325*Y030267*X017098*X017441Y030553D02*X017384Y03061D01*
X017269*X017212Y030553*Y030325*X017269Y030267*X017384*X017441Y030325*
Y03041*X017384Y030467*X017269*X017212Y03041*X017555Y030267D02*
Y03061D01*X017726*X017784Y030553*Y030496*X017726Y030439*X017784Y030382*
Y030325*X017726Y030267*X017555*X017726Y030439D02*X017555D01*
X015555Y017803D02*X015612Y01786D01*Y017517*X015669*X015612D02*
X015555D01*X015841D02*Y01786D01*X016069Y017517*Y01786*X016412D02*
X016184D01*Y017689*X016241Y017746*X016355*X016412Y017689*Y017575*
X016355Y017517*X016241*X016184Y017575*X016526Y017803D02*
X016584Y01786D01*X016698*X016755Y017803*Y017746*X016698Y017689*
X016526Y017575*Y017517*X016755*X016869Y017803D02*X016926Y01786D01*
X017041*X017098Y017803*Y017746*X017041Y017689*X016869Y017575*Y017517*
X017098*X017441Y017803D02*X017384Y01786D01*X017269*X017212Y017803*
Y017575*X017269Y017517*X017384*X017441Y017575*Y01766*X017384Y017717*
X017269*X017212Y01766*X017555Y017517D02*Y01786D01*X017726*
X017784Y017803*Y017746*X017726Y017689*X017784Y017632*Y017575*
X017726Y017517*X017555*X017726Y017689D02*X017555D01*X029305Y030553D02*
X029362Y03061D01*Y030267*X029419*X029362D02*X029305D01*X029591D02*
Y03061D01*X029819Y030267*Y03061*X030162D02*X029934D01*Y030439*
X029991Y030496*X030105*X030162Y030439*Y030325*X030105Y030267*X029991*
X029934Y030325*X030276Y030553D02*X030334Y03061D01*X030448*
X030505Y030553*Y030496*X030448Y030439*X030276Y030325*Y030267*X030505*
X030619Y030553D02*X030676Y03061D01*X030791*X030848Y030553*Y030496*
X030791Y030439*X030619Y030325*Y030267*X030848*X031191Y030553D02*
X031134Y03061D01*X031019*X030962Y030553*Y030325*X031019Y030267*X031134*
X031191Y030325*Y03041*X031134Y030467*X031019*X030962Y03041*
X031305Y030267D02*Y03061D01*X031476*X031534Y030553*Y030496*
X031476Y030439*X031534Y030382*Y030325*X031476Y030267*X031305*
X031476Y030439D02*X031305D01*X012815Y015531D02*X012758Y015588D01*
Y015702*X012815Y015759*X012872*X012929Y015702*X012986Y015759*X013044*
X013101Y015702*Y015588*X013044Y015531*X012929Y015702D02*Y015645D01*
X013101Y015959D02*Y015988D01*X013072*Y015959*X013101*X012815Y016217D02*
X012758Y016274D01*Y016388*X012815Y016445*X012872*X012929Y016388*
X012986Y016445*X013044*X013101Y016388*Y016274*X013044Y016217*
X012929Y016388D02*Y016331D01*X012758Y016559D02*X013044D01*
X013101Y016617*Y016731*X013044Y016788*X012758*Y017131D02*Y016902D01*
X012929*X013101*X012929D02*Y017074D01*G54D14*G01X041372Y005896D02*
X041658D01*X041444Y005467*X042015D02*Y005896D01*X041801Y005646*X042086*
X042229Y005896D02*Y005467D01*X042515*X042944Y005825D02*
X042872Y005896D01*X042729*X042658Y005825*Y005753*X042729Y005682*
X042872*X042944Y00561*Y005539*X042872Y005467*X042729*X042658Y005539*
X043301Y005682D02*X043372Y005753D01*Y005825*X043301Y005896*X043158*
X043086Y005825*Y005753*X043158Y005682*X043301*X043372Y00561*Y005539*
X043301Y005467*X043158*X043086Y005539*Y00561*X043158Y005682*
X043801Y005825D02*X043729Y005896D01*X043586*X043515Y005825*Y005539*
X043586Y005467*X043729*X043801Y005539*Y005646*X043729Y005717*X043586*
X043515Y005646*X041372Y023396D02*X041658D01*X041444Y022967*X042015D02*
Y023396D01*X041801Y023146*X042086*X042229Y023396D02*Y022967D01*X042515*
X042944Y023325D02*X042872Y023396D01*X042729*X042658Y023325*Y023039*
X042729Y022967*X042872*X042944Y023039*Y023325*X042801Y023253D02*
Y02311D01*X043301Y022967D02*Y023396D01*X043086Y023146*X043372*
X041372Y018396D02*X041658D01*X041444Y017967*X042015D02*Y018396D01*
X041801Y018146*X042086*X042515Y018325D02*X042444Y018396D01*X042301*
X042229Y018325*Y018039*X042301Y017967*X042444*X042515Y018039*Y018325*
X042372Y018253D02*Y01811D01*X042658Y018325D02*X042729Y018396D01*
X042872*X042944Y018325*Y018253*X042872Y018182*X042658Y018039*Y017967*
X042944*X004122Y029146D02*X004408D01*X004194Y028717*X004765D02*
Y029146D01*X004551Y028896*X004836*X005265Y029075D02*X005194Y029146D01*
X005051*X004979Y029075*Y028789*X005051Y028717*X005194*X005265Y028789*
Y029075*X005122Y029003D02*Y02886D01*X005408Y029075D02*
X005479Y029146D01*X005622*X005694Y029075*Y029003*X005622Y028932*
X005408Y028789*Y028717*X005694*G54D13*G01X032565Y030281D02*
X032508Y030338D01*Y030452*X032565Y030509*X032622*X032679Y030452*
X032736Y030509*X032794*X032851Y030452*Y030338*X032794Y030281*
X032679Y030452D02*Y030395D01*X032851Y030709D02*Y030738D01*X032822*
Y030709*X032851*X032565Y030967D02*X032508Y031024D01*Y031138*
X032565Y031195*X032622*X032679Y031138*X032736Y031195*X032794*
X032851Y031138*Y031024*X032794Y030967*X032679Y031138D02*Y031081D01*
X032508Y031309D02*X032794D01*X032851Y031367*Y031481*X032794Y031538*
X032508*Y031881D02*Y031652D01*X032679*X032851*X032679D02*Y031824D01*
X030129Y035267D02*Y03561D01*X029958Y03541*X030186*X030301Y03561D02*
X030529D01*X030358Y035267*X030872Y035553D02*X030815Y03561D01*X030701*
X030644Y035553*Y035325*X030701Y035267*X030815*X030872Y035325*Y035553*
X030758Y035496D02*Y035382D01*G54D14*G01X025344Y013645D02*
X025272Y013717D01*Y013859*X025344Y013931*X025415*X025486Y013859*
X025629Y013645*X025701*Y013931*X025272Y014074D02*Y014359D01*
X025701Y014145*X025344Y014788D02*X025272Y014717D01*Y014574*
X025344Y014502*X025629*X025701Y014574*Y014717*X025629Y014788*X025344*
X025415Y014645D02*X025558D01*X025272Y014931D02*X025629D01*
X025701Y015002*Y015145*X025629Y015217*X025272*Y015645D02*Y015359D01*
X025486*X025701*X025486D02*Y015574D01*X020219Y013645D02*
X020147Y013717D01*Y013859*X020219Y013931*X02029*X020361Y013859*
X020504Y013645*X020576*Y013931*X020147Y014074D02*Y014359D01*
X020576Y014145*X020219Y014788D02*X020147Y014717D01*Y014574*
X020219Y014502*X020504*X020576Y014574*Y014717*X020504Y014788*X020219*
X02029Y014645D02*X020433D01*X020147Y014931D02*X020504D01*
X020576Y015002*Y015145*X020504Y015217*X020147*Y015645D02*Y015359D01*
X020361*X020576*X020361D02*Y015574D01*G54D13*G01X016379Y016517D02*
Y01686D01*X016208Y01666*X016436*X016551Y01686D02*X016779D01*
X016608Y016517*X017122Y016803D02*X017065Y01686D01*X016951*
X016894Y016803*Y016575*X016951Y016517*X017065*X017122Y016575*Y016803*
X017008Y016746D02*Y016632D01*X026001Y026586D02*X025658D01*
X025858Y026415*Y026643*X025715Y026986D02*X025658Y026929D01*Y026815*
X025715Y026757*X025944*X026001Y026815*Y026929*X025944Y026986*X025715*
X025772Y026872D02*X025886D01*X025715Y027329D02*X025658Y027272D01*
Y027157*X025715Y0271*X025944*X026001Y027157*Y027272*X025944Y027329*
X025715*X025772Y027215D02*X025886D01*X026001Y027443D02*X025658D01*
Y027615*X025715Y027672*X025772*X025829Y027615*Y027443*
X025658Y028015D02*Y027786D01*X025829*X026001*X025829D02*Y027957D01*
X012815Y017531D02*X012758Y017588D01*Y017702*X012815Y017759*X012872*
X012929Y017702*X012986Y017759*X013044*X013101Y017702*Y017588*
X013044Y017531*X012929Y017702D02*Y017645D01*X013101Y017959D02*
Y017988D01*X013072*Y017959*X013101*X012815Y018217D02*X012758Y018274D01*
Y018388*X012815Y018445*X012872*X012929Y018388*X012986Y018445*X013044*
X013101Y018388*Y018274*X013044Y018217*X012929Y018388D02*Y018331D01*
X012758Y018559D02*X013044D01*X013101Y018617*Y018731*X013044Y018788*
X012758*Y019131D02*Y018902D01*X012929*X013101*X012929D02*Y019074D01*
X012815Y026281D02*X012758Y026338D01*Y026452*X012815Y026509*X012872*
X012929Y026452*X012986Y026509*X013044*X013101Y026452*Y026338*
X013044Y026281*X012929Y026452D02*Y026395D01*X013101Y026709D02*
Y026738D01*X013072*Y026709*X013101*X012815Y026967D02*X012758Y027024D01*
Y027138*X012815Y027195*X012872*X012929Y027138*X012986Y027195*X013044*
X013101Y027138*Y027024*X013044Y026967*X012929Y027138D02*Y027081D01*
X012758Y027309D02*X013044D01*X013101Y027367*Y027481*X013044Y027538*
X012758*Y027881D02*Y027652D01*X012929*X013101*X012929D02*Y027824D01*
X015555Y021803D02*X015612Y02186D01*Y021517*X015669*X015612D02*
X015555D01*X015841D02*Y02186D01*X016069Y021517*Y02186*X016412D02*
X016184D01*Y021689*X016241Y021746*X016355*X016412Y021689*Y021575*
X016355Y021517*X016241*X016184Y021575*X016526Y021803D02*
X016584Y02186D01*X016698*X016755Y021803*Y021746*X016698Y021689*
X016526Y021575*Y021517*X016755*X016869Y021803D02*X016926Y02186D01*
X017041*X017098Y021803*Y021746*X017041Y021689*X016869Y021575*Y021517*
X017098*X017441Y021803D02*X017384Y02186D01*X017269*X017212Y021803*
Y021575*X017269Y021517*X017384*X017441Y021575*Y02166*X017384Y021717*
X017269*X017212Y02166*X017555Y021517D02*Y02186D01*X017726*
X017784Y021803*Y021746*X017726Y021689*X017784Y021632*Y021575*
X017726Y021517*X017555*X017726Y021689D02*X017555D01*X024533Y030094D02*
Y030323D01*X024876Y030094*Y030323*Y030551D02*X024533D01*Y030665*
Y030551D02*Y030437D01*Y03078D02*X024876Y031008D01*Y03078D02*
X024533Y031008D01*Y031351D02*Y031123D01*X024704*X024647Y03118*Y031294*
X024704Y031351*X024819*X024876Y031294*Y03118*X024819Y031123*
X024533Y031694D02*Y031465D01*X024704*X024647Y031523*Y031637*
X024704Y031694*X024819*X024876Y031637*Y031523*X024819Y031465*
X02459Y031808D02*X024533Y031865D01*Y03198*X02459Y032037*X024647*
X024704Y03198*X024761Y032037*X024819*X024876Y03198*Y031865*
X024819Y031808*X024704Y03198D02*Y031923D01*X036186Y021803D02*
X036129Y02186D01*X036015*X035958Y021803*Y021575*X036015Y021517*X036129*
X036186Y021575*Y02166*X036129Y021717*X036015*X035958Y02166*
X036472Y021689D02*X036529Y021746D01*Y021803*X036472Y02186*X036358*
X036301Y021803*Y021746*X036358Y021689*X036472*X036529Y021632*Y021575*
X036472Y021517*X036358*X036301Y021575*Y021632*X036358Y021689*
X036644Y02186D02*Y021632D01*Y021517*Y021632D02*X036701Y021689D01*
X036872Y021517*X036701Y021689D02*X036872Y02186D01*X030129Y022517D02*
Y02286D01*X029958Y02266*X030186*X030301Y02286D02*X030529D01*
X030358Y022517*X030872Y022803D02*X030815Y02286D01*X030701*
X030644Y022803*Y022575*X030701Y022517*X030815*X030872Y022575*Y022803*
X030758Y022746D02*Y022632D01*X021251Y030086D02*X020908D01*
X021108Y029915*Y030143*X020965Y030486D02*X020908Y030429D01*Y030315*
X020965Y030257*X021194*X021251Y030315*Y030429*X021194Y030486*X020965*
X021022Y030372D02*X021136D01*X020965Y030829D02*X020908Y030772D01*
Y030657*X020965Y0306*X021194*X021251Y030657*Y030772*X021194Y030829*
X020965*X021022Y030715D02*X021136D01*X021251Y030943D02*X020908D01*
Y031115*X020965Y031172*X021022*X021079Y031115*Y030943*
X020908Y031515D02*Y031286D01*X021079*X021251*X021079D02*Y031457D01*
X020965Y017754D02*X020908Y017811D01*X021251*Y017868*Y017811D02*
Y017754D01*X020965Y018268D02*X020908Y018211D01*Y018097*X020965Y018039*
X021194*X021251Y018097*Y018211*X021194Y018268*X020965*
X021022Y018154D02*X021136D01*X020908Y018382D02*X021136D01*X021251*
X021136D02*X021079Y018439D01*X021251Y018611*X021079Y018439D02*
X020908Y018611D01*X025715Y017557D02*X025658Y017614D01*X026001*Y017671*
Y017614D02*Y017557D01*X025715Y018071D02*X025658Y018014D01*Y0179*
X025715Y017842*X025944*X026001Y0179*Y018014*X025944Y018071*X025715*
X025772Y017957D02*X025886D01*X025658Y018185D02*X025886D01*X026001*
X025886D02*X025829Y018242D01*X026001Y018414*X025829Y018242D02*
X025658Y018414D01*X016379Y031267D02*Y03161D01*X016208Y03141*X016436*
X016551Y03161D02*X016779D01*X016608Y031267*X017122Y031553D02*
X017065Y03161D01*X016951*X016894Y031553*Y031325*X016951Y031267*X017065*
X017122Y031325*Y031553*X017008Y031496D02*Y031382D01*X036186Y026553D02*
X036129Y02661D01*X036015*X035958Y026553*Y026325*X036015Y026267*X036129*
X036186Y026325*Y02641*X036129Y026467*X036015*X035958Y02641*
X036472Y026439D02*X036529Y026496D01*Y026553*X036472Y02661*X036358*
X036301Y026553*Y026496*X036358Y026439*X036472*X036529Y026382*Y026325*
X036472Y026267*X036358*X036301Y026325*Y026382*X036358Y026439*
X036644Y02661D02*Y026382D01*Y026267*Y026382D02*X036701Y026439D01*
X036872Y026267*X036701Y026439D02*X036872Y02661D01*X010436Y015803D02*
X010379Y01586D01*X010265*X010208Y015803*Y015575*X010265Y015517*X010379*
X010436Y015575*Y01566*X010379Y015717*X010265*X010208Y01566*
X010722Y015689D02*X010779Y015746D01*Y015803*X010722Y01586*X010608*
X010551Y015803*Y015746*X010608Y015689*X010722*X010779Y015632*Y015575*
X010722Y015517*X010608*X010551Y015575*Y015632*X010608Y015689*
X010894Y01586D02*Y015632D01*Y015517*Y015632D02*X010951Y015689D01*
X011122Y015517*X010951Y015689D02*X011122Y01586D01*X030129Y027267D02*
Y02761D01*X029958Y02741*X030186*X030301Y02761D02*X030529D01*
X030358Y027267*X030872Y027553D02*X030815Y02761D01*X030701*
X030644Y027553*Y027325*X030701Y027267*X030815*X030872Y027325*Y027553*
X030758Y027496D02*Y027382D01*X036186Y017803D02*X036129Y01786D01*
X036015*X035958Y017803*Y017575*X036015Y017517*X036129*X036186Y017575*
Y01766*X036129Y017717*X036015*X035958Y01766*X036472Y017689D02*
X036529Y017746D01*Y017803*X036472Y01786*X036358*X036301Y017803*Y017746*
X036358Y017689*X036472*X036529Y017632*Y017575*X036472Y017517*X036358*
X036301Y017575*Y017632*X036358Y017689*X036644Y01786D02*Y017632D01*
Y017517*Y017632D02*X036701Y017689D01*X036872Y017517*X036701Y017689D02*
X036872Y01786D01*X030129Y018517D02*Y01886D01*X029958Y01866*X030186*
X030301Y01886D02*X030529D01*X030358Y018517*X030872Y018803D02*
X030815Y01886D01*X030701*X030644Y018803*Y018575*X030701Y018517*X030815*
X030872Y018575*Y018803*X030758Y018746D02*Y018632D01*X016379Y033267D02*
Y03361D01*X016208Y03341*X016436*X016551Y03361D02*X016779D01*
X016608Y033267*X017122Y033553D02*X017065Y03361D01*X016951*
X016894Y033553*Y033325*X016951Y033267*X017065*X017122Y033325*Y033553*
X017008Y033496D02*Y033382D01*X010436Y032553D02*X010379Y03261D01*
X010265*X010208Y032553*Y032325*X010265Y032267*X010379*X010436Y032325*
Y03241*X010379Y032467*X010265*X010208Y03241*X010722Y032439D02*
X010779Y032496D01*Y032553*X010722Y03261*X010608*X010551Y032553*Y032496*
X010608Y032439*X010722*X010779Y032382*Y032325*X010722Y032267*X010608*
X010551Y032325*Y032382*X010608Y032439*X010894Y03261D02*Y032382D01*
Y032267*Y032382D02*X010951Y032439D01*X011122Y032267*X010951Y032439D02*
X011122Y03261D01*X016379Y018517D02*Y01886D01*X016208Y01866*X016436*
X016551Y01886D02*X016779D01*X016608Y018517*X017122Y018803D02*
X017065Y01886D01*X016951*X016894Y018803*Y018575*X016951Y018517*X017065*
X017122Y018575*Y018803*X017008Y018746D02*Y018632D01*X032565Y028281D02*
X032508Y028338D01*Y028452*X032565Y028509*X032622*X032679Y028452*
X032736Y028509*X032794*X032851Y028452*Y028338*X032794Y028281*
X032679Y028452D02*Y028395D01*X032851Y028709D02*Y028738D01*X032822*
Y028709*X032851*X032565Y028967D02*X032508Y029024D01*Y029138*
X032565Y029195*X032622*X032679Y029138*X032736Y029195*X032794*
X032851Y029138*Y029024*X032794Y028967*X032679Y029138D02*Y029081D01*
X032508Y029309D02*X032794D01*X032851Y029367*Y029481*X032794Y029538*
X032508*Y029881D02*Y029652D01*X032679*X032851*X032679D02*Y029824D01*
X032565Y026281D02*X032508Y026338D01*Y026452*X032565Y026509*X032622*
X032679Y026452*X032736Y026509*X032794*X032851Y026452*Y026338*
X032794Y026281*X032679Y026452D02*Y026395D01*X032851Y026709D02*
Y026738D01*X032822*Y026709*X032851*X032565Y026967D02*X032508Y027024D01*
Y027138*X032565Y027195*X032622*X032679Y027138*X032736Y027195*X032794*
X032851Y027138*Y027024*X032794Y026967*X032679Y027138D02*Y027081D01*
X032508Y027309D02*X032794D01*X032851Y027367*Y027481*X032794Y027538*
X032508*Y027881D02*Y027652D01*X032679*X032851*X032679D02*Y027824D01*
X012815Y028281D02*X012758Y028338D01*Y028452*X012815Y028509*X012872*
X012929Y028452*X012986Y028509*X013044*X013101Y028452*Y028338*
X013044Y028281*X012929Y028452D02*Y028395D01*X013101Y028709D02*
Y028738D01*X013072*Y028709*X013101*X012815Y028967D02*X012758Y029024D01*
Y029138*X012815Y029195*X012872*X012929Y029138*X012986Y029195*X013044*
X013101Y029138*Y029024*X013044Y028967*X012929Y029138D02*Y029081D01*
X012758Y029309D02*X013044D01*X013101Y029367*Y029481*X013044Y029538*
X012758*Y029881D02*Y029652D01*X012929*X013101*X012929D02*Y029824D01*
X03684Y012182D02*X036783Y012239D01*X037126*Y012296*Y012239D02*
Y012182D01*X03684Y012696D02*X036783Y012639D01*Y012525*X03684Y012467*
X037069*X037126Y012525*Y012639*X037069Y012696*X03684*X036897Y012582D02*
X037011D01*X036783Y01281D02*X037011D01*X037126*X037011D02*
X036954Y012867D01*X037126Y013039*X036954Y012867D02*X036783Y013039D01*
X001919Y031267D02*Y03161D01*X001748Y03141*X001976*X002319Y031553D02*
X002262Y03161D01*X002148*X002091Y031553*Y031325*X002148Y031267*X002262*
X002319Y031325*Y031553*X002205Y031496D02*Y031382D01*X002662Y031553D02*
X002605Y03161D01*X002491*X002434Y031553*Y031325*X002491Y031267*X002605*
X002662Y031325*Y031553*X002548Y031496D02*Y031382D01*X002776Y031267D02*
Y03161D01*X002948*X003005Y031553*Y031496*X002948Y031439*X002776*
X003348Y03161D02*X003119D01*Y031439*Y031267*Y031439D02*X003291D01*
X042015Y008303D02*X042072Y00836D01*Y008017*X042129*X042072D02*
X042015D01*X042529Y008303D02*X042472Y00836D01*X042358*X042301Y008303*
Y008075*X042358Y008017*X042472*X042529Y008075*Y008303*
X042415Y008246D02*Y008132D01*X042644Y00836D02*Y008132D01*Y008017*
Y008132D02*X042701Y008189D01*X042872Y008017*X042701Y008189D02*
X042872Y00836D01*X012815Y030281D02*X012758Y030338D01*Y030452*
X012815Y030509*X012872*X012929Y030452*X012986Y030509*X013044*
X013101Y030452*Y030338*X013044Y030281*X012929Y030452D02*Y030395D01*
X013101Y030709D02*Y030738D01*X013072*Y030709*X013101*X012815Y030967D02*
X012758Y031024D01*Y031138*X012815Y031195*X012872*X012929Y031138*
X012986Y031195*X013044*X013101Y031138*Y031024*X013044Y030967*
X012929Y031138D02*Y031081D01*X012758Y031309D02*X013044D01*
X013101Y031367*Y031481*X013044Y031538*X012758*Y031881D02*Y031652D01*
X012929*X013101*X012929D02*Y031824D01*X032565Y023531D02*
X032508Y023588D01*Y023702*X032565Y023759*X032622*X032679Y023702*
X032736Y023759*X032794*X032851Y023702*Y023588*X032794Y023531*
X032679Y023702D02*Y023645D01*X032851Y023959D02*Y023988D01*X032822*
Y023959*X032851*X032565Y024217D02*X032508Y024274D01*Y024388*
X032565Y024445*X032622*X032679Y024388*X032736Y024445*X032794*
X032851Y024388*Y024274*X032794Y024217*X032679Y024388D02*Y024331D01*
X032508Y024559D02*X032794D01*X032851Y024617*Y024731*X032794Y024788*
X032508*Y025131D02*Y024902D01*X032679*X032851*X032679D02*Y025074D01*
X010436Y026553D02*X010379Y02661D01*X010265*X010208Y026553*Y026325*
X010265Y026267*X010379*X010436Y026325*Y02641*X010379Y026467*X010265*
X010208Y02641*X010722Y026439D02*X010779Y026496D01*Y026553*
X010722Y02661*X010608*X010551Y026553*Y026496*X010608Y026439*X010722*
X010779Y026382*Y026325*X010722Y026267*X010608*X010551Y026325*Y026382*
X010608Y026439*X010894Y02661D02*Y026382D01*Y026267*Y026382D02*
X010951Y026439D01*X011122Y026267*X010951Y026439D02*X011122Y02661D01*
X036186Y019803D02*X036129Y01986D01*X036015*X035958Y019803*Y019575*
X036015Y019517*X036129*X036186Y019575*Y01966*X036129Y019717*X036015*
X035958Y01966*X036472Y019689D02*X036529Y019746D01*Y019803*
X036472Y01986*X036358*X036301Y019803*Y019746*X036358Y019689*X036472*
X036529Y019632*Y019575*X036472Y019517*X036358*X036301Y019575*Y019632*
X036358Y019689*X036644Y01986D02*Y019632D01*Y019517*Y019632D02*
X036701Y019689D01*X036872Y019517*X036701Y019689D02*X036872Y01986D01*
X015555Y032553D02*X015612Y03261D01*Y032267*X015669*X015612D02*
X015555D01*X015841D02*Y03261D01*X016069Y032267*Y03261*X016412D02*
X016184D01*Y032439*X016241Y032496*X016355*X016412Y032439*Y032325*
X016355Y032267*X016241*X016184Y032325*X016526Y032553D02*
X016584Y03261D01*X016698*X016755Y032553*Y032496*X016698Y032439*
X016526Y032325*Y032267*X016755*X016869Y032553D02*X016926Y03261D01*
X017041*X017098Y032553*Y032496*X017041Y032439*X016869Y032325*Y032267*
X017098*X017441Y032553D02*X017384Y03261D01*X017269*X017212Y032553*
Y032325*X017269Y032267*X017384*X017441Y032325*Y03241*X017384Y032467*
X017269*X017212Y03241*X017555Y032267D02*Y03261D01*X017726*
X017784Y032553*Y032496*X017726Y032439*X017784Y032382*Y032325*
X017726Y032267*X017555*X017726Y032439D02*X017555D01*X015555Y026553D02*
X015612Y02661D01*Y026267*X015669*X015612D02*X015555D01*X015841D02*
Y02661D01*X016069Y026267*Y02661*X016412D02*X016184D01*Y026439*
X016241Y026496*X016355*X016412Y026439*Y026325*X016355Y026267*X016241*
X016184Y026325*X016526Y026553D02*X016584Y02661D01*X016698*
X016755Y026553*Y026496*X016698Y026439*X016526Y026325*Y026267*X016755*
X016869Y026553D02*X016926Y02661D01*X017041*X017098Y026553*Y026496*
X017041Y026439*X016869Y026325*Y026267*X017098*X017441Y026553D02*
X017384Y02661D01*X017269*X017212Y026553*Y026325*X017269Y026267*X017384*
X017441Y026325*Y02641*X017384Y026467*X017269*X017212Y02641*
X017555Y026267D02*Y02661D01*X017726*X017784Y026553*Y026496*
X017726Y026439*X017784Y026382*Y026325*X017726Y026267*X017555*
X017726Y026439D02*X017555D01*X029305Y028553D02*X029362Y02861D01*
Y028267*X029419*X029362D02*X029305D01*X029591D02*Y02861D01*
X029819Y028267*Y02861*X030162D02*X029934D01*Y028439*X029991Y028496*
X030105*X030162Y028439*Y028325*X030105Y028267*X029991*X029934Y028325*
X030276Y028553D02*X030334Y02861D01*X030448*X030505Y028553*Y028496*
X030448Y028439*X030276Y028325*Y028267*X030505*X030619Y028553D02*
X030676Y02861D01*X030791*X030848Y028553*Y028496*X030791Y028439*
X030619Y028325*Y028267*X030848*X031191Y028553D02*X031134Y02861D01*
X031019*X030962Y028553*Y028325*X031019Y028267*X031134*X031191Y028325*
Y02841*X031134Y028467*X031019*X030962Y02841*X031305Y028267D02*
Y02861D01*X031476*X031534Y028553*Y028496*X031476Y028439*X031534Y028382*
Y028325*X031476Y028267*X031305*X031476Y028439D02*X031305D01*
X015555Y015803D02*X015612Y01586D01*Y015517*X015669*X015612D02*
X015555D01*X015841D02*Y01586D01*X016069Y015517*Y01586*X016412D02*
X016184D01*Y015689*X016241Y015746*X016355*X016412Y015689*Y015575*
X016355Y015517*X016241*X016184Y015575*X016526Y015803D02*
X016584Y01586D01*X016698*X016755Y015803*Y015746*X016698Y015689*
X016526Y015575*Y015517*X016755*X016869Y015803D02*X016926Y01586D01*
X017041*X017098Y015803*Y015746*X017041Y015689*X016869Y015575*Y015517*
X017098*X017441Y015803D02*X017384Y01586D01*X017269*X017212Y015803*
Y015575*X017269Y015517*X017384*X017441Y015575*Y01566*X017384Y015717*
X017269*X017212Y01566*X017555Y015517D02*Y01586D01*X017726*
X017784Y015803*Y015746*X017726Y015689*X017784Y015632*Y015575*
X017726Y015517*X017555*X017726Y015689D02*X017555D01*X039669Y015517D02*
Y01586D01*X039498Y01566*X039726*X040069Y015803D02*X040012Y01586D01*
X039898*X039841Y015803*Y015575*X039898Y015517*X040012*X040069Y015575*
Y015803*X039955Y015746D02*Y015632D01*X040412Y015803D02*
X040355Y01586D01*X040241*X040184Y015803*Y015575*X040241Y015517*X040355*
X040412Y015575*Y015803*X040298Y015746D02*Y015632D01*X040526Y015517D02*
Y01586D01*X040698*X040755Y015803*Y015746*X040698Y015689*X040526*
X041098Y01586D02*X040869D01*Y015689*Y015517*Y015689D02*X041041D01*
X029305Y015803D02*X029362Y01586D01*Y015517*X029419*X029362D02*
X029305D01*X029591D02*Y01586D01*X029819Y015517*Y01586*X030162D02*
X029934D01*Y015689*X029991Y015746*X030105*X030162Y015689*Y015575*
X030105Y015517*X029991*X029934Y015575*X030276Y015803D02*
X030334Y01586D01*X030448*X030505Y015803*Y015746*X030448Y015689*
X030276Y015575*Y015517*X030505*X030619Y015803D02*X030676Y01586D01*
X030791*X030848Y015803*Y015746*X030791Y015689*X030619Y015575*Y015517*
X030848*X031191Y015803D02*X031134Y01586D01*X031019*X030962Y015803*
Y015575*X031019Y015517*X031134*X031191Y015575*Y01566*X031134Y015717*
X031019*X030962Y01566*X031305Y015517D02*Y01586D01*X031476*
X031534Y015803*Y015746*X031476Y015689*X031534Y015632*Y015575*
X031476Y015517*X031305*X031476Y015689D02*X031305D01*X043669Y031267D02*
Y03161D01*X043498Y03141*X043726*X044069Y031553D02*X044012Y03161D01*
X043898*X043841Y031553*Y031325*X043898Y031267*X044012*X044069Y031325*
Y031553*X043955Y031496D02*Y031382D01*X044412Y031553D02*
X044355Y03161D01*X044241*X044184Y031553*Y031325*X044241Y031267*X044355*
X044412Y031325*Y031553*X044298Y031496D02*Y031382D01*X044526Y031267D02*
Y03161D01*X044698*X044755Y031553*Y031496*X044698Y031439*X044526*
X045098Y03161D02*X044869D01*Y031439*Y031267*Y031439D02*X045041D01*
X043669Y026267D02*Y02661D01*X043498Y02641*X043726*X044069Y026553D02*
X044012Y02661D01*X043898*X043841Y026553*Y026325*X043898Y026267*X044012*
X044069Y026325*Y026553*X043955Y026496D02*Y026382D01*X044412Y026553D02*
X044355Y02661D01*X044241*X044184Y026553*Y026325*X044241Y026267*X044355*
X044412Y026325*Y026553*X044298Y026496D02*Y026382D01*X044526Y026267D02*
Y02661D01*X044698*X044755Y026553*Y026496*X044698Y026439*X044526*
X045098Y02661D02*X044869D01*Y026439*Y026267*Y026439D02*X045041D01*
X004265Y010303D02*X004322Y01036D01*Y010017*X004379*X004322D02*
X004265D01*X004779Y010303D02*X004722Y01036D01*X004608*X004551Y010303*
Y010075*X004608Y010017*X004722*X004779Y010075*Y010303*
X004665Y010246D02*Y010132D01*X004894Y01036D02*Y010132D01*Y010017*
Y010132D02*X004951Y010189D01*X005122Y010017*X004951Y010189D02*
X005122Y01036D01*X03584Y012182D02*X035783Y012239D01*X036126*Y012296*
Y012239D02*Y012182D01*X03584Y012696D02*X035783Y012639D01*Y012525*
X03584Y012467*X036069*X036126Y012525*Y012639*X036069Y012696*X03584*
X035897Y012582D02*X036011D01*X035783Y01281D02*X036011D01*X036126*
X036011D02*X035954Y012867D01*X036126Y013039*X035954Y012867D02*
X035783Y013039D01*X020965Y021807D02*X020908Y021864D01*X021251*Y021921*
Y021864D02*Y021807D01*X020965Y022321D02*X020908Y022264D01*Y02215*
X020965Y022092*X021194*X021251Y02215*Y022264*X021194Y022321*X020965*
X021022Y022207D02*X021136D01*X020908Y022435D02*X021136D01*X021251*
X021136D02*X021079Y022492D01*X021251Y022664*X021079Y022492D02*
X020908Y022664D01*X025715Y021807D02*X025658Y021864D01*X026001*Y021921*
Y021864D02*Y021807D01*X025715Y022321D02*X025658Y022264D01*Y02215*
X025715Y022092*X025944*X026001Y02215*Y022264*X025944Y022321*X025715*
X025772Y022207D02*X025886D01*X025658Y022435D02*X025886D01*X026001*
X025886D02*X025829Y022492D01*X026001Y022664*X025829Y022492D02*
X025658Y022664D01*X02209Y031425D02*X022033Y031482D01*Y031596*
X02209Y031653*X022147*X022204Y031596*X022319Y031425*X022376*Y031653*
X02209Y031767D02*X022033Y031825D01*Y031939*X02209Y031996*X022147*
X022204Y031939*X022319Y031767*X022376*Y031996*X02209Y032339D02*
X022033Y032282D01*Y032167*X02209Y03211*X022319*X022376Y032167*Y032282*
X022319Y032339*X02209*X022147Y032225D02*X022261D01*X03784Y012182D02*
X037783Y012239D01*X038126*Y012296*Y012239D02*Y012182D01*
X03784Y012696D02*X037783Y012639D01*Y012525*X03784Y012467*X038069*
X038126Y012525*Y012639*X038069Y012696*X03784*X037897Y012582D02*
X038011D01*X037783Y01281D02*X038011D01*X038126*X038011D02*
X037954Y012867D01*X038126Y013039*X037954Y012867D02*X037783Y013039D01*
X030129Y031267D02*Y03161D01*X029958Y03141*X030186*X030301Y03161D02*
X030529D01*X030358Y031267*X030872Y031553D02*X030815Y03161D01*X030701*
X030644Y031553*Y031325*X030701Y031267*X030815*X030872Y031325*Y031553*
X030758Y031496D02*Y031382D01*X036186Y034553D02*X036129Y03461D01*
X036015*X035958Y034553*Y034325*X036015Y034267*X036129*X036186Y034325*
Y03441*X036129Y034467*X036015*X035958Y03441*X036472Y034439D02*
X036529Y034496D01*Y034553*X036472Y03461*X036358*X036301Y034553*Y034496*
X036358Y034439*X036472*X036529Y034382*Y034325*X036472Y034267*X036358*
X036301Y034325*Y034382*X036358Y034439*X036644Y03461D02*Y034382D01*
Y034267*Y034382D02*X036701Y034439D01*X036872Y034267*X036701Y034439D02*
X036872Y03461D01*G54D14*G01X004122Y005896D02*X004408D01*X004194Y005467*
X004765D02*Y005896D01*X004551Y005646*X004836*X004979Y005896D02*
Y005467D01*X005265*X005694Y005825D02*X005622Y005896D01*X005479*
X005408Y005825*Y005753*X005479Y005682*X005622*X005694Y00561*Y005539*
X005622Y005467*X005479*X005408Y005539*X006051Y005682D02*
X006122Y005753D01*Y005825*X006051Y005896*X005908*X005836Y005825*
Y005753*X005908Y005682*X006051*X006122Y00561*Y005539*X006051Y005467*
X005908*X005836Y005539*Y00561*X005908Y005682*X006551Y005825D02*
X006479Y005896D01*X006336*X006265Y005825*Y005539*X006336Y005467*
X006479*X006551Y005539*Y005646*X006479Y005717*X006336*X006265Y005646*
X041372Y029146D02*X041658D01*X041444Y028717*X042015D02*Y029146D01*
X041801Y028896*X042086*X042515Y029075D02*X042444Y029146D01*X042301*
X042229Y029075*Y028789*X042301Y028717*X042444*X042515Y028789*Y029075*
X042372Y029003D02*Y02886D01*X042658Y029075D02*X042729Y029146D01*
X042872*X042944Y029075*Y029003*X042872Y028932*X042658Y028789*Y028717*
X042944*G54D13*G01X011011Y012753D02*X011069Y012696D01*X010726*Y012639*
Y012696D02*Y012753D01*X011011Y012239D02*X011069Y012296D01*Y01241*
X011011Y012467*X010783*X010726Y01241*Y012296*X010783Y012239*X011011*
X010954Y012353D02*X01084D01*X011069Y012125D02*X01084D01*X010726*
X01084D02*X010897Y012067D01*X010726Y011896*X010897Y012067D02*
X011069Y011896D01*X023626Y032221D02*X023283D01*X023483Y03205*Y032278*
X023283Y032392D02*Y032621D01*X023626Y03245*X02334Y032964D02*
X023283Y032907D01*Y032792*X02334Y032735*X023569*X023626Y032792*Y032907*
X023569Y032964*X02334*X023397Y03285D02*X023511D01*X010436Y017803D02*
X010379Y01786D01*X010265*X010208Y017803*Y017575*X010265Y017517*X010379*
X010436Y017575*Y01766*X010379Y017717*X010265*X010208Y01766*
X010722Y017689D02*X010779Y017746D01*Y017803*X010722Y01786*X010608*
X010551Y017803*Y017746*X010608Y017689*X010722*X010779Y017632*Y017575*
X010722Y017517*X010608*X010551Y017575*Y017632*X010608Y017689*
X010894Y01786D02*Y017632D01*Y017517*Y017632D02*X010951Y017689D01*
X011122Y017517*X010951Y017689D02*X011122Y01786D01*X016379Y022517D02*
Y02286D01*X016208Y02266*X016436*X016551Y02286D02*X016779D01*
X016608Y022517*X017122Y022803D02*X017065Y02286D01*X016951*
X016894Y022803*Y022575*X016951Y022517*X017065*X017122Y022575*Y022803*
X017008Y022746D02*Y022632D01*X006419Y020517D02*Y02086D01*X006248Y02066*
X006476*X006819Y020803D02*X006762Y02086D01*X006648*X006591Y020803*
Y020575*X006648Y020517*X006762*X006819Y020575*Y020803*
X006705Y020746D02*Y020632D01*X007162Y020803D02*X007105Y02086D01*
X006991*X006934Y020803*Y020575*X006991Y020517*X007105*X007162Y020575*
Y020803*X007048Y020746D02*Y020632D01*X007276Y020517D02*Y02086D01*
X007448*X007505Y020803*Y020746*X007448Y020689*X007276*X007848Y02086D02*
X007619D01*Y020689*Y020517*Y020689D02*X007791D01*X016379Y024517D02*
Y02486D01*X016208Y02466*X016436*X016551Y02486D02*X016779D01*
X016608Y024517*X017122Y024803D02*X017065Y02486D01*X016951*
X016894Y024803*Y024575*X016951Y024517*X017065*X017122Y024575*Y024803*
X017008Y024746D02*Y024632D01*X010011Y012753D02*X010069Y012696D01*
X009726*Y012639*Y012696D02*Y012753D01*X010011Y012239D02*
X010069Y012296D01*Y01241*X010011Y012467*X009783*X009726Y01241*Y012296*
X009783Y012239*X010011*X009954Y012353D02*X00984D01*X010069Y012125D02*
X00984D01*X009726*X00984D02*X009897Y012067D01*X009726Y011896*
X009897Y012067D02*X010069Y011896D01*X036186Y032553D02*X036129Y03261D01*
X036015*X035958Y032553*Y032325*X036015Y032267*X036129*X036186Y032325*
Y03241*X036129Y032467*X036015*X035958Y03241*X036472Y032439D02*
X036529Y032496D01*Y032553*X036472Y03261*X036358*X036301Y032553*Y032496*
X036358Y032439*X036472*X036529Y032382*Y032325*X036472Y032267*X036358*
X036301Y032325*Y032382*X036358Y032439*X036644Y03261D02*Y032382D01*
Y032267*Y032382D02*X036701Y032439D01*X036872Y032267*X036701Y032439D02*
X036872Y03261D01*X010436Y034553D02*X010379Y03461D01*X010265*
X010208Y034553*Y034325*X010265Y034267*X010379*X010436Y034325*Y03441*
X010379Y034467*X010265*X010208Y03441*X010722Y034439D02*
X010779Y034496D01*Y034553*X010722Y03461*X010608*X010551Y034553*Y034496*
X010608Y034439*X010722*X010779Y034382*Y034325*X010722Y034267*X010608*
X010551Y034325*Y034382*X010608Y034439*X010894Y03461D02*Y034382D01*
Y034267*Y034382D02*X010951Y034439D01*X011122Y034267*X010951Y034439D02*
X011122Y03461D01*X010436Y021803D02*X010379Y02186D01*X010265*
X010208Y021803*Y021575*X010265Y021517*X010379*X010436Y021575*Y02166*
X010379Y021717*X010265*X010208Y02166*X010722Y021689D02*
X010779Y021746D01*Y021803*X010722Y02186*X010608*X010551Y021803*Y021746*
X010608Y021689*X010722*X010779Y021632*Y021575*X010722Y021517*X010608*
X010551Y021575*Y021632*X010608Y021689*X010894Y02186D02*Y021632D01*
Y021517*Y021632D02*X010951Y021689D01*X011122Y021517*X010951Y021689D02*
X011122Y02186D01*X036186Y030553D02*X036129Y03061D01*X036015*
X035958Y030553*Y030325*X036015Y030267*X036129*X036186Y030325*Y03041*
X036129Y030467*X036015*X035958Y03041*X036472Y030439D02*
X036529Y030496D01*Y030553*X036472Y03061*X036358*X036301Y030553*Y030496*
X036358Y030439*X036472*X036529Y030382*Y030325*X036472Y030267*X036358*
X036301Y030325*Y030382*X036358Y030439*X036644Y03061D02*Y030382D01*
Y030267*Y030382D02*X036701Y030439D01*X036872Y030267*X036701Y030439D02*
X036872Y03061D01*X010436Y030553D02*X010379Y03061D01*X010265*
X010208Y030553*Y030325*X010265Y030267*X010379*X010436Y030325*Y03041*
X010379Y030467*X010265*X010208Y03041*X010722Y030439D02*
X010779Y030496D01*Y030553*X010722Y03061*X010608*X010551Y030553*Y030496*
X010608Y030439*X010722*X010779Y030382*Y030325*X010722Y030267*X010608*
X010551Y030325*Y030382*X010608Y030439*X010894Y03061D02*Y030382D01*
Y030267*Y030382D02*X010951Y030439D01*X011122Y030267*X010951Y030439D02*
X011122Y03061D01*X032565Y017531D02*X032508Y017588D01*Y017702*
X032565Y017759*X032622*X032679Y017702*X032736Y017759*X032794*
X032851Y017702*Y017588*X032794Y017531*X032679Y017702D02*Y017645D01*
X032851Y017959D02*Y017988D01*X032822*Y017959*X032851*X032565Y018217D02*
X032508Y018274D01*Y018388*X032565Y018445*X032622*X032679Y018388*
X032736Y018445*X032794*X032851Y018388*Y018274*X032794Y018217*
X032679Y018388D02*Y018331D01*X032508Y018559D02*X032794D01*
X032851Y018617*Y018731*X032794Y018788*X032508*Y019131D02*Y018902D01*
X032679*X032851*X032679D02*Y019074D01*X03684Y005432D02*
X036783Y005489D01*X037126*Y005546*Y005489D02*Y005432D01*
X03684Y005946D02*X036783Y005889D01*Y005775*X03684Y005717*X037069*
X037126Y005775*Y005889*X037069Y005946*X03684*X036897Y005832D02*
X037011D01*X036783Y00606D02*X037011D01*X037126*X037011D02*
X036954Y006117D01*X037126Y006289*X036954Y006117D02*X036783Y006289D01*
X005919Y026267D02*Y02661D01*X005748Y02641*X005976*X006319Y026553D02*
X006262Y02661D01*X006148*X006091Y026553*Y026325*X006148Y026267*X006262*
X006319Y026325*Y026553*X006205Y026496D02*Y026382D01*X006662Y026553D02*
X006605Y02661D01*X006491*X006434Y026553*Y026325*X006491Y026267*X006605*
X006662Y026325*Y026553*X006548Y026496D02*Y026382D01*X006776Y026267D02*
Y02661D01*X006948*X007005Y026553*Y026496*X006948Y026439*X006776*
X007348Y02661D02*X007119D01*Y026439*Y026267*Y026439D02*X007291D01*
X043169Y015517D02*Y01586D01*X042998Y01566*X043226*X043569Y015803D02*
X043512Y01586D01*X043398*X043341Y015803*Y015575*X043398Y015517*X043512*
X043569Y015575*Y015803*X043455Y015746D02*Y015632D01*X043912Y015803D02*
X043855Y01586D01*X043741*X043684Y015803*Y015575*X043741Y015517*X043855*
X043912Y015575*Y015803*X043798Y015746D02*Y015632D01*X044026Y015517D02*
Y01586D01*X044198*X044255Y015803*Y015746*X044198Y015689*X044026*
X044598Y01586D02*X044369D01*Y015689*Y015517*Y015689D02*X044541D01*
X00884Y005432D02*X008783Y005489D01*X009126*Y005546*Y005489D02*
Y005432D01*X00884Y005946D02*X008783Y005889D01*Y005775*X00884Y005717*
X009069*X009126Y005775*Y005889*X009069Y005946*X00884*X008897Y005832D02*
X009011D01*X008783Y00606D02*X009011D01*X009126*X009011D02*
X008954Y006117D01*X009126Y006289*X008954Y006117D02*X008783Y006289D01*
X030129Y033267D02*Y03361D01*X029958Y03341*X030186*X030301Y03361D02*
X030529D01*X030358Y033267*X030872Y033553D02*X030815Y03361D01*X030701*
X030644Y033553*Y033325*X030701Y033267*X030815*X030872Y033325*Y033553*
X030758Y033496D02*Y033382D01*X005919Y015517D02*Y01586D01*X005748Y01566*
X005976*X006319Y015803D02*X006262Y01586D01*X006148*X006091Y015803*
Y015575*X006148Y015517*X006262*X006319Y015575*Y015803*
X006205Y015746D02*Y015632D01*X006662Y015803D02*X006605Y01586D01*
X006491*X006434Y015803*Y015575*X006491Y015517*X006605*X006662Y015575*
Y015803*X006548Y015746D02*Y015632D01*X006776Y015517D02*Y01586D01*
X006948*X007005Y015803*Y015746*X006948Y015689*X006776*X007348Y01586D02*
X007119D01*Y015689*Y015517*Y015689D02*X007291D01*X006419Y031267D02*
Y03161D01*X006248Y03141*X006476*X006819Y031553D02*X006762Y03161D01*
X006648*X006591Y031553*Y031325*X006648Y031267*X006762*X006819Y031325*
Y031553*X006705Y031496D02*Y031382D01*X007162Y031553D02*
X007105Y03161D01*X006991*X006934Y031553*Y031325*X006991Y031267*X007105*
X007162Y031325*Y031553*X007048Y031496D02*Y031382D01*X007276Y031267D02*
Y03161D01*X007448*X007505Y031553*Y031496*X007448Y031439*X007276*
X007848Y03161D02*X007619D01*Y031439*Y031267*Y031439D02*X007791D01*
X004265Y008303D02*X004322Y00836D01*Y008017*X004379*X004322D02*
X004265D01*X004779Y008303D02*X004722Y00836D01*X004608*X004551Y008303*
Y008075*X004608Y008017*X004722*X004779Y008075*Y008303*
X004665Y008246D02*Y008132D01*X004894Y00836D02*Y008132D01*Y008017*
Y008132D02*X004951Y008189D01*X005122Y008017*X004951Y008189D02*
X005122Y00836D01*X016379Y035267D02*Y03561D01*X016208Y03541*X016436*
X016551Y03561D02*X016779D01*X016608Y035267*X017122Y035553D02*
X017065Y03561D01*X016951*X016894Y035553*Y035325*X016951Y035267*X017065*
X017122Y035325*Y035553*X017008Y035496D02*Y035382D01*X042015Y010303D02*
X042072Y01036D01*Y010017*X042129*X042072D02*X042015D01*
X042529Y010303D02*X042472Y01036D01*X042358*X042301Y010303*Y010075*
X042358Y010017*X042472*X042529Y010075*Y010303*X042415Y010246D02*
Y010132D01*X042644Y01036D02*Y010132D01*Y010017*Y010132D02*
X042701Y010189D01*X042872Y010017*X042701Y010189D02*X042872Y01036D01*
X010436Y028553D02*X010379Y02861D01*X010265*X010208Y028553*Y028325*
X010265Y028267*X010379*X010436Y028325*Y02841*X010379Y028467*X010265*
X010208Y02841*X010722Y028439D02*X010779Y028496D01*Y028553*
X010722Y02861*X010608*X010551Y028553*Y028496*X010608Y028439*X010722*
X010779Y028382*Y028325*X010722Y028267*X010608*X010551Y028325*Y028382*
X010608Y028439*X010894Y02861D02*Y028382D01*Y028267*Y028382D02*
X010951Y028439D01*X011122Y028267*X010951Y028439D02*X011122Y02861D01*
X00984Y005432D02*X009783Y005489D01*X010126*Y005546*Y005489D02*
Y005432D01*X00984Y005946D02*X009783Y005889D01*Y005775*X00984Y005717*
X010069*X010126Y005775*Y005889*X010069Y005946*X00984*X009897Y005832D02*
X010011D01*X009783Y00606D02*X010011D01*X010126*X010011D02*
X009954Y006117D01*X010126Y006289*X009954Y006117D02*X009783Y006289D01*
X004265Y009303D02*X004322Y00936D01*Y009017*X004379*X004322D02*
X004265D01*X004779Y009303D02*X004722Y00936D01*X004608*X004551Y009303*
Y009075*X004608Y009017*X004722*X004779Y009075*Y009303*
X004665Y009246D02*Y009132D01*X004894Y00936D02*Y009132D01*Y009017*
Y009132D02*X004951Y009189D01*X005122Y009017*X004951Y009189D02*
X005122Y00936D01*X02159Y034175D02*X021533Y034232D01*Y034346*
X02159Y034403*X021647*X021704Y034346*X021819Y034175*X021876*Y034403*
Y034517D02*X021533D01*X021876Y034746*X021533*X02159Y03486D02*
X021533Y034917D01*Y035032*X02159Y035089*X021647*X021704Y035032*
X021761Y035089*X021819*X021876Y035032*Y034917*X021819Y03486*
X021704Y035032D02*Y034975D01*X02159Y035432D02*X021533Y035375D01*Y03526*
X02159Y035203*X021819*X021876Y03526*Y035375*X021819Y035432*X021733*
X021676Y035375*Y03526*X021733Y035203*X02159Y035546D02*
X021533Y035603D01*Y035717*X02159Y035775*X021647*X021704Y035717*
X021761Y035775*X021819*X021876Y035717*Y035603*X021819Y035546*
X021704Y035717D02*Y03566D01*Y03606D02*X021647Y036117D01*X02159*
X021533Y03606*Y035946*X02159Y035889*X021647*X021704Y035946*Y03606*
X021761Y036117*X021819*X021876Y03606*Y035946*X021819Y035889*X021761*
X021704Y035946*X015555Y019803D02*X015612Y01986D01*Y019517*X015669*
X015612D02*X015555D01*X015841D02*Y01986D01*X016069Y019517*Y01986*
X016412D02*X016184D01*Y019689*X016241Y019746*X016355*X016412Y019689*
Y019575*X016355Y019517*X016241*X016184Y019575*X016526Y019803D02*
X016584Y01986D01*X016698*X016755Y019803*Y019746*X016698Y019689*
X016526Y019575*Y019517*X016755*X016869Y019803D02*X016926Y01986D01*
X017041*X017098Y019803*Y019746*X017041Y019689*X016869Y019575*Y019517*
X017098*X017441Y019803D02*X017384Y01986D01*X017269*X017212Y019803*
Y019575*X017269Y019517*X017384*X017441Y019575*Y01966*X017384Y019717*
X017269*X017212Y01966*X017555Y019517D02*Y01986D01*X017726*
X017784Y019803*Y019746*X017726Y019689*X017784Y019632*Y019575*
X017726Y019517*X017555*X017726Y019689D02*X017555D01*G54D14*
G01X004122Y012896D02*X004408D01*X004194Y012467*X004765D02*Y012896D01*
X004551Y012646*X004836*X004979Y012896D02*Y012467D01*X005265*
X005694Y012825D02*X005622Y012896D01*X005479*X005408Y012825*Y012753*
X005479Y012682*X005622*X005694Y01261*Y012539*X005622Y012467*X005479*
X005408Y012539*X006051Y012682D02*X006122Y012753D01*Y012825*
X006051Y012896*X005908*X005836Y012825*Y012753*X005908Y012682*X006051*
X006122Y01261*Y012539*X006051Y012467*X005908*X005836Y012539*Y01261*
X005908Y012682*X006551Y012825D02*X006479Y012896D01*X006336*
X006265Y012825*Y012539*X006336Y012467*X006479*X006551Y012539*Y012646*
X006479Y012717*X006336*X006265Y012646*X004122Y018396D02*X004408D01*
X004194Y017967*X004765D02*Y018396D01*X004551Y018146*X004836*
X005265Y018325D02*X005194Y018396D01*X005051*X004979Y018325*Y018039*
X005051Y017967*X005194*X005265Y018039*Y018325*X005122Y018253D02*
Y01811D01*X005408Y018325D02*X005479Y018396D01*X005622*X005694Y018325*
Y018253*X005622Y018182*X005408Y018039*Y017967*X005694*
X004122Y034146D02*X004408D01*X004194Y033717*X004765D02*Y034146D01*
X004551Y033896*X004836*X004979Y034146D02*Y033717D01*X005265*
X005694Y034075D02*X005622Y034146D01*X005479*X005408Y034075*Y033789*
X005479Y033717*X005622*X005694Y033789*Y034075*X005551Y034003D02*
Y03386D01*X006051Y033717D02*Y034146D01*X005836Y033896*X006122*
X023268Y017876D02*Y018162D01*X023697Y017947*Y018519D02*X023268D01*
X023518Y018305*Y01859*X023268Y018733D02*X023697D01*Y019019*
X023339Y019447D02*X023268Y019376D01*Y019233*X023339Y019162*X023411*
X023482Y019233*Y019376*X023554Y019447*X023625*X023697Y019376*Y019233*
X023625Y019162*X023482Y019805D02*X023411Y019876D01*X023339*
X023268Y019805*Y019662*X023339Y01959*X023411*X023482Y019662*Y019805*
X023554Y019876*X023625*X023697Y019805*Y019662*X023625Y01959*X023554*
X023482Y019662*X023339Y020305D02*X023268Y020233D01*Y02009*
X023339Y020019*X023625*X023697Y02009*Y020233*X023625Y020305*X023518*
X023447Y020233*Y02009*X023518Y020019*G54D13*G01X02469Y034413D02*
X024633Y03447D01*X024976*Y034527*Y03447D02*Y034413D01*
X024633Y034699D02*X024919D01*X024976Y034756*Y03487*X024919Y034927*
X024633*Y03527D02*Y035042D01*X024804*X024976*X024804D02*Y035213D01*
X032565Y034281D02*X032508Y034338D01*Y034452*X032565Y034509*X032622*
X032679Y034452*X032736Y034509*X032794*X032851Y034452*Y034338*
X032794Y034281*X032679Y034452D02*Y034395D01*X032851Y034709D02*
Y034738D01*X032822*Y034709*X032851*X032565Y034967D02*X032508Y035024D01*
Y035138*X032565Y035195*X032622*X032679Y035138*X032736Y035195*X032794*
X032851Y035138*Y035024*X032794Y034967*X032679Y035138D02*Y035081D01*
X032508Y035309D02*X032794D01*X032851Y035367*Y035481*X032794Y035538*
X032508*Y035881D02*Y035652D01*X032679*X032851*X032679D02*Y035824D01*
X032565Y032281D02*X032508Y032338D01*Y032452*X032565Y032509*X032622*
X032679Y032452*X032736Y032509*X032794*X032851Y032452*Y032338*
X032794Y032281*X032679Y032452D02*Y032395D01*X032851Y032709D02*
Y032738D01*X032822*Y032709*X032851*X032565Y032967D02*X032508Y033024D01*
Y033138*X032565Y033195*X032622*X032679Y033138*X032736Y033195*X032794*
X032851Y033138*Y033024*X032794Y032967*X032679Y033138D02*Y033081D01*
X032508Y033309D02*X032794D01*X032851Y033367*Y033481*X032794Y033538*
X032508*Y033881D02*Y033652D01*X032679*X032851*X032679D02*Y033824D01*
X040169Y026267D02*Y02661D01*X039998Y02641*X040226*X040569Y026553D02*
X040512Y02661D01*X040398*X040341Y026553*Y026325*X040398Y026267*X040512*
X040569Y026325*Y026553*X040455Y026496D02*Y026382D01*X040912Y026553D02*
X040855Y02661D01*X040741*X040684Y026553*Y026325*X040741Y026267*X040855*
X040912Y026325*Y026553*X040798Y026496D02*Y026382D01*X041026Y026267D02*
Y02661D01*X041198*X041255Y026553*Y026496*X041198Y026439*X041026*
X041598Y02661D02*X041369D01*Y026439*Y026267*Y026439D02*X041541D01*
X029305Y032553D02*X029362Y03261D01*Y032267*X029419*X029362D02*
X029305D01*X029591D02*Y03261D01*X029819Y032267*Y03261*X030162D02*
X029934D01*Y032439*X029991Y032496*X030105*X030162Y032439*Y032325*
X030105Y032267*X029991*X029934Y032325*X030276Y032553D02*
X030334Y03261D01*X030448*X030505Y032553*Y032496*X030448Y032439*
X030276Y032325*Y032267*X030505*X030619Y032553D02*X030676Y03261D01*
X030791*X030848Y032553*Y032496*X030791Y032439*X030619Y032325*Y032267*
X030848*X031191Y032553D02*X031134Y03261D01*X031019*X030962Y032553*
Y032325*X031019Y032267*X031134*X031191Y032325*Y03241*X031134Y032467*
X031019*X030962Y03241*X031305Y032267D02*Y03261D01*X031476*
X031534Y032553*Y032496*X031476Y032439*X031534Y032382*Y032325*
X031476Y032267*X031305*X031476Y032439D02*X031305D01*X015555Y023803D02*
X015612Y02386D01*Y023517*X015669*X015612D02*X015555D01*X015841D02*
Y02386D01*X016069Y023517*Y02386*X016412D02*X016184D01*Y023689*
X016241Y023746*X016355*X016412Y023689*Y023575*X016355Y023517*X016241*
X016184Y023575*X016526Y023803D02*X016584Y02386D01*X016698*
X016755Y023803*Y023746*X016698Y023689*X016526Y023575*Y023517*X016755*
X016869Y023803D02*X016926Y02386D01*X017041*X017098Y023803*Y023746*
X017041Y023689*X016869Y023575*Y023517*X017098*X017441Y023803D02*
X017384Y02386D01*X017269*X017212Y023803*Y023575*X017269Y023517*X017384*
X017441Y023575*Y02366*X017384Y023717*X017269*X017212Y02366*
X017555Y023517D02*Y02386D01*X017726*X017784Y023803*Y023746*
X017726Y023689*X017784Y023632*Y023575*X017726Y023517*X017555*
X017726Y023689D02*X017555D01*X015555Y028553D02*X015612Y02861D01*
Y028267*X015669*X015612D02*X015555D01*X015841D02*Y02861D01*
X016069Y028267*Y02861*X016412D02*X016184D01*Y028439*X016241Y028496*
X016355*X016412Y028439*Y028325*X016355Y028267*X016241*X016184Y028325*
X016526Y028553D02*X016584Y02861D01*X016698*X016755Y028553*Y028496*
X016698Y028439*X016526Y028325*Y028267*X016755*X016869Y028553D02*
X016926Y02861D01*X017041*X017098Y028553*Y028496*X017041Y028439*
X016869Y028325*Y028267*X017098*X017441Y028553D02*X017384Y02861D01*
X017269*X017212Y028553*Y028325*X017269Y028267*X017384*X017441Y028325*
Y02841*X017384Y028467*X017269*X017212Y02841*X017555Y028267D02*
Y02861D01*X017726*X017784Y028553*Y028496*X017726Y028439*X017784Y028382*
Y028325*X017726Y028267*X017555*X017726Y028439D02*X017555D01*
X015555Y034553D02*X015612Y03461D01*Y034267*X015669*X015612D02*
X015555D01*X015841D02*Y03461D01*X016069Y034267*Y03461*X016412D02*
X016184D01*Y034439*X016241Y034496*X016355*X016412Y034439*Y034325*
X016355Y034267*X016241*X016184Y034325*X016526Y034553D02*
X016584Y03461D01*X016698*X016755Y034553*Y034496*X016698Y034439*
X016526Y034325*Y034267*X016755*X016869Y034553D02*X016926Y03461D01*
X017041*X017098Y034553*Y034496*X017041Y034439*X016869Y034325*Y034267*
X017098*X017441Y034553D02*X017384Y03461D01*X017269*X017212Y034553*
Y034325*X017269Y034267*X017384*X017441Y034325*Y03441*X017384Y034467*
X017269*X017212Y03441*X017555Y034267D02*Y03461D01*X017726*
X017784Y034553*Y034496*X017726Y034439*X017784Y034382*Y034325*
X017726Y034267*X017555*X017726Y034439D02*X017555D01*X002419Y020517D02*
Y02086D01*X002248Y02066*X002476*X002819Y020803D02*X002762Y02086D01*
X002648*X002591Y020803*Y020575*X002648Y020517*X002762*X002819Y020575*
Y020803*X002705Y020746D02*Y020632D01*X003162Y020803D02*
X003105Y02086D01*X002991*X002934Y020803*Y020575*X002991Y020517*X003105*
X003162Y020575*Y020803*X003048Y020746D02*Y020632D01*X003276Y020517D02*
Y02086D01*X003448*X003505Y020803*Y020746*X003448Y020689*X003276*
X003848Y02086D02*X003619D01*Y020689*Y020517*Y020689D02*X003791D01*
X040169Y031267D02*Y03161D01*X039998Y03141*X040226*X040569Y031553D02*
X040512Y03161D01*X040398*X040341Y031553*Y031325*X040398Y031267*X040512*
X040569Y031325*Y031553*X040455Y031496D02*Y031382D01*X040912Y031553D02*
X040855Y03161D01*X040741*X040684Y031553*Y031325*X040741Y031267*X040855*
X040912Y031325*Y031553*X040798Y031496D02*Y031382D01*X041026Y031267D02*
Y03161D01*X041198*X041255Y031553*Y031496*X041198Y031439*X041026*
X041598Y03161D02*X041369D01*Y031439*Y031267*Y031439D02*X041541D01*
X001919Y026267D02*Y02661D01*X001748Y02641*X001976*X002319Y026553D02*
X002262Y02661D01*X002148*X002091Y026553*Y026325*X002148Y026267*X002262*
X002319Y026325*Y026553*X002205Y026496D02*Y026382D01*X002662Y026553D02*
X002605Y02661D01*X002491*X002434Y026553*Y026325*X002491Y026267*X002605*
X002662Y026325*Y026553*X002548Y026496D02*Y026382D01*X002776Y026267D02*
Y02661D01*X002948*X003005Y026553*Y026496*X002948Y026439*X002776*
X003348Y02661D02*X003119D01*Y026439*Y026267*Y026439D02*X003291D01*
X021251Y026586D02*X020908D01*X021108Y026415*Y026643*X020965Y026986D02*
X020908Y026929D01*Y026815*X020965Y026757*X021194*X021251Y026815*
Y026929*X021194Y026986*X020965*X021022Y026872D02*X021136D01*
X020965Y027329D02*X020908Y027272D01*Y027157*X020965Y0271*X021194*
X021251Y027157*Y027272*X021194Y027329*X020965*X021022Y027215D02*
X021136D01*X021251Y027443D02*X020908D01*Y027615*X020965Y027672*X021022*
X021079Y027615*Y027443*X020908Y028015D02*Y027786D01*X021079*X021251*
X021079D02*Y027957D01*X016379Y020517D02*Y02086D01*X016208Y02066*
X016436*X016551Y02086D02*X016779D01*X016608Y020517*X017122Y020803D02*
X017065Y02086D01*X016951*X016894Y020803*Y020575*X016951Y020517*X017065*
X017122Y020575*Y020803*X017008Y020746D02*Y020632D01*X036186Y028553D02*
X036129Y02861D01*X036015*X035958Y028553*Y028325*X036015Y028267*X036129*
X036186Y028325*Y02841*X036129Y028467*X036015*X035958Y02841*
X036472Y028439D02*X036529Y028496D01*Y028553*X036472Y02861*X036358*
X036301Y028553*Y028496*X036358Y028439*X036472*X036529Y028382*Y028325*
X036472Y028267*X036358*X036301Y028325*Y028382*X036358Y028439*
X036644Y02861D02*Y028382D01*Y028267*Y028382D02*X036701Y028439D01*
X036872Y028267*X036701Y028439D02*X036872Y02861D01*G54D14*
G01X041372Y012896D02*X041658D01*X041444Y012467*X042015D02*Y012896D01*
X041801Y012646*X042086*X042229Y012896D02*Y012467D01*X042515*
X042944Y012825D02*X042872Y012896D01*X042729*X042658Y012825*Y012753*
X042729Y012682*X042872*X042944Y01261*Y012539*X042872Y012467*X042729*
X042658Y012539*X043301Y012682D02*X043372Y012753D01*Y012825*
X043301Y012896*X043158*X043086Y012825*Y012753*X043158Y012682*X043301*
X043372Y01261*Y012539*X043301Y012467*X043158*X043086Y012539*Y01261*
X043158Y012682*X043801Y012825D02*X043729Y012896D01*X043586*
X043515Y012825*Y012539*X043586Y012467*X043729*X043801Y012539*Y012646*
X043729Y012717*X043586*X043515Y012646*
M02*