%FSTAX24Y24*%
%MOIN*%
%IN ucard16.gbl *%
%ADD10C,0.0100*%
%ADD11C,0.0150*%
%ADD12C,0.0200*%
%ADD13C,0.0500*%
%ADD14C,0.0600*%
%ADD15C,0.0650*%
%ADD16O,0.0600X0.3100*%
%ADD17R,0.0600X0.0600*%
%ADD18R,0.0650X0.0650*%
D12*X010982Y033105D03*D14*X011732Y022605D03*X014232Y010605D03*
X011732Y031605D03*D15*X008482Y011605D03*D12*X014932Y032555D03*D16*
X011482Y036605D03*D12*X015282Y032755D03*D16*X012482Y036605D03*D12*
X015632Y032955D03*D16*X013482Y036605D03*D12*X017032Y033755D03*D16*
X017482Y036605D03*D12*X016682Y033555D03*D16*X016482Y036605D03*D12*
X016332Y033355D03*D16*X015482Y036605D03*D12*X015982Y033155D03*D16*
X014482Y036605D03*D12*X005032Y032555D03*D16*X008482Y036605D03*D12*
X004682Y032755D03*D16*X007482Y036605D03*D12*X004332Y032955D03*D16*
X006482Y036605D03*D12*X003982Y033155D03*D16*X005482Y036605D03*D12*
X003632Y033355D03*D16*X004482Y036605D03*D12*X003282Y033555D03*D16*
X003482Y036605D03*D12*X002932Y033755D03*D16*X002482Y036605D03*
X009482D03*D14*X005732Y031605D03*Y030605D03*D17*X002732Y011605D03*D14*
X017732Y017605D03*X002232Y018605D03*Y020605D03*D18*X011482Y004605D03*
D15*X008482Y010605D03*D14*X011732Y030605D03*D15*X008482Y009605D03*D14*
X011732Y029605D03*D15*X008482Y008605D03*D14*X011732Y028605D03*D15*
X008482Y007605D03*D14*X011732Y027605D03*D15*X008482Y006605D03*D14*
X011732Y026605D03*D15*X008482Y005605D03*D14*X011732Y025605D03*D15*
X011482Y005605D03*Y006605D03*Y007605D03*Y008605D03*Y009605D03*
Y010605D03*Y011605D03*D14*X002232Y016605D03*X011732Y024605D03*D15*
X008482Y004605D03*D12*X018482Y035355D03*D13*X018232Y001361D03*
X019216D03*D17*X017232Y004605D03*D14*X014232Y016605D03*Y017605D03*
Y009605D03*X011732Y021605D03*X014232Y008605D03*X011732Y020605D03*
X014232Y007605D03*X011732Y019605D03*X014232Y006605D03*
X011732Y018605D03*X014232Y005605D03*X011732Y017605D03*
X014232Y004605D03*X011732Y016605D03*X017232Y005605D03*
X014232Y018605D03*Y019605D03*X017232Y006605D03*X014232Y020605D03*
Y021605D03*X017232Y007605D03*X014232Y022605D03*Y023605D03*
X017232Y008605D03*X014232Y024605D03*Y025605D03*X017232Y011605D03*
X014232Y030605D03*Y031605D03*D16*X010482Y036605D03*D14*
X014232Y011605D03*D12*X010982Y033605D03*D14*X011732Y023605D03*
X005732Y005605D03*Y006605D03*Y007605D03*Y008605D03*Y009605D03*
Y010605D03*Y011605D03*X002732Y008605D03*X005732Y024605D03*Y025605D03*
X002732Y005605D03*X005732Y018605D03*Y019605D03*X002732Y004605D03*
X005732Y016605D03*Y017605D03*Y004605D03*X017732Y028605D03*Y026605D03*
Y022605D03*Y018605D03*Y016605D03*Y020605D03*Y024605D03*Y030605D03*
X005732Y023605D03*Y022605D03*X002732Y007605D03*X005732Y027605D03*
Y026605D03*X002732Y009605D03*X002232Y026605D03*X019232Y003599D03*
Y006355D03*X017732Y031605D03*Y019605D03*Y023605D03*X002232Y017605D03*
D13*X001232Y001893D03*Y001105D03*D12*X001482Y035355D03*D14*
X002232Y031605D03*Y029605D03*Y027605D03*Y025605D03*Y023605D03*
Y021605D03*Y019605D03*X017732Y027605D03*X014232D03*Y026605D03*
X017232Y009605D03*X002232Y022605D03*X017732Y021605D03*
X002232Y028605D03*Y024605D03*X017732Y029605D03*X014232D03*Y028605D03*
X017232Y010605D03*X017732Y025605D03*X002232Y030605D03*
X005732Y029605D03*Y028605D03*X002732Y010605D03*X005732Y021605D03*
Y020605D03*X002732Y006605D03*D13*X0032Y001893D03*Y001105D03*X002216D03*
Y001893D03*D14*X008232Y016605D03*Y017605D03*Y018605D03*Y019605D03*
Y020605D03*Y021605D03*Y022605D03*Y023605D03*Y024605D03*Y025605D03*
Y026605D03*Y027605D03*Y028605D03*Y029605D03*Y030605D03*Y031605D03*D10*
X010982Y033105D02*G01X012482Y032105D01*Y024355D01*X012232Y024105D01*
X011482D01*X011232Y023855D01*Y022855D01*X011482Y022605D01*X011732D01*
X013232D01*X013482Y022355D01*Y010855D01*X013732Y010605D01*
X014232Y010605D01*X011732Y031605D02*X009232D01*X008982Y031355D01*
Y011855D01*X008732Y011605D01*X008482D01*X014932Y032555D02*
X011482Y034605D01*Y036605D01*X015282Y032755D02*X012482Y034605D01*
Y036605D01*X015632Y032955D02*X013482Y034605D01*Y036605D01*
X017032Y033755D02*X017482Y034605D01*Y036605D01*X016682Y033555D02*
X016482Y034605D01*Y036605D01*X016332Y033355D02*X015482Y034605D01*
Y036605D01*X015982Y033155D02*X014482Y034605D01*Y036605D01*
X005032Y032555D02*X008482Y034605D01*Y036605D01*X004682Y032755D02*
X007482Y034605D01*Y036605D01*X004332Y032955D02*X006482Y034605D01*
Y036605D01*X003982Y033155D02*X005482Y034605D01*Y036605D01*
X003632Y033355D02*X004482Y034605D01*Y036605D01*X003282Y033555D02*
X003482Y034605D01*Y036605D01*X002932Y033755D02*X002482Y034605D01*
Y036605D01*X009482D02*Y034605D01*X005732Y032355D01*Y031605D01*
Y030605D01*X003482D01*X003232Y030355D01*Y011855D01*X002982Y011605D01*
X002732D01*X008482Y010605D02*X008982D01*X009232Y010855D01*Y030355D01*
X009482Y030605D01*X011732D01*X008482Y009605D02*X009232D01*
X009482Y009855D01*Y029355D01*X009732Y029605D01*X011732D01*
X008482Y008605D02*X009482D01*X009732Y008855D01*Y028355D01*
X009982Y028605D01*X011732D01*X008482Y007605D02*X009732D01*
X009982Y007855D01*Y027355D01*X010232Y027605D01*X011732D01*
X008482Y006605D02*X009982D01*X010232Y006855D01*Y026355D01*
X010482Y026605D01*X011732D01*X008482Y005605D02*X010232D01*
X010482Y005855D01*Y025355D01*X010732Y025605D01*X011732D01*Y024605D02*
X010982D01*X010732Y024355D01*Y004855D01*X010482Y004605D01*X008482D01*
X017232Y004605D02*X015232D01*X014982Y004855D01*X014982Y016355D01*
X014732Y016605D01*X014232Y016605D01*Y017605D01*Y009605D02*
X013482Y009605D01*X013232Y009855D01*Y021355D01*X012982Y021605D01*
X011732D01*X014232Y008605D02*X013232Y008605D01*X012982Y008855D01*
Y020355D01*X012732Y020605D01*X011732D01*X014232Y007605D02*
X012982Y007605D01*X012732Y007855D01*Y019355D01*X012482Y019605D01*
X011732D01*X014232Y006605D02*X012732Y006605D01*X012482Y006855D01*
Y018355D01*X012232Y018605D01*X011732D01*X014232Y005605D02*
X012482Y005605D01*X012232Y005855D01*X01225Y017337D01*X011982Y017605D01*
X011732D01*X014232Y004605D02*X012232Y004605D01*X011982Y004855D01*
Y016355D01*X011732Y016605D01*X017232Y005605D02*X015482D01*
X015232Y005855D01*X015232Y018355D01*X014982Y018605D01*
X014232Y018605D01*Y019605D01*X017232Y006605D02*X015732D01*
X015482Y006855D01*X015482Y020355D01*X015232Y020605D01*
X014232Y020605D01*Y021605D01*X017232Y007605D02*X015982D01*
X015732Y007855D01*X015732Y022355D01*X015482Y022605D01*
X014232Y022605D01*Y023605D01*X017232Y008605D02*X016232D01*
X015982Y008855D01*X015982Y024355D01*X015732Y024605D01*
X014232Y024605D01*Y025605D01*X017232Y011605D02*X016982D01*
X016732Y011855D01*X016732Y030355D01*X016482Y030605D01*
X014232Y030605D01*Y031605D01*Y032355D01*X010482Y034605D01*Y036605D01*
X014232Y011605D02*X013982Y011605D01*X013732Y011855D01*Y023355D01*
X013482Y023605D01*X012982D01*Y032355D01*X010982Y033605D01*
X012982Y023605D02*X011732D01*X002732Y008605D02*X003732D01*
X003982Y008855D01*Y024355D01*X004232Y024605D01*X005732D01*Y025605D01*
X002732Y005605D02*X004482D01*X004732Y005855D01*Y018355D01*
X004982Y018605D01*X005732D01*Y019605D01*X002732Y004605D02*X004732D01*
X004982Y004855D01*Y016355D01*X005232Y016605D01*X005732D01*Y017605D01*
D12*X017732Y028605D02*X018482Y028605D01*Y026605D01*X017732Y026605D01*
X018482Y026605D02*Y024605D01*Y022605D01*X017732Y022605D01*
X018482Y022605D02*Y020605D01*Y018605D01*X017732Y018605D01*
X018482Y018605D02*Y016605D01*X017732Y016605D01*X018482Y020605D02*
X017732Y020605D01*X018482Y024605D02*X017732Y024605D01*
X018482Y028605D02*Y030605D01*X017732Y030605D01*D10*X005732Y023605D02*
Y022605D01*X004482D01*X004232Y022355D01*Y007855D01*X003982Y007605D01*
X002732D01*X005732Y027605D02*Y026605D01*X003982D01*X003732Y026355D01*
Y009855D01*X003482Y009605D01*X002732D01*D12*X002232Y017605D02*
X001482Y017605D01*D11*Y012355D01*X001232Y012105D01*Y001893D01*
Y001105D01*D12*X001482Y017605D02*Y019605D01*Y021605D01*Y023605D01*
Y025605D01*Y027605D01*Y029605D01*Y031605D01*Y035355D01*Y031605D02*
X002232D01*X001482Y029605D02*X002232D01*X001482Y027605D02*X002232D01*
X001482Y025605D02*X002232D01*X001482Y023605D02*X002232Y023605D01*
X001482Y021605D02*X002232Y021605D01*X001482Y019605D02*X002232D01*D10*
X014232Y027605D02*Y026605D01*X015982Y026605D01*X016232Y026355D01*
X016232Y009855D01*X016482Y009605D01*X017232D01*X014232Y029605D02*
Y028605D01*X016232Y028605D01*X016482Y028355D01*X016482Y010855D01*
X016732Y010605D01*X017232D01*X005732Y029605D02*Y028605D01*X003732D01*
X003482Y028355D01*Y010855D01*X003232Y010605D01*X002732D01*
X005732Y021605D02*Y020605D01*X004732D01*X004482Y020355D01*Y006855D01*
X004232Y006605D01*X002732D01*D11*X002216Y001105D02*Y001893D01*
Y002855D01*X002466Y003105D01*X006982D01*X007232Y003355D01*Y016355D01*
X007482Y016605D01*X008232D01*Y017605D01*Y018605D01*Y019605D01*
Y020605D01*Y021605D01*Y022605D01*Y023605D01*Y024605D01*Y025605D01*
Y026605D01*Y027605D01*Y028605D01*Y029605D01*Y030605D01*Y031605D01*D14*
X018482Y037855D02*Y035355D01*X001482Y037855D02*Y035355D01*
M02*