M48
FMAT,2
INCH,LZ
T1C0.0130
T2C0.0295
T3C0.0300
T4C0.0400
%
T1
X010982Y033105
X010982Y033605
X014932Y032555
X015282Y032755
X015632Y032955
X017032Y033755
X016682Y033555
X016332Y033355
X015982Y033155
X005032Y032555
X004682Y032755
X004332Y032955
X003982Y033155
X003632Y033355
X003282Y033555
X002932Y033755
X001482Y035355
X018482Y035355
T2
X018232Y001361
X019216Y001361
X0032Y001893
X0032Y001105
X001232Y001893
X001232Y001105
X002216Y001893
X002216Y001105
T3
X011732Y020605
X008232Y020605
X014232Y024605
X017732Y024605
X011732Y031605
X008232Y031605
X017732Y017605
X014232Y017605
X014232Y022605
X017732Y022605
X014232Y016605
X017732Y016605
X002232Y018605
X005732Y018605
X002232Y020605
X005732Y020605
X002232Y016605
X005732Y016605
X011732Y024605
X008232Y024605
X011732Y021605
X008232Y021605
X017232Y004605
X014232Y010605
X014232Y009605
X014232Y008605
X014232Y007605
X014232Y006605
X014232Y005605
X014232Y004605
X017232Y005605
X017232Y006605
X017232Y007605
X017232Y008605
X017232Y009605
X017232Y010605
X017232Y011605
X014232Y011605
X002732Y011605
X005732Y005605
X005732Y006605
X005732Y007605
X005732Y008605
X005732Y009605
X005732Y010605
X005732Y011605
X002732Y010605
X002732Y009605
X002732Y008605
X002732Y007605
X002732Y006605
X002732Y005605
X002732Y004605
X005732Y004605
X014232Y028605
X017732Y028605
X011732Y022605
X008232Y022605
X005732Y023605
X002232Y023605
X011732Y029605
X008232Y029605
X005732Y027605
X002232Y027605
X002232Y026605
X005732Y026605
X019232Y003599
X019232Y006355
X017732Y031605
X014232Y031605
X014232Y026605
X017732Y026605
X005732Y031605
X002232Y031605
X017732Y019605
X014232Y019605
X011732Y027605
X008232Y027605
X014232Y018605
X017732Y018605
X011732Y025605
X008232Y025605
X017732Y023605
X014232Y023605
X011732Y019605
X008232Y019605
X005732Y017605
X002232Y017605
X005732Y019605
X002232Y019605
X017732Y027605
X014232Y027605
X002232Y022605
X005732Y022605
X017732Y021605
X014232Y021605
X014232Y020605
X017732Y020605
X002232Y028605
X005732Y028605
X014232Y030605
X017732Y030605
X011732Y030605
X008232Y030605
X011732Y028605
X008232Y028605
X011732Y023605
X008232Y023605
X011732Y016605
X008232Y016605
X002232Y024605
X005732Y024605
X017732Y029605
X014232Y029605
X017732Y025605
X014232Y025605
X002232Y030605
X005732Y030605
X011732Y017605
X008232Y017605
X005732Y029605
X002232Y029605
X005732Y021605
X002232Y021605
X011732Y018605
X008232Y018605
X005732Y025605
X002232Y025605
X011732Y026605
X008232Y026605
T4
X011482Y004605
X008482Y010605
X008482Y009605
X008482Y008605
X008482Y007605
X008482Y006605
X008482Y005605
X008482Y004605
X011482Y005605
X011482Y006605
X011482Y007605
X011482Y008605
X011482Y009605
X011482Y010605
X011482Y011605
X008482Y011605
M30
