%FSTAX24Y24*%
%MOIN*%
%IN ucard16.gtl *%
%ADD10C,0.0100*%
%ADD11C,0.0150*%
%ADD12C,0.0200*%
%ADD13C,0.0500*%
%ADD14C,0.0600*%
%ADD15C,0.0650*%
%ADD16O,0.0600X0.3100*%
%ADD17R,0.0600X0.0600*%
%ADD18R,0.0650X0.0650*%
D14*X011732Y020605D03*D16*X013482Y036605D03*D14*X008232Y020605D03*D12*
X010982Y033105D03*D16*X011482Y036605D03*D14*X014232Y024605D03*
X017732D03*X008232Y031605D03*D12*X014932Y032555D03*D14*
X014232Y029605D03*D12*X017032Y033755D03*D14*X014232Y017605D03*D12*
X016682Y033555D03*D14*X014232Y019605D03*D12*X016332Y033355D03*D14*
X014232Y021605D03*D12*X004682Y032755D03*D14*X005732Y027605D03*D12*
X002932Y033755D03*D14*X005732Y017605D03*D16*X002482Y036605D03*D14*
X011732Y024605D03*D16*X004482Y036605D03*D14*X011732Y026605D03*D16*
X005482Y036605D03*D14*X011732Y027605D03*D16*X008482Y036605D03*D14*
X011732Y030605D03*D16*X009482Y036605D03*D14*X011732Y031605D03*D16*
X010482Y036605D03*D12*X010982Y033605D03*D16*X014482Y036605D03*D14*
X011732Y019605D03*D16*X016482Y036605D03*D14*X011732Y017605D03*
X014232Y022605D03*X017732D03*X014232Y016605D03*X017732D03*
X002232Y017605D03*X005732Y018605D03*Y020605D03*D18*X011482Y004605D03*
D14*X014232Y004605D03*D15*X008482Y010605D03*D14*X005732D03*D15*
X008482Y008605D03*D14*X005732D03*D15*X008482Y006605D03*D14*X005732D03*
D15*X008482Y004605D03*D14*X005732D03*D15*X011482Y006605D03*D14*
X014232Y006605D03*D15*X011482Y008605D03*D14*X014232Y008605D03*D15*
X011482Y010605D03*D14*X014232Y010605D03*X005732Y016605D03*
X008232Y024605D03*X011732Y021605D03*D16*X012482Y036605D03*D14*
X008232Y021605D03*D12*X001482Y035355D03*D13*X019216Y001361D03*D14*
X019232Y003599D03*D17*X017232Y004605D03*D14*X014232Y009605D03*D15*
X011482Y009605D03*D14*X014232Y007605D03*D15*X011482Y007605D03*D14*
X014232Y005605D03*D15*X011482Y005605D03*D14*X017232Y005605D03*
Y006605D03*Y007605D03*Y008605D03*Y009605D03*Y010605D03*Y011605D03*
X014232D03*D15*X011482Y011605D03*D17*X002732D03*D14*X005732Y005605D03*
D15*X008482D03*D14*X005732Y007605D03*D15*X008482D03*D14*
X005732Y009605D03*D15*X008482D03*D14*X005732Y011605D03*D15*X008482D03*
D14*X002732Y010605D03*Y009605D03*Y008605D03*Y007605D03*Y006605D03*
Y005605D03*Y004605D03*X014232Y028605D03*X017732D03*X011732Y022605D03*
X008232D03*X005732Y023605D03*D12*X003982Y033155D03*D14*
X002232Y023605D03*X011732Y029605D03*D16*X007482Y036605D03*D14*
X008232Y029605D03*X002232Y027605D03*X005732Y026605D03*
X019232Y006355D03*X017732Y031605D03*D12*X018482Y035355D03*D14*
X017732Y029605D03*Y027605D03*Y025605D03*Y023605D03*Y021605D03*
Y019605D03*Y017605D03*X002232Y016605D03*Y018605D03*Y022605D03*
Y026605D03*Y028605D03*Y030605D03*Y024605D03*Y020605D03*
X014232Y031605D03*Y026605D03*X017732D03*X005732Y031605D03*X002232D03*
X008232Y027605D03*X014232Y018605D03*X017732D03*X011732Y025605D03*D16*
X003482Y036605D03*D14*X008232Y025605D03*X014232Y023605D03*D12*
X015982Y033155D03*D14*X008232Y019605D03*X005732Y019605D03*D12*
X003282Y033555D03*D14*X002232Y019605D03*X014232Y027605D03*D12*
X015282Y032755D03*D14*X005732Y022605D03*X014232Y020605D03*X017732D03*
X005732Y028605D03*X014232Y030605D03*X017732D03*X008232Y030605D03*
X011732Y028605D03*D16*X006482Y036605D03*D14*X008232Y028605D03*
X011732Y023605D03*X008232D03*X011732Y016605D03*D16*X017482Y036605D03*
D14*X008232Y016605D03*X005732Y024605D03*X014232Y025605D03*D12*
X015632Y032955D03*D14*X005732Y030605D03*X008232Y017605D03*
X005732Y029605D03*D12*X005032Y032555D03*D14*X002232Y029605D03*
X005732Y021605D03*D12*X003632Y033355D03*D14*X002232Y021605D03*
X011732Y018605D03*D16*X015482Y036605D03*D14*X008232Y018605D03*D13*
X0032Y001893D03*Y001105D03*X018232Y001361D03*X001232Y001893D03*
Y001105D03*X002216Y001893D03*Y001105D03*D14*X005732Y025605D03*D12*
X004332Y032955D03*D14*X002232Y025605D03*X008232Y026605D03*D10*
X011732Y020605D02*G01X012232D01*X012482Y020855D01*Y033105D01*
X013482Y034605D01*Y036605D01*X010982Y033105D02*X011232D01*
X011482Y033355D01*Y036605D01*X014932Y032555D02*Y029855D01*
X014682Y029605D01*X014232D01*X017032Y033755D02*Y017855D01*
X016782Y017605D01*X014232D01*X016682Y033555D02*Y019855D01*
X016432Y019605D01*X014232D01*X016332Y033355D02*Y021855D01*
X016082Y021605D01*X014232D01*X004682Y032755D02*Y027855D01*
X004932Y027605D01*X005732D01*X002932Y033755D02*Y017855D01*
X003182Y017605D01*X005732D01*X002482Y036605D02*Y034605D01*
X006482Y032105D01*Y025355D01*X006732Y025105D01*X011232D01*
X011732Y024605D01*X004482Y036605D02*Y034605D01*X006982Y032605D01*
Y027355D01*X007232Y027105D01*X011232D01*X011732Y026605D01*
X005482Y036605D02*Y034605D01*X007232Y032855D01*Y028355D01*
X007482Y028105D01*X011232D01*X011732Y027605D01*X008482Y036605D02*
Y034605D01*X008982Y033605D01*Y031355D01*X009232Y031105D01*X011232D01*
X011732Y030605D01*X009482Y036605D02*Y031855D01*X009732Y031605D01*
X011732D01*X010482Y036605D02*Y033855D01*X010732Y033605D01*X010982D01*
X014482Y036605D02*Y034605D01*X012732Y032855D01*Y019855D01*
X012482Y019605D01*X011732D01*X016482Y036605D02*Y034605D01*
X013232Y032355D01*Y017855D01*X012982Y017605D01*X011732D01*D12*
X017732Y016605D02*Y016155D01*X017482Y015855D01*X003232D01*
X002982Y016105D01*Y017355D01*X002732Y017605D01*X002232Y017605D01*D10*
X011482Y004605D02*X014232Y004605D01*X008482Y010605D02*X005732D01*
X008482Y008605D02*X005732D01*X008482Y006605D02*X005732D01*
X008482Y004605D02*X005732D01*X011482Y006605D02*X014232Y006605D01*
X011482Y008605D02*X014232Y008605D01*X011482Y010605D02*
X014232Y010605D01*X011732Y021605D02*X011982D01*X012232Y021855D01*
Y033355D01*X012482Y034605D01*Y036605D01*D11*X019216Y001361D02*
X019232Y003599D01*D10*X014232Y009605D02*X011482Y009605D01*
X014232Y007605D02*X011482Y007605D01*X014232Y005605D02*
X011482Y005605D01*X014232Y011605D02*X011482Y011605D01*
X005732Y005605D02*X008482D01*X005732Y007605D02*X008482D01*
X005732Y009605D02*X008482D01*X005732Y011605D02*X008482D01*
X005732Y023605D02*X004232D01*X003982Y023855D01*Y033155D01*
X011732Y029605D02*X011232Y030105D01*X007982D01*X007732Y030355D01*
Y033355D01*X007482Y034605D01*Y036605D01*D12*X019232Y006355D02*
X018482Y007105D01*Y015355D01*Y017605D01*Y019605D01*Y021605D01*
Y023605D01*Y025605D01*Y027605D01*Y029605D01*Y031605D01*X017732D01*
X018482D02*Y035355D01*Y029605D02*X017732Y029605D01*X018482Y027605D02*
X017732D01*X018482Y025605D02*X017732Y025605D01*X018482Y023605D02*
X017732Y023605D01*X018482Y021605D02*X017732Y021605D01*
X018482Y019605D02*X017732Y019605D01*X018482Y017605D02*
X017732Y017605D01*X018482Y015355D02*X002482D01*X002232Y015605D01*
Y016605D01*X001732D01*X001482Y016855D01*Y018605D01*X002232Y018605D01*
X001482Y018605D02*Y020605D01*Y022605D01*X002232Y022605D01*
X001482Y022605D02*Y024605D01*Y026605D01*X002232D01*X001482D02*
Y028605D01*X002232D01*X001482D02*Y030355D01*X001732Y030605D01*
X002232D01*X001482Y024605D02*X002232D01*X001482Y020605D02*X002232D01*
D10*X011732Y025605D02*X011232Y026105D01*X006982D01*X006732Y026355D01*
Y032355D01*X003482Y034605D01*Y036605D01*X014232Y023605D02*X015732D01*
X015982Y023855D01*Y033155D01*X005732Y019605D02*X003532Y019605D01*
X003282Y019855D01*Y033555D01*X014232Y027605D02*X015032D01*
X015282Y027855D01*Y032755D01*X011732Y028605D02*X011232Y029105D01*
X007732D01*X007482Y029355D01*Y033105D01*X006482Y034605D01*Y036605D01*
X011732Y016605D02*X013232D01*X013482Y016855D01*Y032105D01*
X017482Y034605D01*Y036605D01*X014232Y025605D02*X015382D01*
X015632Y025855D01*Y032955D01*X005732Y029605D02*X005282Y029605D01*
X005032Y029855D01*Y032555D01*X005732Y021605D02*X003882D01*
X003632Y021855D01*Y033355D01*X011732Y018605D02*X012732D01*
X012982Y018855D01*Y032605D01*X015482Y034605D01*Y036605D01*D11*
X0032Y001893D02*Y001105D01*X003482Y001355D01*X018232Y001361D01*D10*
X005732Y025605D02*X005232Y025605D01*X004582D01*X004332Y025855D01*
Y032955D01*D14*X018482Y035355D02*Y037855D01*X001482Y035355D02*
Y037855D01*
M02*