%FSTAX24Y24*%
%MOIN*%
%IN ucard16.gbs *%
%ADD10C,0.0100*%
%ADD11C,0.0300*%
%ADD12C,0.0600*%
%ADD13C,0.0700*%
%ADD14C,0.0750*%
%ADD15R,0.0700X0.0700*%
%ADD16R,0.0750X0.0750*%
D10*X000682Y035055D02*G01Y038555D01*X019282D01*Y035055D01*X000682D01*
G36*G01Y038555D01*X019282D01*Y035055D01*X000682D01*G37*
%LPC*%
%LPD*%
D13*X011732Y020605D03*X008232D03*X014232Y024605D03*X017732D03*
X011732Y031605D03*X008232D03*X017732Y017605D03*X014232D03*Y022605D03*
X017732D03*X014232Y016605D03*X017732D03*X002232Y018605D03*X005732D03*
X002232Y020605D03*X005732D03*D16*X011482Y004605D03*D14*
X008482Y010605D03*Y009605D03*Y008605D03*Y007605D03*Y006605D03*
Y005605D03*Y004605D03*X011482Y005605D03*Y006605D03*Y007605D03*
Y008605D03*Y009605D03*Y010605D03*Y011605D03*X008482D03*D13*
X002232Y016605D03*X005732D03*X011732Y024605D03*X008232D03*
X011732Y021605D03*X008232D03*D12*X018232Y001361D03*X019216D03*D15*
X017232Y004605D03*D13*X014232Y010605D03*Y009605D03*Y008605D03*
Y007605D03*Y006605D03*Y005605D03*Y004605D03*X017232Y005605D03*
Y006605D03*Y007605D03*Y008605D03*Y009605D03*Y010605D03*Y011605D03*
X014232D03*D15*X002732Y011605D03*D13*X005732Y005605D03*Y006605D03*
Y007605D03*Y008605D03*Y009605D03*Y010605D03*Y011605D03*
X002732Y010605D03*Y009605D03*Y008605D03*Y007605D03*Y006605D03*
Y005605D03*Y004605D03*X005732D03*X014232Y028605D03*X017732D03*
X011732Y022605D03*X008232D03*X005732Y023605D03*X002232D03*
X011732Y029605D03*X008232D03*X005732Y027605D03*X002232D03*Y026605D03*
X005732D03*X019232Y003599D03*Y006355D03*X017732Y031605D03*X014232D03*
Y026605D03*X017732D03*X005732Y031605D03*X002232D03*X017732Y019605D03*
X014232D03*X011732Y027605D03*X008232D03*X014232Y018605D03*X017732D03*
X011732Y025605D03*X008232D03*X017732Y023605D03*X014232D03*
X011732Y019605D03*X008232D03*X005732Y017605D03*X002232D03*
X005732Y019605D03*X002232D03*X017732Y027605D03*X014232D03*
X002232Y022605D03*X005732D03*X017732Y021605D03*X014232D03*Y020605D03*
X017732D03*X002232Y028605D03*X005732D03*X014232Y030605D03*X017732D03*
X011732Y030605D03*X008232D03*X011732Y028605D03*X008232D03*
X011732Y023605D03*X008232D03*X011732Y016605D03*X008232D03*
X002232Y024605D03*X005732D03*X017732Y029605D03*X014232D03*
X017732Y025605D03*X014232D03*X002232Y030605D03*X005732D03*
X011732Y017605D03*X008232D03*X005732Y029605D03*X002232D03*
X005732Y021605D03*X002232D03*X011732Y018605D03*X008232D03*D12*
X0032Y001893D03*Y001105D03*X001232Y001893D03*Y001105D03*
X002216Y001893D03*Y001105D03*D13*X005732Y025605D03*X002232D03*
X011732Y026605D03*X008232D03*
M02*