%FSTAX24Y24*%
%MOIN*%
%IN card20pad.gts *%
%ADD10C,0.0100*%
%ADD11C,0.0300*%
%ADD12C,0.0800*%
%ADD13R,0.0800X0.0800*%
D10*X014366Y012141D02*G01X009566D01*Y001841D01*X014366D01*Y012141D01*
G36*G01X009566D01*Y001841D01*X014366D01*Y012141D01*G37*X0232Y0174D02*
G01X023216Y020916D01*X000716D01*Y017291D01*X023216D01*G36*
X0232Y0174D02*G01X023216Y020916D01*X000716D01*Y017291D01*X023216D01*
G37*X002466Y015416D02*G01X002543Y015426D01*X002616Y015456D01*
X002678Y015504D01*X002725Y015566D01*X002755Y015639D01*
X002766Y015716D01*Y015916D01*X002755Y015994D01*X002725Y016066D01*
X002678Y016128D01*X002616Y016176D01*X002543Y016206D01*
X002466Y016216D01*X002388Y016206D01*X002316Y016176D01*
X002253Y016128D01*X002206Y016066D01*X002176Y015994D01*
X002166Y015916D01*Y015716D01*X002176Y015639D01*X002206Y015566D01*
X002253Y015504D01*X002316Y015456D01*X002388Y015426D01*
X002466Y015416D01*G36*G01X002543Y015426D01*X002616Y015456D01*
X002678Y015504D01*X002725Y015566D01*X002755Y015639D01*
X002766Y015716D01*Y015916D01*X002755Y015994D01*X002725Y016066D01*
X002678Y016128D01*X002616Y016176D01*X002543Y016206D01*
X002466Y016216D01*X002388Y016206D01*X002316Y016176D01*
X002253Y016128D01*X002206Y016066D01*X002176Y015994D01*
X002166Y015916D01*Y015716D01*X002176Y015639D01*X002206Y015566D01*
X002253Y015504D01*X002316Y015456D01*X002388Y015426D01*
X002466Y015416D01*G37*X003466Y014616D02*G01X003543Y014626D01*
X003616Y014656D01*X003678Y014704D01*X003725Y014766D01*
X003755Y014839D01*X003766Y014916D01*Y015116D01*X003755Y015194D01*
X003725Y015266D01*X003678Y015328D01*X003616Y015376D01*
X003543Y015406D01*X003466Y015416D01*X003388Y015406D01*
X003316Y015376D01*X003253Y015328D01*X003206Y015266D01*
X003176Y015194D01*X003166Y015116D01*Y014916D01*X003176Y014839D01*
X003206Y014766D01*X003253Y014704D01*X003316Y014656D01*
X003388Y014626D01*X003466Y014616D01*G36*G01X003543Y014626D01*
X003616Y014656D01*X003678Y014704D01*X003725Y014766D01*
X003755Y014839D01*X003766Y014916D01*Y015116D01*X003755Y015194D01*
X003725Y015266D01*X003678Y015328D01*X003616Y015376D01*
X003543Y015406D01*X003466Y015416D01*X003388Y015406D01*
X003316Y015376D01*X003253Y015328D01*X003206Y015266D01*
X003176Y015194D01*X003166Y015116D01*Y014916D01*X003176Y014839D01*
X003206Y014766D01*X003253Y014704D01*X003316Y014656D01*
X003388Y014626D01*X003466Y014616D01*G37*X004466Y015416D02*
G01X004543Y015426D01*X004616Y015456D01*X004678Y015504D01*
X004725Y015566D01*X004755Y015639D01*X004766Y015716D01*Y015916D01*
X004755Y015994D01*X004725Y016066D01*X004678Y016128D01*
X004616Y016176D01*X004543Y016206D01*X004466Y016216D01*
X004388Y016206D01*X004316Y016176D01*X004253Y016128D01*
X004206Y016066D01*X004176Y015994D01*X004166Y015916D01*Y015716D01*
X004176Y015639D01*X004206Y015566D01*X004253Y015504D01*
X004316Y015456D01*X004388Y015426D01*X004466Y015416D01*G36*
G01X004543Y015426D01*X004616Y015456D01*X004678Y015504D01*
X004725Y015566D01*X004755Y015639D01*X004766Y015716D01*Y015916D01*
X004755Y015994D01*X004725Y016066D01*X004678Y016128D01*
X004616Y016176D01*X004543Y016206D01*X004466Y016216D01*
X004388Y016206D01*X004316Y016176D01*X004253Y016128D01*
X004206Y016066D01*X004176Y015994D01*X004166Y015916D01*Y015716D01*
X004176Y015639D01*X004206Y015566D01*X004253Y015504D01*
X004316Y015456D01*X004388Y015426D01*X004466Y015416D01*G37*
X005466Y014616D02*G01X005543Y014626D01*X005616Y014656D01*
X005678Y014704D01*X005725Y014766D01*X005755Y014839D01*
X005766Y014916D01*Y015116D01*X005755Y015194D01*X005725Y015266D01*
X005678Y015328D01*X005616Y015376D01*X005543Y015406D01*
X005466Y015416D01*X005388Y015406D01*X005316Y015376D01*
X005253Y015328D01*X005206Y015266D01*X005176Y015194D01*
X005166Y015116D01*Y014916D01*X005176Y014839D01*X005206Y014766D01*
X005253Y014704D01*X005316Y014656D01*X005388Y014626D01*
X005466Y014616D01*G36*G01X005543Y014626D01*X005616Y014656D01*
X005678Y014704D01*X005725Y014766D01*X005755Y014839D01*
X005766Y014916D01*Y015116D01*X005755Y015194D01*X005725Y015266D01*
X005678Y015328D01*X005616Y015376D01*X005543Y015406D01*
X005466Y015416D01*X005388Y015406D01*X005316Y015376D01*
X005253Y015328D01*X005206Y015266D01*X005176Y015194D01*
X005166Y015116D01*Y014916D01*X005176Y014839D01*X005206Y014766D01*
X005253Y014704D01*X005316Y014656D01*X005388Y014626D01*
X005466Y014616D01*G37*X006466Y015416D02*G01X006543Y015426D01*
X006616Y015456D01*X006678Y015504D01*X006725Y015566D01*
X006755Y015639D01*X006766Y015716D01*Y015916D01*X006755Y015994D01*
X006725Y016066D01*X006678Y016128D01*X006616Y016176D01*
X006543Y016206D01*X006466Y016216D01*X006388Y016206D01*
X006316Y016176D01*X006253Y016128D01*X006206Y016066D01*
X006176Y015994D01*X006166Y015916D01*Y015716D01*X006176Y015639D01*
X006206Y015566D01*X006253Y015504D01*X006316Y015456D01*
X006388Y015426D01*X006466Y015416D01*G36*G01X006543Y015426D01*
X006616Y015456D01*X006678Y015504D01*X006725Y015566D01*
X006755Y015639D01*X006766Y015716D01*Y015916D01*X006755Y015994D01*
X006725Y016066D01*X006678Y016128D01*X006616Y016176D01*
X006543Y016206D01*X006466Y016216D01*X006388Y016206D01*
X006316Y016176D01*X006253Y016128D01*X006206Y016066D01*
X006176Y015994D01*X006166Y015916D01*Y015716D01*X006176Y015639D01*
X006206Y015566D01*X006253Y015504D01*X006316Y015456D01*
X006388Y015426D01*X006466Y015416D01*G37*X008466D02*
G01X008543Y015426D01*X008616Y015456D01*X008678Y015504D01*
X008725Y015566D01*X008755Y015639D01*X008766Y015716D01*Y015916D01*
X008755Y015994D01*X008725Y016066D01*X008678Y016128D01*
X008616Y016176D01*X008543Y016206D01*X008466Y016216D01*
X008388Y016206D01*X008316Y016176D01*X008253Y016128D01*
X008206Y016066D01*X008176Y015994D01*X008166Y015916D01*Y015716D01*
X008176Y015639D01*X008206Y015566D01*X008253Y015504D01*
X008316Y015456D01*X008388Y015426D01*X008466Y015416D01*G36*
G01X008543Y015426D01*X008616Y015456D01*X008678Y015504D01*
X008725Y015566D01*X008755Y015639D01*X008766Y015716D01*Y015916D01*
X008755Y015994D01*X008725Y016066D01*X008678Y016128D01*
X008616Y016176D01*X008543Y016206D01*X008466Y016216D01*
X008388Y016206D01*X008316Y016176D01*X008253Y016128D01*
X008206Y016066D01*X008176Y015994D01*X008166Y015916D01*Y015716D01*
X008176Y015639D01*X008206Y015566D01*X008253Y015504D01*
X008316Y015456D01*X008388Y015426D01*X008466Y015416D01*G37*X010466D02*
G01X010543Y015426D01*X010616Y015456D01*X010678Y015504D01*
X010725Y015566D01*X010755Y015639D01*X010766Y015716D01*Y015916D01*
X010755Y015994D01*X010725Y016066D01*X010678Y016128D01*
X010616Y016176D01*X010543Y016206D01*X010466Y016216D01*
X010388Y016206D01*X010316Y016176D01*X010253Y016128D01*
X010206Y016066D01*X010176Y015994D01*X010166Y015916D01*Y015716D01*
X010176Y015639D01*X010206Y015566D01*X010253Y015504D01*
X010316Y015456D01*X010388Y015426D01*X010466Y015416D01*G36*
G01X010543Y015426D01*X010616Y015456D01*X010678Y015504D01*
X010725Y015566D01*X010755Y015639D01*X010766Y015716D01*Y015916D01*
X010755Y015994D01*X010725Y016066D01*X010678Y016128D01*
X010616Y016176D01*X010543Y016206D01*X010466Y016216D01*
X010388Y016206D01*X010316Y016176D01*X010253Y016128D01*
X010206Y016066D01*X010176Y015994D01*X010166Y015916D01*Y015716D01*
X010176Y015639D01*X010206Y015566D01*X010253Y015504D01*
X010316Y015456D01*X010388Y015426D01*X010466Y015416D01*G37*X012466D02*
G01X012543Y015426D01*X012616Y015456D01*X012678Y015504D01*
X012725Y015566D01*X012755Y015639D01*X012766Y015716D01*Y015916D01*
X012755Y015994D01*X012725Y016066D01*X012678Y016128D01*
X012616Y016176D01*X012543Y016206D01*X012466Y016216D01*
X012388Y016206D01*X012316Y016176D01*X012253Y016128D01*
X012206Y016066D01*X012176Y015994D01*X012166Y015916D01*Y015716D01*
X012176Y015639D01*X012206Y015566D01*X012253Y015504D01*
X012316Y015456D01*X012388Y015426D01*X012466Y015416D01*G36*
G01X012543Y015426D01*X012616Y015456D01*X012678Y015504D01*
X012725Y015566D01*X012755Y015639D01*X012766Y015716D01*Y015916D01*
X012755Y015994D01*X012725Y016066D01*X012678Y016128D01*
X012616Y016176D01*X012543Y016206D01*X012466Y016216D01*
X012388Y016206D01*X012316Y016176D01*X012253Y016128D01*
X012206Y016066D01*X012176Y015994D01*X012166Y015916D01*Y015716D01*
X012176Y015639D01*X012206Y015566D01*X012253Y015504D01*
X012316Y015456D01*X012388Y015426D01*X012466Y015416D01*G37*X019466D02*
G01X019543Y015426D01*X019616Y015456D01*X019678Y015504D01*
X019725Y015566D01*X019755Y015639D01*X019766Y015716D01*Y015916D01*
X019755Y015994D01*X019725Y016066D01*X019678Y016128D01*
X019616Y016176D01*X019543Y016206D01*X019466Y016216D01*
X019388Y016206D01*X019316Y016176D01*X019253Y016128D01*
X019206Y016066D01*X019176Y015994D01*X019166Y015916D01*Y015716D01*
X019176Y015639D01*X019206Y015566D01*X019253Y015504D01*
X019316Y015456D01*X019388Y015426D01*X019466Y015416D01*G36*
G01X019543Y015426D01*X019616Y015456D01*X019678Y015504D01*
X019725Y015566D01*X019755Y015639D01*X019766Y015716D01*Y015916D01*
X019755Y015994D01*X019725Y016066D01*X019678Y016128D01*
X019616Y016176D01*X019543Y016206D01*X019466Y016216D01*
X019388Y016206D01*X019316Y016176D01*X019253Y016128D01*
X019206Y016066D01*X019176Y015994D01*X019166Y015916D01*Y015716D01*
X019176Y015639D01*X019206Y015566D01*X019253Y015504D01*
X019316Y015456D01*X019388Y015426D01*X019466Y015416D01*G37*X021466D02*
G01X021543Y015426D01*X021616Y015456D01*X021678Y015504D01*
X021725Y015566D01*X021755Y015639D01*X021766Y015716D01*Y015916D01*
X021755Y015994D01*X021725Y016066D01*X021678Y016128D01*
X021616Y016176D01*X021543Y016206D01*X021466Y016216D01*
X021388Y016206D01*X021316Y016176D01*X021253Y016128D01*
X021206Y016066D01*X021176Y015994D01*X021166Y015916D01*Y015716D01*
X021176Y015639D01*X021206Y015566D01*X021253Y015504D01*
X021316Y015456D01*X021388Y015426D01*X021466Y015416D01*G36*
G01X021543Y015426D01*X021616Y015456D01*X021678Y015504D01*
X021725Y015566D01*X021755Y015639D01*X021766Y015716D01*Y015916D01*
X021755Y015994D01*X021725Y016066D01*X021678Y016128D01*
X021616Y016176D01*X021543Y016206D01*X021466Y016216D01*
X021388Y016206D01*X021316Y016176D01*X021253Y016128D01*
X021206Y016066D01*X021176Y015994D01*X021166Y015916D01*Y015716D01*
X021176Y015639D01*X021206Y015566D01*X021253Y015504D01*
X021316Y015456D01*X021388Y015426D01*X021466Y015416D01*G37*
X007466Y014616D02*G01X007543Y014626D01*X007616Y014656D01*
X007678Y014704D01*X007725Y014766D01*X007755Y014839D01*
X007766Y014916D01*Y015116D01*X007755Y015194D01*X007725Y015266D01*
X007678Y015328D01*X007616Y015376D01*X007543Y015406D01*
X007466Y015416D01*X007388Y015406D01*X007316Y015376D01*
X007253Y015328D01*X007206Y015266D01*X007176Y015194D01*
X007166Y015116D01*Y014916D01*X007176Y014839D01*X007206Y014766D01*
X007253Y014704D01*X007316Y014656D01*X007388Y014626D01*
X007466Y014616D01*G36*G01X007543Y014626D01*X007616Y014656D01*
X007678Y014704D01*X007725Y014766D01*X007755Y014839D01*
X007766Y014916D01*Y015116D01*X007755Y015194D01*X007725Y015266D01*
X007678Y015328D01*X007616Y015376D01*X007543Y015406D01*
X007466Y015416D01*X007388Y015406D01*X007316Y015376D01*
X007253Y015328D01*X007206Y015266D01*X007176Y015194D01*
X007166Y015116D01*Y014916D01*X007176Y014839D01*X007206Y014766D01*
X007253Y014704D01*X007316Y014656D01*X007388Y014626D01*
X007466Y014616D01*G37*X009466D02*G01X009543Y014626D01*
X009616Y014656D01*X009678Y014704D01*X009725Y014766D01*
X009755Y014839D01*X009766Y014916D01*Y015116D01*X009755Y015194D01*
X009725Y015266D01*X009678Y015328D01*X009616Y015376D01*
X009543Y015406D01*X009466Y015416D01*X009388Y015406D01*
X009316Y015376D01*X009253Y015328D01*X009206Y015266D01*
X009176Y015194D01*X009166Y015116D01*Y014916D01*X009176Y014839D01*
X009206Y014766D01*X009253Y014704D01*X009316Y014656D01*
X009388Y014626D01*X009466Y014616D01*G36*G01X009543Y014626D01*
X009616Y014656D01*X009678Y014704D01*X009725Y014766D01*
X009755Y014839D01*X009766Y014916D01*Y015116D01*X009755Y015194D01*
X009725Y015266D01*X009678Y015328D01*X009616Y015376D01*
X009543Y015406D01*X009466Y015416D01*X009388Y015406D01*
X009316Y015376D01*X009253Y015328D01*X009206Y015266D01*
X009176Y015194D01*X009166Y015116D01*Y014916D01*X009176Y014839D01*
X009206Y014766D01*X009253Y014704D01*X009316Y014656D01*
X009388Y014626D01*X009466Y014616D01*G37*X011466D02*
G01X011543Y014626D01*X011616Y014656D01*X011678Y014704D01*
X011725Y014766D01*X011755Y014839D01*X011766Y014916D01*Y015116D01*
X011755Y015194D01*X011725Y015266D01*X011678Y015328D01*
X011616Y015376D01*X011543Y015406D01*X011466Y015416D01*
X011388Y015406D01*X011316Y015376D01*X011253Y015328D01*
X011206Y015266D01*X011176Y015194D01*X011166Y015116D01*Y014916D01*
X011176Y014839D01*X011206Y014766D01*X011253Y014704D01*
X011316Y014656D01*X011388Y014626D01*X011466Y014616D01*G36*
G01X011543Y014626D01*X011616Y014656D01*X011678Y014704D01*
X011725Y014766D01*X011755Y014839D01*X011766Y014916D01*Y015116D01*
X011755Y015194D01*X011725Y015266D01*X011678Y015328D01*
X011616Y015376D01*X011543Y015406D01*X011466Y015416D01*
X011388Y015406D01*X011316Y015376D01*X011253Y015328D01*
X011206Y015266D01*X011176Y015194D01*X011166Y015116D01*Y014916D01*
X011176Y014839D01*X011206Y014766D01*X011253Y014704D01*
X011316Y014656D01*X011388Y014626D01*X011466Y014616D01*G37*X013466D02*
G01X013543Y014626D01*X013616Y014656D01*X013678Y014704D01*
X013725Y014766D01*X013755Y014839D01*X013766Y014916D01*Y015116D01*
X013755Y015194D01*X013725Y015266D01*X013678Y015328D01*
X013616Y015376D01*X013543Y015406D01*X013466Y015416D01*
X013388Y015406D01*X013316Y015376D01*X013253Y015328D01*
X013206Y015266D01*X013176Y015194D01*X013166Y015116D01*Y014916D01*
X013176Y014839D01*X013206Y014766D01*X013253Y014704D01*
X013316Y014656D01*X013388Y014626D01*X013466Y014616D01*G36*
G01X013543Y014626D01*X013616Y014656D01*X013678Y014704D01*
X013725Y014766D01*X013755Y014839D01*X013766Y014916D01*Y015116D01*
X013755Y015194D01*X013725Y015266D01*X013678Y015328D01*
X013616Y015376D01*X013543Y015406D01*X013466Y015416D01*
X013388Y015406D01*X013316Y015376D01*X013253Y015328D01*
X013206Y015266D01*X013176Y015194D01*X013166Y015116D01*Y014916D01*
X013176Y014839D01*X013206Y014766D01*X013253Y014704D01*
X013316Y014656D01*X013388Y014626D01*X013466Y014616D01*G37*X015466D02*
G01X015543Y014626D01*X015616Y014656D01*X015678Y014704D01*
X015725Y014766D01*X015755Y014839D01*X015766Y014916D01*Y015116D01*
X015755Y015194D01*X015725Y015266D01*X015678Y015328D01*
X015616Y015376D01*X015543Y015406D01*X015466Y015416D01*
X015388Y015406D01*X015316Y015376D01*X015253Y015328D01*
X015206Y015266D01*X015176Y015194D01*X015166Y015116D01*Y014916D01*
X015176Y014839D01*X015206Y014766D01*X015253Y014704D01*
X015316Y014656D01*X015388Y014626D01*X015466Y014616D01*G36*
G01X015543Y014626D01*X015616Y014656D01*X015678Y014704D01*
X015725Y014766D01*X015755Y014839D01*X015766Y014916D01*Y015116D01*
X015755Y015194D01*X015725Y015266D01*X015678Y015328D01*
X015616Y015376D01*X015543Y015406D01*X015466Y015416D01*
X015388Y015406D01*X015316Y015376D01*X015253Y015328D01*
X015206Y015266D01*X015176Y015194D01*X015166Y015116D01*Y014916D01*
X015176Y014839D01*X015206Y014766D01*X015253Y014704D01*
X015316Y014656D01*X015388Y014626D01*X015466Y014616D01*G37*X022466D02*
G01X022543Y014626D01*X022616Y014656D01*X022678Y014704D01*
X022725Y014766D01*X022755Y014839D01*X022766Y014916D01*Y015116D01*
X022755Y015194D01*X022725Y015266D01*X022678Y015328D01*
X022616Y015376D01*X022543Y015406D01*X022466Y015416D01*
X022388Y015406D01*X022316Y015376D01*X022253Y015328D01*
X022206Y015266D01*X022176Y015194D01*X022166Y015116D01*Y014916D01*
X022176Y014839D01*X022206Y014766D01*X022253Y014704D01*
X022316Y014656D01*X022388Y014626D01*X022466Y014616D01*G36*
G01X022543Y014626D01*X022616Y014656D01*X022678Y014704D01*
X022725Y014766D01*X022755Y014839D01*X022766Y014916D01*Y015116D01*
X022755Y015194D01*X022725Y015266D01*X022678Y015328D01*
X022616Y015376D01*X022543Y015406D01*X022466Y015416D01*
X022388Y015406D01*X022316Y015376D01*X022253Y015328D01*
X022206Y015266D01*X022176Y015194D01*X022166Y015116D01*Y014916D01*
X022176Y014839D01*X022206Y014766D01*X022253Y014704D01*
X022316Y014656D01*X022388Y014626D01*X022466Y014616D01*G37*
X014466Y015416D02*G01X014543Y015426D01*X014616Y015456D01*
X014678Y015504D01*X014725Y015566D01*X014755Y015639D01*
X014766Y015716D01*Y015916D01*X014755Y015994D01*X014725Y016066D01*
X014678Y016128D01*X014616Y016176D01*X014543Y016206D01*
X014466Y016216D01*X014388Y016206D01*X014316Y016176D01*
X014253Y016128D01*X014206Y016066D01*X014176Y015994D01*
X014166Y015916D01*Y015716D01*X014176Y015639D01*X014206Y015566D01*
X014253Y015504D01*X014316Y015456D01*X014388Y015426D01*
X014466Y015416D01*G36*G01X014543Y015426D01*X014616Y015456D01*
X014678Y015504D01*X014725Y015566D01*X014755Y015639D01*
X014766Y015716D01*Y015916D01*X014755Y015994D01*X014725Y016066D01*
X014678Y016128D01*X014616Y016176D01*X014543Y016206D01*
X014466Y016216D01*X014388Y016206D01*X014316Y016176D01*
X014253Y016128D01*X014206Y016066D01*X014176Y015994D01*
X014166Y015916D01*Y015716D01*X014176Y015639D01*X014206Y015566D01*
X014253Y015504D01*X014316Y015456D01*X014388Y015426D01*
X014466Y015416D01*G37*X016466D02*G01X016543Y015426D01*
X016616Y015456D01*X016678Y015504D01*X016725Y015566D01*
X016755Y015639D01*X016766Y015716D01*Y015916D01*X016755Y015994D01*
X016725Y016066D01*X016678Y016128D01*X016616Y016176D01*
X016543Y016206D01*X016466Y016216D01*X016388Y016206D01*
X016316Y016176D01*X016253Y016128D01*X016206Y016066D01*
X016176Y015994D01*X016166Y015916D01*Y015716D01*X016176Y015639D01*
X016206Y015566D01*X016253Y015504D01*X016316Y015456D01*
X016388Y015426D01*X016466Y015416D01*G36*G01X016543Y015426D01*
X016616Y015456D01*X016678Y015504D01*X016725Y015566D01*
X016755Y015639D01*X016766Y015716D01*Y015916D01*X016755Y015994D01*
X016725Y016066D01*X016678Y016128D01*X016616Y016176D01*
X016543Y016206D01*X016466Y016216D01*X016388Y016206D01*
X016316Y016176D01*X016253Y016128D01*X016206Y016066D01*
X016176Y015994D01*X016166Y015916D01*Y015716D01*X016176Y015639D01*
X016206Y015566D01*X016253Y015504D01*X016316Y015456D01*
X016388Y015426D01*X016466Y015416D01*G37*X020466Y014616D02*
G01X020543Y014626D01*X020616Y014656D01*X020678Y014704D01*
X020725Y014766D01*X020755Y014839D01*X020766Y014916D01*Y015116D01*
X020755Y015194D01*X020725Y015266D01*X020678Y015328D01*
X020616Y015376D01*X020543Y015406D01*X020466Y015416D01*
X020388Y015406D01*X020316Y015376D01*X020253Y015328D01*
X020206Y015266D01*X020176Y015194D01*X020166Y015116D01*Y014916D01*
X020176Y014839D01*X020206Y014766D01*X020253Y014704D01*
X020316Y014656D01*X020388Y014626D01*X020466Y014616D01*G36*
G01X020543Y014626D01*X020616Y014656D01*X020678Y014704D01*
X020725Y014766D01*X020755Y014839D01*X020766Y014916D01*Y015116D01*
X020755Y015194D01*X020725Y015266D01*X020678Y015328D01*
X020616Y015376D01*X020543Y015406D01*X020466Y015416D01*
X020388Y015406D01*X020316Y015376D01*X020253Y015328D01*
X020206Y015266D01*X020176Y015194D01*X020166Y015116D01*Y014916D01*
X020176Y014839D01*X020206Y014766D01*X020253Y014704D01*
X020316Y014656D01*X020388Y014626D01*X020466Y014616D01*G37*X017466D02*
G01X017543Y014626D01*X017616Y014656D01*X017678Y014704D01*
X017725Y014766D01*X017755Y014839D01*X017766Y014916D01*Y015116D01*
X017755Y015194D01*X017725Y015266D01*X017678Y015328D01*
X017616Y015376D01*X017543Y015406D01*X017466Y015416D01*
X017388Y015406D01*X017316Y015376D01*X017253Y015328D01*
X017206Y015266D01*X017176Y015194D01*X017166Y015116D01*Y014916D01*
X017176Y014839D01*X017206Y014766D01*X017253Y014704D01*
X017316Y014656D01*X017388Y014626D01*X017466Y014616D01*G36*
G01X017543Y014626D01*X017616Y014656D01*X017678Y014704D01*
X017725Y014766D01*X017755Y014839D01*X017766Y014916D01*Y015116D01*
X017755Y015194D01*X017725Y015266D01*X017678Y015328D01*
X017616Y015376D01*X017543Y015406D01*X017466Y015416D01*
X017388Y015406D01*X017316Y015376D01*X017253Y015328D01*
X017206Y015266D01*X017176Y015194D01*X017166Y015116D01*Y014916D01*
X017176Y014839D01*X017206Y014766D01*X017253Y014704D01*
X017316Y014656D01*X017388Y014626D01*X017466Y014616D01*G37*
%LPC*%
%LPD*%
D13*X010466Y002491D03*D12*X013466Y008491D03*Y010491D03*Y007491D03*
Y006491D03*Y005491D03*Y004491D03*Y003491D03*Y002491D03*
X010466Y010491D03*Y003491D03*Y004491D03*Y005491D03*Y011491D03*
X013466D03*X010466Y006491D03*Y007491D03*Y008491D03*Y009491D03*
X013466D03*
M02*