M48
FMAT,2
INCH,LZ
T1C0.0200
T2C0.0300
%
T1
X004466Y013541
X014841Y008866
X015841Y008241
X015466Y013541
X015341Y008559
X020466Y013541
X018341Y012491
X002466Y013541
X017341Y007309
X017841Y012491
X017841Y006991
X016341Y012241
X016841Y012366
X017341Y012491
X015841Y012116
X015341Y011991
X021466Y013541
X007466Y013541
X019466Y012366
X018341Y009991
X019466Y010991
X014841Y011866
X006466Y013541
X016841Y007616
X011466Y013541
X010466Y013541
X008466Y013541
X016341Y007934
X003466Y013541
X013466Y013541
X005466Y013541
X012466Y013541
X019466Y013541
X016466Y013541
X018466Y013541
X014466Y013541
X001466Y013541
X022466Y013541
X009466Y013541
X017466Y013541
T2
X010466Y002491
X013466Y008491
X013466Y010491
X013466Y007491
X013466Y006491
X013466Y005491
X013466Y004491
X013466Y003491
X013466Y002491
X010466Y010491
X010466Y003491
X010466Y004491
X010466Y005491
X010466Y011491
X013466Y011491
X010466Y006491
X010466Y007491
X010466Y008491
X010466Y009491
X013466Y009491
M30
