%FSTAX24Y24*%
%MOIN*%
%IN card20pad.gtl *%
%ADD10C,0.0100*%
%ADD11C,0.0150*%
%ADD12C,0.0200*%
%ADD13C,0.0300*%
%ADD14C,0.0600*%
%ADD15R,0.0600X0.0600*%
D15*X010466Y002491D03*D14*X013466Y008491D03*Y010491D03*Y007491D03*
Y006491D03*Y005491D03*Y004491D03*Y003491D03*Y002491D03*
X010466Y010491D03*Y003491D03*Y004491D03*Y005491D03*Y011491D03*
X013466D03*X010466Y006491D03*Y007491D03*Y008491D03*Y009491D03*
X013466D03*D13*X004466Y013541D03*X015466D03*X020466D03*
X018341Y012491D03*Y009991D03*X002466Y013541D03*X017841Y012491D03*
Y006991D03*X016341Y012241D03*Y007934D03*X016841Y012366D03*Y007616D03*
X017341Y012491D03*Y007309D03*X015841Y012116D03*Y008241D03*
X015341Y011991D03*Y008559D03*X021466Y013541D03*X007466D03*
X019466Y012366D03*Y010991D03*X014841Y011866D03*Y008866D03*
X006466Y013541D03*X011466D03*X010466D03*X008466D03*X003466D03*
X013466D03*X005466D03*X012466D03*X019466D03*X016466D03*X018466D03*
X014466D03*X001466D03*X022466D03*X009466D03*X017466D03*D11*
X018341Y012491D02*G01Y009991D01*X017841Y012491D02*Y006991D01*
X016341Y012241D02*Y007934D01*X016841Y012366D02*Y007616D01*
X017341Y012491D02*Y007309D01*X015841Y012116D02*Y008241D01*
X015341Y011991D02*Y008559D01*X019466Y012366D02*Y010991D01*
X014841Y011866D02*Y008866D01*D14*X017466Y020241D02*Y017741D01*
X010466Y020241D02*Y017741D01*X016466Y020241D02*Y017741D01*
X015466Y020241D02*Y017741D01*X006466Y020241D02*Y017741D01*
X005466Y020241D02*Y017741D01*X001466Y020241D02*Y017741D01*
X002466Y020241D02*Y017741D01*X011466Y020241D02*Y017741D01*
X012466Y020241D02*Y017741D01*X009466Y020241D02*Y017741D01*
X018466Y020241D02*Y017741D01*X008466Y020241D02*Y017741D01*
X007466Y020241D02*Y017741D01*X014466Y020241D02*Y017741D01*
X013466Y020241D02*Y017741D01*X003466Y020241D02*Y017741D01*
X004466Y020241D02*Y017741D01*D13*X014091Y011741D02*X014101Y001616D01*
D12*Y001549D01*X009851D01*Y001616D01*D13*X009841Y012866D01*D12*
X009716Y012991D01*X001591D01*X001466Y013116D01*Y017616D01*
X011966Y011866D02*Y012866D01*X012091Y012991D01*X018341D01*
X018466Y013116D01*Y017616D01*X011091Y002241D02*X012841D01*D13*
Y011741D01*D12*Y011866D01*X011091D01*Y011741D01*D13*Y002241D01*D14*
X022466Y020241D02*Y017741D01*X021466Y020241D02*Y017741D01*
X020466Y020241D02*Y017741D01*X019466Y020241D02*Y017741D01*D11*
X002466Y015966D02*Y017616D01*X003466D02*Y015166D01*X004466Y015966D02*
Y017616D01*X005466Y015166D02*Y017616D01*X006466Y015966D02*Y017616D01*
X007466Y015166D02*Y017616D01*X008466Y015966D02*Y017616D01*
X009466Y015166D02*Y017616D01*X010466Y015966D02*Y017616D01*
X011466Y015166D02*Y017616D01*X012466Y015966D02*Y017616D01*
X013466Y015166D02*Y017616D01*X019466Y015966D02*Y017616D01*
X020466Y015166D02*Y017616D01*X021466Y015966D02*Y017616D01*
X022466Y015166D02*Y017616D01*X002466Y013541D02*Y015591D01*
X003466Y014791D02*Y013541D01*X004466D02*Y015591D01*X005466Y013541D02*
Y014791D01*X006466Y013541D02*Y015591D01*X007466Y013541D02*Y014791D01*
X008466Y013541D02*Y015591D01*X009466Y013541D02*Y014791D01*
X010466Y013541D02*Y015591D01*X011466Y013541D02*Y014791D01*
X012466Y013541D02*Y015591D01*X013466Y013541D02*Y014791D01*
X019466Y013541D02*Y015591D01*X020466Y013541D02*Y014791D01*
X021466Y013541D02*Y015591D01*X022466Y013541D02*Y014791D01*D10*
X022216Y015116D02*X022228Y015193D01*X022263Y015263D01*
X022319Y015318D01*X022388Y015354D01*X022466Y015366D01*
X022543Y015354D01*X022613Y015318D01*X022668Y015263D01*
X022703Y015193D01*X022716Y015116D01*X022216D01*X022416Y015266D02*
X022316D01*X022616D01*X022266Y015216D02*X022666D01*X022716Y014916D02*
X022703Y014839D01*X022668Y014769D01*X022613Y014714D01*
X022543Y014678D01*X022466Y014666D01*X022388Y014678D01*
X022319Y014714D01*X022263Y014769D01*X022228Y014839D01*
X022216Y014916D01*X022716D01*X022516Y014766D02*X022616D01*X022316D01*
X022666Y014816D02*X022266D01*X020216Y015116D02*X020228Y015193D01*
X020263Y015263D01*X020319Y015318D01*X020388Y015354D01*
X020466Y015366D01*X020543Y015354D01*X020613Y015318D01*
X020668Y015263D01*X020703Y015193D01*X020716Y015116D01*X020216D01*
X020416Y015266D02*X020316D01*X020616D01*X020266Y015216D02*X020666D01*
X020716Y014916D02*X020703Y014839D01*X020668Y014769D01*
X020613Y014714D01*X020543Y014678D01*X020466Y014666D01*
X020388Y014678D01*X020319Y014714D01*X020263Y014769D01*
X020228Y014839D01*X020216Y014916D01*X020716D01*X020516Y014766D02*
X020616D01*X020316D01*X020666Y014816D02*X020266D01*X013216Y015116D02*
X013228Y015193D01*X013263Y015263D01*X013319Y015318D01*
X013388Y015354D01*X013466Y015366D01*X013543Y015354D01*
X013613Y015318D01*X013668Y015263D01*X013703Y015193D01*
X013716Y015116D01*X013216D01*X013416Y015266D02*X013316D01*X013616D01*
X013266Y015216D02*X013666D01*X013716Y014916D02*X013703Y014839D01*
X013668Y014769D01*X013613Y014714D01*X013543Y014678D01*
X013466Y014666D01*X013388Y014678D01*X013319Y014714D01*
X013263Y014769D01*X013228Y014839D01*X013216Y014916D01*X013716D01*
X013516Y014766D02*X013616D01*X013316D01*X013666Y014816D02*X013266D01*
X011216Y015116D02*X011228Y015193D01*X011263Y015263D01*
X011319Y015318D01*X011388Y015354D01*X011466Y015366D01*
X011543Y015354D01*X011613Y015318D01*X011668Y015263D01*
X011703Y015193D01*X011716Y015116D01*X011216D01*X011416Y015266D02*
X011316D01*X011616D01*X011266Y015216D02*X011666D01*X011716Y014916D02*
X011703Y014839D01*X011668Y014769D01*X011613Y014714D01*
X011543Y014678D01*X011466Y014666D01*X011388Y014678D01*
X011319Y014714D01*X011263Y014769D01*X011228Y014839D01*
X011216Y014916D01*X011716D01*X011516Y014766D02*X011616D01*X011316D01*
X011666Y014816D02*X011266D01*X009216Y015116D02*X009228Y015193D01*
X009263Y015263D01*X009319Y015318D01*X009388Y015354D01*
X009466Y015366D01*X009543Y015354D01*X009613Y015318D01*
X009668Y015263D01*X009703Y015193D01*X009716Y015116D01*X009216D01*
X009416Y015266D02*X009316D01*X009616D01*X009266Y015216D02*X009666D01*
X009716Y014916D02*X009703Y014839D01*X009668Y014769D01*
X009613Y014714D01*X009543Y014678D01*X009466Y014666D01*
X009388Y014678D01*X009319Y014714D01*X009263Y014769D01*
X009228Y014839D01*X009216Y014916D01*X009716D01*X009516Y014766D02*
X009616D01*X009316D01*X009666Y014816D02*X009266D01*X007216Y015116D02*
X007228Y015193D01*X007263Y015263D01*X007319Y015318D01*
X007388Y015354D01*X007466Y015366D01*X007543Y015354D01*
X007613Y015318D01*X007668Y015263D01*X007703Y015193D01*
X007716Y015116D01*X007216D01*X007416Y015266D02*X007316D01*X007616D01*
X007266Y015216D02*X007666D01*X007716Y014916D02*X007703Y014839D01*
X007668Y014769D01*X007613Y014714D01*X007543Y014678D01*
X007466Y014666D01*X007388Y014678D01*X007319Y014714D01*
X007263Y014769D01*X007228Y014839D01*X007216Y014916D01*X007716D01*
X007516Y014766D02*X007616D01*X007316D01*X007666Y014816D02*X007266D01*
X005216Y015116D02*X005228Y015193D01*X005263Y015263D01*
X005319Y015318D01*X005388Y015354D01*X005466Y015366D01*
X005543Y015354D01*X005613Y015318D01*X005668Y015263D01*
X005703Y015193D01*X005716Y015116D01*X005216D01*X005416Y015266D02*
X005316D01*X005616D01*X005266Y015216D02*X005666D01*X005716Y014916D02*
X005703Y014839D01*X005668Y014769D01*X005613Y014714D01*
X005543Y014678D01*X005466Y014666D01*X005388Y014678D01*
X005319Y014714D01*X005263Y014769D01*X005228Y014839D01*
X005216Y014916D01*X005716D01*X005516Y014766D02*X005616D01*X005316D01*
X005666Y014816D02*X005266D01*X003216Y015116D02*X003228Y015193D01*
X003263Y015263D01*X003319Y015318D01*X003388Y015354D01*
X003466Y015366D01*X003543Y015354D01*X003613Y015318D01*
X003668Y015263D01*X003703Y015193D01*X003716Y015116D01*X003216D01*
X003416Y015266D02*X003316D01*X003616D01*X003266Y015216D02*X003666D01*
X003716Y014916D02*X003703Y014839D01*X003668Y014769D01*
X003613Y014714D01*X003543Y014678D01*X003466Y014666D01*
X003388Y014678D01*X003319Y014714D01*X003263Y014769D01*
X003228Y014839D01*X003216Y014916D01*X003716D01*X003516Y014766D02*
X003616D01*X003316D01*X003666Y014816D02*X003266D01*X021216Y015916D02*
X021228Y015993D01*X021263Y016063D01*X021319Y016118D01*
X021388Y016154D01*X021466Y016166D01*X021543Y016154D01*
X021613Y016118D01*X021668Y016063D01*X021703Y015993D01*
X021716Y015916D01*X021216D01*X021416Y016066D02*X021316D01*X021616D01*
X021266Y016016D02*X021666D01*X021716Y015716D02*X021703Y015639D01*
X021668Y015569D01*X021613Y015514D01*X021543Y015478D01*
X021466Y015466D01*X021388Y015478D01*X021319Y015514D01*
X021263Y015569D01*X021228Y015639D01*X021216Y015716D01*X021716D01*
X021516Y015566D02*X021616D01*X021316D01*X021666Y015616D02*X021266D01*
X019216Y015916D02*X019228Y015993D01*X019263Y016063D01*
X019319Y016118D01*X019388Y016154D01*X019466Y016166D01*
X019543Y016154D01*X019613Y016118D01*X019668Y016063D01*
X019703Y015993D01*X019716Y015916D01*X019216D01*X019416Y016066D02*
X019316D01*X019616D01*X019266Y016016D02*X019666D01*X019716Y015716D02*
X019703Y015639D01*X019668Y015569D01*X019613Y015514D01*
X019543Y015478D01*X019466Y015466D01*X019388Y015478D01*
X019319Y015514D01*X019263Y015569D01*X019228Y015639D01*
X019216Y015716D01*X019716D01*X019516Y015566D02*X019616D01*X019316D01*
X019666Y015616D02*X019266D01*X012216Y015916D02*X012228Y015993D01*
X012263Y016063D01*X012319Y016118D01*X012388Y016154D01*
X012466Y016166D01*X012543Y016154D01*X012613Y016118D01*
X012668Y016063D01*X012703Y015993D01*X012716Y015916D01*X012216D01*
X012416Y016066D02*X012316D01*X012616D01*X012266Y016016D02*X012666D01*
X012716Y015716D02*X012703Y015639D01*X012668Y015569D01*
X012613Y015514D01*X012543Y015478D01*X012466Y015466D01*
X012388Y015478D01*X012319Y015514D01*X012263Y015569D01*
X012228Y015639D01*X012216Y015716D01*X012716D01*X012516Y015566D02*
X012616D01*X012316D01*X012666Y015616D02*X012266D01*X010216Y015916D02*
X010228Y015993D01*X010263Y016063D01*X010319Y016118D01*
X010388Y016154D01*X010466Y016166D01*X010543Y016154D01*
X010613Y016118D01*X010668Y016063D01*X010703Y015993D01*
X010716Y015916D01*X010216D01*X010416Y016066D02*X010316D01*X010616D01*
X010266Y016016D02*X010666D01*X010716Y015716D02*X010703Y015639D01*
X010668Y015569D01*X010613Y015514D01*X010543Y015478D01*
X010466Y015466D01*X010388Y015478D01*X010319Y015514D01*
X010263Y015569D01*X010228Y015639D01*X010216Y015716D01*X010716D01*
X010516Y015566D02*X010616D01*X010316D01*X010666Y015616D02*X010266D01*
X008216Y015916D02*X008228Y015993D01*X008263Y016063D01*
X008319Y016118D01*X008388Y016154D01*X008466Y016166D01*
X008543Y016154D01*X008613Y016118D01*X008668Y016063D01*
X008703Y015993D01*X008716Y015916D01*X008216D01*X008416Y016066D02*
X008316D01*X008616D01*X008266Y016016D02*X008666D01*X008716Y015716D02*
X008703Y015639D01*X008668Y015569D01*X008613Y015514D01*
X008543Y015478D01*X008466Y015466D01*X008388Y015478D01*
X008319Y015514D01*X008263Y015569D01*X008228Y015639D01*
X008216Y015716D01*X008716D01*X008516Y015566D02*X008616D01*X008316D01*
X008666Y015616D02*X008266D01*X006216Y015916D02*X006228Y015993D01*
X006263Y016063D01*X006319Y016118D01*X006388Y016154D01*
X006466Y016166D01*X006543Y016154D01*X006613Y016118D01*
X006668Y016063D01*X006703Y015993D01*X006716Y015916D01*X006216D01*
X006416Y016066D02*X006316D01*X006616D01*X006266Y016016D02*X006666D01*
X006716Y015716D02*X006703Y015639D01*X006668Y015569D01*
X006613Y015514D01*X006543Y015478D01*X006466Y015466D01*
X006388Y015478D01*X006319Y015514D01*X006263Y015569D01*
X006228Y015639D01*X006216Y015716D01*X006716D01*X006516Y015566D02*
X006616D01*X006316D01*X006666Y015616D02*X006266D01*X004216Y015916D02*
X004228Y015993D01*X004263Y016063D01*X004319Y016118D01*
X004388Y016154D01*X004466Y016166D01*X004543Y016154D01*
X004613Y016118D01*X004668Y016063D01*X004703Y015993D01*
X004716Y015916D01*X004216D01*X004416Y016066D02*X004316D01*X004616D01*
X004266Y016016D02*X004666D01*X004716Y015716D02*X004703Y015639D01*
X004668Y015569D01*X004613Y015514D01*X004543Y015478D01*
X004466Y015466D01*X004388Y015478D01*X004319Y015514D01*
X004263Y015569D01*X004228Y015639D01*X004216Y015716D01*X004716D01*
X004516Y015566D02*X004616D01*X004316D01*X004666Y015616D02*X004266D01*
X002216Y015916D02*X002228Y015993D01*X002263Y016063D01*
X002319Y016118D01*X002388Y016154D01*X002466Y016166D01*
X002543Y016154D01*X002613Y016118D01*X002668Y016063D01*
X002703Y015993D01*X002716Y015916D01*X002216D01*X002416Y016066D02*
X002316D01*X002616D01*X002266Y016016D02*X002666D01*X002716Y015716D02*
X002703Y015639D01*X002668Y015569D01*X002613Y015514D01*
X002543Y015478D01*X002466Y015466D01*X002388Y015478D01*
X002319Y015514D01*X002263Y015569D01*X002228Y015639D01*
X002216Y015716D01*X002716D01*X002516Y015566D02*X002616D01*X002316D01*
X002666Y015616D02*X002266D01*D11*X014466Y015966D02*Y017616D01*
X015466Y015166D02*Y017616D01*X016466Y015966D02*Y017616D01*
X017466Y015166D02*Y017616D01*X014466Y013541D02*Y015591D01*
X015466Y013541D02*Y014791D01*X016466Y013541D02*Y015591D01*
X017466Y013541D02*Y014791D01*D10*X017216Y015116D02*X017228Y015193D01*
X017263Y015263D01*X017319Y015318D01*X017388Y015354D01*
X017466Y015366D01*X017543Y015354D01*X017613Y015318D01*
X017668Y015263D01*X017703Y015193D01*X017716Y015116D01*X017216D01*
X017416Y015266D02*X017316D01*X017616D01*X017266Y015216D02*X017666D01*
X017716Y014916D02*X017703Y014839D01*X017668Y014769D01*
X017613Y014714D01*X017543Y014678D01*X017466Y014666D01*
X017388Y014678D01*X017319Y014714D01*X017263Y014769D01*
X017228Y014839D01*X017216Y014916D01*X017716D01*X017516Y014766D02*
X017616D01*X017316D01*X017666Y014816D02*X017266D01*X015216Y015116D02*
X015228Y015193D01*X015263Y015263D01*X015319Y015318D01*
X015388Y015354D01*X015466Y015366D01*X015543Y015354D01*
X015613Y015318D01*X015668Y015263D01*X015703Y015193D01*
X015716Y015116D01*X015216D01*X015416Y015266D02*X015316D01*X015616D01*
X015266Y015216D02*X015666D01*X015716Y014916D02*X015703Y014839D01*
X015668Y014769D01*X015613Y014714D01*X015543Y014678D01*
X015466Y014666D01*X015388Y014678D01*X015319Y014714D01*
X015263Y014769D01*X015228Y014839D01*X015216Y014916D01*X015716D01*
X015516Y014766D02*X015616D01*X015316D01*X015666Y014816D02*X015266D01*
X016216Y015916D02*X016228Y015993D01*X016263Y016063D01*
X016319Y016118D01*X016388Y016154D01*X016466Y016166D01*
X016543Y016154D01*X016613Y016118D01*X016668Y016063D01*
X016703Y015993D01*X016716Y015916D01*X016216D01*X016416Y016066D02*
X016316D01*X016616D01*X016266Y016016D02*X016666D01*X016716Y015716D02*
X016703Y015639D01*X016668Y015569D01*X016613Y015514D01*
X016543Y015478D01*X016466Y015466D01*X016388Y015478D01*
X016319Y015514D01*X016263Y015569D01*X016228Y015639D01*
X016216Y015716D01*X016716D01*X016516Y015566D02*X016616D01*X016316D01*
X016666Y015616D02*X016266D01*X014216Y015916D02*X014228Y015993D01*
X014263Y016063D01*X014319Y016118D01*X014388Y016154D01*
X014466Y016166D01*X014543Y016154D01*X014613Y016118D01*
X014668Y016063D01*X014703Y015993D01*X014716Y015916D01*X014216D01*
X014416Y016066D02*X014316D01*X014616D01*X014266Y016016D02*X014666D01*
X014716Y015716D02*X014703Y015639D01*X014668Y015569D01*
X014613Y015514D01*X014543Y015478D01*X014466Y015466D01*
X014388Y015478D01*X014319Y015514D01*X014263Y015569D01*
X014228Y015639D01*X014216Y015716D01*X014716D01*X014516Y015566D02*
X014616D01*X014316D01*X014666Y015616D02*X014266D01*
M02*