%FSTAX24Y24*%
%MOIN*%
%IN card20pad.gto *%
%ADD10C,0.0057*%
%ADD11C,0.0086*%
%ADD12C,0.0100*%
D10*X009203Y014444D02*G01X00926Y014501D01*Y014558D01*X009203Y014616D01*
X009088D01*X009031Y014558D01*Y014501D01*X009088Y014444D01*X009203D01*
X00926Y014387D01*Y01433D01*X009203Y014273D01*X009088D01*
X009031Y01433D01*Y014387D01*X009088Y014444D01*X015048Y009155D02*
Y008897D01*X015077Y008869D01*X01512D01*X015148Y008897D01*
X014991Y009097D02*X015105D01*X015334Y00894D02*Y009026D01*
X015405Y009097D01*X015477D01*X015548Y009026D01*Y00894D01*
X015477Y008869D01*X015405D01*X015334Y00894D01*X015677Y009097D02*
Y00874D01*Y00894D02*X015748Y008869D01*X01582D01*X015891Y00894D01*
Y009026D01*X01582Y009097D01*X015748D01*X015677Y00904D01*
X016363Y009126D02*Y008869D01*Y009026D02*X016434Y009097D01*X016505D01*
X016577Y009026D01*Y008869D01*X01692Y009097D02*Y008869D01*Y008926D02*
X016863Y008869D01*X016763D01*X016705Y008926D01*Y009097D01*
X017155Y008869D02*Y009026D01*X017209Y009097D01*X017263Y009026D01*
Y008869D01*X017048Y009026D02*X017102Y009097D01*X017155Y009026D01*
X017048Y009126D02*Y008869D01*X017391Y009212D02*Y008869D01*Y00894D02*
X017463Y008869D01*X017534D01*X017605Y00894D01*Y009026D01*
X017534Y009097D01*X017463D01*X017391Y00904D01*X017734Y008997D02*
X017948D01*Y009026D01*X017877Y009097D01*X017805D01*X017734Y00904D01*
Y00894D01*Y008926D01*X017791Y008869D01*X017905D01*X017948Y008897D01*
X018077Y009126D02*Y008869D01*X018291Y009055D02*X01822Y009097D01*
X018148D01*X018077Y009055D01*X011766Y017141D02*X011823Y017198D01*
Y016855D01*X01188D01*X011823D02*X011766D01*X012051Y017141D02*
X012108Y017198D01*X012223D01*X01228Y017141D01*Y017084D01*
X012223Y017027D01*X01228Y01697D01*Y016913D01*X012223Y016855D01*
X012108D01*X012051Y016913D01*X012223Y017027D02*X012166D01*
X014991Y010279D02*X015048Y010336D01*Y009993D01*X015105D01*X015048D02*
X014991D01*X015277Y010164D02*X015505D01*X01562Y01005D02*
X015677Y009993D01*X015791D01*X015848Y01005D01*Y010279D01*
X015791Y010336D01*X015677D01*X01562Y010279D01*Y010193D01*
X015677Y010136D01*X015791D01*X015848Y010193D01*X016391Y009993D02*
Y010307D01*X01642Y010336D01*X016477D01*X016505Y010307D01*Y010293D01*
X016334Y010164D02*X016448D01*X016648Y010064D02*Y01015D01*
X01672Y010221D01*X016791D01*X016863Y01015D01*Y010064D01*
X016791Y009993D01*X01672D01*X016648Y010064D01*X016991Y01025D02*
Y009993D01*X017205Y010179D02*X017134Y010221D01*X017063D01*
X016991Y010179D01*X017905Y009993D02*Y010221D01*X017677Y010067D02*
X017697Y010139D01*X017728Y010187D01*X017768Y010213D01*
X017797Y010221D01*X01782D01*X01786D01*X017905Y010199D01*
X017677Y010064D02*Y010047D01*X01768Y010036D01*X017688Y010021D01*
X017708Y01001D01*X017748Y009993D01*X017811D01*X017871Y010019D01*
X017905Y01005D01*X018077Y009993D02*Y010336D01*X01842Y009993D02*
Y010336D01*X019205Y010221D02*Y010193D01*X019163Y010221D01*X019148D01*
X01912Y010207D01*X019077Y010164D01*X019048Y010093D01*Y010064D01*
X019063Y010021D01*X01912Y009993D01*X019191D01*X019263Y010036D01*
X019391Y010336D02*Y009993D01*Y010164D02*X019463Y010221D01*X019534D01*
X019605Y01015D01*Y009993D01*X019841Y010214D02*Y009993D01*Y010307D02*
Y010314D01*X019963Y010221D02*Y009864D01*Y010064D02*X020034Y009993D01*
X020105D01*X020177Y010064D01*Y01015D01*X020105Y010221D01*X020034D01*
X019963Y010164D01*X020448Y009993D02*X020377D01*X020305Y010021D02*
X020334Y009993D01*X020491D01*X02052Y010021D01*Y010079D01*
X020491Y010107D01*X020334D01*X020305Y010136D01*Y010193D01*
X020334Y010221D01*X020491D01*X02052Y010193D01*X012766Y014541D02*
X012823Y014598D01*Y014255D01*X01288D01*X012823D02*X012766D01*
X013223D02*Y014598D01*X013051Y014398D01*X01328D01*X016723Y013941D02*
X01678Y013998D01*X016894D01*X016951Y013941D01*Y013884D01*
X016894Y013827D01*X016723Y013713D01*Y013655D01*X016951D01*
X017294Y013941D02*X017237Y013998D01*X017123D01*X017066Y013941D01*
Y013713D01*X017123Y013655D01*X017237D01*X017294Y013713D01*Y013941D01*
X01718Y013884D02*Y01377D01*X020866Y016541D02*X020923Y016598D01*
Y016255D01*X02098D01*X020923D02*X020866D01*X021208Y016541D02*
X021266Y016598D01*Y016255D01*X021323D01*X021266D02*X021208D01*
X011765Y016546D02*X011823Y016603D01*Y01626D01*X01188D01*X011823D02*
X011765D01*X01228Y016603D02*X012051D01*Y016432D01*X012108Y016489D01*
X012223D01*X01228Y016432D01*Y016317D01*X012223Y01626D01*X012108D01*
X012051Y016317D01*X015048Y00825D02*Y008564D01*X015077Y008593D01*
X015134D01*X015163Y008564D01*Y00855D01*X014991Y008421D02*X015105D01*
X015305Y008321D02*Y008407D01*X015377Y008478D01*X015448D01*
X01552Y008407D01*Y008321D01*X015448Y00825D01*X015377D01*
X015305Y008321D01*X015648Y008507D02*Y00825D01*X015863Y008435D02*
X015791Y008478D01*X01572D01*X015648Y008435D01*X016391Y008535D02*
X016448Y008593D01*Y00825D01*X016505D01*X016448D02*X016391D01*
X016848Y008421D02*X016905Y008478D01*Y008535D01*X016848Y008593D01*
X016734D01*X016677Y008535D01*Y008478D01*X016734Y008421D01*X016848D01*
X016905Y008364D01*Y008307D01*X016848Y00825D01*X016734D01*
X016677Y008307D01*Y008364D01*X016734Y008421D01*X017363Y008478D02*
Y008121D01*Y008321D02*X017434Y00825D01*X017505D01*X017577Y008321D01*
Y008407D01*X017505Y008478D01*X017434D01*X017363Y008421D01*
X017813Y008471D02*Y00825D01*Y008564D02*Y008571D01*X017934Y008507D02*
Y00825D01*Y008407D02*X018005Y008478D01*X018077D01*X018148Y008407D01*
Y00825D01*X018777Y008478D02*Y00845D01*X018734Y008478D01*X01872D01*
X018691Y008464D01*X018648Y008421D01*X01862Y00835D01*Y008321D01*
X018634Y008278D01*X018691Y00825D01*X018763D01*X018834Y008293D01*
X018963Y008593D02*Y00825D01*Y008421D02*X019034Y008478D01*X019105D01*
X019177Y008407D01*Y00825D01*X019413Y008471D02*Y00825D01*Y008564D02*
Y008571D01*X019534Y008478D02*Y008121D01*Y008321D02*X019605Y00825D01*
X019677D01*X019748Y008321D01*Y008407D01*X019677Y008478D01*X019605D01*
X019534Y008421D01*X02002Y00825D02*X019948D01*X019877Y008278D02*
X019905Y00825D01*X020063D01*X020091Y008278D01*Y008335D01*
X020063Y008364D01*X019905D01*X019877Y008393D01*Y00845D01*
X019905Y008478D01*X020063D01*X020091Y00845D01*X013766Y017141D02*
X013823Y017198D01*Y016855D01*X01388D01*X013823D02*X013766D01*
X01428Y017198D02*X014051D01*Y017027D01*X014108Y017084D01*X014223D01*
X01428Y017027D01*Y016913D01*X014223Y016855D01*X014108D01*
X014051Y016913D01*X010766Y014541D02*X010823Y014598D01*Y014255D01*
X01088D01*X010823D02*X010766D01*X011051Y014541D02*X011108Y014598D01*
X011223D01*X01128Y014541D01*Y014484D01*X011223Y014427D01*
X011051Y014313D01*Y014255D01*X01128D01*X019766Y013941D02*
X019823Y013998D01*Y013655D01*X01988D01*X019823D02*X019766D01*
X02028Y013941D02*X020223Y013998D01*X020108D01*X020051Y013941D01*
Y013713D01*X020108Y013655D01*X020223D01*X02028Y013713D01*Y013941D01*
X020166Y013884D02*Y01377D01*X015048Y006478D02*Y006792D01*
X015077Y006821D01*X015134D01*X015163Y006792D01*Y006778D01*
X014991Y00665D02*X015105D01*X015305Y00655D02*Y006635D01*
X015377Y006707D01*X015448D01*X01552Y006635D01*Y00655D01*
X015448Y006478D01*X015377D01*X015305Y00655D01*X015648Y006735D02*
Y006478D01*X015863Y006664D02*X015791Y006707D01*X01572D01*
X015648Y006664D01*X016334Y006764D02*X016391Y006821D01*X016505D01*
X016563Y006764D01*Y006707D01*X016505Y00665D01*X016334Y006535D01*
Y006478D01*X016563D01*X016905Y006764D02*X016848Y006821D01*X016734D01*
X016677Y006764D01*Y006535D01*X016734Y006478D01*X016848D01*
X016905Y006535D01*Y006764D01*X016791Y006707D02*Y006592D01*
X017363Y006707D02*Y00635D01*Y00655D02*X017434Y006478D01*X017505D01*
X017577Y00655D01*Y006635D01*X017505Y006707D01*X017434D01*
X017363Y00665D01*X017813Y0067D02*Y006478D01*Y006792D02*Y0068D01*
X017934Y006735D02*Y006478D01*Y006635D02*X018005Y006707D01*X018077D01*
X018148Y006635D01*Y006478D01*X018777Y006707D02*Y006678D01*
X018734Y006707D01*X01872D01*X018691Y006692D01*X018648Y00665D01*
X01862Y006578D01*Y00655D01*X018634Y006507D01*X018691Y006478D01*
X018763D01*X018834Y006521D01*X018963Y006821D02*Y006478D01*Y00665D02*
X019034Y006707D01*X019105D01*X019177Y006635D01*Y006478D01*
X019413Y0067D02*Y006478D01*Y006792D02*Y0068D01*X019534Y006707D02*
Y00635D01*Y00655D02*X019605Y006478D01*X019677D01*X019748Y00655D01*
Y006635D01*X019677Y006707D01*X019605D01*X019534Y00665D01*
X02002Y006478D02*X019948D01*X019877Y006507D02*X019905Y006478D01*
X020063D01*X020091Y006507D01*Y006564D01*X020063Y006592D01*X019905D01*
X019877Y006621D01*Y006678D01*X019905Y006707D01*X020063D01*
X020091Y006678D01*X014639Y010895D02*Y011237D01*X01481D01*
X014868Y01118D01*Y011123D01*X01481Y011066D01*X014639D01*
X015089Y011116D02*Y010895D01*Y011209D02*Y011216D01*X01521Y011152D02*
Y010895D01*Y011052D02*X015282Y011123D01*X015353D01*X015425Y011052D01*
Y010895D01*X015896Y011152D02*Y010895D01*Y011052D02*X015968Y011123D01*
X016039D01*X01611Y011052D01*Y010895D01*X016453Y011123D02*Y010895D01*
Y010952D02*X016396Y010895D01*X016296D01*X016239Y010952D01*Y011123D01*
X016689Y010895D02*Y011052D01*X016742Y011123D01*X016796Y011052D01*
Y010895D01*X016582Y011052D02*X016635Y011123D01*X016689Y011051D01*
X016582Y011152D02*Y010895D01*X016925Y011237D02*Y010895D01*Y010966D02*
X016996Y010895D01*X017068D01*X017139Y010966D01*Y011052D01*
X017068Y011123D01*X016996D01*X016925Y011066D01*X017268Y011023D02*
X017482D01*Y011052D01*X01741Y011123D01*X017339D01*X017268Y011066D01*
Y010966D01*Y010952D01*X017325Y010895D01*X017439D01*X017482Y010923D01*
X01761Y011152D02*Y010895D01*X017825Y01108D02*X017753Y011123D01*
X017682D01*X01761Y01108D01*X018096Y010895D02*X018025D01*
X017953Y010923D02*X017982Y010895D01*X018139D01*X018168Y010923D01*
Y01098D01*X018139Y011009D01*X017982D01*X017953Y011037D01*Y011095D01*
X017982Y011123D01*X018139D01*X018168Y011095D01*X018382Y010923D02*
X01841D01*Y010952D01*X018382D01*Y010923D01*Y011152D02*X01841D01*
Y01118D01*X018382D01*Y011152D01*X012766Y013941D02*X012823Y013998D01*
Y013655D01*X01288D01*X012823D02*X012766D01*X01328Y013941D02*
X013223Y013998D01*X013108D01*X013051Y013941D01*Y013713D01*
X013108Y013655D01*X013223D01*X01328Y013713D01*Y013798D01*
X013223Y013855D01*X013108D01*X013051Y013798D01*X013766Y016541D02*
X013823Y016598D01*Y016255D01*X01388D01*X013823D02*X013766D01*
X014051Y016598D02*X01428D01*X014108Y016255D01*X006287Y016781D02*
X006058D01*Y016609D01*X006116Y016667D01*X00623D01*X006287Y016609D01*
Y016495D01*X00623Y016438D01*X006116D01*X006058Y016495D01*D11*
X018935Y003345D02*X019449D01*Y003088D01*X019363Y003003D01*X019278D01*
X019192Y003088D01*X019106Y003003D01*X01902D01*X018935Y003088D01*
Y003345D01*X019192Y003088D02*Y003345D01*X019363Y002488D02*
X019449Y002574D01*Y002745D01*X019363Y002831D01*X01902D01*
X018935Y002745D01*Y002574D01*X01902Y002488D01*X019363D01*
X018935Y002145D02*X019449D01*Y001974D01*Y002145D02*Y002317D01*
X018935Y001631D02*X019449D01*Y00146D01*Y001631D02*Y001803D01*
X019363Y000945D02*X019449Y001031D01*Y001203D01*X019363Y001288D01*
X01902D01*X018935Y001203D01*Y001031D01*X01902Y000945D01*X019363D01*
X018935Y000774D02*X019449D01*X019192Y000603D01*X019449Y000431D01*
X018935D01*D10*X015766Y016541D02*X015823Y016598D01*Y016255D01*
X01588D01*X015823D02*X015766D01*X016051Y016313D02*X016108Y016255D01*
X016223D01*X01628Y016313D01*Y016541D01*X016223Y016598D01*X016108D01*
X016051Y016541D01*Y016455D01*X016108Y016398D01*X016223D01*
X01628Y016455D01*X000832Y010841D02*Y010927D01*X000904Y010998D01*
X000975D01*X001046Y010927D01*Y010841D01*X000975Y01077D01*X000904D01*
X000832Y010841D01*X001232Y011056D02*Y010798D01*X001261Y01077D01*
X001304D01*X001332Y010798D01*X001175Y010998D02*X001289D01*
X001518Y011113D02*Y01077D01*Y010941D02*X001589Y010998D01*X001661D01*
X001732Y010927D01*Y01077D01*X001861Y010898D02*X002075D01*Y010927D01*
X002004Y010998D01*X001932D01*X001861Y010941D01*Y010841D01*Y010827D01*
X001918Y01077D01*X002032D01*X002075Y010798D01*X002204Y011027D02*
Y01077D01*X002418Y010956D02*X002346Y010998D01*X002275D01*
X002204Y010956D01*X003032Y01077D02*X002961D01*X002889Y010798D02*
X002918Y01077D01*X003075D01*X003104Y010798D01*Y010856D01*
X003075Y010884D01*X002918D01*X002889Y010913D01*Y01097D01*
X002918Y010998D01*X003075D01*X003104Y01097D01*X003339Y010991D02*
Y01077D01*Y011084D02*Y011091D01*X003789Y011113D02*Y01077D01*Y010927D02*
X003718Y010998D01*X003646D01*X003575Y010941D01*Y010841D01*
X003646Y01077D01*X003718D01*X003789Y010841D01*X003918Y010898D02*
X004132D01*Y010927D01*X004061Y010998D01*X003989D01*X003918Y010941D01*
Y010841D01*Y010827D01*X003975Y01077D01*X004089D01*X004132Y010798D01*
X004346Y01077D02*X004375D01*Y010798D01*X004346D01*Y01077D01*
X000875Y00907D02*Y009413D01*X001046D01*X001104Y009356D01*Y009298D01*
X001046Y009241D01*X001104Y009184D01*Y009127D01*X001046Y00907D01*
X000875D01*X001046Y009241D02*X000875D01*X001218Y009198D02*X001432D01*
Y009227D01*X001361Y009298D01*X001289D01*X001218Y009241D01*Y009141D01*
Y009127D01*X001275Y00907D01*X001389D01*X001432Y009098D01*
X001561Y009327D02*Y00907D01*Y009227D02*X001632Y009298D01*X001704D01*
X001775Y009227D01*Y00907D01*X002118Y009413D02*Y00907D01*Y009227D02*
X002046Y009298D01*X001975D01*X001904Y009241D01*Y009141D01*
X001975Y00907D01*X002046D01*X002118Y009141D01*X002818Y009356D02*
X002761Y009413D01*X002646D01*X002589Y009356D01*Y009127D01*
X002646Y00907D01*X002761D01*X002818Y009127D01*Y009213D01*X002761D01*
X002932Y00907D02*Y009413D01*X003161Y00907D01*Y009413D01*
X003504Y009356D02*X003446Y009413D01*X003275D01*Y00907D01*X003446D01*
X003504Y009127D01*Y009356D01*X003961Y009298D02*Y008941D01*Y009141D02*
X004032Y00907D01*X004104D01*X004175Y009141D01*Y009227D01*
X004104Y009298D01*X004032D01*X003961Y009241D01*X004411Y009291D02*
Y00907D01*Y009384D02*Y009391D01*X004646Y009327D02*Y00907D01*Y009227D02*
X004718Y009298D01*X004789D01*X004861Y009227D01*Y00907D01*
X005332Y009141D02*Y009227D01*X005404Y009298D01*X005475D01*
X005546Y009227D01*Y009141D01*X005475Y00907D01*X005404D01*
X005332Y009141D01*X005889Y009298D02*Y00907D01*Y009127D02*
X005832Y00907D01*X005732D01*X005675Y009127D01*Y009298D01*
X006075Y009356D02*Y009098D01*X006104Y00907D01*X006146D01*
X006175Y009098D01*X006018Y009298D02*X006132D01*X006446Y00907D02*
X006475D01*X006432Y009027D01*X006461Y009084D01*X006475Y00907D02*
Y009098D01*X006446D01*Y00907D01*X000875Y01132D02*Y011663D01*
X001046Y011577D02*Y01132D01*Y011477D02*X001118Y011548D01*X001189D01*
X001261Y011477D01*Y01132D01*X001532D02*X001461D01*X001389Y011348D02*
X001418Y01132D01*X001575D01*X001604Y011348D01*Y011406D01*
X001575Y011434D01*X001418D01*X001389Y011463D01*Y01152D01*
X001418Y011548D01*X001575D01*X001604Y01152D01*X001732Y011448D02*
X001946D01*Y011477D01*X001875Y011548D01*X001804D01*X001732Y011491D01*
Y011391D01*Y011377D01*X001789Y01132D01*X001904D01*X001946Y011348D01*
X002075Y011577D02*Y01132D01*X002289Y011506D02*X002218Y011548D01*
X002146D01*X002075Y011506D01*X002475Y011606D02*Y011348D01*
X002504Y01132D01*X002546D01*X002575Y011348D01*X002418Y011548D02*
X002532D01*X003261D02*Y01152D01*X003218Y011548D01*X003204D01*
X003175Y011534D01*X003132Y011491D01*X003104Y01142D01*Y011391D01*
X003118Y011348D01*X003175Y01132D01*X003246D01*X003318Y011363D01*
X003446Y011663D02*Y01132D01*Y011491D02*X003518Y011548D01*X003589D01*
X003661Y011477D01*Y01132D01*X003896Y011541D02*Y01132D01*Y011634D02*
Y011641D01*X004132Y011548D02*Y011191D01*Y011391D02*X004204Y01132D01*
X004275D01*X004346Y011391D01*Y011477D01*X004275Y011548D01*X004204D01*
X004132Y011491D01*X004904Y01132D02*Y011634D01*X004932Y011663D01*
X004989D01*X005018Y011634D01*Y01162D01*X004846Y011491D02*X004961D01*
X005161Y011577D02*Y01132D01*X005375Y011506D02*X005304Y011548D01*
X005232D01*X005161Y011506D01*X005504Y011391D02*Y011477D01*
X005575Y011548D01*X005646D01*X005718Y011477D01*Y011391D01*
X005646Y01132D01*X005575D01*X005504Y011391D01*X005954Y01132D02*
Y011477D01*X006007Y011548D01*X006061Y011477D01*Y01132D01*
X005846Y011477D02*X0059Y011548D01*X005953Y011477D01*X005846Y011577D02*
Y01132D01*X001032Y006241D02*X000961D01*X000889Y00627D02*
X000918Y006241D01*X001075D01*X001104Y00627D01*Y006327D01*
X001075Y006356D01*X000918D01*X000889Y006384D01*Y006441D01*
X000918Y00647D01*X001075D01*X001104Y006441D01*X001232Y006313D02*
Y006398D01*X001304Y00647D01*X001375D01*X001446Y006398D01*Y006313D01*
X001375Y006241D01*X001304D01*X001232Y006313D01*X001632Y006241D02*
Y006584D01*X002132D02*Y006241D01*Y006398D02*X002061Y00647D01*
X001989D01*X001918Y006413D01*Y006313D01*X001989Y006241D01*X002061D01*
X002132Y006313D01*X002261Y00637D02*X002475D01*Y006398D01*
X002404Y00647D01*X002332D01*X002261Y006413D01*Y006313D01*Y006298D01*
X002318Y006241D01*X002432D01*X002475Y00627D01*X002604Y006498D02*
Y006241D01*X002818Y006427D02*X002746Y00647D01*X002675D01*
X002604Y006427D01*X003346Y006527D02*Y00627D01*X003375Y006241D01*
X003418D01*X003446Y00627D01*X003289Y00647D02*X003404D01*
X003632Y006313D02*Y006398D01*X003704Y00647D01*X003775D01*
X003846Y006398D01*Y006313D01*X003775Y006241D01*X003704D01*
X003632Y006313D01*X004318Y006498D02*Y006241D01*X004532Y006427D02*
X004461Y00647D01*X004389D01*X004318Y006427D01*X004889Y006241D02*
Y00647D01*X004661Y006316D02*X004681Y006387D01*X004712Y006436D01*
X004752Y006461D01*X004781Y00647D01*X004804D01*X004844D01*
X004889Y006447D01*X004661Y006313D02*Y006296D01*X004664Y006284D01*
X004672Y00627D01*X004692Y006258D01*X004732Y006241D01*X004795D01*
X004855Y006267D01*X004889Y006298D01*X005111Y006463D02*Y006241D01*
Y006556D02*Y006563D01*X005404Y006241D02*Y006584D01*X005775Y006241D02*
X005804D01*Y00627D01*X005775D01*Y006241D01*X000904Y00427D02*Y003913D01*
Y004113D02*X000975Y004041D01*X001046D01*X001118Y004113D01*Y004198D01*
X001046Y00427D01*X000975D01*X000904Y004213D01*X001354Y004263D02*
Y004041D01*Y004356D02*Y004363D01*X001589Y004298D02*Y004041D01*
Y004198D02*X001661Y00427D01*X001732D01*X001804Y004198D01*Y004041D01*
X002075D02*X002004D01*X001932Y00407D02*X001961Y004041D01*X002118D01*
X002146Y00407D01*Y004127D01*X002118Y004156D01*X001961D01*
X001932Y004184D01*Y004241D01*X001961Y00427D01*X002118D01*
X002146Y004241D01*X002846Y004041D02*Y00427D01*X002618Y004116D02*
X002638Y004187D01*X002669Y004236D01*X002709Y004261D01*X002738Y00427D01*
X002761D01*X002801D01*X002846Y004247D01*X002618Y004113D02*Y004096D01*
X002621Y004084D01*X002629Y00407D01*X002649Y004058D01*X002689Y004041D01*
X002752D01*X002812Y004067D01*X002846Y004098D01*X002961Y004298D02*
Y004041D01*Y004198D02*X003032Y00427D01*X003104D01*X003175Y004198D01*
Y004041D01*X003518Y004384D02*Y004041D01*Y004198D02*X003446Y00427D01*
X003375D01*X003304Y004213D01*Y004113D01*X003375Y004041D01*X003446D01*
X003518Y004113D01*X004046Y004327D02*Y00407D01*X004075Y004041D01*
X004118D01*X004146Y00407D01*X003989Y00427D02*X004104D01*
X004332Y004298D02*Y004041D01*X004546Y004227D02*X004475Y00427D01*
X004404D01*X004332Y004227D01*X004782Y004263D02*Y004041D01*Y004356D02*
Y004363D01*X005125Y004041D02*Y004198D01*X005178Y00427D01*
X005232Y004198D01*Y004041D01*X005018Y004198D02*X005071Y00427D01*
X005125Y004198D01*X005018Y004298D02*Y004041D01*X005446D02*X005475D01*
Y00407D01*X005446D01*Y004041D01*X001118Y004856D02*X001061Y004913D01*
X000946D01*X000889Y004856D01*Y004798D01*X000946Y004741D01*X001061D01*
X001118Y004684D01*Y004627D01*X001061Y00457D01*X000946D01*
X000889Y004627D01*X001232Y004641D02*Y004727D01*X001304Y004798D01*
X001375D01*X001446Y004727D01*Y004641D01*X001375Y00457D01*X001304D01*
X001232Y004641D01*X001632Y00457D02*Y004913D01*X002132D02*Y00457D01*
Y004727D02*X002061Y004798D01*X001989D01*X001918Y004741D01*Y004641D01*
X001989Y00457D01*X002061D01*X002132Y004641D01*X002261Y004698D02*
X002475D01*Y004727D01*X002404Y004798D01*X002332D01*X002261Y004741D01*
Y004641D01*Y004627D01*X002318Y00457D01*X002432D01*X002475Y004598D01*
X002604Y004827D02*Y00457D01*X002818Y004756D02*X002746Y004798D01*
X002675D01*X002604Y004756D01*X003289Y004827D02*Y00457D01*
X003504Y004756D02*X003432Y004798D01*X003361D01*X003289Y004756D01*
X003632Y004698D02*X003846D01*Y004727D01*X003775Y004798D01*X003704D01*
X003632Y004741D01*Y004641D01*Y004627D01*X003689Y00457D01*X003804D01*
X003846Y004598D01*X004082Y00457D02*Y004727D01*X004135Y004798D01*
X004189Y004727D01*Y00457D01*X003975Y004727D02*X004028Y004798D01*
X004082Y004727D01*X003975Y004827D02*Y00457D01*X004546D02*Y004798D01*
X004318Y004644D02*X004338Y004716D01*X004369Y004764D01*X004409Y00479D01*
X004438Y004798D01*X004461D01*X004501D01*X004546Y004776D01*
X004318Y004641D02*Y004624D01*X004321Y004613D01*X004329Y004598D01*
X004349Y004587D01*X004389Y00457D01*X004452D01*X004512Y004596D01*
X004546Y004627D01*X004768Y004791D02*Y00457D01*Y004884D02*Y004891D01*
X005004Y004827D02*Y00457D01*Y004727D02*X005075Y004798D01*X005146D01*
X005218Y004727D01*Y00457D01*X005454Y004791D02*Y00457D01*Y004884D02*
Y004891D01*X005689Y004827D02*Y00457D01*Y004727D02*X005761Y004798D01*
X005832D01*X005904Y004727D01*Y00457D01*X006246Y004641D02*
X006175Y00457D01*X006104D01*X006032Y004641D01*Y004741D01*
X006104Y004798D01*X006175D01*X006246Y004727D01*Y004513D01*
X006175Y004441D01*X006104D01*X006032Y004484D01*X000875Y00677D02*
Y007113D01*X001046D01*X001104Y007056D01*Y006998D01*X001046Y006941D01*
X001104Y006884D01*Y006827D01*X001046Y00677D01*X000875D01*
X001046Y006941D02*X000875D01*X001218Y006898D02*X001432D01*Y006927D01*
X001361Y006998D01*X001289D01*X001218Y006941D01*Y006841D01*Y006827D01*
X001275Y00677D01*X001389D01*X001432Y006798D01*X001561Y007027D02*
Y00677D01*Y006927D02*X001632Y006998D01*X001704D01*X001775Y006927D01*
Y00677D01*X002118Y007113D02*Y00677D01*Y006927D02*X002046Y006998D01*
X001975D01*X001904Y006941D01*Y006841D01*X001975Y00677D01*X002046D01*
X002118Y006841D01*X002589Y007113D02*X002704Y00677D01*X002818Y007113D01*
X003089Y006998D02*Y00697D01*X003046Y006998D01*X003032D01*
X003004Y006984D01*X002961Y006941D01*X002932Y00687D01*Y006841D01*
X002946Y006798D01*X003004Y00677D01*X003075D01*X003146Y006813D01*
X003432Y006998D02*Y00697D01*X003389Y006998D01*X003375D01*
X003346Y006984D01*X003304Y006941D01*X003275Y00687D01*Y006841D01*
X003289Y006798D01*X003346Y00677D01*X003418D01*X003489Y006813D01*
X003961Y006998D02*Y006641D01*Y006841D02*X004032Y00677D01*X004104D01*
X004175Y006841D01*Y006927D01*X004104Y006998D01*X004032D01*
X003961Y006941D01*X004411Y006991D02*Y00677D01*Y007084D02*Y007091D01*
X004646Y007027D02*Y00677D01*Y006927D02*X004718Y006998D01*X004789D01*
X004861Y006927D01*Y00677D01*X005439Y006991D02*Y00677D01*Y007084D02*
Y007091D01*X005675Y007027D02*Y00677D01*Y006927D02*X005746Y006998D01*
X005818D01*X005889Y006927D01*Y00677D01*X006104D02*X006132D01*
X006089Y006727D01*X006118Y006784D01*X006132Y00677D02*Y006798D01*
X006104D01*Y00677D01*X001032Y008541D02*X000961D01*X000889Y00857D02*
X000918Y008541D01*X001075D01*X001104Y00857D01*Y008627D01*
X001075Y008656D01*X000918D01*X000889Y008684D01*Y008741D01*
X000918Y00877D01*X001075D01*X001104Y008741D01*X001232Y008613D02*
Y008698D01*X001304Y00877D01*X001375D01*X001446Y008698D01*Y008613D01*
X001375Y008541D01*X001304D01*X001232Y008613D01*X001632Y008541D02*
Y008884D01*X002132D02*Y008541D01*Y008698D02*X002061Y00877D01*
X001989D01*X001918Y008713D01*Y008613D01*X001989Y008541D01*X002061D01*
X002132Y008613D01*X002261Y00867D02*X002475D01*Y008698D01*
X002404Y00877D01*X002332D01*X002261Y008713D01*Y008613D01*Y008598D01*
X002318Y008541D01*X002432D01*X002475Y00857D01*X002604Y008798D02*
Y008541D01*X002818Y008727D02*X002746Y00877D01*X002675D01*
X002604Y008727D01*X003346Y008827D02*Y00857D01*X003375Y008541D01*
X003418D01*X003446Y00857D01*X003289Y00877D02*X003404D01*
X003632Y008613D02*Y008698D01*X003704Y00877D01*X003775D01*
X003846Y008698D01*Y008613D01*X003775Y008541D01*X003704D01*
X003632Y008613D01*X004318Y008798D02*Y008541D01*X004532Y008727D02*
X004461Y00877D01*X004389D01*X004318Y008727D01*X004889Y008541D02*
Y00877D01*X004661Y008616D02*X004681Y008687D01*X004712Y008736D01*
X004752Y008761D01*X004781Y00877D01*X004804D01*X004844D01*
X004889Y008747D01*X004661Y008613D02*Y008596D01*X004664Y008584D01*
X004672Y00857D01*X004692Y008558D01*X004732Y008541D01*X004795D01*
X004855Y008567D01*X004889Y008598D01*X005111Y008763D02*Y008541D01*
Y008856D02*Y008863D01*X005289Y008541D02*Y008884D01*X005661Y008541D02*
X005689D01*Y00857D01*X005661D01*Y008541D01*X012937Y014141D02*
X013166D01*X014937D02*X015166D01*X016937D02*X017166D01*X010937D02*
X011166D01*X011937Y016741D02*X012166D01*X020937Y01707D02*X02098D01*
X021123Y016841D01*X021166D01*Y01707D02*X020937Y016841D01*
X019937Y01447D02*X01998D01*X020123Y014241D01*X020166D01*Y01447D02*
X019937Y014241D01*Y014141D02*X020166D01*X013937Y016741D02*X014166D01*
X020937D02*X021166D01*X015937D02*X016166D01*X009837D02*X010066D01*
X021937Y014141D02*X022166D01*X01798Y014222D02*X018095Y013879D01*
X018209Y014222D01*X01848Y014108D02*Y014079D01*X018438Y014108D01*
X018423D01*X018395Y014093D01*X018352Y01405D01*X018323Y013979D01*
Y01395D01*X018338Y013908D01*X018395Y013879D01*X018466D01*
X018538Y013922D01*X018823Y014108D02*Y014079D01*X01878Y014108D01*
X018766D01*X018738Y014093D01*X018695Y01405D01*X018666Y013979D01*
Y01395D01*X01868Y013908D01*X018738Y013879D01*X018809D01*
X01888Y013922D01*X015766Y017141D02*X015823Y017198D01*Y016855D01*
X01588D01*X015823D02*X015766D01*X016051Y017198D02*X01628D01*
X016108Y016855D01*X019011Y016495D02*X019068Y016438D01*X019182D01*
X019239Y016495D01*Y016724D01*X019182Y016781D01*X019068D01*
X019011Y016724D01*Y016638D01*X019068Y016581D01*X019182D01*
X019239Y016638D01*X000875Y001305D02*Y001084D01*Y001398D02*Y001405D01*
X000996Y001341D02*Y001084D01*Y001241D02*X001068Y001312D01*X001139D01*
X001211Y001241D01*Y001084D01*X001339Y001312D02*Y000955D01*Y001155D02*
X001411Y001084D01*X001482D01*X001554Y001155D01*Y001241D01*
X001482Y001312D01*X001411D01*X001339Y001255D01*X001896Y001312D02*
Y001084D01*Y001141D02*X001839Y001084D01*X001739D01*X001682Y001141D01*
Y001312D01*X002082Y001369D02*Y001112D01*X002111Y001084D01*X002154D01*
X002182Y001112D01*X002025Y001312D02*X002139D01*X002511Y001084D02*
X002439D01*X002368Y001112D02*X002396Y001084D01*X002554D01*
X002582Y001112D01*Y001169D01*X002554Y001198D01*X002396D01*
X002368Y001227D01*Y001284D01*X002396Y001312D01*X002554D01*
X002582Y001284D01*X003054Y001312D02*Y000955D01*Y001155D02*
X003125Y001084D01*X003196D01*X003268Y001155D01*Y001241D01*
X003196Y001312D01*X003125D01*X003054Y001255D01*X003504Y001305D02*
Y001084D01*Y001398D02*Y001405D01*X003625Y001341D02*Y001084D01*
Y001241D02*X003696Y001312D01*X003768D01*X003839Y001241D01*Y001084D01*
X004111D02*X004039D01*X003968Y001112D02*X003996Y001084D01*X004154D01*
X004182Y001112D01*Y001169D01*X004154Y001198D01*X003996D01*
X003968Y001227D01*Y001284D01*X003996Y001312D01*X004154D01*
X004182Y001284D01*X004654Y001155D02*Y001241D01*X004725Y001312D01*
X004796D01*X004868Y001241D01*Y001155D01*X004796Y001084D01*X004725D01*
X004654Y001155D01*X004996Y001341D02*Y001084D01*Y001241D02*
X005068Y001312D01*X005139D01*X005211Y001241D01*Y001084D01*X005396D02*
Y001427D01*X005682Y001312D02*X005711D01*X005811Y001084D01*
X005896Y001312D02*Y001284D01*X005754Y000955D01*X005725D01*
X006111Y001084D02*X006139D01*Y001112D01*X006111D01*Y001084D01*
X002139Y016724D02*X002196Y016781D01*Y016438D01*X002253D01*X002196D02*
X002139D01*X000875Y00196D02*Y001674D01*X000932Y001617D01*X001046D01*
X001104Y001674D01*Y00196D01*X001361Y001617D02*X001289D01*
X001218Y001646D02*X001246Y001617D01*X001404D01*X001432Y001646D01*
Y001703D01*X001404Y001731D01*X001246D01*X001218Y00176D01*Y001817D01*
X001246Y001846D01*X001404D01*X001432Y001817D01*X001561Y001746D02*
X001775D01*Y001774D01*X001704Y001846D01*X001632D01*X001561Y001789D01*
Y001689D01*Y001674D01*X001618Y001617D01*X001732D01*X001775Y001646D01*
X002389Y001617D02*X002318D01*X002246Y001646D02*X002275Y001617D01*
X002432D01*X002461Y001646D01*Y001703D01*X002432Y001731D01*X002275D01*
X002246Y00176D01*Y001817D01*X002275Y001846D01*X002432D01*
X002461Y001817D01*X002589Y001846D02*Y001489D01*Y001689D02*
X002661Y001617D01*X002732D01*X002804Y001689D01*Y001774D01*
X002732Y001846D01*X002661D01*X002589Y001789D01*X002989Y001617D02*
Y00196D01*X003382Y001839D02*Y001617D01*Y001931D02*Y001939D01*
X003561Y001903D02*Y001646D01*X003589Y001617D01*X003632D01*
X003661Y001646D01*X003504Y001846D02*X003618D01*X004189D02*Y001489D01*
Y001689D02*X004261Y001617D01*X004332D01*X004404Y001689D01*Y001774D01*
X004332Y001846D01*X004261D01*X004189Y001789D01*X004761Y001617D02*
Y001846D01*X004532Y001691D02*X004552Y001763D01*X004584Y001811D01*
X004624Y001837D01*X004652Y001846D01*X004675D01*X004715D01*
X004761Y001823D01*X004532Y001689D02*Y001671D01*X004535Y00166D01*
X004544Y001646D01*X004564Y001634D01*X004604Y001617D01*X004666D01*
X004726Y001643D01*X004761Y001674D01*X005089Y00196D02*Y001617D01*
Y001774D02*X005018Y001846D01*X004946D01*X004875Y001789D01*Y001689D01*
X004946Y001617D01*X005018D01*X005089Y001689D01*X005361Y001617D02*
X005289D01*X005218Y001646D02*X005246Y001617D01*X005404D01*
X005432Y001646D01*Y001703D01*X005404Y001731D01*X005246D01*
X005218Y00176D01*Y001817D01*X005246Y001846D01*X005404D01*
X005432Y001817D01*X005961Y001903D02*Y001646D01*X005989Y001617D01*
X006032D01*X006061Y001646D01*X005904Y001846D02*X006018D01*
X006246Y001689D02*Y001774D01*X006318Y001846D01*X006389D01*
X006461Y001774D01*Y001689D01*X006389Y001617D01*X006318D01*
X006246Y001689D01*X006932Y00196D02*Y001617D01*Y001689D02*
X007004Y001617D01*X007075D01*X007146Y001689D01*Y001774D01*
X007075Y001846D01*X007004D01*X006932Y001789D01*X007275Y001874D02*
Y001617D01*X007489Y001803D02*X007418Y001846D01*X007346D01*
X007275Y001803D01*X007725Y001839D02*Y001617D01*Y001931D02*Y001939D01*
X008061Y00196D02*Y001617D01*Y001774D02*X007989Y001846D01*X007918D01*
X007846Y001789D01*Y001689D01*X007918Y001617D01*X007989D01*
X008061Y001689D01*X008404D02*X008332Y001617D01*X008261D01*
X008189Y001689D01*Y001789D01*X008261Y001846D01*X008332D01*
X008404Y001774D01*Y00156D01*X008332Y001489D01*X008261D01*
X008189Y001531D01*X008532Y001746D02*X008746D01*Y001774D01*
X008675Y001846D01*X008604D01*X008532Y001789D01*Y001689D01*Y001674D01*
X008589Y001617D01*X008704D01*X008746Y001646D01*X016766Y014541D02*
X016823Y014598D01*Y014255D01*X01688D01*X016823D02*X016766D01*
X017223Y014427D02*X01728Y014484D01*Y014541D01*X017223Y014598D01*
X017108D01*X017051Y014541D01*Y014484D01*X017108Y014427D01*X017223D01*
X01728Y01437D01*Y014313D01*X017223Y014255D01*X017108D01*
X017051Y014313D01*Y01437D01*X017108Y014427D01*X005188Y014273D02*
Y014616D01*X005017Y014416D01*X005245D01*X008036Y016781D02*X008265D01*
X008093Y016438D01*X007265Y014558D02*X007208Y014616D01*X007093D01*
X007036Y014558D01*Y01433D01*X007093Y014273D01*X007208D01*
X007265Y01433D01*Y014416D01*X007208Y014473D01*X007093D01*
X007036Y014416D01*X000875Y002265D02*Y002608D01*X001261D02*Y002265D01*
Y002422D02*X001189Y002493D01*X001118D01*X001046Y002436D01*Y002336D01*
X001118Y002265D01*X001189D01*X001261Y002336D01*X001389Y002393D02*
X001604D01*Y002422D01*X001532Y002493D01*X001461D01*X001389Y002436D01*
Y002336D01*Y002322D01*X001446Y002265D01*X001561D01*X001604Y002293D01*
X001732Y002522D02*Y002265D01*Y002422D02*X001804Y002493D01*X001875D01*
X001946Y002422D01*Y002265D01*X002132Y002551D02*Y002293D01*
X002161Y002265D01*X002204D01*X002232Y002293D01*X002075Y002493D02*
X002189D01*X002525Y002486D02*Y002265D01*Y002579D02*Y002586D01*
X002732Y002265D02*Y002579D01*X002761Y002608D01*X002818D01*
X002846Y002579D01*Y002565D01*X002675Y002436D02*X002789D01*
X002989Y002493D02*X003018D01*X003118Y002265D01*X003204Y002493D02*
Y002465D01*X003061Y002136D01*X003032D01*X003732Y002265D02*Y002608D01*
X003904Y002265D02*X004132Y002608D01*X004475Y002551D02*
X004418Y002608D01*X004304D01*X004246Y002551D01*Y002322D01*
X004304Y002265D01*X004418D01*X004475Y002322D01*Y002551D01*
X004932Y002493D02*Y002136D01*Y002336D02*X005004Y002265D01*X005075D01*
X005146Y002336D01*Y002422D01*X005075Y002493D01*X005004D01*
X004932Y002436D01*X005382Y002486D02*Y002265D01*Y002579D02*Y002586D01*
X005504Y002522D02*Y002265D01*Y002422D02*X005575Y002493D01*X005646D01*
X005718Y002422D01*Y002265D01*X005989D02*X005918D01*X005846Y002293D02*
X005875Y002265D01*X006032D01*X006061Y002293D01*Y002351D01*
X006032Y002379D01*X005875D01*X005846Y002408D01*Y002465D01*
X005875Y002493D01*X006032D01*X006061Y002465D01*X006532Y002336D02*
Y002422D01*X006604Y002493D01*X006675D01*X006746Y002422D01*Y002336D01*
X006675Y002265D01*X006604D01*X006532Y002336D01*X006961Y002265D02*
Y002579D01*X006989Y002608D01*X007046D01*X007075Y002579D01*Y002565D01*
X006904Y002436D02*X007018D01*X007718Y002493D02*Y002465D01*
X007675Y002493D01*X007661D01*X007632Y002479D01*X007589Y002436D01*
X007561Y002365D01*Y002336D01*X007575Y002293D01*X007632Y002265D01*
X007704D01*X007775Y002308D01*X007904Y002608D02*Y002265D01*Y002436D02*
X007975Y002493D01*X008046D01*X008118Y002422D01*Y002265D01*
X008354Y002486D02*Y002265D01*Y002579D02*Y002586D01*X008475Y002493D02*
Y002136D01*Y002336D02*X008546Y002265D01*X008618D01*X008689Y002336D01*
Y002422D01*X008618Y002493D01*X008546D01*X008475Y002436D01*
X008904Y002265D02*X008932D01*Y002293D01*X008904D01*Y002265D01*
X003009Y014558D02*X003066Y014616D01*X00318D01*X003237Y014558D01*
Y014501D01*X00318Y014444D01*X003009Y01433D01*Y014273D01*X003237D01*
X014766Y014541D02*X014823Y014598D01*Y014255D01*X01488D01*X014823D02*
X014766D01*X01528Y014541D02*X015223Y014598D01*X015108D01*
X015051Y014541D01*Y014313D01*X015108Y014255D01*X015223D01*
X01528Y014313D01*Y014398D01*X015223Y014455D01*X015108D01*
X015051Y014398D01*X010766Y013941D02*X010823Y013998D01*Y013655D01*
X01088D01*X010823D02*X010766D01*X011223D02*Y013998D01*
X011051Y013798D01*X01128D01*X021766Y014541D02*X021823Y014598D01*
Y014255D01*X02188D01*X021823D02*X021766D01*X02228Y014541D02*
X022223Y014598D01*X022108D01*X022051Y014541D01*Y014313D01*
X022108Y014255D01*X022223D01*X02228Y014313D01*Y014541D01*
X022166Y014484D02*Y01437D01*X009766Y016541D02*X009823Y016598D01*
Y016255D01*X00988D01*X009823D02*X009766D01*X010051Y016541D02*
X010108Y016598D01*X010223D01*X01028Y016541D01*Y016484D01*
X010223Y016427D01*X01028Y01637D01*Y016313D01*X010223Y016255D01*
X010108D01*X010051Y016313D01*X010223Y016427D02*X010166D01*
X014766Y013941D02*X014823Y013998D01*Y013655D01*X01488D01*X014823D02*
X014766D01*X015223Y013827D02*X01528Y013884D01*Y013941D01*
X015223Y013998D01*X015108D01*X015051Y013941D01*Y013884D01*
X015108Y013827D01*X015223D01*X01528Y01377D01*Y013713D01*
X015223Y013655D01*X015108D01*X015051Y013713D01*Y01377D01*
X015108Y013827D01*X009766Y017141D02*X009823Y017198D01*Y016855D01*
X00988D01*X009823D02*X009766D01*X010108Y017141D02*X010166Y017198D01*
Y016855D01*X010223D01*X010166D02*X010108D01*X011501Y003159D02*
X011616Y002816D01*X01173Y003159D01*X012073Y003102D02*X012016Y003159D01*
X011901D01*X011844Y003102D01*Y002873D01*X011901Y002816D01*X012016D01*
X012073Y002873D01*X012416Y003102D02*X012358Y003159D01*X012244D01*
X012187Y003102D01*Y002873D01*X012244Y002816D01*X012358D01*
X012416Y002873D01*X021766Y013941D02*X021823Y013998D01*Y013655D01*
X02188D01*X021823D02*X021766D01*X022051Y013941D02*X022108Y013998D01*
X022223D01*X02228Y013941D01*Y013884D01*X022223Y013827D01*
X022051Y013713D01*Y013655D01*X02228D01*X015048Y007383D02*Y00704D01*
Y007111D02*X01512Y00704D01*X015191D01*X015263Y007111D01*Y007197D01*
X015191Y007269D01*X01512D01*X015048Y007211D01*X015391Y007111D02*
Y007197D01*X015463Y007269D01*X015534D01*X015605Y007197D01*Y007111D01*
X015534Y00704D01*X015463D01*X015391Y007111D01*X015791Y007326D02*
Y007069D01*X01582Y00704D01*X015863D01*X015891Y007069D01*
X015734Y007269D02*X015848D01*X016134Y007326D02*Y007069D01*
X016163Y00704D01*X016205D01*X016234Y007069D01*X016077Y007269D02*
X016191D01*X01642Y007111D02*Y007197D01*X016491Y007269D01*X016563D01*
X016634Y007197D01*Y007111D01*X016563Y00704D01*X016491D01*
X01642Y007111D01*X01687Y00704D02*Y007197D01*X016923Y007268D01*
X016977Y007197D01*Y00704D01*X016763Y007197D02*X016816Y007268D01*
X016869Y007197D01*X016763Y007297D02*Y00704D01*X017448Y007297D02*
Y00704D01*Y007197D02*X01752Y007269D01*X017591D01*X017663Y007197D01*
Y00704D01*X018005Y007269D02*Y00704D01*Y007097D02*X017948Y00704D01*
X017848D01*X017791Y007097D01*Y007269D01*X018241Y00704D02*Y007197D01*
X018294Y007268D01*X018348Y007197D01*Y00704D01*X018134Y007197D02*
X018187Y007268D01*X018241Y007197D01*X018134Y007297D02*Y00704D01*
X018477Y007383D02*Y00704D01*Y007111D02*X018548Y00704D01*X01862D01*
X018691Y007111D01*Y007197D01*X01862Y007269D01*X018548D01*
X018477Y007211D01*X01882Y007169D02*X019034D01*Y007197D01*
X018963Y007269D01*X018891D01*X01882Y007211D01*Y007111D01*Y007097D01*
X018877Y00704D01*X018991D01*X019034Y007069D01*X019163Y007297D02*
Y00704D01*X019377Y007226D02*X019305Y007269D01*X019234D01*
X019163Y007226D01*X004096Y016724D02*X004153Y016781D01*X004267D01*
X004324Y016724D01*Y016667D01*X004267Y016609D01*X004324Y016552D01*
Y016495D01*X004267Y016438D01*X004153D01*X004096Y016495D01*
X004267Y016609D02*X00421D01*X001205Y014165D02*X001148Y014222D01*
X001034D01*X000977Y014165D01*Y013936D01*X001034Y013879D01*X001148D01*
X001205Y013936D01*Y014022D01*X001148D01*X00132Y013879D02*Y014222D01*
X001548Y013879D01*Y014222D01*X001891Y014165D02*X001834Y014222D01*
X001662D01*Y013879D01*X001834D01*X001891Y013936D01*Y014165D01*
X010408Y002027D02*X010466Y002084D01*Y001741D01*X010523D01*X010466D02*
X010408D01*D12*X014192Y002603D02*X015067D01*Y002228D01*X015317D02*
X014817D01*X014942Y002103D02*X015192D01*X015067Y001978D02*X015042D01*
X011616Y002516D02*Y002716D01*X011516Y002616D02*X011716D01*
M02*