%FSLAX34Y34*%
%MOMM*%
%INTop Overlay*%
%IPPOS*%
%ADD44C,0.212*%
%ADD45C,0.200*%
%ADD46C,0.180*%
%ADD47R,0.200X1.400*%
%ADD48R,0.300X7.420*%
%ADD49R,7.420X0.300*%
%ADD50R,1.400X0.200*%
%ADD51R,1.700X0.200*%
%ADD52R,0.200X1.169*%
%ADD53R,0.200X1.700*%
%ADD54R,1.169X0.200*%
%ADD55C,0.300*%
%AMRECT*21,1,$1,$2,0,0,$3*%
%ADD56RECT,28.000X0.300X-38*%
%ADD57RECT,28.415X0.300X-38*%
%ADD58R,13.554X0.200*%
%ADD59R,0.200X3.701*%
%ADD60R,3.119X0.200*%
%ADD61R,0.200X13.554*%
%ADD62R,3.701X0.200*%
%ADD63R,0.200X3.119*%
G54D44*
X64730Y56440D02*
Y44120D01*
X63410Y42360D01*
X60770D01*
X59450Y44120D01*
Y45880D01*
Y44120D01*
X71330Y42360D02*
X70010Y44120D01*
Y47640D01*
X71330Y49400D01*
X73970D01*
X71330D01*
X70010Y51160D01*
Y54680D01*
X71330Y56440D01*
X73970D01*
X75290Y54680D01*
Y51160D01*
X73970Y49400D01*
X75290Y47640D01*
Y44120D01*
X73970Y42360D01*
X71330D01*
X73970D01*
G54D45*
X930400Y334600D02*
X879600D01*
G54D44*
X511660Y799860D02*
X510340Y801620D01*
Y812180D01*
X511660Y813940D01*
X514300D01*
X515620Y812180D01*
Y801620D01*
X514300Y799860D01*
X511660D01*
X514300D01*
Y803380D02*
X515620Y798100D01*
X514300Y803380D01*
X522220Y799860D02*
X520900Y801620D01*
Y805140D01*
X522220Y806900D01*
X524860D01*
X522220D01*
X520900Y808660D01*
Y812180D01*
X522220Y813940D01*
X524860D01*
X526180Y812180D01*
Y808660D01*
X524860Y806900D01*
X526180Y805140D01*
Y801620D01*
X524860Y799860D01*
X522220D01*
X524860D01*
G54D45*
X680120Y764510D02*
Y713710D01*
G54D44*
X644880Y784860D02*
X643560Y786620D01*
Y797180D01*
X644880Y798940D01*
X647520D01*
X648840Y797180D01*
Y786620D01*
X647520Y784860D01*
X644880D01*
X647520D01*
Y788380D02*
X648840Y783100D01*
X647520Y788380D01*
X654120Y795420D02*
Y797180D01*
X655440Y798940D01*
X658080D01*
X659400Y797180D01*
Y793660D01*
X658080Y791900D01*
X655440Y790140D01*
X654120Y788380D01*
Y784860D01*
X659400D01*
X654120D01*
X948270Y354860D02*
X946950Y356620D01*
Y367180D01*
X948270Y368940D01*
X950910D01*
X952230Y367180D01*
Y356620D01*
X950910Y354860D01*
X948270D01*
X950910D01*
Y358380D02*
X952230Y353100D01*
X950910Y358380D01*
X962790Y368940D02*
X957510D01*
Y361900D01*
X958830Y363660D01*
X961470D01*
X962790Y361900D01*
Y356620D01*
X961470Y354860D01*
X958830D01*
X957510Y356620D01*
X958830Y354860D01*
X557380Y892220D02*
X556060Y893980D01*
Y904540D01*
X557380Y906300D01*
X560020D01*
X561340Y904540D01*
Y893980D01*
X560020Y892220D01*
X557380D01*
X560020D01*
Y895740D02*
X561340Y890460D01*
X560020Y895740D01*
X566620Y902780D02*
X567940Y906300D01*
Y892220D01*
Y906300D01*
X566620Y892220D02*
X569260D01*
X566620D01*
G54D46*
X569800Y856790D02*
X569530Y856990D01*
X569260Y857170D01*
X568970Y857350D01*
X568680Y857520D01*
X568390Y857680D01*
X568090Y857840D01*
X567780Y857980D01*
X567470Y858110D01*
X567150Y858230D01*
X566830Y858340D01*
X566500Y858440D01*
X566170Y858530D01*
X565840Y858610D01*
X565510Y858680D01*
X565170Y858740D01*
X564830Y858780D01*
X564490Y858820D01*
X564150Y858840D01*
X563800Y858860D01*
X563460D01*
X563120Y858850D01*
X562770Y858830D01*
X562430Y858800D01*
X562090Y858760D01*
X561750Y858710D01*
X561420Y858650D01*
X561080Y858570D01*
X560750Y858490D01*
X560420Y858390D01*
X560100Y858290D01*
X559780Y858170D01*
X559470Y858040D01*
X559160Y857910D01*
X558850Y857760D01*
X558550Y857600D01*
X558260Y857440D01*
X557970Y857260D01*
X557690Y857080D01*
X557420Y856890D01*
X557160Y856690D01*
X556900Y856480D01*
X556650Y856260D01*
X556410Y856030D01*
X556180Y855800D01*
X555960Y855560D01*
X555740Y855310D01*
X555540Y855060D01*
X555340Y854800D01*
X555160Y854530D01*
X554990Y854260D01*
X554820Y853980D01*
X554670Y853690D01*
X554530Y853410D01*
X554390Y853110D01*
X554270Y852820D01*
X554170Y852520D01*
X554070Y852210D01*
X553980Y851910D01*
X553910Y851600D01*
X553840Y851290D01*
X553790Y850970D01*
X553760Y850660D01*
X553730Y850340D01*
X553710Y850030D01*
Y849710D01*
X553720Y849390D01*
X553740Y849080D01*
X553770Y848760D01*
X553820Y848450D01*
X553870Y848140D01*
X553940Y847830D01*
X554020Y847520D01*
X554120Y847210D01*
X554220Y846910D01*
X554330Y846610D01*
X554460Y846320D01*
X554600Y846030D01*
X554740Y845740D01*
X554900Y845460D01*
X555070Y845190D01*
X555250Y844920D01*
X555440Y844650D01*
X555640Y844390D01*
X555850Y844140D01*
X556070Y843900D01*
X556290Y843660D01*
X556530Y843430D01*
X556780Y843210D01*
X557030Y843000D01*
X557290Y842790D01*
X557560Y842590D01*
X557830Y842410D01*
X558120Y842230D01*
X558410Y842060D01*
X558700Y841900D01*
X559000Y841740D01*
X559310Y841600D01*
X559620Y841470D01*
X559940Y841350D01*
X560260Y841240D01*
X560590Y841140D01*
X560920Y841050D01*
X561250Y840970D01*
X561580Y840900D01*
X561920Y840840D01*
X562260Y840800D01*
X562600Y840760D01*
X562940Y840740D01*
X563290Y840720D01*
X563630D01*
X563970Y840730D01*
X564320Y840750D01*
X564660Y840780D01*
X565000Y840820D01*
X565340Y840870D01*
X565670Y840930D01*
X566010Y841010D01*
X566340Y841090D01*
X566670Y841190D01*
X566990Y841290D01*
X567310Y841410D01*
X567620Y841540D01*
X567930Y841670D01*
X568240Y841820D01*
X568540Y841980D01*
X568830Y842140D01*
X569120Y842320D01*
X569400Y842500D01*
X569670Y842690D01*
X569930Y842890D01*
X570010Y842960D01*
G54D47*
X570080Y850190D03*
G54D44*
X540270Y830410D02*
X534990D01*
Y816330D01*
X540270D01*
X534990D01*
Y823370D02*
X538950D01*
X534990D01*
X539440Y877470D02*
Y879230D01*
X538120Y880990D01*
X535480D01*
X534160Y879230D01*
Y868670D01*
X535480Y866910D01*
X538120D01*
X539440Y868670D01*
Y870430D01*
Y868670D01*
X721660Y754860D02*
X720340Y756620D01*
Y767180D01*
X721660Y768940D01*
X724300D01*
X725620Y767180D01*
Y756620D01*
X724300Y754860D01*
X721660D01*
X724300D01*
Y758380D02*
X725620Y753100D01*
X724300Y758380D01*
X730900Y765420D02*
Y767180D01*
X732220Y768940D01*
X734860D01*
X736180Y767180D01*
Y763660D01*
X734860Y761900D01*
X733540D01*
X734860D01*
X736180Y760140D01*
Y756620D01*
X734860Y754860D01*
X732220D01*
X730900Y756620D01*
Y758380D01*
Y756620D01*
X319160Y784860D02*
X317840Y786620D01*
Y797180D01*
X319160Y798940D01*
X321800D01*
X323120Y797180D01*
Y786620D01*
X321800Y784860D01*
X319160D01*
X321800D01*
Y788380D02*
X323120Y783100D01*
X321800Y788380D01*
X328400Y786620D02*
X329720Y784860D01*
X332360D01*
X333680Y786620D01*
Y797180D01*
X332360Y798940D01*
X329720D01*
X328400Y797180D01*
Y791900D01*
X329720Y790140D01*
X332360D01*
X333680Y791900D01*
X332360Y790140D01*
X955380Y397080D02*
X954060Y398840D01*
Y409400D01*
X955380Y411160D01*
X958020D01*
X959340Y409400D01*
Y398840D01*
X958020Y397080D01*
X955380D01*
X958020D01*
Y400600D02*
X959340Y395320D01*
X958020Y400600D01*
X969900Y409400D02*
X968580Y411160D01*
X965940D01*
X964620Y409400D01*
Y398840D01*
X965940Y397080D01*
X968580D01*
X969900Y398840D01*
Y404120D01*
X968580Y405880D01*
X965940D01*
X964620Y404120D01*
X965940Y405880D01*
X599140Y1033660D02*
Y1019580D01*
X604420D01*
X599140D01*
X609700Y1033660D02*
X612340D01*
X609700D01*
X611020D02*
Y1019580D01*
Y1033660D01*
X609700Y1019580D02*
X612340D01*
X609700D01*
X620260D02*
Y1033660D01*
X625540Y1019580D01*
Y1033660D01*
Y1019580D01*
X630820Y1033660D02*
Y1019580D01*
Y1033660D01*
X636100D02*
X632140Y1026620D01*
X630820D01*
X632140D01*
X636100Y1019580D01*
X632140Y1026620D01*
G54D48*
X600300Y940360D03*
G54D49*
X259000Y448000D03*
G54D44*
X238560Y441160D02*
Y427080D01*
X243840D01*
X238560D01*
X249120Y441160D02*
X251760D01*
X249120D01*
X250440D02*
Y427080D01*
Y441160D01*
X249120Y427080D02*
X251760D01*
X249120D01*
X259680D02*
Y441160D01*
X264960Y427080D01*
Y441160D01*
Y427080D01*
X270240Y441160D02*
Y427080D01*
Y441160D01*
X275520D02*
X271560Y434120D01*
X270240D01*
X271560D01*
X275520Y427080D01*
X271560Y434120D01*
X148560Y24580D02*
Y38660D01*
X152520D01*
X153840Y36900D01*
Y33380D01*
X152520Y31620D01*
X148560D01*
X152520D01*
X153840Y29860D01*
Y24580D01*
Y29860D01*
X159120Y28100D02*
X163080D01*
X164400Y29860D01*
Y31620D01*
X163080Y33380D01*
X160440D01*
X159120Y31620D01*
Y26340D01*
X160440Y24580D01*
X163080D01*
X164400Y26340D01*
X163080Y24580D01*
X169680Y33380D02*
Y21060D01*
Y33380D01*
Y31620D02*
X171000Y33380D01*
X173640D01*
X174960Y31620D01*
Y26340D01*
X173640Y24580D01*
X171000D01*
X169680Y26340D01*
X171000Y24580D01*
X180240Y33380D02*
Y24580D01*
Y33380D01*
Y31620D02*
X181560Y33380D01*
X184200D01*
X185520Y31620D01*
X184200Y33380D01*
X192120Y24580D02*
X190800Y26340D01*
Y31620D01*
X192120Y33380D01*
X194760D01*
X196080Y31620D01*
Y26340D01*
X194760Y24580D01*
X192120D01*
X194760D01*
X206640Y31620D02*
X205320Y33380D01*
X202680D01*
X201360Y31620D01*
Y26340D01*
X202680Y24580D01*
X205320D01*
X206640Y26340D01*
X205320Y24580D01*
X206640Y36900D02*
Y24580D01*
Y36900D01*
X211920Y33380D02*
Y26340D01*
X213240Y24580D01*
X215880D01*
X217200Y26340D01*
X215880Y24580D01*
X217200Y33380D02*
Y24580D01*
Y33380D01*
X227760Y31620D02*
X226440Y33380D01*
X223800D01*
X222480Y31620D01*
Y26340D01*
X223800Y24580D01*
X226440D01*
X227760Y26340D01*
X226440Y24580D01*
X233040Y28100D02*
X237000D01*
X238320Y29860D01*
Y31620D01*
X237000Y33380D01*
X234360D01*
X233040Y31620D01*
Y26340D01*
X234360Y24580D01*
X237000D01*
X238320Y26340D01*
X237000Y24580D01*
X248880Y31620D02*
X247560Y33380D01*
X244920D01*
X243600Y31620D01*
Y26340D01*
X244920Y24580D01*
X247560D01*
X248880Y26340D01*
X247560Y24580D01*
X248880Y36900D02*
Y24580D01*
Y36900D01*
X264720Y35140D02*
Y36900D01*
X266040Y38660D01*
X268680D01*
X270000Y36900D01*
Y33380D01*
X268680Y31620D01*
X266040Y29860D01*
X264720Y28100D01*
Y24580D01*
X270000D01*
X264720D01*
X279240D02*
X280560Y26340D01*
Y36900D01*
X279240Y38660D01*
X276600D01*
X275280Y36900D01*
Y26340D01*
X276600Y24580D01*
X279240D01*
X276600D01*
X285840Y35140D02*
X287160Y38660D01*
Y24580D01*
Y38660D01*
X285840Y24580D02*
X288480D01*
X285840D01*
X296400Y35140D02*
Y36900D01*
X297720Y38660D01*
X300360D01*
X301680Y36900D01*
Y33380D01*
X300360Y31620D01*
X299040D01*
X300360D01*
X301680Y29860D01*
Y26340D01*
X300360Y24580D01*
X297720D01*
X296400Y26340D01*
Y28100D01*
Y26340D01*
X148850Y69580D02*
X151490Y83660D01*
X154130Y69580D01*
X151490Y83660D01*
X150170Y74860D02*
X152810D01*
X150170D01*
X159410Y83660D02*
X164690D01*
X159410D01*
X162050D02*
Y69580D01*
Y83660D01*
X169970Y69580D02*
X172610Y83660D01*
X175250Y69580D01*
X172610Y83660D01*
X171290Y74860D02*
X173930D01*
X171290D01*
X180530Y69580D02*
Y83660D01*
X184490D01*
X185810Y81900D01*
Y78380D01*
X184490Y76620D01*
X180530D01*
X184490D01*
X185810Y74860D01*
Y69580D01*
Y74860D01*
X191090Y83660D02*
X193730D01*
X191090D01*
X192410D02*
Y69580D01*
Y83660D01*
X191090Y69580D02*
X193730D01*
X191090D01*
X201650Y76620D02*
X206930D01*
X201650D01*
X212210Y69580D02*
Y83660D01*
X216170D01*
X217490Y81900D01*
Y78380D01*
X216170Y76620D01*
X212210D01*
X216170D01*
X222770Y69580D02*
X225410Y83660D01*
X228050Y69580D01*
X225410Y83660D01*
X224090Y74860D02*
X226730D01*
X224090D01*
X233330Y83660D02*
X238610D01*
X233330D01*
X235970D02*
Y69580D01*
Y83660D01*
X243890Y71340D02*
X245210Y69580D01*
X247850D01*
X249170Y71340D01*
Y81900D01*
X247850Y83660D01*
X245210D01*
X243890Y81900D01*
Y76620D01*
X245210Y74860D01*
X247850D01*
X249170Y76620D01*
X247850Y74860D01*
X258410Y69580D02*
X259730Y71340D01*
Y81900D01*
X258410Y83660D01*
X255770D01*
X254450Y81900D01*
Y71340D01*
X255770Y69580D01*
X258410D01*
X255770D01*
X268970D02*
X270290Y71340D01*
Y81900D01*
X268970Y83660D01*
X266330D01*
X265010Y81900D01*
Y71340D01*
X266330Y69580D01*
X268970D01*
X266330D01*
X279530D02*
X280850Y71340D01*
Y81900D01*
X279530Y83660D01*
X276890D01*
X275570Y81900D01*
Y71340D01*
X276890Y69580D01*
X279530D01*
X276890D01*
X296690Y83660D02*
X301970Y69580D01*
X296690Y83660D01*
Y69580D02*
X301970Y83660D01*
X296690Y69580D01*
X307250Y76620D02*
X312530D01*
X307250D01*
X317810Y83660D02*
X320450Y76620D01*
X323090Y83660D01*
X320450Y76620D01*
Y69580D01*
Y76620D01*
X338930Y69580D02*
Y83660D01*
X344210Y69580D01*
Y83660D01*
Y69580D01*
X354770Y83660D02*
X349490D01*
Y69580D01*
X354770D01*
X349490D01*
Y76620D02*
X353450D01*
X349490D01*
X365330Y80140D02*
Y81900D01*
X364010Y83660D01*
X361370D01*
X360050Y81900D01*
Y71340D01*
X361370Y69580D01*
X364010D01*
X365330Y71340D01*
Y73100D01*
Y71340D01*
X370610Y83660D02*
Y69580D01*
Y83660D01*
X375890D02*
X371930Y76620D01*
X370610D01*
X371930D01*
X375890Y69580D01*
X371930Y76620D01*
X391730Y69580D02*
Y83660D01*
X395690D01*
X397010Y81900D01*
Y78380D01*
X395690Y76620D01*
X397010Y74860D01*
Y71340D01*
X395690Y69580D01*
X391730D01*
X395690D01*
X391730Y76620D02*
X395690D01*
X391730D01*
X403610Y69580D02*
X402290Y71340D01*
Y81900D01*
X403610Y83660D01*
X406250D01*
X407570Y81900D01*
Y71340D01*
X406250Y69580D01*
X403610D01*
X406250D01*
X412850D02*
X415490Y83660D01*
X418130Y69580D01*
X415490Y83660D01*
X414170Y74860D02*
X416810D01*
X414170D01*
X423410Y69580D02*
Y83660D01*
X427370D01*
X428690Y81900D01*
Y78380D01*
X427370Y76620D01*
X423410D01*
X427370D01*
X428690Y74860D01*
Y69580D01*
Y74860D01*
X437930Y69580D02*
X433970D01*
Y83660D01*
X437930D01*
X439250Y81900D01*
Y71340D01*
X437930Y69580D01*
X439250Y71340D01*
X149040Y55880D02*
X150360Y47080D01*
X151680Y52360D01*
X153000Y47080D01*
X154320Y55880D01*
X153000Y47080D01*
X159600Y55880D02*
X160920Y47080D01*
X162240Y52360D01*
X163560Y47080D01*
X164880Y55880D01*
X163560Y47080D01*
X170160Y55880D02*
X171480Y47080D01*
X172800Y52360D01*
X174120Y47080D01*
X175440Y55880D01*
X174120Y47080D01*
X182040D02*
X180720D01*
Y48840D01*
X182040D01*
Y47080D01*
Y48840D01*
X191280Y54120D02*
X192600Y55880D01*
X195240D01*
X196560Y54120D01*
Y47080D01*
Y54120D01*
Y52360D02*
X192600D01*
X191280Y50600D01*
Y48840D01*
X192600Y47080D01*
X195240D01*
X196560Y48840D01*
X195240Y47080D01*
X201840D02*
Y55880D01*
Y47080D01*
Y54120D02*
X203160Y55880D01*
X204480Y54120D01*
Y47080D01*
Y54120D01*
X205800Y55880D01*
X207120Y54120D01*
Y47080D01*
Y54120D01*
X212400D02*
X213720Y55880D01*
X216360D01*
X217680Y54120D01*
Y47080D01*
Y54120D01*
Y52360D02*
X213720D01*
X212400Y50600D01*
Y48840D01*
X213720Y47080D01*
X216360D01*
X217680Y48840D01*
X216360Y47080D01*
X222960Y55880D02*
X228240D01*
X222960Y47080D01*
X228240D01*
X222960D01*
X233520Y55880D02*
X234840D01*
Y47080D01*
Y55880D01*
X233520Y47080D02*
X236160D01*
X233520D01*
X234840Y59400D02*
Y57640D01*
Y59400D01*
X244080Y55880D02*
Y47080D01*
Y55880D01*
Y54120D02*
X245400Y55880D01*
X248040D01*
X249360Y54120D01*
Y47080D01*
Y54120D01*
X259920Y48840D02*
X258600Y47080D01*
X255960D01*
X254640Y48840D01*
Y54120D01*
X255960Y55880D01*
X258600D01*
X259920Y54120D01*
Y45320D01*
X258600Y43560D01*
X255960D01*
X254640Y45320D01*
X255960Y43560D01*
X265200Y54120D02*
X266520Y55880D01*
X269160D01*
X270480Y54120D01*
Y47080D01*
Y54120D01*
Y52360D02*
X266520D01*
X265200Y50600D01*
Y48840D01*
X266520Y47080D01*
X269160D01*
X270480Y48840D01*
X269160Y47080D01*
X275760Y55880D02*
Y47080D01*
Y55880D01*
Y54120D02*
X277080Y55880D01*
X279720D01*
X281040Y54120D01*
X279720Y55880D01*
X291600Y54120D02*
X290280Y55880D01*
X287640D01*
X286320Y54120D01*
Y48840D01*
X287640Y47080D01*
X290280D01*
X291600Y48840D01*
X290280Y47080D01*
X296880Y54120D02*
X298200Y55880D01*
X300840D01*
X302160Y54120D01*
Y47080D01*
Y54120D01*
Y52360D02*
X298200D01*
X296880Y50600D01*
Y48840D01*
X298200Y47080D01*
X300840D01*
X302160Y48840D01*
X300840Y47080D01*
X312720Y54120D02*
X311400Y55880D01*
X308760D01*
X307440Y54120D01*
Y48840D01*
X308760Y47080D01*
X311400D01*
X312720Y48840D01*
X311400Y47080D01*
X312720Y59400D02*
Y47080D01*
Y59400D01*
X318000Y55880D02*
X319320D01*
Y47080D01*
Y55880D01*
X318000Y47080D02*
X320640D01*
X318000D01*
X319320Y59400D02*
Y57640D01*
Y59400D01*
X328560Y55880D02*
Y47080D01*
Y55880D01*
Y54120D02*
X329880Y55880D01*
X332520D01*
X333840Y54120D01*
Y47080D01*
Y54120D01*
X344400Y48840D02*
X343080Y47080D01*
X340440D01*
X339120Y48840D01*
Y54120D01*
X340440Y55880D01*
X343080D01*
X344400Y54120D01*
Y45320D01*
X343080Y43560D01*
X340440D01*
X339120Y45320D01*
X340440Y43560D01*
X351000Y47080D02*
X349680D01*
Y48840D01*
X351000D01*
Y47080D01*
Y48840D01*
X365520Y54120D02*
X364200Y55880D01*
X361560D01*
X360240Y54120D01*
Y48840D01*
X361560Y47080D01*
X364200D01*
X365520Y48840D01*
X364200Y47080D01*
X372120D02*
X370800Y48840D01*
Y54120D01*
X372120Y55880D01*
X374760D01*
X376080Y54120D01*
Y48840D01*
X374760Y47080D01*
X372120D01*
X374760D01*
X381360D02*
Y55880D01*
Y47080D01*
Y54120D02*
X382680Y55880D01*
X384000Y54120D01*
Y47080D01*
Y54120D01*
X385320Y55880D01*
X386640Y54120D01*
Y47080D01*
Y54120D01*
X393240Y47080D02*
X391920D01*
Y48840D01*
X393240D01*
Y47080D01*
Y48840D01*
X402480Y54120D02*
X403800Y55880D01*
X406440D01*
X407760Y54120D01*
Y47080D01*
Y54120D01*
Y52360D02*
X403800D01*
X402480Y50600D01*
Y48840D01*
X403800Y47080D01*
X406440D01*
X407760Y48840D01*
X406440Y47080D01*
X413040Y55880D02*
Y48840D01*
X414360Y47080D01*
X417000D01*
X418320Y48840D01*
X417000Y47080D01*
X418320Y55880D02*
Y47080D01*
Y55880D01*
X1081060Y649860D02*
Y663940D01*
X1085020D01*
X1086340Y662180D01*
Y658660D01*
X1085020Y656900D01*
X1081060D01*
X1085020D01*
X1086340Y655140D01*
Y649860D01*
Y655140D01*
X1091620Y660420D02*
Y662180D01*
X1092940Y663940D01*
X1095580D01*
X1096900Y662180D01*
Y658660D01*
X1095580Y656900D01*
X1092940Y655140D01*
X1091620Y653380D01*
Y649860D01*
X1096900D01*
X1091620D01*
X1102180Y660420D02*
X1103500Y663940D01*
Y649860D01*
Y663940D01*
X1102180Y649860D02*
X1104820D01*
X1102180D01*
X1086340Y716900D02*
X1085020Y718660D01*
X1082380D01*
X1081060Y716900D01*
Y706340D01*
X1082380Y704580D01*
X1085020D01*
X1086340Y706340D01*
Y708100D01*
X1083700D01*
X1086340D01*
X1091620Y704580D02*
Y718660D01*
X1095580D01*
X1096900Y716900D01*
Y713380D01*
X1095580Y711620D01*
X1091620D01*
X1095580D01*
X1096900Y709860D01*
Y704580D01*
Y709860D01*
X1107460Y718660D02*
X1102180D01*
Y704580D01*
X1107460D01*
X1102180D01*
Y711620D02*
X1106140D01*
X1102180D01*
X1118020Y718660D02*
X1112740D01*
Y704580D01*
X1118020D01*
X1112740D01*
Y711620D02*
X1116700D01*
X1112740D01*
X1123300Y704580D02*
Y718660D01*
X1128580Y704580D01*
Y718660D01*
Y704580D01*
X1081060Y677220D02*
Y691300D01*
X1085020D01*
X1086340Y689540D01*
Y686020D01*
X1085020Y684260D01*
X1086340Y682500D01*
Y678980D01*
X1085020Y677220D01*
X1081060D01*
X1085020D01*
X1081060Y684260D02*
X1085020D01*
X1081060D01*
X1091620Y691300D02*
X1094260D01*
X1091620D01*
X1092940D02*
Y677220D01*
Y691300D01*
X1091620Y677220D02*
X1094260D01*
X1091620D01*
X1102180D02*
X1104820Y691300D01*
X1107460Y677220D01*
X1104820Y691300D01*
X1103500Y682500D02*
X1106140D01*
X1103500D01*
X1112740Y680740D02*
Y678980D01*
X1114060Y677220D01*
X1116700D01*
X1118020Y678980D01*
Y682500D01*
X1116700Y684260D01*
X1114060D01*
X1112740Y686020D01*
Y689540D01*
X1114060Y691300D01*
X1116700D01*
X1118020Y689540D01*
Y687780D01*
Y689540D01*
X1081060Y819860D02*
Y833940D01*
X1085020D01*
X1086340Y832180D01*
Y828660D01*
X1085020Y826900D01*
X1081060D01*
X1085020D01*
X1086340Y825140D01*
Y819860D01*
Y825140D01*
X1091620Y830420D02*
X1092940Y833940D01*
Y819860D01*
Y833940D01*
X1091620Y819860D02*
X1094260D01*
X1091620D01*
X1103500D02*
X1102180Y821620D01*
Y825140D01*
X1103500Y826900D01*
X1106140D01*
X1103500D01*
X1102180Y828660D01*
Y832180D01*
X1103500Y833940D01*
X1106140D01*
X1107460Y832180D01*
Y828660D01*
X1106140Y826900D01*
X1107460Y825140D01*
Y821620D01*
X1106140Y819860D01*
X1103500D01*
X1106140D01*
X1085020Y847220D02*
X1081060D01*
Y861300D01*
X1085020D01*
X1086340Y859540D01*
Y848980D01*
X1085020Y847220D01*
X1086340Y848980D01*
X1091620Y847220D02*
Y861300D01*
X1095580D01*
X1096900Y859540D01*
Y856020D01*
X1095580Y854260D01*
X1091620D01*
X1095580D01*
X1096900Y852500D01*
Y847220D01*
Y852500D01*
X1102180Y861300D02*
X1104820D01*
X1102180D01*
X1103500D02*
Y847220D01*
Y861300D01*
X1102180Y847220D02*
X1104820D01*
X1102180D01*
X1112740Y861300D02*
X1115380Y847220D01*
X1118020Y861300D01*
X1115380Y847220D01*
X1128580Y861300D02*
X1123300D01*
Y847220D01*
X1128580D01*
X1123300D01*
Y854260D02*
X1127260D01*
X1123300D01*
X1086340Y886900D02*
X1085020Y888660D01*
X1082380D01*
X1081060Y886900D01*
Y876340D01*
X1082380Y874580D01*
X1085020D01*
X1086340Y876340D01*
Y878100D01*
X1083700D01*
X1086340D01*
X1091620Y874580D02*
Y888660D01*
X1095580D01*
X1096900Y886900D01*
Y883380D01*
X1095580Y881620D01*
X1091620D01*
X1095580D01*
X1096900Y879860D01*
Y874580D01*
Y879860D01*
X1107460Y888660D02*
X1102180D01*
Y874580D01*
X1107460D01*
X1102180D01*
Y881620D02*
X1106140D01*
X1102180D01*
X1118020Y888660D02*
X1112740D01*
Y874580D01*
X1118020D01*
X1112740D01*
Y881620D02*
X1116700D01*
X1112740D01*
X1123300Y874580D02*
Y888660D01*
X1128580Y874580D01*
Y888660D01*
Y874580D01*
X688060Y987080D02*
Y1001160D01*
X692020D01*
X693340Y999400D01*
Y995880D01*
X692020Y994120D01*
X688060D01*
X692020D01*
X693340Y992360D01*
Y987080D01*
Y992360D01*
X703900Y1001160D02*
X698620D01*
Y987080D01*
X703900D01*
X698620D01*
Y994120D02*
X702580D01*
X698620D01*
X713140Y987080D02*
X709180D01*
Y1001160D01*
X713140D01*
X714460Y999400D01*
Y988840D01*
X713140Y987080D01*
X714460Y988840D01*
X734260Y987080D02*
X730300D01*
Y1001160D01*
X734260D01*
X735580Y999400D01*
Y988840D01*
X734260Y987080D01*
X735580Y988840D01*
X740860Y987080D02*
Y1001160D01*
X744820D01*
X746140Y999400D01*
Y995880D01*
X744820Y994120D01*
X740860D01*
X744820D01*
X746140Y992360D01*
Y987080D01*
Y992360D01*
X751420Y1001160D02*
X754060D01*
X751420D01*
X752740D02*
Y987080D01*
Y1001160D01*
X751420Y987080D02*
X754060D01*
X751420D01*
X761980Y1001160D02*
X764620Y987080D01*
X767260Y1001160D01*
X764620Y987080D01*
X777820Y1001160D02*
X772540D01*
Y987080D01*
X777820D01*
X772540D01*
Y994120D02*
X776500D01*
X772540D01*
X724450Y967080D02*
Y981160D01*
X728410D01*
X729730Y979400D01*
Y975880D01*
X728410Y974120D01*
X724450D01*
X728410D01*
X729730Y972360D01*
Y967080D01*
Y972360D01*
X736330Y967080D02*
X735010Y968840D01*
Y972360D01*
X736330Y974120D01*
X738970D01*
X736330D01*
X735010Y975880D01*
Y979400D01*
X736330Y981160D01*
X738970D01*
X740290Y979400D01*
Y975880D01*
X738970Y974120D01*
X740290Y972360D01*
Y968840D01*
X738970Y967080D01*
X736330D01*
X738970D01*
X894330D02*
Y981160D01*
X898290D01*
X899610Y979400D01*
Y975880D01*
X898290Y974120D01*
X894330D01*
X898290D01*
X899610Y972360D01*
Y967080D01*
Y972360D01*
X904890Y977640D02*
X906210Y981160D01*
Y967080D01*
Y981160D01*
X904890Y967080D02*
X907530D01*
X904890D01*
X915450Y977640D02*
X916770Y981160D01*
Y967080D01*
Y981160D01*
X915450Y967080D02*
X918090D01*
X915450D01*
X867330Y987080D02*
Y1001160D01*
X871290D01*
X872610Y999400D01*
Y995880D01*
X871290Y994120D01*
X867330D01*
X871290D01*
X872610Y992360D01*
Y987080D01*
Y992360D01*
X883170Y1001160D02*
X877890D01*
Y987080D01*
X883170D01*
X877890D01*
Y994120D02*
X881850D01*
X877890D01*
X892410Y987080D02*
X888450D01*
Y1001160D01*
X892410D01*
X893730Y999400D01*
Y988840D01*
X892410Y987080D01*
X893730Y988840D01*
X909570Y987080D02*
Y1001160D01*
X913530D01*
X914850Y999400D01*
Y995880D01*
X913530Y994120D01*
X914850Y992360D01*
Y988840D01*
X913530Y987080D01*
X909570D01*
X913530D01*
X909570Y994120D02*
X913530D01*
X909570D01*
X920130Y1001160D02*
X922770D01*
X920130D01*
X921450D02*
Y987080D01*
Y1001160D01*
X920130Y987080D02*
X922770D01*
X920130D01*
X930690D02*
X933330Y1001160D01*
X935970Y987080D01*
X933330Y1001160D01*
X932010Y992360D02*
X934650D01*
X932010D01*
X941250Y990600D02*
Y988840D01*
X942570Y987080D01*
X945210D01*
X946530Y988840D01*
Y992360D01*
X945210Y994120D01*
X942570D01*
X941250Y995880D01*
Y999400D01*
X942570Y1001160D01*
X945210D01*
X946530Y999400D01*
Y997640D01*
Y999400D01*
X203560Y924580D02*
Y938660D01*
X207520D01*
X208840Y936900D01*
Y933380D01*
X207520Y931620D01*
X208840Y929860D01*
Y926340D01*
X207520Y924580D01*
X203560D01*
X207520D01*
X203560Y931620D02*
X207520D01*
X203560D01*
X214120Y938660D02*
Y924580D01*
X219400D01*
X214120D01*
X224680Y938660D02*
Y926340D01*
X226000Y924580D01*
X228640D01*
X229960Y926340D01*
Y938660D01*
Y926340D01*
X240520Y938660D02*
X235240D01*
Y924580D01*
X240520D01*
X235240D01*
Y931620D02*
X239200D01*
X235240D01*
X260320Y924580D02*
X256360D01*
Y938660D01*
X260320D01*
X261640Y936900D01*
Y926340D01*
X260320Y924580D01*
X261640Y926340D01*
X266920Y924580D02*
Y938660D01*
X270880D01*
X272200Y936900D01*
Y933380D01*
X270880Y931620D01*
X266920D01*
X270880D01*
X272200Y929860D01*
Y924580D01*
Y929860D01*
X277480Y938660D02*
X280120D01*
X277480D01*
X278800D02*
Y924580D01*
Y938660D01*
X277480Y924580D02*
X280120D01*
X277480D01*
X288040Y938660D02*
X290680Y924580D01*
X293320Y938660D01*
X290680Y924580D01*
X303880Y938660D02*
X298600D01*
Y924580D01*
X303880D01*
X298600D01*
Y931620D02*
X302560D01*
X298600D01*
X409340Y924580D02*
Y938660D01*
X413300D01*
X414620Y936900D01*
Y933380D01*
X413300Y931620D01*
X414620Y929860D01*
Y926340D01*
X413300Y924580D01*
X409340D01*
X413300D01*
X409340Y931620D02*
X413300D01*
X409340D01*
X419900Y938660D02*
Y924580D01*
X425180D01*
X419900D01*
X430460Y938660D02*
Y926340D01*
X431780Y924580D01*
X434420D01*
X435740Y926340D01*
Y938660D01*
Y926340D01*
X446300Y938660D02*
X441020D01*
Y924580D01*
X446300D01*
X441020D01*
Y931620D02*
X444980D01*
X441020D01*
X462140Y924580D02*
Y938660D01*
X466100D01*
X467420Y936900D01*
Y933380D01*
X466100Y931620D01*
X467420Y929860D01*
Y926340D01*
X466100Y924580D01*
X462140D01*
X466100D01*
X462140Y931620D02*
X466100D01*
X462140D01*
X472700Y938660D02*
X475340D01*
X472700D01*
X474020D02*
Y924580D01*
Y938660D01*
X472700Y924580D02*
X475340D01*
X472700D01*
X483260D02*
X485900Y938660D01*
X488540Y924580D01*
X485900Y938660D01*
X484580Y929860D02*
X487220D01*
X484580D01*
X493820Y928100D02*
Y926340D01*
X495140Y924580D01*
X497780D01*
X499100Y926340D01*
Y929860D01*
X497780Y931620D01*
X495140D01*
X493820Y933380D01*
Y936900D01*
X495140Y938660D01*
X497780D01*
X499100Y936900D01*
Y935140D01*
Y936900D01*
X241060Y904580D02*
Y918660D01*
X245020D01*
X246340Y916900D01*
Y913380D01*
X245020Y911620D01*
X241060D01*
X245020D01*
X246340Y909860D01*
Y904580D01*
Y909860D01*
X251620Y915140D02*
Y916900D01*
X252940Y918660D01*
X255580D01*
X256900Y916900D01*
Y913380D01*
X255580Y911620D01*
X252940Y909860D01*
X251620Y908100D01*
Y904580D01*
X256900D01*
X251620D01*
X262180Y918660D02*
X267460D01*
X262180Y904580D01*
X267460Y918660D01*
X441060Y904580D02*
Y918660D01*
X445020D01*
X446340Y916900D01*
Y913380D01*
X445020Y911620D01*
X441060D01*
X445020D01*
X446340Y909860D01*
Y904580D01*
Y909860D01*
X451620Y915140D02*
Y916900D01*
X452940Y918660D01*
X455580D01*
X456900Y916900D01*
Y913380D01*
X455580Y911620D01*
X454260D01*
X455580D01*
X456900Y909860D01*
Y906340D01*
X455580Y904580D01*
X452940D01*
X451620Y906340D01*
Y908100D01*
Y906340D01*
X466140Y904580D02*
X467460Y906340D01*
Y916900D01*
X466140Y918660D01*
X463500D01*
X462180Y916900D01*
Y906340D01*
X463500Y904580D01*
X466140D01*
X463500D01*
G54D45*
X547760Y777900D02*
Y727100D01*
X500540Y689230D02*
X444470Y705760D01*
X627500Y905300D02*
Y867200D01*
X714500Y715000D02*
X778000D01*
G54D44*
X636950Y882080D02*
Y896160D01*
X640910D01*
X642230Y894400D01*
Y890880D01*
X640910Y889120D01*
X636950D01*
X640910D01*
X642230Y887360D01*
Y882080D01*
Y887360D01*
X647510Y892640D02*
X648830Y896160D01*
Y882080D01*
Y896160D01*
X647510Y882080D02*
X650150D01*
X647510D01*
X736060Y724860D02*
Y738940D01*
X740020D01*
X741340Y737180D01*
Y733660D01*
X740020Y731900D01*
X736060D01*
X740020D01*
X741340Y730140D01*
Y724860D01*
Y730140D01*
X751900Y737180D02*
X750580Y738940D01*
X747940D01*
X746620Y737180D01*
Y726620D01*
X747940Y724860D01*
X750580D01*
X751900Y726620D01*
Y731900D01*
X750580Y733660D01*
X747940D01*
X746620Y731900D01*
X747940Y733660D01*
X461060Y712220D02*
Y726300D01*
X465020D01*
X466340Y724540D01*
Y721020D01*
X465020Y719260D01*
X461060D01*
X465020D01*
X466340Y717500D01*
Y712220D01*
Y717500D01*
X471620Y722780D02*
Y724540D01*
X472940Y726300D01*
X475580D01*
X476900Y724540D01*
Y721020D01*
X475580Y719260D01*
X472940Y717500D01*
X471620Y715740D01*
Y712220D01*
X476900D01*
X471620D01*
X487460Y726300D02*
X482180D01*
Y719260D01*
X483500Y721020D01*
X486140D01*
X487460Y719260D01*
Y713980D01*
X486140Y712220D01*
X483500D01*
X482180Y713980D01*
X483500Y712220D01*
G54D45*
X840660Y376460D02*
X869340Y438540D01*
G54D44*
X861650Y399580D02*
Y413660D01*
X865610D01*
X866930Y411900D01*
Y408380D01*
X865610Y406620D01*
X861650D01*
X865610D01*
X866930Y404860D01*
Y399580D01*
Y404860D01*
X872210Y410140D02*
X873530Y413660D01*
Y399580D01*
Y413660D01*
X872210Y399580D02*
X874850D01*
X872210D01*
X888050Y411900D02*
X886730Y413660D01*
X884090D01*
X882770Y411900D01*
Y401340D01*
X884090Y399580D01*
X886730D01*
X888050Y401340D01*
Y406620D01*
X886730Y408380D01*
X884090D01*
X882770Y406620D01*
X884090Y408380D01*
G54D45*
X314110Y707800D02*
Y669700D01*
X354260Y670100D02*
Y663750D01*
Y593900D02*
Y600250D01*
X343010Y662680D02*
Y601520D01*
X365510D01*
Y662680D01*
X342880D01*
G54D44*
X344450Y561160D02*
Y547080D01*
X349730D01*
X344450D01*
X355010Y557640D02*
Y559400D01*
X356330Y561160D01*
X358970D01*
X360290Y559400D01*
Y555880D01*
X358970Y554120D01*
X357650D01*
X358970D01*
X360290Y552360D01*
Y548840D01*
X358970Y547080D01*
X356330D01*
X355010Y548840D01*
Y550600D01*
Y548840D01*
X788560Y496160D02*
Y482080D01*
X793840D01*
X788560D01*
X799120Y492640D02*
Y494400D01*
X800440Y496160D01*
X803080D01*
X804400Y494400D01*
Y490880D01*
X803080Y489120D01*
X800440Y487360D01*
X799120Y485600D01*
Y482080D01*
X804400D01*
X799120D01*
G54D45*
X798370Y605100D02*
Y598750D01*
Y528900D02*
Y535250D01*
X787120Y597680D02*
Y536520D01*
X809620D01*
Y597680D01*
X786990D01*
G54D44*
X838060Y548940D02*
Y534860D01*
X843340D01*
X838060D01*
X848620Y545420D02*
X849940Y548940D01*
Y534860D01*
Y548940D01*
X848620Y534860D02*
X851260D01*
X848620D01*
G54D45*
X846760Y657880D02*
Y651530D01*
Y581680D02*
Y588030D01*
X835510Y650460D02*
Y589300D01*
X858010D01*
Y650460D01*
X835380D01*
G54D46*
X960630Y433460D02*
X960430Y433190D01*
X960250Y432920D01*
X960070Y432630D01*
X959900Y432340D01*
X959740Y432050D01*
X959580Y431750D01*
X959440Y431440D01*
X959310Y431130D01*
X959190Y430810D01*
X959080Y430490D01*
X958980Y430160D01*
X958890Y429830D01*
X958810Y429500D01*
X958740Y429170D01*
X958680Y428830D01*
X958640Y428490D01*
X958600Y428150D01*
X958580Y427810D01*
X958560Y427460D01*
Y427120D01*
X958570Y426780D01*
X958590Y426430D01*
X958620Y426090D01*
X958660Y425750D01*
X958710Y425410D01*
X958770Y425080D01*
X958850Y424740D01*
X958930Y424410D01*
X959030Y424080D01*
X959130Y423760D01*
X959250Y423440D01*
X959380Y423130D01*
X959510Y422820D01*
X959660Y422510D01*
X959820Y422210D01*
X959980Y421920D01*
X960160Y421630D01*
X960340Y421350D01*
X960530Y421080D01*
X960730Y420820D01*
X960940Y420560D01*
X961160Y420310D01*
X961390Y420070D01*
X961620Y419840D01*
X961860Y419620D01*
X962110Y419400D01*
X962360Y419200D01*
X962620Y419000D01*
X962890Y418820D01*
X963160Y418650D01*
X963440Y418480D01*
X963730Y418330D01*
X964010Y418190D01*
X964310Y418050D01*
X964600Y417930D01*
X964900Y417830D01*
X965210Y417730D01*
X965510Y417640D01*
X965820Y417570D01*
X966130Y417500D01*
X966450Y417450D01*
X966760Y417420D01*
X967080Y417390D01*
X967390Y417370D01*
X967710D01*
X968030Y417380D01*
X968340Y417400D01*
X968660Y417430D01*
X968970Y417480D01*
X969280Y417530D01*
X969590Y417600D01*
X969900Y417680D01*
X970210Y417780D01*
X970510Y417880D01*
X970810Y417990D01*
X971100Y418120D01*
X971390Y418260D01*
X971680Y418400D01*
X971960Y418560D01*
X972230Y418730D01*
X972500Y418910D01*
X972770Y419100D01*
X973030Y419300D01*
X973280Y419510D01*
X973520Y419730D01*
X973760Y419950D01*
X973990Y420190D01*
X974210Y420440D01*
X974420Y420690D01*
X974630Y420950D01*
X974830Y421220D01*
X975010Y421490D01*
X975190Y421780D01*
X975360Y422070D01*
X975520Y422360D01*
X975680Y422660D01*
X975820Y422970D01*
X975950Y423280D01*
X976070Y423600D01*
X976180Y423920D01*
X976280Y424250D01*
X976370Y424580D01*
X976450Y424910D01*
X976520Y425240D01*
X976580Y425580D01*
X976620Y425920D01*
X976660Y426260D01*
X976680Y426600D01*
X976700Y426950D01*
Y427290D01*
X976690Y427630D01*
X976670Y427980D01*
X976640Y428320D01*
X976600Y428660D01*
X976550Y429000D01*
X976490Y429330D01*
X976410Y429670D01*
X976330Y430000D01*
X976230Y430330D01*
X976130Y430650D01*
X976010Y430970D01*
X975880Y431280D01*
X975750Y431590D01*
X975600Y431900D01*
X975440Y432200D01*
X975280Y432490D01*
X975100Y432780D01*
X974920Y433060D01*
X974730Y433330D01*
X974530Y433590D01*
X974460Y433670D01*
G54D50*
X967230Y433740D03*
G54D44*
X999420Y449420D02*
X994140D01*
Y435340D01*
X999420D01*
X994140D01*
Y442380D02*
X998100D01*
X994140D01*
X942310Y445900D02*
Y447660D01*
X940990Y449420D01*
X938350D01*
X937030Y447660D01*
Y437100D01*
X938350Y435340D01*
X940990D01*
X942310Y437100D01*
Y438860D01*
Y437100D01*
G54D45*
X1035380Y494350D02*
X1029030D01*
X959180D02*
X965530D01*
X1027960Y505600D02*
X966800D01*
Y483100D01*
X1027960D01*
Y505730D01*
G54D44*
X981430Y512310D02*
Y526390D01*
X985390D01*
X986710Y524630D01*
Y521110D01*
X985390Y519350D01*
X981430D01*
X985390D01*
X986710Y517590D01*
Y512310D01*
Y517590D01*
X991990Y522870D02*
X993310Y526390D01*
Y512310D01*
Y526390D01*
X991990Y512310D02*
X994630D01*
X991990D01*
X1002550Y522870D02*
Y524630D01*
X1003870Y526390D01*
X1006510D01*
X1007830Y524630D01*
Y521110D01*
X1006510Y519350D01*
X1005190D01*
X1006510D01*
X1007830Y517590D01*
Y514070D01*
X1006510Y512310D01*
X1003870D01*
X1002550Y514070D01*
Y515830D01*
Y514070D01*
G54D45*
X921540Y690100D02*
Y683750D01*
Y613900D02*
Y620250D01*
X910290Y682680D02*
Y621520D01*
X932790D01*
Y682680D01*
X910160D01*
G54D44*
X906650Y724860D02*
Y738940D01*
X910610D01*
X911930Y737180D01*
Y733660D01*
X910610Y731900D01*
X906650D01*
X910610D01*
X911930Y730140D01*
Y724860D01*
Y730140D01*
X917210Y735420D02*
X918530Y738940D01*
Y724860D01*
Y738940D01*
X917210Y724860D02*
X919850D01*
X917210D01*
X927770Y738940D02*
X933050D01*
X927770Y724860D01*
X933050Y738940D01*
G54D45*
X951540Y625100D02*
Y618750D01*
Y548900D02*
Y555250D01*
X940290Y617680D02*
Y556520D01*
X962790D01*
Y617680D01*
X940160D01*
G54D44*
X967240Y582360D02*
Y596440D01*
X971200D01*
X972520Y594680D01*
Y591160D01*
X971200Y589400D01*
X967240D01*
X971200D01*
X972520Y587640D01*
Y582360D01*
Y587640D01*
X977800Y592920D02*
X979120Y596440D01*
Y582360D01*
Y596440D01*
X977800Y582360D02*
X980440D01*
X977800D01*
X988360Y584120D02*
X989680Y582360D01*
X992320D01*
X993640Y584120D01*
Y594680D01*
X992320Y596440D01*
X989680D01*
X988360Y594680D01*
Y589400D01*
X989680Y587640D01*
X992320D01*
X993640Y589400D01*
X992320Y587640D01*
G54D45*
X909480Y499990D02*
X936520Y472010D01*
G54D44*
X886060Y474580D02*
Y488660D01*
X890020D01*
X891340Y486900D01*
Y483380D01*
X890020Y481620D01*
X886060D01*
X890020D01*
X891340Y479860D01*
Y474580D01*
Y479860D01*
X896620Y485140D02*
X897940Y488660D01*
Y474580D01*
Y488660D01*
X896620Y474580D02*
X899260D01*
X896620D01*
X907180Y485140D02*
Y486900D01*
X908500Y488660D01*
X911140D01*
X912460Y486900D01*
Y483380D01*
X911140Y481620D01*
X908500Y479860D01*
X907180Y478100D01*
Y474580D01*
X912460D01*
X907180D01*
G54D45*
X810320Y178750D02*
X871480D01*
Y201250D01*
X810320D01*
Y178620D01*
X785200Y189930D02*
X809250Y190000D01*
X898430Y189930D02*
X872750Y190000D01*
G54D44*
X825150Y207830D02*
Y221910D01*
X829110D01*
X830430Y220150D01*
Y216630D01*
X829110Y214870D01*
X825150D01*
X829110D01*
X830430Y213110D01*
Y207830D01*
Y213110D01*
X835710Y218390D02*
Y220150D01*
X837030Y221910D01*
X839670D01*
X840990Y220150D01*
Y216630D01*
X839670Y214870D01*
X838350D01*
X839670D01*
X840990Y213110D01*
Y209590D01*
X839670Y207830D01*
X837030D01*
X835710Y209590D01*
Y211350D01*
Y209590D01*
X846270Y218390D02*
Y220150D01*
X847590Y221910D01*
X850230D01*
X851550Y220150D01*
Y216630D01*
X850230Y214870D01*
X847590Y213110D01*
X846270Y211350D01*
Y207830D01*
X851550D01*
X846270D01*
X807240Y72360D02*
Y86440D01*
X811200D01*
X812520Y84680D01*
Y81160D01*
X811200Y79400D01*
X807240D01*
X811200D01*
X812520Y77640D01*
Y72360D01*
Y77640D01*
X817800Y82920D02*
Y84680D01*
X819120Y86440D01*
X821760D01*
X823080Y84680D01*
Y81160D01*
X821760Y79400D01*
X820440D01*
X821760D01*
X823080Y77640D01*
Y74120D01*
X821760Y72360D01*
X819120D01*
X817800Y74120D01*
Y75880D01*
Y74120D01*
X828360Y82920D02*
X829680Y86440D01*
Y72360D01*
Y86440D01*
X828360Y72360D02*
X831000D01*
X828360D01*
X871060Y19580D02*
Y33660D01*
X875020D01*
X876340Y31900D01*
Y28380D01*
X875020Y26620D01*
X876340Y24860D01*
Y21340D01*
X875020Y19580D01*
X871060D01*
X875020D01*
X871060Y26620D02*
X875020D01*
X871060D01*
X881620Y19580D02*
Y33660D01*
X885580D01*
X886900Y31900D01*
Y28380D01*
X885580Y26620D01*
X881620D01*
X885580D01*
X886900Y24860D01*
Y19580D01*
Y24860D01*
X892180Y33660D02*
X894820D01*
X892180D01*
X893500D02*
Y19580D01*
Y33660D01*
X892180Y19580D02*
X894820D01*
X892180D01*
X908020Y31900D02*
X906700Y33660D01*
X904060D01*
X902740Y31900D01*
Y21340D01*
X904060Y19580D01*
X906700D01*
X908020Y21340D01*
Y23100D01*
X905380D01*
X908020D01*
X913300Y33660D02*
Y19580D01*
Y33660D01*
X918580D02*
Y19580D01*
Y33660D01*
X913300Y26620D02*
X918580D01*
X913300D01*
X923860Y33660D02*
X929140D01*
X923860D01*
X926500D02*
Y19580D01*
Y33660D01*
X934420Y19580D02*
Y33660D01*
X939700Y19580D01*
Y33660D01*
Y19580D01*
X950260Y33660D02*
X944980D01*
Y19580D01*
X950260D01*
X944980D01*
Y26620D02*
X948940D01*
X944980D01*
X955540Y23100D02*
Y21340D01*
X956860Y19580D01*
X959500D01*
X960820Y21340D01*
Y24860D01*
X959500Y26620D01*
X956860D01*
X955540Y28380D01*
Y31900D01*
X956860Y33660D01*
X959500D01*
X960820Y31900D01*
Y30140D01*
Y31900D01*
X966100Y23100D02*
Y21340D01*
X967420Y19580D01*
X970060D01*
X971380Y21340D01*
Y24860D01*
X970060Y26620D01*
X967420D01*
X966100Y28380D01*
Y31900D01*
X967420Y33660D01*
X970060D01*
X971380Y31900D01*
Y30140D01*
Y31900D01*
X718840Y171440D02*
Y159120D01*
X717520Y157360D01*
X714880D01*
X713560Y159120D01*
Y160880D01*
Y159120D01*
X724120D02*
X725440Y157360D01*
X728080D01*
X729400Y159120D01*
Y169680D01*
X728080Y171440D01*
X725440D01*
X724120Y169680D01*
Y164400D01*
X725440Y162640D01*
X728080D01*
X729400Y164400D01*
X728080Y162640D01*
X388060Y667360D02*
Y681440D01*
X392020D01*
X393340Y679680D01*
Y676160D01*
X392020Y674400D01*
X388060D01*
X392020D01*
X393340Y672640D01*
Y667360D01*
Y672640D01*
X398620Y677920D02*
Y679680D01*
X399940Y681440D01*
X402580D01*
X403900Y679680D01*
Y676160D01*
X402580Y674400D01*
X399940Y672640D01*
X398620Y670880D01*
Y667360D01*
X403900D01*
X398620D01*
X409180Y669120D02*
X410500Y667360D01*
X413140D01*
X414460Y669120D01*
Y679680D01*
X413140Y681440D01*
X410500D01*
X409180Y679680D01*
Y674400D01*
X410500Y672640D01*
X413140D01*
X414460Y674400D01*
X413140Y672640D01*
G54D45*
X400000Y637900D02*
Y587100D01*
G54D44*
X222240Y647220D02*
Y661300D01*
X226200D01*
X227520Y659540D01*
Y656020D01*
X226200Y654260D01*
X222240D01*
X226200D01*
X227520Y652500D01*
Y647220D01*
Y652500D01*
X232800Y657780D02*
Y659540D01*
X234120Y661300D01*
X236760D01*
X238080Y659540D01*
Y656020D01*
X236760Y654260D01*
X234120Y652500D01*
X232800Y650740D01*
Y647220D01*
X238080D01*
X232800D01*
X247320D02*
Y661300D01*
X243360Y650740D01*
X248640D01*
X243360D01*
G54D45*
X217130Y635570D02*
X255230D01*
X190950Y685430D02*
X229050D01*
G54D44*
X196060Y697080D02*
Y711160D01*
X200020D01*
X201340Y709400D01*
Y705880D01*
X200020Y704120D01*
X196060D01*
X200020D01*
X201340Y702360D01*
Y697080D01*
Y702360D01*
X206620Y707640D02*
Y709400D01*
X207940Y711160D01*
X210580D01*
X211900Y709400D01*
Y705880D01*
X210580Y704120D01*
X207940Y702360D01*
X206620Y700600D01*
Y697080D01*
X211900D01*
X206620D01*
X217180Y707640D02*
Y709400D01*
X218500Y711160D01*
X221140D01*
X222460Y709400D01*
Y705880D01*
X221140Y704120D01*
X219820D01*
X221140D01*
X222460Y702360D01*
Y698840D01*
X221140Y697080D01*
X218500D01*
X217180Y698840D01*
Y700600D01*
Y698840D01*
X194740Y739860D02*
Y753940D01*
X198700D01*
X200020Y752180D01*
Y748660D01*
X198700Y746900D01*
X194740D01*
X198700D01*
X200020Y745140D01*
Y739860D01*
Y745140D01*
X205300Y750420D02*
X206620Y753940D01*
Y739860D01*
Y753940D01*
X205300Y739860D02*
X207940D01*
X205300D01*
X221140Y753940D02*
X215860D01*
Y746900D01*
X217180Y748660D01*
X219820D01*
X221140Y746900D01*
Y741620D01*
X219820Y739860D01*
X217180D01*
X215860Y741620D01*
X217180Y739860D01*
X296060Y632080D02*
Y646160D01*
X300020D01*
X301340Y644400D01*
Y640880D01*
X300020Y639120D01*
X296060D01*
X300020D01*
X301340Y637360D01*
Y632080D01*
Y637360D01*
X306620Y642640D02*
Y644400D01*
X307940Y646160D01*
X310580D01*
X311900Y644400D01*
Y640880D01*
X310580Y639120D01*
X307940Y637360D01*
X306620Y635600D01*
Y632080D01*
X311900D01*
X306620D01*
X317180Y642640D02*
Y644400D01*
X318500Y646160D01*
X321140D01*
X322460Y644400D01*
Y640880D01*
X321140Y639120D01*
X318500Y637360D01*
X317180Y635600D01*
Y632080D01*
X322460D01*
X317180D01*
X221060Y762080D02*
Y776160D01*
X225020D01*
X226340Y774400D01*
Y770880D01*
X225020Y769120D01*
X221060D01*
X225020D01*
X226340Y767360D01*
Y762080D01*
Y767360D01*
X231620Y772640D02*
Y774400D01*
X232940Y776160D01*
X235580D01*
X236900Y774400D01*
Y770880D01*
X235580Y769120D01*
X232940Y767360D01*
X231620Y765600D01*
Y762080D01*
X236900D01*
X231620D01*
X247460Y774400D02*
X246140Y776160D01*
X243500D01*
X242180Y774400D01*
Y763840D01*
X243500Y762080D01*
X246140D01*
X247460Y763840D01*
Y769120D01*
X246140Y770880D01*
X243500D01*
X242180Y769120D01*
X243500Y770880D01*
G54D51*
X992330Y361280D03*
Y368300D03*
G54D52*
Y374060D03*
X992150Y355940D03*
G54D44*
X988840Y317920D02*
Y319680D01*
X987520Y321440D01*
X984880D01*
X983560Y319680D01*
Y309120D01*
X984880Y307360D01*
X987520D01*
X988840Y309120D01*
Y310880D01*
Y309120D01*
X994120Y317920D02*
Y319680D01*
X995440Y321440D01*
X998080D01*
X999400Y319680D01*
Y316160D01*
X998080Y314400D01*
X995440Y312640D01*
X994120Y310880D01*
Y307360D01*
X999400D01*
X994120D01*
X252340Y709140D02*
Y710900D01*
X251020Y712660D01*
X248380D01*
X247060Y710900D01*
Y700340D01*
X248380Y698580D01*
X251020D01*
X252340Y700340D01*
Y702100D01*
Y700340D01*
X257620Y709140D02*
Y710900D01*
X258940Y712660D01*
X261580D01*
X262900Y710900D01*
Y707380D01*
X261580Y705620D01*
X260260D01*
X261580D01*
X262900Y703860D01*
Y700340D01*
X261580Y698580D01*
X258940D01*
X257620Y700340D01*
Y702100D01*
Y700340D01*
G54D51*
X277330Y696280D03*
Y703300D03*
G54D52*
Y709060D03*
X277150Y690940D03*
G54D53*
X897720Y785610D03*
X890700D03*
G54D54*
X884940D03*
X903060Y785430D03*
G54D44*
X890620Y767920D02*
Y769680D01*
X889300Y771440D01*
X886660D01*
X885340Y769680D01*
Y759120D01*
X886660Y757360D01*
X889300D01*
X890620Y759120D01*
Y760880D01*
Y759120D01*
X895900Y767920D02*
X897220Y771440D01*
Y757360D01*
Y771440D01*
X895900Y757360D02*
X898540D01*
X895900D01*
G54D45*
X955290Y850300D02*
Y812200D01*
G54D44*
X962840Y824860D02*
Y838940D01*
X966800D01*
X968120Y837180D01*
Y833660D01*
X966800Y831900D01*
X962840D01*
X966800D01*
X968120Y830140D01*
Y824860D01*
Y830140D01*
X977360Y824860D02*
Y838940D01*
X973400Y828380D01*
X978680D01*
X973400D01*
G54D45*
X898100Y825000D02*
X891750D01*
X821900D02*
X828250D01*
X890680Y836250D02*
X829520D01*
Y813750D01*
X890680D01*
Y836380D01*
G54D44*
X815340Y867360D02*
Y881440D01*
X819300D01*
X820620Y879680D01*
Y876160D01*
X819300Y874400D01*
X815340D01*
X819300D01*
X820620Y872640D01*
Y867360D01*
Y872640D01*
X825900Y881440D02*
X831180D01*
X825900Y867360D01*
X831180Y881440D01*
G54D45*
X829880Y850280D02*
X823530D01*
X753680D02*
X760030D01*
X822460Y861530D02*
X761300D01*
Y839030D01*
X822460D01*
Y861660D01*
X685600Y817500D02*
X679250D01*
X609400D02*
X615750D01*
X678180Y828750D02*
X617020D01*
Y806250D01*
X678180D01*
Y828880D01*
G54D44*
X652840Y834580D02*
Y848660D01*
X656800D01*
X658120Y846900D01*
Y843380D01*
X656800Y841620D01*
X652840D01*
X656800D01*
X658120Y839860D01*
Y834580D01*
Y839860D01*
X663400Y845140D02*
Y846900D01*
X664720Y848660D01*
X667360D01*
X668680Y846900D01*
Y843380D01*
X667360Y841620D01*
X666040D01*
X667360D01*
X668680Y839860D01*
Y836340D01*
X667360Y834580D01*
X664720D01*
X663400Y836340D01*
Y838100D01*
Y836340D01*
G54D46*
X726160Y788460D02*
X725960Y788190D01*
X725780Y787920D01*
X725600Y787630D01*
X725430Y787340D01*
X725270Y787050D01*
X725110Y786750D01*
X724970Y786440D01*
X724840Y786130D01*
X724720Y785810D01*
X724610Y785490D01*
X724510Y785160D01*
X724420Y784830D01*
X724340Y784500D01*
X724270Y784170D01*
X724210Y783830D01*
X724170Y783490D01*
X724130Y783150D01*
X724110Y782810D01*
X724090Y782460D01*
Y782120D01*
X724100Y781780D01*
X724120Y781430D01*
X724150Y781090D01*
X724190Y780750D01*
X724240Y780410D01*
X724300Y780080D01*
X724380Y779740D01*
X724460Y779410D01*
X724560Y779080D01*
X724660Y778760D01*
X724780Y778440D01*
X724910Y778130D01*
X725040Y777820D01*
X725190Y777510D01*
X725350Y777210D01*
X725510Y776920D01*
X725690Y776630D01*
X725870Y776350D01*
X726060Y776080D01*
X726260Y775820D01*
X726470Y775560D01*
X726690Y775310D01*
X726920Y775070D01*
X727150Y774840D01*
X727390Y774620D01*
X727640Y774400D01*
X727890Y774200D01*
X728150Y774000D01*
X728420Y773820D01*
X728690Y773650D01*
X728970Y773480D01*
X729260Y773330D01*
X729540Y773190D01*
X729840Y773050D01*
X730130Y772930D01*
X730430Y772830D01*
X730740Y772730D01*
X731040Y772640D01*
X731350Y772570D01*
X731660Y772500D01*
X731980Y772450D01*
X732290Y772420D01*
X732610Y772390D01*
X732920Y772370D01*
X733240D01*
X733560Y772380D01*
X733870Y772400D01*
X734190Y772430D01*
X734500Y772480D01*
X734810Y772530D01*
X735120Y772600D01*
X735430Y772680D01*
X735740Y772780D01*
X736040Y772880D01*
X736340Y772990D01*
X736630Y773120D01*
X736920Y773260D01*
X737210Y773400D01*
X737490Y773560D01*
X737760Y773730D01*
X738030Y773910D01*
X738300Y774100D01*
X738560Y774300D01*
X738810Y774510D01*
X739050Y774730D01*
X739290Y774950D01*
X739520Y775190D01*
X739740Y775440D01*
X739950Y775690D01*
X740160Y775950D01*
X740360Y776220D01*
X740540Y776490D01*
X740720Y776780D01*
X740890Y777070D01*
X741050Y777360D01*
X741210Y777660D01*
X741350Y777970D01*
X741480Y778280D01*
X741600Y778600D01*
X741710Y778920D01*
X741810Y779250D01*
X741900Y779580D01*
X741980Y779910D01*
X742050Y780240D01*
X742110Y780580D01*
X742150Y780920D01*
X742190Y781260D01*
X742210Y781600D01*
X742230Y781950D01*
Y782290D01*
X742220Y782630D01*
X742200Y782980D01*
X742170Y783320D01*
X742130Y783660D01*
X742080Y784000D01*
X742020Y784330D01*
X741940Y784670D01*
X741860Y785000D01*
X741760Y785330D01*
X741660Y785650D01*
X741540Y785970D01*
X741410Y786280D01*
X741280Y786590D01*
X741130Y786900D01*
X740970Y787200D01*
X740810Y787490D01*
X740630Y787780D01*
X740450Y788060D01*
X740260Y788330D01*
X740060Y788590D01*
X739990Y788670D01*
G54D50*
X732760Y788740D03*
G54D44*
X765030Y766440D02*
X759750D01*
Y752360D01*
X765030D01*
X759750D01*
Y759400D02*
X763710D01*
X759750D01*
X704550Y762920D02*
Y764680D01*
X703230Y766440D01*
X700590D01*
X699270Y764680D01*
Y754120D01*
X700590Y752360D01*
X703230D01*
X704550Y754120D01*
Y755880D01*
Y754120D01*
X831060Y794860D02*
Y808940D01*
X835020D01*
X836340Y807180D01*
Y803660D01*
X835020Y801900D01*
X831060D01*
X835020D01*
X836340Y800140D01*
Y794860D01*
Y800140D01*
X841620Y796620D02*
X842940Y794860D01*
X845580D01*
X846900Y796620D01*
Y807180D01*
X845580Y808940D01*
X842940D01*
X841620Y807180D01*
Y801900D01*
X842940Y800140D01*
X845580D01*
X846900Y801900D01*
X845580Y800140D01*
G54D45*
X729180Y670400D02*
Y619600D01*
G54D44*
X743560Y649580D02*
Y663660D01*
X747520D01*
X748840Y661900D01*
Y658380D01*
X747520Y656620D01*
X743560D01*
X747520D01*
X748840Y654860D01*
Y649580D01*
Y654860D01*
X754120Y660140D02*
X755440Y663660D01*
Y649580D01*
Y663660D01*
X754120Y649580D02*
X756760D01*
X754120D01*
X768640D02*
X769960Y651340D01*
Y661900D01*
X768640Y663660D01*
X766000D01*
X764680Y661900D01*
Y651340D01*
X766000Y649580D01*
X768640D01*
X766000D01*
X806060Y412080D02*
Y426160D01*
X810020D01*
X811340Y424400D01*
Y420880D01*
X810020Y419120D01*
X806060D01*
X810020D01*
X811340Y417360D01*
Y412080D01*
Y417360D01*
X816620Y422640D02*
Y424400D01*
X817940Y426160D01*
X820580D01*
X821900Y424400D01*
Y420880D01*
X820580Y419120D01*
X817940Y417360D01*
X816620Y415600D01*
Y412080D01*
X821900D01*
X816620D01*
X831140D02*
X832460Y413840D01*
Y424400D01*
X831140Y426160D01*
X828500D01*
X827180Y424400D01*
Y413840D01*
X828500Y412080D01*
X831140D01*
X828500D01*
G54D45*
X900060Y314900D02*
X862480D01*
G54D53*
X855980Y314530D03*
X862000D03*
G54D45*
X824230Y314690D02*
X855600Y314760D01*
G54D44*
X774730Y320420D02*
Y322180D01*
X773410Y323940D01*
X770770D01*
X769450Y322180D01*
Y311620D01*
X770770Y309860D01*
X773410D01*
X774730Y311620D01*
Y313380D01*
Y311620D01*
X785290Y323940D02*
X780010D01*
Y316900D01*
X781330Y318660D01*
X783970D01*
X785290Y316900D01*
Y311620D01*
X783970Y309860D01*
X781330D01*
X780010Y311620D01*
X781330Y309860D01*
G54D53*
X845860Y259730D03*
X851880D03*
G54D45*
X845530D02*
X837350D01*
X860370D02*
X852190D01*
G54D44*
X907230Y262920D02*
Y264680D01*
X905910Y266440D01*
X903270D01*
X901950Y264680D01*
Y254120D01*
X903270Y252360D01*
X905910D01*
X907230Y254120D01*
Y255880D01*
Y254120D01*
X917790Y264680D02*
X916470Y266440D01*
X913830D01*
X912510Y264680D01*
Y254120D01*
X913830Y252360D01*
X916470D01*
X917790Y254120D01*
Y259400D01*
X916470Y261160D01*
X913830D01*
X912510Y259400D01*
X913830Y261160D01*
X1092060Y479860D02*
Y493940D01*
X1096020D01*
X1097340Y492180D01*
Y488660D01*
X1096020Y486900D01*
X1092060D01*
X1096020D01*
X1097340Y485140D01*
Y479860D01*
Y485140D01*
X1107900Y493940D02*
X1102620D01*
Y486900D01*
X1103940Y488660D01*
X1106580D01*
X1107900Y486900D01*
Y481620D01*
X1106580Y479860D01*
X1103940D01*
X1102620Y481620D01*
X1103940Y479860D01*
G54D45*
X1089700Y511380D02*
X1080300Y473620D01*
G54D55*
X606000Y253030D02*
X612610Y254240D01*
X619170Y255680D01*
X625680Y257350D01*
X632130Y259250D01*
X638500Y261370D01*
X644800Y263720D01*
X651010Y266280D01*
X657130Y269060D01*
X663150Y272040D01*
X669060Y275240D01*
X674850Y278640D01*
X680530Y282240D01*
X686070Y286030D01*
X691480Y290020D01*
X696750Y294190D01*
X701860Y298550D01*
X706820Y303070D01*
X711620Y307780D01*
X716260Y312650D01*
X720720Y317670D01*
X725010Y322850D01*
X729110Y328170D01*
X733020Y333640D01*
X736730Y339240D01*
X740250Y344950D01*
X743570Y350790D01*
X746680Y356760D01*
X749590Y362810D01*
X752280Y368960D01*
X754750Y375210D01*
X757000Y381550D01*
X759040Y387950D01*
X760840Y394420D01*
X762430Y400950D01*
X763770Y407540D01*
X764900Y414160D01*
X765780Y420820D01*
X766450Y427500D01*
X766860Y434210D01*
X767050Y440930D01*
X767000Y447650D01*
X766720Y454360D01*
X766210Y461060D01*
X765460Y467740D01*
X764470Y474380D01*
X763260Y480990D01*
X761820Y487550D01*
X760150Y494060D01*
X758260Y500510D01*
X756130Y506880D01*
X753780Y513180D01*
X751230Y519400D01*
X748450Y525510D01*
X745460Y531540D01*
X742270Y537450D01*
X738870Y543240D01*
X735270Y548910D01*
X731480Y554450D01*
X727480Y559860D01*
X723320Y565130D01*
X718960Y570240D01*
X714430Y575210D01*
X709720Y580010D01*
X704860Y584650D01*
X699840Y589100D01*
X694660Y593390D01*
X689340Y597490D01*
X683870Y601400D01*
X678270Y605110D01*
X672550Y608630D01*
X666710Y611960D01*
X660750Y615070D01*
X654690Y617980D01*
X648540Y620660D01*
X642290Y623140D01*
X635960Y625390D01*
X629560Y627420D01*
X623080Y629220D01*
X616550Y630810D01*
X609970Y632160D01*
X603350Y633280D01*
X596680Y634160D01*
X590000Y634830D01*
X583290Y635250D01*
X576570Y635430D01*
X569860Y635390D01*
X563140Y635100D01*
X556450Y634590D01*
X549760Y633840D01*
X543120Y632860D01*
X536510Y631650D01*
X529950Y630210D01*
X523440Y628540D01*
X516990Y626640D01*
X510620Y624520D01*
X504320Y622170D01*
X498110Y619610D01*
X491990Y616830D01*
X485970Y613850D01*
X480060Y610650D01*
X474270Y607250D01*
X468590Y603650D01*
X463050Y599860D01*
X457640Y595870D01*
X452370Y591700D01*
X447260Y587340D01*
X442300Y582810D01*
X437500Y578100D01*
X432860Y573240D01*
X428400Y568220D01*
X424120Y563040D01*
X420020Y557720D01*
X416100Y552250D01*
X412390Y546650D01*
X408870Y540940D01*
X405550Y535100D01*
X402440Y529130D01*
X399530Y523070D01*
X396840Y516930D01*
X394370Y510680D01*
X392120Y504340D01*
X390080Y497940D01*
X388280Y491460D01*
X386700Y484940D01*
X385350Y478350D01*
X384230Y471730D01*
X383340Y465060D01*
X382680Y458390D01*
X382260Y451680D01*
X382070Y444960D01*
X382120Y438240D01*
X382400Y431530D01*
X382880Y425160D01*
G54D56*
X494180Y339610D03*
G54D57*
X369460Y178880D03*
G54D55*
X607430Y252800D02*
X481420Y91410D01*
X383850Y425790D02*
X257210Y265970D01*
G54D44*
X493300Y553800D02*
X494740Y557270D01*
X494250Y543200D01*
X494740Y557270D01*
X492930Y543240D02*
X495570Y543150D01*
X492930Y543240D01*
X503850Y553440D02*
X505290Y556910D01*
X504800Y542840D01*
X505290Y556910D01*
X503480Y542880D02*
X506120Y542790D01*
X503480Y542880D01*
X440430Y491260D02*
X441870Y494730D01*
X441380Y480660D01*
X441870Y494730D01*
X440060Y480700D02*
X442700Y480610D01*
X440060Y480700D01*
X450980Y490900D02*
X451040Y492660D01*
X452420Y494370D01*
X455060Y494280D01*
X456310Y492470D01*
X456190Y488950D01*
X454810Y487240D01*
X452110Y485570D01*
X450730Y483860D01*
X450610Y480340D01*
X455880Y480160D01*
X450610Y480340D01*
X535010Y577970D02*
X536450Y581440D01*
X535960Y567370D01*
X536450Y581440D01*
X534640Y567410D02*
X537280Y567320D01*
X534640Y567410D01*
X549150Y566910D02*
X550530Y568630D01*
X550890Y579180D01*
X549640Y580990D01*
X547000Y581080D01*
X545620Y579370D01*
X545250Y568810D01*
X546510Y567010D01*
X549150Y566910D01*
X546510Y567010D01*
X607400Y568530D02*
X608660Y566730D01*
X611300Y566630D01*
X612680Y568350D01*
X613040Y578900D01*
X611790Y580710D01*
X609150Y580800D01*
X607770Y579090D01*
X607580Y573810D01*
X608840Y572000D01*
X611480Y571910D01*
X612860Y573620D01*
X611480Y571910D01*
X656260Y540740D02*
X655000Y542540D01*
X655120Y546060D01*
X656500Y547770D01*
X659140Y547680D01*
X656500Y547770D01*
X655240Y549580D01*
X655370Y553100D01*
X656750Y554810D01*
X659390Y554720D01*
X660640Y552910D01*
X660520Y549390D01*
X659140Y547680D01*
X660400Y545880D01*
X660280Y542360D01*
X658900Y540640D01*
X656260Y540740D01*
X658900Y540640D01*
X693960Y509820D02*
X699240Y509640D01*
X693470Y495750D01*
X699240Y509640D01*
X712060Y451380D02*
X710810Y453190D01*
X708170Y453280D01*
X706790Y451570D01*
X706420Y441010D01*
X707680Y439210D01*
X710320Y439110D01*
X711700Y440830D01*
X711880Y446100D01*
X710620Y447910D01*
X707980Y448000D01*
X706600Y446290D01*
X707980Y448000D01*
X694170Y380030D02*
X688890Y380210D01*
X688640Y373180D01*
X690020Y374890D01*
X692660Y374800D01*
X693920Y372990D01*
X693740Y367720D01*
X692360Y366000D01*
X689720Y366100D01*
X688460Y367900D01*
X689720Y366100D01*
X640440Y310310D02*
X640930Y324390D01*
X636600Y313970D01*
X641880Y313790D01*
X636600Y313970D01*
X151440Y805860D02*
X137360D01*
Y800590D01*
Y805860D01*
X151440Y795300D02*
Y792670D01*
Y795300D01*
Y793990D02*
X137360D01*
X151440D01*
X137360Y795300D02*
Y792670D01*
Y795300D01*
Y784740D02*
X151440D01*
X137360Y779470D01*
X151440D01*
X137360D01*
X151440Y774180D02*
X137360D01*
X151440D01*
Y768910D02*
X144400Y772870D01*
Y774180D01*
Y772870D01*
X137360Y768910D01*
X144400Y772870D01*
G54D46*
X162950Y588180D02*
X162750Y587910D01*
X162570Y587640D01*
X162390Y587350D01*
X162220Y587060D01*
X162060Y586770D01*
X161900Y586470D01*
X161760Y586160D01*
X161630Y585850D01*
X161510Y585530D01*
X161400Y585210D01*
X161300Y584880D01*
X161210Y584550D01*
X161130Y584220D01*
X161060Y583890D01*
X161000Y583550D01*
X160960Y583210D01*
X160920Y582870D01*
X160900Y582530D01*
X160880Y582180D01*
Y581840D01*
X160890Y581500D01*
X160910Y581150D01*
X160940Y580810D01*
X160980Y580470D01*
X161030Y580130D01*
X161090Y579800D01*
X161170Y579460D01*
X161250Y579130D01*
X161350Y578800D01*
X161450Y578480D01*
X161570Y578160D01*
X161700Y577850D01*
X161830Y577540D01*
X161980Y577230D01*
X162140Y576930D01*
X162300Y576640D01*
X162480Y576350D01*
X162660Y576070D01*
X162850Y575800D01*
X163050Y575540D01*
X163260Y575280D01*
X163480Y575030D01*
X163710Y574790D01*
X163940Y574560D01*
X164180Y574340D01*
X164430Y574120D01*
X164680Y573920D01*
X164940Y573720D01*
X165210Y573540D01*
X165480Y573370D01*
X165760Y573200D01*
X166050Y573050D01*
X166330Y572910D01*
X166630Y572770D01*
X166920Y572650D01*
X167220Y572550D01*
X167530Y572450D01*
X167830Y572360D01*
X168140Y572290D01*
X168450Y572220D01*
X168770Y572170D01*
X169080Y572140D01*
X169400Y572110D01*
X169710Y572090D01*
X170030D01*
X170350Y572100D01*
X170660Y572120D01*
X170980Y572150D01*
X171290Y572200D01*
X171600Y572250D01*
X171910Y572320D01*
X172220Y572400D01*
X172530Y572500D01*
X172830Y572600D01*
X173130Y572710D01*
X173420Y572840D01*
X173710Y572980D01*
X174000Y573120D01*
X174280Y573280D01*
X174550Y573450D01*
X174820Y573630D01*
X175090Y573820D01*
X175350Y574020D01*
X175600Y574230D01*
X175840Y574450D01*
X176080Y574670D01*
X176310Y574910D01*
X176530Y575160D01*
X176740Y575410D01*
X176950Y575670D01*
X177150Y575940D01*
X177330Y576210D01*
X177510Y576500D01*
X177680Y576790D01*
X177840Y577080D01*
X178000Y577380D01*
X178140Y577690D01*
X178270Y578000D01*
X178390Y578320D01*
X178500Y578640D01*
X178600Y578970D01*
X178690Y579300D01*
X178770Y579630D01*
X178840Y579960D01*
X178900Y580300D01*
X178940Y580640D01*
X178980Y580980D01*
X179000Y581320D01*
X179020Y581670D01*
Y582010D01*
X179010Y582350D01*
X178990Y582700D01*
X178960Y583040D01*
X178920Y583380D01*
X178870Y583720D01*
X178810Y584050D01*
X178730Y584390D01*
X178650Y584720D01*
X178550Y585050D01*
X178450Y585370D01*
X178330Y585690D01*
X178200Y586000D01*
X178070Y586310D01*
X177920Y586620D01*
X177760Y586920D01*
X177600Y587210D01*
X177420Y587500D01*
X177240Y587780D01*
X177050Y588050D01*
X176850Y588310D01*
X176780Y588390D01*
G54D50*
X169550Y588460D03*
G54D44*
X146340Y563640D02*
Y565400D01*
X145020Y567160D01*
X142380D01*
X141060Y565400D01*
Y554840D01*
X142380Y553080D01*
X145020D01*
X146340Y554840D01*
Y556600D01*
Y554840D01*
X198340Y566860D02*
X193060D01*
Y552780D01*
X198340D01*
X193060D01*
Y559820D02*
X197020D01*
X193060D01*
X158560Y539580D02*
X157240Y541340D01*
Y551900D01*
X158560Y553660D01*
X161200D01*
X162520Y551900D01*
Y541340D01*
X161200Y539580D01*
X158560D01*
X161200D01*
Y543100D02*
X162520Y537820D01*
X161200Y543100D01*
X167800Y550140D02*
X169120Y553660D01*
Y539580D01*
Y553660D01*
X167800Y539580D02*
X170440D01*
X167800D01*
X182320D02*
X183640Y541340D01*
Y551900D01*
X182320Y553660D01*
X179680D01*
X178360Y551900D01*
Y541340D01*
X179680Y539580D01*
X182320D01*
X179680D01*
G54D45*
X238310Y790760D02*
X267690Y765240D01*
G54D46*
X335050Y758760D02*
X335250Y759030D01*
X335430Y759300D01*
X335610Y759590D01*
X335780Y759880D01*
X335940Y760170D01*
X336100Y760470D01*
X336240Y760780D01*
X336370Y761090D01*
X336490Y761410D01*
X336600Y761730D01*
X336700Y762060D01*
X336790Y762390D01*
X336870Y762720D01*
X336940Y763050D01*
X337000Y763390D01*
X337040Y763730D01*
X337080Y764070D01*
X337100Y764410D01*
X337120Y764760D01*
Y765100D01*
X337110Y765440D01*
X337090Y765790D01*
X337060Y766130D01*
X337020Y766470D01*
X336970Y766810D01*
X336910Y767140D01*
X336830Y767480D01*
X336750Y767810D01*
X336650Y768140D01*
X336550Y768460D01*
X336430Y768780D01*
X336300Y769090D01*
X336170Y769400D01*
X336020Y769710D01*
X335860Y770010D01*
X335700Y770300D01*
X335520Y770590D01*
X335340Y770870D01*
X335150Y771140D01*
X334950Y771400D01*
X334740Y771660D01*
X334520Y771910D01*
X334290Y772150D01*
X334060Y772380D01*
X333820Y772600D01*
X333570Y772820D01*
X333320Y773020D01*
X333060Y773220D01*
X332790Y773400D01*
X332520Y773570D01*
X332240Y773740D01*
X331950Y773890D01*
X331670Y774030D01*
X331370Y774170D01*
X331080Y774290D01*
X330780Y774390D01*
X330470Y774490D01*
X330170Y774580D01*
X329860Y774650D01*
X329550Y774720D01*
X329230Y774770D01*
X328920Y774800D01*
X328600Y774830D01*
X328290Y774850D01*
X327970D01*
X327650Y774840D01*
X327340Y774820D01*
X327020Y774790D01*
X326710Y774740D01*
X326400Y774690D01*
X326090Y774620D01*
X325780Y774540D01*
X325470Y774440D01*
X325170Y774340D01*
X324870Y774230D01*
X324580Y774100D01*
X324290Y773960D01*
X324000Y773820D01*
X323720Y773660D01*
X323450Y773490D01*
X323180Y773310D01*
X322910Y773120D01*
X322650Y772920D01*
X322400Y772710D01*
X322160Y772490D01*
X321920Y772270D01*
X321690Y772030D01*
X321470Y771780D01*
X321260Y771530D01*
X321050Y771270D01*
X320850Y771000D01*
X320670Y770730D01*
X320490Y770440D01*
X320320Y770150D01*
X320160Y769860D01*
X320000Y769560D01*
X319860Y769250D01*
X319730Y768940D01*
X319610Y768620D01*
X319500Y768300D01*
X319400Y767970D01*
X319310Y767640D01*
X319230Y767310D01*
X319160Y766980D01*
X319100Y766640D01*
X319060Y766300D01*
X319020Y765960D01*
X319000Y765620D01*
X318980Y765270D01*
Y764930D01*
X318990Y764590D01*
X319010Y764240D01*
X319040Y763900D01*
X319080Y763560D01*
X319130Y763220D01*
X319190Y762890D01*
X319270Y762550D01*
X319350Y762220D01*
X319450Y761890D01*
X319550Y761570D01*
X319670Y761250D01*
X319800Y760940D01*
X319930Y760630D01*
X320080Y760320D01*
X320240Y760020D01*
X320400Y759730D01*
X320580Y759440D01*
X320760Y759160D01*
X320950Y758890D01*
X321150Y758630D01*
X321220Y758550D01*
G54D50*
X328450Y758480D03*
G54D44*
X296240Y798500D02*
X290960D01*
Y784420D01*
X296240D01*
X290960D01*
Y791460D02*
X294920D01*
X290960D01*
X372520Y787960D02*
Y789720D01*
X371200Y791480D01*
X368560D01*
X367240Y789720D01*
Y779160D01*
X368560Y777400D01*
X371200D01*
X372520Y779160D01*
Y780920D01*
Y779160D01*
G54D48*
X126000Y788000D03*
G54D45*
X197950Y726020D02*
X236050D01*
X364630Y810000D02*
X402730D01*
G54D44*
X369150Y822360D02*
Y836440D01*
X373110D01*
X374430Y834680D01*
Y831160D01*
X373110Y829400D01*
X369150D01*
X373110D01*
X374430Y827640D01*
Y822360D01*
Y827640D01*
X379710Y832920D02*
Y834680D01*
X381030Y836440D01*
X383670D01*
X384990Y834680D01*
Y831160D01*
X383670Y829400D01*
X381030Y827640D01*
X379710Y825880D01*
Y822360D01*
X384990D01*
X379710D01*
X391590D02*
X390270Y824120D01*
Y827640D01*
X391590Y829400D01*
X394230D01*
X391590D01*
X390270Y831160D01*
Y834680D01*
X391590Y836440D01*
X394230D01*
X395550Y834680D01*
Y831160D01*
X394230Y829400D01*
X395550Y827640D01*
Y824120D01*
X394230Y822360D01*
X391590D01*
X394230D01*
G54D58*
X908290Y951350D03*
G54D59*
X841340Y933380D03*
X975200Y932930D03*
X922690Y896490D03*
X893460Y896660D03*
G54D60*
X908090Y878990D03*
G54D61*
X1073850Y677010D03*
G54D62*
X1055880Y743960D03*
X1055430Y610100D03*
X1018990Y662610D03*
X1019160Y691840D03*
G54D63*
X1001490Y677210D03*
G54D58*
X921590Y60870D03*
G54D59*
X988540Y78840D03*
X854680Y79290D03*
X907190Y115730D03*
X936420Y115560D03*
G54D60*
X921790Y133230D03*
G54D58*
X455000Y888850D03*
G54D59*
X388050Y870880D03*
X521910Y870430D03*
X469400Y833990D03*
X440170Y834160D03*
G54D60*
X454800Y816490D03*
G54D58*
X252520Y888850D03*
G54D59*
X185570Y870880D03*
X319430Y870430D03*
X266920Y833990D03*
X237690Y834160D03*
G54D60*
X252320Y816490D03*
G54D61*
X1073850Y854510D03*
G54D62*
X1055880Y921460D03*
X1055430Y787600D03*
X1018990Y840110D03*
X1019160Y869340D03*
G54D63*
X1001490Y854710D03*
G54D44*
X1011650Y307220D02*
Y321300D01*
X1015610D01*
X1016930Y319540D01*
Y316020D01*
X1015610Y314260D01*
X1011650D01*
X1015610D01*
X1016930Y312500D01*
Y307220D01*
Y312500D01*
X1022210Y317780D02*
X1023530Y321300D01*
Y307220D01*
Y321300D01*
X1022210Y307220D02*
X1024850D01*
X1022210D01*
X1036730D02*
Y321300D01*
X1032770Y310740D01*
X1038050D01*
X1032770D01*
G54D45*
X1024760Y430380D02*
Y424030D01*
Y354180D02*
Y360530D01*
X1013510Y422960D02*
Y361800D01*
X1036010D01*
Y422960D01*
X1013380D01*
G54D44*
X1045770Y592360D02*
X1044450Y594120D01*
Y604680D01*
X1045770Y606440D01*
X1048410D01*
X1049730Y604680D01*
Y594120D01*
X1048410Y592360D01*
X1045770D01*
X1048410D01*
Y595880D02*
X1049730Y590600D01*
X1048410Y595880D01*
X1058970Y592360D02*
Y606440D01*
X1055010Y595880D01*
X1060290D01*
X1055010D01*
G54D46*
X1058190Y556930D02*
X1057920Y557130D01*
X1057650Y557310D01*
X1057360Y557490D01*
X1057070Y557660D01*
X1056780Y557820D01*
X1056480Y557980D01*
X1056170Y558120D01*
X1055860Y558250D01*
X1055540Y558370D01*
X1055220Y558480D01*
X1054890Y558580D01*
X1054560Y558670D01*
X1054230Y558750D01*
X1053900Y558820D01*
X1053560Y558880D01*
X1053220Y558920D01*
X1052880Y558960D01*
X1052540Y558980D01*
X1052190Y559000D01*
X1051850D01*
X1051510Y558990D01*
X1051160Y558970D01*
X1050820Y558940D01*
X1050480Y558900D01*
X1050140Y558850D01*
X1049810Y558790D01*
X1049470Y558710D01*
X1049140Y558630D01*
X1048810Y558530D01*
X1048490Y558430D01*
X1048170Y558310D01*
X1047860Y558180D01*
X1047550Y558050D01*
X1047240Y557900D01*
X1046940Y557740D01*
X1046650Y557580D01*
X1046360Y557400D01*
X1046080Y557220D01*
X1045810Y557030D01*
X1045550Y556830D01*
X1045290Y556620D01*
X1045040Y556400D01*
X1044800Y556170D01*
X1044570Y555940D01*
X1044350Y555700D01*
X1044130Y555450D01*
X1043930Y555200D01*
X1043730Y554940D01*
X1043550Y554670D01*
X1043380Y554400D01*
X1043210Y554120D01*
X1043060Y553830D01*
X1042920Y553550D01*
X1042780Y553250D01*
X1042660Y552960D01*
X1042560Y552660D01*
X1042460Y552350D01*
X1042370Y552050D01*
X1042300Y551740D01*
X1042230Y551430D01*
X1042180Y551110D01*
X1042150Y550800D01*
X1042120Y550480D01*
X1042100Y550170D01*
Y549850D01*
X1042110Y549530D01*
X1042130Y549220D01*
X1042160Y548900D01*
X1042210Y548590D01*
X1042260Y548280D01*
X1042330Y547970D01*
X1042410Y547660D01*
X1042510Y547350D01*
X1042610Y547050D01*
X1042720Y546750D01*
X1042850Y546460D01*
X1042990Y546170D01*
X1043130Y545880D01*
X1043290Y545600D01*
X1043460Y545330D01*
X1043640Y545060D01*
X1043830Y544790D01*
X1044030Y544530D01*
X1044240Y544280D01*
X1044460Y544040D01*
X1044680Y543800D01*
X1044920Y543570D01*
X1045170Y543350D01*
X1045420Y543140D01*
X1045680Y542930D01*
X1045950Y542730D01*
X1046220Y542550D01*
X1046510Y542370D01*
X1046800Y542200D01*
X1047090Y542040D01*
X1047390Y541880D01*
X1047700Y541740D01*
X1048010Y541610D01*
X1048330Y541490D01*
X1048650Y541380D01*
X1048980Y541280D01*
X1049310Y541190D01*
X1049640Y541110D01*
X1049970Y541040D01*
X1050310Y540980D01*
X1050650Y540940D01*
X1050990Y540900D01*
X1051330Y540880D01*
X1051680Y540860D01*
X1052020D01*
X1052360Y540870D01*
X1052710Y540890D01*
X1053050Y540920D01*
X1053390Y540960D01*
X1053730Y541010D01*
X1054060Y541070D01*
X1054400Y541150D01*
X1054730Y541230D01*
X1055060Y541330D01*
X1055380Y541430D01*
X1055700Y541550D01*
X1056010Y541680D01*
X1056320Y541810D01*
X1056630Y541960D01*
X1056930Y542120D01*
X1057220Y542280D01*
X1057510Y542460D01*
X1057790Y542640D01*
X1058060Y542830D01*
X1058320Y543030D01*
X1058400Y543100D01*
G54D47*
X1058470Y550330D03*
G54D44*
X1028660Y530550D02*
X1023380D01*
Y516470D01*
X1028660D01*
X1023380D01*
Y523510D02*
X1027340D01*
X1023380D01*
X1027830Y577610D02*
Y579370D01*
X1026510Y581130D01*
X1023870D01*
X1022550Y579370D01*
Y568810D01*
X1023870Y567050D01*
X1026510D01*
X1027830Y568810D01*
Y570570D01*
Y568810D01*
G54D45*
X797270Y437900D02*
Y387100D01*
G54D44*
X796060Y792080D02*
Y806160D01*
X800020D01*
X801340Y804400D01*
Y800880D01*
X800020Y799120D01*
X796060D01*
X800020D01*
X801340Y797360D01*
Y792080D01*
Y797360D01*
X806620Y802640D02*
Y804400D01*
X807940Y806160D01*
X810580D01*
X811900Y804400D01*
Y800880D01*
X810580Y799120D01*
X807940Y797360D01*
X806620Y795600D01*
Y792080D01*
X811900D01*
X806620D01*
G54D45*
X771480Y811490D02*
X798520Y783510D01*
G54D58*
X735020Y951350D03*
G54D59*
X668070Y933380D03*
X801930Y932930D03*
X749420Y896490D03*
X720190Y896660D03*
G54D60*
X734820Y878990D03*
G54D46*
X181680Y796650D02*
X181410Y796850D01*
X181140Y797030D01*
X180850Y797210D01*
X180560Y797380D01*
X180270Y797540D01*
X179970Y797700D01*
X179660Y797840D01*
X179350Y797970D01*
X179030Y798090D01*
X178710Y798200D01*
X178380Y798300D01*
X178050Y798390D01*
X177720Y798470D01*
X177390Y798540D01*
X177050Y798600D01*
X176710Y798640D01*
X176370Y798680D01*
X176030Y798700D01*
X175680Y798720D01*
X175340D01*
X175000Y798710D01*
X174650Y798690D01*
X174310Y798660D01*
X173970Y798620D01*
X173630Y798570D01*
X173300Y798510D01*
X172960Y798430D01*
X172630Y798350D01*
X172300Y798250D01*
X171980Y798150D01*
X171660Y798030D01*
X171350Y797900D01*
X171040Y797770D01*
X170730Y797620D01*
X170430Y797460D01*
X170140Y797300D01*
X169850Y797120D01*
X169570Y796940D01*
X169300Y796750D01*
X169040Y796550D01*
X168780Y796340D01*
X168530Y796120D01*
X168290Y795890D01*
X168060Y795660D01*
X167840Y795420D01*
X167620Y795170D01*
X167420Y794920D01*
X167220Y794660D01*
X167040Y794390D01*
X166870Y794120D01*
X166700Y793840D01*
X166550Y793550D01*
X166410Y793270D01*
X166270Y792970D01*
X166150Y792680D01*
X166050Y792380D01*
X165950Y792070D01*
X165860Y791770D01*
X165790Y791460D01*
X165720Y791150D01*
X165670Y790830D01*
X165640Y790520D01*
X165610Y790200D01*
X165590Y789890D01*
Y789570D01*
X165600Y789250D01*
X165620Y788940D01*
X165650Y788620D01*
X165700Y788310D01*
X165750Y788000D01*
X165820Y787690D01*
X165900Y787380D01*
X166000Y787070D01*
X166100Y786770D01*
X166210Y786470D01*
X166340Y786180D01*
X166480Y785890D01*
X166620Y785600D01*
X166780Y785320D01*
X166950Y785050D01*
X167130Y784780D01*
X167320Y784510D01*
X167520Y784250D01*
X167730Y784000D01*
X167950Y783760D01*
X168170Y783520D01*
X168410Y783290D01*
X168660Y783070D01*
X168910Y782860D01*
X169170Y782650D01*
X169440Y782450D01*
X169710Y782270D01*
X170000Y782090D01*
X170290Y781920D01*
X170580Y781760D01*
X170880Y781600D01*
X171190Y781460D01*
X171500Y781330D01*
X171820Y781210D01*
X172140Y781100D01*
X172470Y781000D01*
X172800Y780910D01*
X173130Y780830D01*
X173460Y780760D01*
X173800Y780700D01*
X174140Y780660D01*
X174480Y780620D01*
X174820Y780600D01*
X175170Y780580D01*
X175510D01*
X175850Y780590D01*
X176200Y780610D01*
X176540Y780640D01*
X176880Y780680D01*
X177220Y780730D01*
X177550Y780790D01*
X177890Y780870D01*
X178220Y780950D01*
X178550Y781050D01*
X178870Y781150D01*
X179190Y781270D01*
X179500Y781400D01*
X179810Y781530D01*
X180120Y781680D01*
X180420Y781840D01*
X180710Y782000D01*
X181000Y782180D01*
X181280Y782360D01*
X181550Y782550D01*
X181810Y782750D01*
X181890Y782820D01*
G54D47*
X181960Y790050D03*
G54D44*
X192340Y770160D02*
X187060D01*
Y756080D01*
X192340D01*
X187060D01*
Y763120D02*
X191020D01*
X187060D01*
X192420Y820280D02*
Y822040D01*
X191100Y823800D01*
X188460D01*
X187140Y822040D01*
Y811480D01*
X188460Y809720D01*
X191100D01*
X192420Y811480D01*
Y813240D01*
Y811480D01*
X169260Y832080D02*
X167940Y833840D01*
Y844400D01*
X169260Y846160D01*
X171900D01*
X173220Y844400D01*
Y833840D01*
X171900Y832080D01*
X169260D01*
X171900D01*
Y835600D02*
X173220Y830320D01*
X171900Y835600D01*
X178500Y846160D02*
X183780D01*
X178500Y832080D01*
X183780Y846160D01*
X54420Y953940D02*
Y941620D01*
X53100Y939860D01*
X50460D01*
X49140Y941620D01*
Y943380D01*
Y941620D01*
X59700Y950420D02*
Y952180D01*
X61020Y953940D01*
X63660D01*
X64980Y952180D01*
Y948660D01*
X63660Y946900D01*
X61020Y945140D01*
X59700Y943380D01*
Y939860D01*
X64980D01*
X59700D01*
X74220D02*
X75540Y941620D01*
Y952180D01*
X74220Y953940D01*
X71580D01*
X70260Y952180D01*
Y941620D01*
X71580Y939860D01*
X74220D01*
X71580D01*
X86100Y953940D02*
X80820D01*
Y946900D01*
X82140Y948660D01*
X84780D01*
X86100Y946900D01*
Y941620D01*
X84780Y939860D01*
X82140D01*
X80820Y941620D01*
X82140Y939860D01*
X109470Y893910D02*
X110790Y897430D01*
Y883350D01*
Y897430D01*
X109470Y883350D02*
X112110D01*
X109470D01*
Y854010D02*
Y855770D01*
X110790Y857530D01*
X113430D01*
X114750Y855770D01*
Y852250D01*
X113430Y850490D01*
X110790Y848730D01*
X109470Y846970D01*
Y843450D01*
X114750D01*
X109470D01*
Y814210D02*
Y815970D01*
X110790Y817730D01*
X113430D01*
X114750Y815970D01*
Y812450D01*
X113430Y810690D01*
X112110D01*
X113430D01*
X114750Y808930D01*
Y805410D01*
X113430Y803650D01*
X110790D01*
X109470Y805410D01*
Y807170D01*
Y805410D01*
X113430Y763850D02*
Y777930D01*
X109470Y767370D01*
X114750D01*
X109470D01*
X114750Y696570D02*
X113430Y698330D01*
X110790D01*
X109470Y696570D01*
Y686010D01*
X110790Y684250D01*
X113430D01*
X114750Y686010D01*
Y691290D01*
X113430Y693050D01*
X110790D01*
X109470Y691290D01*
X110790Y693050D01*
X114750Y738130D02*
X109470D01*
Y731090D01*
X110790Y732850D01*
X113430D01*
X114750Y731090D01*
Y725810D01*
X113430Y724050D01*
X110790D01*
X109470Y725810D01*
X110790Y724050D01*
G54D45*
X100570Y921340D02*
X100710Y656700D01*
X37190D01*
X37180Y921340D01*
X99840Y921190D01*
G54D55*
X29330Y919490D02*
Y656700D01*
G54D45*
X100590Y653840D02*
X100900Y73490D01*
X37230D01*
X37200Y653840D01*
X99860Y653690D01*
G54D55*
X29350Y651990D02*
Y75990D01*
G54D44*
X108450Y622810D02*
X109770Y626330D01*
Y612250D01*
Y626330D01*
X108450Y612250D02*
X111090D01*
X108450D01*
Y583360D02*
Y585120D01*
X109770Y586880D01*
X112410D01*
X113730Y585120D01*
Y581600D01*
X112410Y579840D01*
X109770Y578080D01*
X108450Y576320D01*
Y572800D01*
X113730D01*
X108450D01*
Y543930D02*
Y545690D01*
X109770Y547450D01*
X112410D01*
X113730Y545690D01*
Y542170D01*
X112410Y540410D01*
X111090D01*
X112410D01*
X113730Y538650D01*
Y535130D01*
X112410Y533370D01*
X109770D01*
X108450Y535130D01*
Y536890D01*
Y535130D01*
X112410Y493940D02*
Y508020D01*
X108450Y497460D01*
X113730D01*
X108450D01*
X113730Y427400D02*
X112410Y429160D01*
X109770D01*
X108450Y427400D01*
Y416840D01*
X109770Y415080D01*
X112410D01*
X113730Y416840D01*
Y422120D01*
X112410Y423880D01*
X109770D01*
X108450Y422120D01*
X109770Y423880D01*
X108450Y389730D02*
X113730D01*
X108450Y375650D01*
X113730Y389730D01*
X109770Y336220D02*
X108450Y337980D01*
Y341500D01*
X109770Y343260D01*
X112410D01*
X109770D01*
X108450Y345020D01*
Y348540D01*
X109770Y350300D01*
X112410D01*
X113730Y348540D01*
Y345020D01*
X112410Y343260D01*
X113730Y341500D01*
Y337980D01*
X112410Y336220D01*
X109770D01*
X112410D01*
X108450Y298550D02*
X109770Y296790D01*
X112410D01*
X113730Y298550D01*
Y309110D01*
X112410Y310870D01*
X109770D01*
X108450Y309110D01*
Y303830D01*
X109770Y302070D01*
X112410D01*
X113730Y303830D01*
X112410Y302070D01*
X113730Y468590D02*
X108450D01*
Y461550D01*
X109770Y463310D01*
X112410D01*
X113730Y461550D01*
Y456270D01*
X112410Y454510D01*
X109770D01*
X108450Y456270D01*
X109770Y454510D01*
X108450Y267920D02*
X109770Y271440D01*
Y257360D01*
Y271440D01*
X108450Y257360D02*
X111090D01*
X108450D01*
X122970D02*
X124290Y259120D01*
Y269680D01*
X122970Y271440D01*
X120330D01*
X119010Y269680D01*
Y259120D01*
X120330Y257360D01*
X122970D01*
X120330D01*
X108450Y228490D02*
X109770Y232010D01*
Y217930D01*
Y232010D01*
X108450Y217930D02*
X111090D01*
X108450D01*
X119010Y228490D02*
X120330Y232010D01*
Y217930D01*
Y232010D01*
X119010Y217930D02*
X121650D01*
X119010D01*
X108450Y189060D02*
X109770Y192580D01*
Y178500D01*
Y192580D01*
X108450Y178500D02*
X111090D01*
X108450D01*
X119010Y189060D02*
Y190820D01*
X120330Y192580D01*
X122970D01*
X124290Y190820D01*
Y187300D01*
X122970Y185540D01*
X120330Y183780D01*
X119010Y182020D01*
Y178500D01*
X124290D01*
X119010D01*
X108450Y149630D02*
X109770Y153150D01*
Y139070D01*
Y153150D01*
X108450Y139070D02*
X111090D01*
X108450D01*
X119010Y149630D02*
Y151390D01*
X120330Y153150D01*
X122970D01*
X124290Y151390D01*
Y147870D01*
X122970Y146110D01*
X121650D01*
X122970D01*
X124290Y144350D01*
Y140830D01*
X122970Y139070D01*
X120330D01*
X119010Y140830D01*
Y142590D01*
Y140830D01*
X108450Y110200D02*
X109770Y113720D01*
Y99640D01*
Y113720D01*
X108450Y99640D02*
X111090D01*
X108450D01*
X122970D02*
Y113720D01*
X119010Y103160D01*
X124290D01*
X119010D01*
M02*
