%FSLAX34Y34*%
%MOMM*%
%INBottom Solder Mask*%
%IPPOS*%
%ADD64O,2.300X3.700*%
%ADD65O,3.700X2.300*%
%ADD66C,2.700*%
%ADD67R,2.700X2.700*%
%ADD68C,2.900*%
%ADD69C,3.000*%
%ADD70C,3.700*%
%ADD71C,3.200*%
%ADD72C,4.200*%
%ADD73C,3.500*%
%ADD74C,5.200*%
%ADD75C,5.700*%
%ADD76C,3.200*%
%ADD77C,3.200*%
%ADD78R,5.200X3.600*%
%ADD79O,5.200X3.600*%
G54D64*
X879600Y360000D03*
X905000D03*
X930400D03*
G54D65*
X654720Y713710D03*
Y739110D03*
Y764510D03*
G54D66*
X587620Y849740D03*
X560620Y875140D03*
G54D67*
Y824340D03*
G54D68*
X600300Y884360D03*
G54D69*
Y996360D03*
G54D68*
X315000Y448000D03*
G54D69*
X203000D03*
G54D65*
X522360Y727100D03*
Y752500D03*
Y777900D03*
G54D69*
X280000Y510000D03*
X175000Y507500D03*
G54D70*
X430000Y710000D03*
X515000Y685000D03*
G54D66*
X627500Y857500D03*
Y915000D03*
G54D70*
X790000Y715000D03*
X702500D03*
X836710Y367150D03*
X873290Y447850D03*
G54D66*
X314110Y660000D03*
Y717500D03*
X354260Y688000D03*
Y576000D03*
X798370Y623000D03*
Y511000D03*
X846760Y675780D03*
Y563780D03*
X967680Y451280D03*
G54D67*
X993080Y424280D03*
G54D66*
X942280D03*
X1053280Y494350D03*
X941280D03*
X921540Y708000D03*
Y596000D03*
X951540Y643000D03*
Y531000D03*
X942530Y465470D03*
X903470Y506530D03*
G54D71*
X765000Y190000D03*
X917000D03*
G54D72*
X640000Y165000D03*
X690000D03*
G54D70*
X400000Y650000D03*
Y575000D03*
G54D66*
X264930Y635570D03*
X207430D03*
X238750Y685430D03*
X181250D03*
X992330Y393000D03*
Y337000D03*
X277330Y728000D03*
Y672000D03*
X866000Y785610D03*
X922000D03*
X955290Y802500D03*
Y860000D03*
X912000Y825000D03*
X808000D03*
X843780Y850280D03*
X739780D03*
X699500Y817500D03*
X595500D03*
X733210Y806280D03*
X707810Y779280D03*
G54D67*
X758610D03*
G54D70*
X729180Y680000D03*
Y610000D03*
G54D66*
X920430Y314830D03*
X804430D03*
G54D73*
X817480Y259730D03*
X879830D03*
X779830D03*
G54D66*
X1077940Y465050D03*
X1092060Y519950D03*
G54D74*
X733750Y367500D03*
X750500Y443250D03*
X735750Y520000D03*
X686250Y581750D03*
X539000Y614500D03*
X617870Y614740D03*
X470250Y581000D03*
X678630Y301670D03*
G54D75*
X503300Y180840D02*
X507140Y177620D01*
G54D74*
X418220Y520160D03*
G54D66*
X170000Y606000D03*
G54D67*
X195400Y579000D03*
G54D66*
X144600D03*
X274250Y759250D03*
X231750Y796750D03*
X328000Y740940D03*
X353400Y767940D03*
G54D67*
X302600D03*
G54D68*
X126000Y732000D03*
G54D69*
Y844000D03*
G54D66*
X245750Y726020D03*
X188250D03*
X412430Y810000D03*
X354930D03*
G54D70*
X865790Y933110D03*
X908290Y890150D03*
X950790Y933110D03*
X1055610Y719510D03*
X1012650Y677010D03*
X1055610Y634510D03*
X964090Y79110D03*
X921590Y122070D03*
X879090Y79110D03*
X412500Y870610D03*
X455000Y827650D03*
X497500Y870610D03*
X210020D03*
X252520Y827650D03*
X295020Y870610D03*
X1055610Y812010D03*
G54D76*
X1010880Y856280D02*
X1014420Y852740D01*
X1053840Y898790D02*
X1057380Y895250D01*
G54D66*
X1024760Y448280D03*
Y336280D03*
X1076010Y549880D03*
X1049010Y575280D03*
G54D67*
Y524480D03*
G54D70*
X797270Y447500D03*
Y377500D03*
G54D66*
X804530Y776970D03*
X765470Y818030D03*
G54D70*
X777520Y933110D03*
G54D77*
X690740Y931340D02*
X694280Y934880D01*
X733250Y888380D02*
X736790Y891920D01*
G54D66*
X199500Y789600D03*
X172500Y815000D03*
G54D67*
Y764200D03*
G54D78*
X68660Y888000D03*
G54D79*
Y808800D03*
Y769200D03*
Y729600D03*
Y690000D03*
Y848400D03*
X68680Y541300D03*
Y501700D03*
Y462100D03*
Y422500D03*
Y343300D03*
Y303700D03*
Y264100D03*
Y224500D03*
Y184900D03*
Y145300D03*
Y105700D03*
Y580900D03*
Y382900D03*
G54D78*
Y620500D03*
M02*
