%FSLAX34Y34*%
%MOMM*%
%INBottom*%
%IPPOS*%
%ADD10O,2.100X3.500*%
%ADD11O,3.500X2.100*%
%ADD12C,2.500*%
%ADD13R,2.500X2.500*%
%ADD14C,2.700*%
%ADD15C,2.800*%
%ADD16C,1.400*%
%ADD17C,1.600*%
%ADD18C,3.500*%
%ADD19C,3.000*%
%ADD20C,4.000*%
%ADD21C,2.000*%
%ADD22C,3.300*%
%ADD23C,1.500*%
%ADD24C,5.000*%
%ADD25C,5.500*%
%ADD26C,2.300*%
%ADD27C,2.100*%
%ADD28C,1.700*%
%ADD29C,0.000*%
%ADD30C,1.000*%
%ADD31C,1.200*%
%ADD32C,0.650*%
%ADD33C,0.800*%
%ADD34C,1.300*%
%ADD35C,0.900*%
%ADD36C,1.900*%
%ADD37C,1.100*%
%ADD38C,0.500*%
%ADD39C,3.000*%
%ADD40C,1.800*%
%ADD41C,3.000*%
%ADD42R,5.000X3.400*%
%ADD43O,5.000X3.400*%
G54D10*
X879600Y360000D03*
X905000D03*
X930400D03*
G54D11*
X654720Y713710D03*
Y739110D03*
Y764510D03*
G54D12*
X587620Y849740D03*
X560620Y875140D03*
G54D13*
Y824340D03*
G54D14*
X600300Y884360D03*
G54D15*
Y996360D03*
G54D14*
X315000Y448000D03*
G54D15*
X203000D03*
G54D16*
X930400Y360000D02*
X942280Y424280D01*
G54D17*
X203000Y448000D02*
X176300D01*
G54D11*
X522360Y727100D03*
Y752500D03*
Y777900D03*
G54D15*
X280000Y510000D03*
X175000Y507500D03*
G54D18*
X430000Y710000D03*
X515000Y685000D03*
G54D12*
X627500Y857500D03*
Y915000D03*
G54D18*
X790000Y715000D03*
X702500D03*
X836710Y367150D03*
X873290Y447850D03*
G54D12*
X314110Y660000D03*
Y717500D03*
X354260Y688000D03*
Y576000D03*
X798370Y623000D03*
Y511000D03*
X846760Y675780D03*
Y563780D03*
X967680Y451280D03*
G54D13*
X993080Y424280D03*
G54D12*
X942280D03*
X1053280Y494350D03*
X941280D03*
X921540Y708000D03*
Y596000D03*
X951540Y643000D03*
Y531000D03*
X942530Y465470D03*
X903470Y506530D03*
G54D19*
X765000Y190000D03*
X917000D03*
G54D20*
X640000Y165000D03*
X690000D03*
G54D21*
X640000D02*
X690000D01*
G54D18*
X400000Y650000D03*
Y575000D03*
G54D12*
X264930Y635570D03*
X207430D03*
X238750Y685430D03*
X181250D03*
X992330Y393000D03*
Y337000D03*
X277330Y728000D03*
Y672000D03*
X866000Y785610D03*
X922000D03*
X955290Y802500D03*
Y860000D03*
X912000Y825000D03*
X808000D03*
X843780Y850280D03*
X739780D03*
X699500Y817500D03*
X595500D03*
X733210Y806280D03*
X707810Y779280D03*
G54D13*
X758610D03*
G54D18*
X729180Y680000D03*
Y610000D03*
G54D16*
X750500Y443250D02*
X797270Y447500D01*
G54D12*
X920430Y314830D03*
X804430D03*
G54D22*
X817480Y259730D03*
X879830D03*
X779830D03*
G54D12*
X1077940Y465050D03*
X1092060Y519950D03*
G54D23*
X295020Y870610D02*
X252520Y827650D01*
G54D24*
X733750Y367500D03*
X750500Y443250D03*
X735750Y520000D03*
X686250Y581750D03*
X539000Y614500D03*
X617870Y614740D03*
X470250Y581000D03*
X678630Y301670D03*
G54D25*
X503300Y180840D02*
X507140Y177620D01*
G54D24*
X418220Y520160D03*
G54D26*
X539000Y614500D02*
Y576910D01*
X407830Y448000D01*
X315000D01*
G54D23*
X470250Y581000D02*
X400000Y575000D01*
Y650000D02*
X515000Y685000D01*
X522360Y727100D01*
X777520Y933110D02*
X735020Y890150D01*
X1055610Y812010D02*
X1012650Y854510D01*
X779830Y259730D02*
X817480D01*
X921590Y122070D01*
X917000Y190000D02*
X964090Y130000D01*
Y79110D01*
X70000Y105700D02*
X127500Y79110D01*
X879090D01*
G54D26*
X70000Y184900D02*
X437500Y185000D01*
X505220Y179230D01*
G54D27*
X640000Y165000D01*
G54D28*
X70000Y224500D02*
X136410D01*
X153910Y232500D01*
X704070Y232650D01*
X765000Y190000D01*
G54D26*
X70000Y264100D02*
X106480D01*
X155000Y292500D01*
X313860D01*
X617720Y599050D01*
X617870Y614740D01*
G54D29*
G54D30*
X190230Y460000D02*
X183180D01*
X184700Y469500D02*
X183810D01*
X182820Y454590D02*
X193880Y453730D01*
X183900Y470860D01*
X182820Y454590D01*
G54D12*
X170000Y606000D03*
G54D13*
X195400Y579000D03*
G54D12*
X144600D03*
G54D31*
X82500Y425000D02*
X145000Y457500D01*
Y525000D01*
X170000Y559090D01*
Y606000D01*
G54D32*
X71490Y690000D02*
X102500Y650000D01*
X106510Y635000D01*
Y517500D01*
X71510Y501700D01*
G54D16*
X692520Y933110D02*
X670000Y947500D01*
X260000D01*
X210020Y870610D01*
G54D23*
X230000Y796750D02*
X252520Y827650D01*
G54D12*
X274250Y759250D03*
X231750Y796750D03*
X328000Y740940D03*
X353400Y767940D03*
G54D13*
X302600D03*
G54D33*
X600300Y996360D02*
X575000Y1010000D01*
X182640D01*
X69980Y888000D01*
G54D30*
X238750Y685430D02*
X257500Y702500D01*
X295000D01*
X314110Y717500D01*
X328000Y740940D02*
X314110Y717500D01*
X302600Y767940D02*
X274250Y759250D01*
X277330Y728000D01*
G54D23*
X354260Y688000D02*
X430000Y710000D01*
G54D34*
X70000Y303700D02*
X88730Y303310D01*
X280000Y428730D01*
Y510000D01*
X354260Y576000D01*
X377500Y607500D01*
X477500Y642500D01*
X527500Y655000D01*
X582500Y660000D01*
X637500Y657500D01*
X697500Y650000D01*
X762500Y637500D01*
X798370Y623000D01*
X846760Y563780D01*
X68680Y343300D02*
X107520Y351450D01*
X242500Y439710D01*
Y540000D01*
X314110Y607500D01*
Y660000D01*
G54D17*
X175000Y507500D02*
Y432500D01*
X98450Y382900D01*
X70000D01*
G54D14*
X126000Y732000D03*
G54D15*
Y844000D03*
G54D32*
X69980Y729600D02*
X105000Y712500D01*
X120000Y635000D01*
Y484770D01*
X70000Y462100D01*
G54D23*
X126000Y732000D02*
X125000Y717500D01*
X140000Y630000D01*
X144600Y579000D01*
G54D31*
X181250Y685430D02*
X165000Y705000D01*
Y740000D01*
X172520Y763000D01*
G54D12*
X245750Y726020D03*
X188250D03*
G54D35*
X69980Y769200D02*
X125000Y767500D01*
X142480Y755840D01*
X147500Y742500D01*
Y707500D01*
X157500Y645000D01*
X207430Y635570D01*
G54D36*
X195400Y579000D02*
X207430Y635570D01*
X210000Y695000D01*
X224570Y714130D01*
X240000Y757500D01*
G54D37*
X314110Y660000D02*
X323730Y690940D01*
X339520Y710640D01*
X362500Y725000D01*
X397500Y737500D01*
X435000Y747500D01*
X475000Y752500D01*
X522360D01*
G54D12*
X412430Y810000D03*
X354930D03*
G54D31*
X412430D02*
X455000Y827650D01*
X302600Y767940D02*
X354930Y810000D01*
X654720Y739110D02*
X620820D01*
X581680Y752500D01*
X522360D01*
G54D29*
G54D38*
X574640Y755000D02*
X546550D01*
X570590Y759500D02*
X549700D01*
X566540Y764000D02*
X552850D01*
X562490Y768500D02*
X556000D01*
X558800Y772500D02*
X544800Y752500D01*
X576890D01*
X558890Y772500D01*
X558800D01*
G54D31*
X560620Y824340D02*
X595500Y817500D01*
X600300Y884360D02*
X627500Y857500D01*
G54D29*
G54D30*
X498250Y897000D02*
X496740D01*
X510130Y906500D02*
X484860D01*
X483290Y907760D02*
X497500Y896400D01*
X512210Y908160D01*
X499860Y912280D01*
X483290Y907760D01*
G54D31*
X600300Y884360D02*
X587620Y849740D01*
X560620Y875140D02*
X560000Y915000D01*
G54D29*
G54D30*
X557080Y905000D02*
X560000Y902080D01*
X562920Y905000D01*
X557080D01*
G54D18*
X865790Y933110D03*
X908290Y890150D03*
X950790Y933110D03*
X1055610Y719510D03*
X1012650Y677010D03*
X1055610Y634510D03*
X964090Y79110D03*
X921590Y122070D03*
X879090Y79110D03*
X412500Y870610D03*
X455000Y827650D03*
X497500Y870610D03*
X210020D03*
X252520Y827650D03*
X295020Y870610D03*
G54D23*
X126000Y844000D02*
X210020Y870610D01*
G54D29*
G54D30*
X367040Y906500D02*
X355420D01*
X351610Y912500D02*
X360510Y898520D01*
X371950Y912500D01*
X351610D01*
G54D31*
X377500Y918250D02*
X283610D01*
X243970Y863360D01*
X212500Y831890D01*
X172500Y815000D01*
X353400Y767940D02*
X452500Y777900D01*
X522360D01*
G54D36*
X497500Y870610D02*
Y915000D01*
X378000D01*
X330000Y840000D01*
X261620Y790760D01*
X240160Y760720D01*
X238440Y752840D01*
X497500Y915000D02*
X627500D01*
G54D18*
X1055610Y812010D03*
G54D39*
X1010880Y856280D02*
X1014420Y852740D01*
X1053840Y898790D02*
X1057380Y895250D01*
G54D31*
X560000Y757500D02*
Y795000D01*
X525950Y804730D01*
X453150Y870610D01*
X412500D01*
G54D36*
X627500Y915000D02*
X693090Y889770D01*
X733520Y934960D01*
X752500Y967500D01*
X915000D01*
X950790Y933110D01*
X1004360Y906580D01*
X1050310Y856580D01*
X1100000Y825050D01*
Y667500D01*
X1055610Y634510D01*
G54D28*
X733750Y367500D02*
X805000Y315000D01*
X880000Y260000D02*
X805000Y315000D01*
G54D40*
X879830Y259730D02*
X1022500Y260000D01*
X1077940Y332500D01*
Y465050D01*
X1055610Y634510D02*
X1012500Y592500D01*
Y465050D01*
X1077940D01*
G54D12*
X1024760Y448280D03*
Y336280D03*
G54D29*
G54D30*
X1032350Y452500D02*
X1034350Y455000D01*
X1016330D01*
X1017830Y452500D01*
X1032350D01*
G54D29*
G54D30*
X1068120Y457480D02*
X1071370Y454700D01*
X1071910Y458410D01*
X1068120Y457480D01*
G54D29*
G54D30*
X1018370Y473170D02*
X1027300Y472890D01*
X1021570Y478470D01*
X1018370Y473170D01*
G54D31*
X1049010Y524480D02*
X1053280Y494350D01*
X1076010Y549880D02*
X1092060Y519950D01*
X1049010Y575280D02*
X1020550D01*
G54D12*
X1076010Y549880D03*
X1049010Y575280D03*
G54D13*
Y524480D03*
G54D29*
G54D30*
X1023170Y583500D02*
X1020110D01*
X1026310Y579870D02*
X1020650Y586400D01*
X1018970Y577420D01*
X1026310Y579870D01*
G54D31*
X1012650Y677010D02*
X951540Y643000D01*
X798370Y511000D02*
X873290Y447850D01*
X941280Y494350D02*
X942530Y465470D01*
X967680Y451280D02*
X942530Y465470D01*
X903470Y506530D02*
X915000Y435000D01*
X905000Y395000D01*
Y360000D01*
X879600D02*
X857500D01*
X836710Y367150D01*
G54D18*
X797270Y447500D03*
Y377500D03*
G54D21*
X836710Y367150D01*
G54D31*
X920430Y314830D02*
X905000Y360000D01*
X992330Y393000D02*
X993080Y424280D01*
X992500Y457500D01*
X985000Y487500D01*
X951540Y531000D01*
X921540Y596000D02*
X951540Y531000D01*
X1055610Y812010D02*
X921540Y708000D01*
X865790Y933110D02*
X872500Y882500D01*
X877500Y825000D01*
X892500Y797500D01*
X885000Y695000D01*
X890000Y572500D01*
X903470Y506530D01*
G54D12*
X804530Y776970D03*
X765470Y818030D03*
G54D31*
X654720Y739110D02*
X710000Y747500D01*
X765000D01*
X804530Y776970D01*
X845000Y757500D01*
X887500Y752500D01*
X866000Y785610D02*
X843780Y850280D01*
X808000Y825000D02*
X843780Y850280D01*
X758610Y779280D02*
X808000Y825000D01*
X699500Y817500D02*
X733210Y806280D01*
X765470Y818030D02*
X733210Y806280D01*
G54D18*
X777520Y933110D03*
G54D41*
X690740Y931340D02*
X694280Y934880D01*
X733250Y888380D02*
X736790Y891920D01*
G54D23*
X739780Y850280D02*
X735020Y890150D01*
G54D31*
X707810Y779280D02*
X654720Y764510D01*
X908290Y890150D02*
X912000Y825000D01*
X955290Y860000D02*
X987500Y910000D01*
G54D33*
X1076010Y549880D02*
X1125000Y601090D01*
Y887910D01*
X993450Y1012500D01*
X676120D01*
X610000Y970000D01*
X584250D01*
X567150Y985000D01*
X192430D01*
X131300Y919930D01*
X107500Y860000D01*
X69980Y848400D01*
G54D31*
X692510Y933110D02*
X730000Y992500D01*
X957500D01*
X1055610Y897020D01*
X955290Y802500D02*
X922000Y785610D01*
X1055610Y719510D02*
X1007500Y720000D01*
X975000Y705000D01*
X935000Y670000D01*
X887500Y662500D01*
G54D29*
G54D30*
X890420Y650000D02*
X890000D01*
X899920Y659500D02*
X890000D01*
X896900Y669000D02*
X890000D01*
Y649580D02*
X904550Y664130D01*
X890000Y673390D01*
Y649580D01*
G54D23*
X702500Y715000D02*
X729180Y680000D01*
X790000Y715000D02*
X846760Y675780D01*
G54D40*
X729180Y610000D02*
X686250Y581750D01*
G54D31*
X735750Y520000D02*
X692500Y467500D01*
Y385000D01*
X625000Y327500D01*
Y282500D01*
X657500Y260000D01*
X779830Y259730D01*
G54D16*
X1024760Y336280D02*
X992330Y337000D01*
X654720Y713710D02*
X702500Y715000D01*
X277330Y672000D02*
X264930Y635570D01*
G54D12*
X199500Y789600D03*
X172500Y815000D03*
G54D13*
Y764200D03*
G54D31*
X199500Y789600D02*
X205000Y757500D01*
X188250Y726020D01*
G54D33*
X68680Y541300D02*
X7500Y570000D01*
Y872500D01*
X68660Y888000D01*
Y808800D02*
X120000D01*
X167500Y792500D01*
X199500Y789600D01*
G54D42*
X68660Y888000D03*
G54D43*
Y808800D03*
Y769200D03*
Y729600D03*
Y690000D03*
Y848400D03*
X68680Y541300D03*
Y501700D03*
Y462100D03*
Y422500D03*
Y343300D03*
Y303700D03*
Y264100D03*
Y224500D03*
Y184900D03*
Y145300D03*
Y105700D03*
Y580900D03*
Y382900D03*
G54D42*
Y620500D03*
G54D33*
X35000Y673560D01*
Y793630D01*
X68660Y808800D01*
X70460Y580260D02*
X21320Y597930D01*
Y834070D01*
X68660Y848400D01*
M02*
