M71
M48
T01C1.200
T02C1.100
T03C1.000
T04C1.400
T05C2.000
T06C1.800
%
T01
X879600Y360000
X905000
X930400
X654720Y713710
Y739110
Y764510
X522360Y727100
Y752500
Y777900
X430000Y710000
X515000Y685000
X790000Y715000
X702500
X836710Y367150
X873290Y447850
T02
X587620Y849740
X560620Y875140
Y824340
X600300Y884360
Y996360
X315000Y448000
X203000
X280000Y510000
X175000Y507500
X354260Y688000
Y576000
X798370Y623000
Y511000
X846760Y675780
Y563780
X967680Y451280
X993080Y424280
X942280
X1053280Y494350
X941280
X921540Y708000
Y596000
X951540Y643000
Y531000
X765000Y190000
X917000
X400000Y650000
Y575000
X912000Y825000
X808000
X843780Y850280
X739780
X699500Y817500
X595500
X733210Y806280
X707810Y779280
X758610
X729180Y680000
Y610000
X170000Y606000
X195400Y579000
X144600
X328000Y740940
X353400Y767940
X302600
X126000Y732000
Y844000
X1024760Y448280
Y336280
X1076010Y549880
X1049010Y575280
Y524480
X797270Y447500
Y377500
X199500Y789600
X172500Y815000
Y764200
T03
X627500Y857500
Y915000
X314110Y660000
Y717500
X942530Y465470
X903470Y506530
X264930Y635570
X207430
X238750Y685430
X181250
X992330Y393000
Y337000
X277330Y728000
Y672000
X866000Y785610
X922000
X955290Y802500
Y860000
X920430Y314830
X804430
X817480Y259730
X879830
X779830
X1077940Y465050
X1092060Y519950
X274250Y759250
X231750Y796750
X245750Y726020
X188250
X412430Y810000
X354930
X804530Y776970
X765470Y818030
T04
X640000Y165000
X690000
X865790Y933110
X908290Y890150
X950790Y933110
X1055610Y719510
X1012650Y677010
X1055610Y634510
X964090Y79110
X921590Y122070
X879090Y79110
X412500Y870610
X455000Y827650
X497500Y870610
X210020
X252520Y827650
X295020Y870610
X1055610Y812010
X1012650Y854510
X1055610Y897020
X777520Y933110
X692510
X735020Y890150
T05
X733750Y367500
X750500Y443250
X735750Y520000
X686250Y581750
X539000Y614500
X617870Y614740
X470250Y581000
X678630Y301670
X418220Y520160
T06
X501360Y174630G85X509080Y183830
X68660Y888000
Y808800
Y769200
Y729600
Y690000
Y848400
X68680Y541300
Y501700
Y462100
Y422500
Y343300
Y303700
Y264100
Y224500
Y184900
Y145300
Y105700
Y580900
Y382900
Y620500
M30
