%FSTAX24Y24*%
%MOIN*%
%IN card16drill..gbo *%
%ADD10C,0.0050*%
%ADD11C,0.0057*%
%ADD12C,0.0100*%
D11*X000664Y000362D02*G01X000721Y000419D01*Y000534D01*
X000664Y000591D01*X000607D01*X000549Y000534D01*X000435Y000362D01*
X000378D01*Y000591D01*X000664Y000934D02*X000721Y000877D01*Y000762D01*
X000664Y000705D01*X000435D01*X000378Y000762D01*Y000877D01*
X000435Y000934D01*X000664D01*X000607Y000819D02*X000492D01*
X000664Y001105D02*X000721Y001162D01*X000378D01*Y001219D01*Y001162D02*
Y001105D01*X000664Y001391D02*X000721Y001448D01*Y001562D01*
X000664Y001619D01*X000607D01*X000549Y001562D01*X000435Y001391D01*
X000378D01*Y001619D01*X000607Y002077D02*X000435D01*X000378Y002119D01*
Y002148D01*X000435Y002191D01*X000378Y002234D01*Y002262D01*
X000435Y002305D01*X000607D01*X000435Y002191D02*X000564D01*
X000607Y002419D02*X000435D01*X000378Y002462D01*Y002491D01*
X000435Y002534D01*X000378Y002577D01*Y002605D01*X000435Y002648D01*
X000607D01*X000435Y002534D02*X000564D01*X000607Y002762D02*X000435D01*
X000378Y002805D01*Y002834D01*X000435Y002877D01*X000378Y002919D01*
Y002948D01*X000435Y002991D01*X000607D01*X000435Y002877D02*X000564D01*
X000378Y003191D02*Y003219D01*X000407D01*Y003191D01*X000378D01*
X000449Y003662D02*X000378Y003591D01*Y003519D01*X000449Y003448D01*
X000549D01*X000607Y003519D01*Y003591D01*X000535Y003662D01*X000321D01*
X000249Y003591D01*Y003519D01*X000292Y003448D01*X000378Y004019D02*
X000607D01*X000452Y003791D02*X000524Y003811D01*X000572Y003842D01*
X000598Y003882D01*X000607Y003911D01*Y003934D01*Y003974D01*
X000584Y004019D01*X000449Y003791D02*X000432D01*X000421Y003794D01*
X000407Y003802D01*X000395Y003822D01*X000378Y003862D01*Y003925D01*
X000404Y003985D01*X000435Y004019D01*X000607Y004348D02*X000378D01*
X000435D02*X000378Y004291D01*Y004191D01*X000435Y004134D01*X000607D01*
Y004634D02*X000578D01*X000607Y004591D01*Y004577D01*X000592Y004548D01*
X000549Y004505D01*X000478Y004477D01*X000449D01*X000407Y004491D01*
X000378Y004548D01*Y004619D01*X000421Y004691D01*X000721Y004848D02*
X000378D01*X000464D02*X000635Y005019D01*X000378D02*X000507Y004891D01*
X000378Y005248D02*Y005277D01*X000407D01*Y005248D01*X000378D01*
X000607Y005662D02*X000578D01*X000607Y005619D01*Y005605D01*
X000592Y005577D01*X000549Y005534D01*X000478Y005505D01*X000449D01*
X000407Y005519D01*X000378Y005577D01*Y005648D01*X000421Y005719D01*
X000449Y005848D02*X000535D01*X000607Y005919D01*Y005991D01*
X000535Y006062D01*X000449D01*X000378Y005991D01*Y005919D01*
X000449Y005848D01*X000378Y006298D02*X000535D01*X000606Y006351D01*
X000535Y006405D01*X000378D01*X000535Y006191D02*X000606Y006244D01*
X000535Y006298D01*X000635Y006191D02*X000378D01*D10*X010285Y005162D02*
X011035D01*Y013162D01*X009035D01*Y005162D01*X009785D01*
X009797Y00524D01*X009833Y005309D01*X009888Y005365D01*X009958Y0054D01*
X010035Y005412D01*X010112Y0054D01*X010182Y005365D01*X010237Y005309D01*
X010273Y00524D01*X010285Y005162D01*D12*X00126Y000387D02*X01876D01*
X00126Y000437D02*X01876D01*X00126Y000486D02*X01876D01*X00126Y000536D02*
X01876D01*X00126Y000585D02*X01876D01*X00126Y000635D02*X01876D01*
X00126Y000684D02*X01876D01*X00126Y000733D02*X01876D01*X00126Y000783D02*
X01876D01*X00126Y000832D02*X01876D01*X00126Y000882D02*X01876D01*
X00126Y000931D02*X01876D01*X00126Y000981D02*X01876D01*X00126Y00103D02*
X01876D01*X00126Y001079D02*X01876D01*X00126Y001129D02*X01876D01*
X00126Y001178D02*X01876D01*X00126Y001228D02*X01876D01*X00126Y001277D02*
X01876D01*X00126Y001327D02*X01876D01*X00126Y001376D02*X01876D01*
X00126Y001426D02*X01876D01*X00126Y001475D02*X01876D01*X00126Y001524D02*
X01876D01*X00126Y001574D02*X01876D01*X00126Y001623D02*X01876D01*
X00126Y001673D02*X01876D01*X00126Y001722D02*X01876D01*X00126Y001772D02*
X01876D01*X00126Y001821D02*X01876D01*X00126Y00187D02*X01876D01*
X00126Y00192D02*X01876D01*X00126Y001969D02*X01876D01*X00126Y002019D02*
X01876D01*X00126Y002068D02*X01876D01*X00126Y002118D02*X01876D01*
X00126Y002167D02*X01876D01*X00126Y002217D02*X01876D01*X00126Y002266D02*
X01876D01*X00126Y002315D02*X01876D01*X00126Y002365D02*X01876D01*
X00126Y002414D02*X01876D01*X00126Y002464D02*X01876D01*X00126Y002513D02*
X01876D01*X00126Y002563D02*X01876D01*X00126Y002612D02*X01876D01*
X00126Y002661D02*X01876D01*X00126Y002711D02*X01876D01*X00126Y00276D02*
X01876D01*X00126Y00281D02*X01876D01*X00126Y002859D02*X01876D01*
X00126Y002909D02*X01876D01*X00126Y002958D02*X01876D01*X00126Y003008D02*
X01876D01*X00126Y003057D02*X01876D01*X00126Y003106D02*X01876D01*
X00126Y003156D02*X01876D01*X00126Y003205D02*X01876D01*X00126Y003255D02*
X01876D01*X00126Y003304D02*X01876D01*X00126Y003354D02*X01876D01*
X00126Y003403D02*X01876D01*X00126Y003453D02*X01876D01*X00126Y003502D02*
X01876D01*X00126Y003551D02*X01876D01*X00126Y003601D02*X01876D01*
X00126Y00365D02*X01876D01*X00126Y0037D02*X01876D01*X00126Y003749D02*
X01876D01*X00126Y003799D02*X01876D01*X00126Y003848D02*X01876D01*
X00126Y003897D02*X01876D01*X00126Y003947D02*X01876D01*X00126Y003996D02*
X01876D01*X00126Y004046D02*X01876D01*X00126Y004095D02*X01876D01*
X00126Y004145D02*X01876D01*X00126Y004194D02*X01876D01*X00126Y004244D02*
X01876D01*X00126Y004293D02*X01876D01*X00126Y004342D02*X01876D01*
X00126Y004392D02*X01876D01*X00126Y004441D02*X01876D01*X00126Y004491D02*
X01876D01*X00126Y00454D02*X01876D01*X00126Y00459D02*X01876D01*
X00126Y004639D02*X01876D01*X00126Y004688D02*X01876D01*X00126Y004738D02*
X01876D01*Y000387D02*Y004787D01*X00126D01*Y000387D01*X01876D01*
M02*