M48
FMAT,2
INCH,LZ
T1C0.0260
T2C0.0400
%
T1
X011535Y005662
X008535Y011662
X008535Y010662
X008535Y009662
X008535Y008662
X008535Y007662
X008535Y006662
X008535Y005662
X011535Y006662
X011535Y007662
X011535Y008662
X011535Y009662
X011535Y010662
X011535Y011662
X011535Y012662
X008535Y012662
T2
X001535Y016287
X018535Y014537
X016535Y014537
X014535Y014537
X012535Y014537
X010535Y014537
X008535Y014537
X006535Y014537
X004535Y014537
X002535Y014537
X003535Y016287
X005535Y016287
X007535Y016287
X009535Y016287
X011535Y016287
X013535Y016287
X015535Y016287
X017535Y016287
M30
