%FSTAX24Y24*%
%MOIN*%
%IN card16drill..gts *%
%ADD10C,0.0100*%
%ADD11C,0.0800*%
D11*X011535Y005662D03*X008535Y011662D03*Y010662D03*Y009662D03*
Y008662D03*Y007662D03*Y006662D03*Y005662D03*X011535Y006662D03*
Y007662D03*Y008662D03*Y009662D03*Y010662D03*Y011662D03*Y012662D03*
X008535D03*X018535Y014537D03*X016535D03*X014535D03*X012535D03*
X010535D03*X008535D03*X006535D03*X004535D03*X002535D03*
X003535Y016287D03*X005535D03*X007535D03*X009535D03*X011535D03*
X013535D03*X015535D03*X017535D03*D10*X00696Y003312D02*G01X01306D01*
X00696Y003362D02*X01306D01*X00696Y003412D02*X01306D01*X00696Y003462D02*
X01306D01*X00696Y003512D02*X01306D01*X00696Y003562D02*X01306D01*
X00696Y003612D02*X01306D01*X00696Y003662D02*X01306D01*X00696Y003712D02*
X01306D01*X00696Y003762D02*X01306D01*X00696Y003812D02*X01306D01*
X00696Y003862D02*X01306D01*X00696Y003911D02*X01306D01*X00696Y003961D02*
X01306D01*X00696Y004011D02*X01306D01*X00696Y004061D02*X01306D01*
X00696Y004111D02*X01306D01*X00696Y004161D02*X01306D01*X00696Y004211D02*
X01306D01*X00696Y004261D02*X01306D01*X00696Y004311D02*X01306D01*
X00696Y004361D02*X01306D01*X00696Y004411D02*X01306D01*X00696Y004461D02*
X01306D01*X00696Y004511D02*X01306D01*X00696Y004561D02*X01306D01*
X00696Y00461D02*X01306D01*X00696Y00466D02*X01306D01*X00696Y00471D02*
X01306D01*X00696Y00476D02*X01306D01*X00696Y00481D02*X01306D01*
X00696Y00486D02*X01306D01*X00696Y00491D02*X01306D01*X00696Y00496D02*
X01306D01*X00696Y00501D02*X01306D01*X00696Y00506D02*X01306D01*
X00696Y00511D02*X01306D01*X00696Y00516D02*X01306D01*X00696Y00521D02*
X01306D01*X00696Y00526D02*X01306D01*X00696Y005309D02*X01306D01*
X00696Y005359D02*X01306D01*X00696Y005409D02*X01306D01*X00696Y005459D02*
X01306D01*X00696Y005509D02*X01306D01*X00696Y005559D02*X01306D01*
X00696Y005609D02*X01306D01*X00696Y005659D02*X01306D01*X00696Y005709D02*
X01306D01*X00696Y005759D02*X01306D01*X00696Y005809D02*X01306D01*
X00696Y005859D02*X01306D01*X00696Y005909D02*X01306D01*X00696Y005959D02*
X01306D01*X00696Y006009D02*X01306D01*X00696Y006058D02*X01306D01*
X00696Y006108D02*X01306D01*X00696Y006158D02*X01306D01*X00696Y006208D02*
X01306D01*X00696Y006258D02*X01306D01*X00696Y006308D02*X01306D01*
X00696Y006358D02*X01306D01*X00696Y006408D02*X01306D01*X00696Y006458D02*
X01306D01*X00696Y006508D02*X01306D01*X00696Y006558D02*X01306D01*
X00696Y006608D02*X01306D01*X00696Y006658D02*X01306D01*X00696Y006708D02*
X01306D01*X00696Y006757D02*X01306D01*X00696Y006807D02*X01306D01*
X00696Y006857D02*X01306D01*X00696Y006907D02*X01306D01*X00696Y006957D02*
X01306D01*X00696Y007007D02*X01306D01*X00696Y007057D02*X01306D01*
X00696Y007107D02*X01306D01*X00696Y007157D02*X01306D01*X00696Y007207D02*
X01306D01*X00696Y007257D02*X01306D01*X00696Y007307D02*X01306D01*
X00696Y007357D02*X01306D01*X00696Y007407D02*X01306D01*X00696Y007456D02*
X01306D01*X00696Y007506D02*X01306D01*X00696Y007556D02*X01306D01*
X00696Y007606D02*X01306D01*X00696Y007656D02*X01306D01*X00696Y007706D02*
X01306D01*X00696Y007756D02*X01306D01*X00696Y007806D02*X01306D01*
X00696Y007856D02*X01306D01*X00696Y007906D02*X01306D01*X00696Y007956D02*
X01306D01*X00696Y008006D02*X01306D01*X00696Y008056D02*X01306D01*
X00696Y008106D02*X01306D01*X00696Y008155D02*X01306D01*X00696Y008205D02*
X01306D01*X00696Y008255D02*X01306D01*X00696Y008305D02*X01306D01*
X00696Y008355D02*X01306D01*X00696Y008405D02*X01306D01*X00696Y008455D02*
X01306D01*X00696Y008505D02*X01306D01*X00696Y008555D02*X01306D01*
X00696Y008605D02*X01306D01*X00696Y008655D02*X01306D01*X00696Y008705D02*
X01306D01*X00696Y008755D02*X01306D01*X00696Y008805D02*X01306D01*
X00696Y008854D02*X01306D01*X00696Y008904D02*X01306D01*X00696Y008954D02*
X01306D01*X00696Y009004D02*X01306D01*X00696Y009054D02*X01306D01*
X00696Y009104D02*X01306D01*X00696Y009154D02*X01306D01*X00696Y009204D02*
X01306D01*X00696Y009254D02*X01306D01*X00696Y009304D02*X01306D01*
X00696Y009354D02*X01306D01*X00696Y009404D02*X01306D01*X00696Y009454D02*
X01306D01*X00696Y009504D02*X01306D01*X00696Y009553D02*X01306D01*
X00696Y009603D02*X01306D01*X00696Y009653D02*X01306D01*X00696Y009703D02*
X01306D01*X00696Y009753D02*X01306D01*X00696Y009803D02*X01306D01*
X00696Y009853D02*X01306D01*X00696Y009903D02*X01306D01*X00696Y009953D02*
X01306D01*X00696Y010003D02*X01306D01*X00696Y010053D02*X01306D01*
X00696Y010103D02*X01306D01*X00696Y010153D02*X01306D01*X00696Y010203D02*
X01306D01*X00696Y010252D02*X01306D01*X00696Y010302D02*X01306D01*
X00696Y010352D02*X01306D01*X00696Y010402D02*X01306D01*X00696Y010452D02*
X01306D01*X00696Y010502D02*X01306D01*X00696Y010552D02*X01306D01*
X00696Y010602D02*X01306D01*X00696Y010652D02*X01306D01*X00696Y010702D02*
X01306D01*X00696Y010752D02*X01306D01*X00696Y010802D02*X01306D01*
X00696Y010852D02*X01306D01*X00696Y010902D02*X01306D01*X00696Y010951D02*
X01306D01*X00696Y011001D02*X01306D01*X00696Y011051D02*X01306D01*
X00696Y011101D02*X01306D01*X00696Y011151D02*X01306D01*X00696Y011201D02*
X01306D01*X00696Y011251D02*X01306D01*X00696Y011301D02*X01306D01*
X00696Y011351D02*X01306D01*X00696Y011401D02*X01306D01*X00696Y011451D02*
X01306D01*X00696Y011501D02*X01306D01*X00696Y011551D02*X01306D01*
X00696Y011601D02*X01306D01*X00696Y01165D02*X01306D01*X00696Y0117D02*
X01306D01*X00696Y01175D02*X01306D01*X00696Y0118D02*X01306D01*
X00696Y01185D02*X01306D01*X00696Y0119D02*X01306D01*X00696Y01195D02*
X01306D01*X00696Y012D02*X01306D01*X00696Y01205D02*X01306D01*
X00696Y0121D02*X01306D01*X00696Y01215D02*X01306D01*X00696Y0122D02*
X01306D01*X00696Y01225D02*X01306D01*X00696Y0123D02*X01306D01*
X00696Y012349D02*X01306D01*X00696Y012399D02*X01306D01*X00696Y012449D02*
X01306D01*X00696Y012499D02*X01306D01*X00696Y012549D02*X01306D01*
X00696Y012599D02*X01306D01*X00696Y012649D02*X01306D01*X00696Y012699D02*
X01306D01*X001001Y012749D02*X019119D01*X000917Y012799D02*X019203D01*
X000862Y012849D02*X019258D01*X000824Y012899D02*X019296D01*
X000799Y012949D02*X019322D01*X000778Y012999D02*X019342D01*
X000769Y013048D02*X019352D01*X000762Y013098D02*X019358D01*
X00076Y013148D02*X01936D01*X00076Y013198D02*X01936D01*X00076Y013248D02*
X01936D01*X00076Y013298D02*X01936D01*X00076Y013348D02*X01936D01*
X00076Y013398D02*X01936D01*X00076Y013448D02*X01936D01*X00076Y013498D02*
X01936D01*X00076Y013548D02*X01936D01*X00076Y013598D02*X01936D01*
X00076Y013648D02*X01936D01*X00076Y013698D02*X01936D01*X00076Y013747D02*
X01936D01*X00076Y013797D02*X01936D01*X00076Y013847D02*X01936D01*
X00076Y013897D02*X01936D01*X00076Y013947D02*X01936D01*X00076Y013997D02*
X01936D01*X00076Y014047D02*X01936D01*X00076Y014097D02*X01936D01*
X00076Y014147D02*X01936D01*X00076Y014197D02*X01936D01*X00076Y014247D02*
X01936D01*X00076Y014297D02*X01936D01*X00076Y014347D02*X01936D01*
X00076Y014397D02*X01936D01*X00076Y014446D02*X01936D01*X00076Y014496D02*
X01936D01*X00076Y014546D02*X01936D01*X00076Y014596D02*X01936D01*
X00076Y014646D02*X01936D01*X00076Y014696D02*X01936D01*X00076Y014746D02*
X01936D01*X00076Y014796D02*X01936D01*X00076Y014846D02*X01936D01*
X00076Y014896D02*X01936D01*X00076Y014946D02*X01936D01*X00076Y014996D02*
X01936D01*X00076Y015046D02*X01936D01*X00076Y015096D02*X01936D01*
X00076Y015146D02*X01936D01*X00076Y015195D02*X01936D01*X00076Y015245D02*
X01936D01*X00076Y015295D02*X01936D01*X00076Y015345D02*X01936D01*
X00076Y015395D02*X01936D01*X00076Y015445D02*X01936D01*X00076Y015495D02*
X01936D01*X00076Y015545D02*X01936D01*X00076Y015595D02*X01936D01*
X00076Y015645D02*X01936D01*X00076Y015695D02*X01936D01*X00076Y015745D02*
X01936D01*X00076Y015795D02*X01936D01*X00076Y015845D02*X01936D01*
X00076Y015894D02*X01936D01*X00076Y015944D02*X01936D01*X00076Y015994D02*
X01936D01*X00076Y016044D02*X01936D01*X00076Y016094D02*X01936D01*
X00076Y016144D02*X01936D01*X00076Y016194D02*X01936D01*X00076Y016244D02*
X01936D01*X00076Y016294D02*X01936D01*X00076Y016344D02*X01936D01*
X00076Y016394D02*X01936D01*X00076Y016444D02*X01936D01*X00076Y016494D02*
X01936D01*X00076Y016544D02*X01936D01*X00076Y016593D02*X01936D01*
X00076Y016643D02*X01936D01*X00076Y016693D02*X01936D01*X00076Y016743D02*
X01936D01*X00076Y016793D02*X01936D01*X00076Y016843D02*X01936D01*
X00076Y016893D02*X01936D01*X00076Y016943D02*X01936D01*X00076Y016993D02*
X01936D01*X00076Y017043D02*X01936D01*X00076Y017093D02*X01936D01*
X00076Y017143D02*X01936D01*X00076Y017193D02*X01936D01*X00076Y017243D02*
X01936D01*X00076Y017292D02*X01936D01*X00076Y017342D02*X01936D01*
X00076Y017392D02*X01936D01*X00076Y017442D02*X01936D01*X00076Y017492D02*
X01936D01*X00076Y017542D02*X01936D01*X00076Y017592D02*X01936D01*
X00076Y017642D02*X01936D01*X00076Y017692D02*X01936D01*X00076Y017742D02*
X01936D01*X00076Y017792D02*X01936D01*X00076Y017842D02*X01936D01*
X00076Y017892D02*X01936D01*X00076Y017942D02*X01936D01*X00076Y017991D02*
X01936D01*X00076Y018041D02*X01936D01*X00076Y018091D02*X01936D01*
X00076Y018141D02*X01936D01*X00076Y018191D02*X01936D01*X00076Y018241D02*
X01936D01*X00076Y018291D02*X01936D01*X00076Y018341D02*X01936D01*
X00076Y018391D02*X01936D01*X00076Y018441D02*X01936D01*X00076Y018491D02*
X01936D01*X00076Y018541D02*X01936D01*X00076Y018591D02*X01936D01*
X00076Y018641D02*X01936D01*X00076Y01869D02*X01936D01*X00076Y01874D02*
X01936D01*X00076Y01879D02*X01936D01*X00076Y01884D02*X01936D01*
X00076Y01889D02*X01936D01*X00076Y01894D02*X01936D01*X00076Y01899D02*
X01936D01*X00076Y01904D02*X01936D01*X00076Y01909D02*X01936D01*
X00076Y01914D02*X01936D01*X00076Y01919D02*X01936D01*X00076Y01924D02*
X01936D01*X00076Y01929D02*X01936D01*X00076Y01934D02*X01936D01*
X00076Y019389D02*X01936D01*X00076Y019439D02*X01936D01*X00076Y019489D02*
X01936D01*X00076Y019539D02*X01936D01*X00076Y019589D02*X01936D01*
X00076Y019639D02*X01936D01*X00076Y019689D02*X01936D01*X00076Y019739D02*
X01936D01*X00076Y019789D02*X01936D01*X00076Y019839D02*X01936D01*
X00076Y019889D02*X01936D01*X00076Y019939D02*X01936D01*X00076Y019989D02*
X01936D01*X00076Y020039D02*X01936D01*X00076Y020088D02*X01936D01*
X00076Y020138D02*X01936D01*X00076Y020188D02*X01936D01*X00076Y020238D02*
X01936D01*X00076Y020288D02*X01936D01*X00076Y020338D02*X01936D01*
X00076Y020388D02*X01936D01*X00076Y020438D02*X01936D01*X00076Y020488D02*
X01936D01*X00076Y020538D02*X01936D01*X00076Y020588D02*X01936D01*
X00076Y020638D02*X01936D01*X00076Y020688D02*X01936D01*X00076Y020738D02*
X01936D01*X00076Y020787D02*X01936D01*X00076Y020837D02*X01936D01*
X01306Y003312D02*X00696D01*Y012712D01*X00116D01*X001057Y012726D01*
X00096Y012766D01*X000877Y012829D01*X000814Y012912D01*X000774Y013009D01*
X00076Y013112D01*Y020887D01*X01936D01*Y013112D01*X019346Y013009D01*
X019307Y012912D01*X019243Y012829D01*X01916Y012766D01*X019064Y012726D01*
X01896Y012712D01*X01306D01*Y003312D01*
M02*