%FSTAX24Y24*%
%MOIN*%
%IN card16drill..gto *%
%ADD10C,0.0057*%
%ADD11C,0.0086*%
%ADD12C,0.0100*%
D10*X002544Y014D02*G01X002601Y014057D01*Y013714D01*X002659D01*
X002601D02*X002544D01*D11*X008274Y004916D02*X00836Y005002D01*
Y004487D01*X008446D01*X00836D02*X008274D01*D10*X012761Y015702D02*
X012818Y015759D01*Y015417D01*X012875D01*X012818D02*X012761D01*
X013275Y015702D02*X013218Y015759D01*X013103D01*X013046Y015702D01*
Y015474D01*X013103Y015417D01*X013218D01*X013275Y015474D01*Y015702D01*
X013161Y015645D02*Y015531D01*X013389Y015417D02*X013618Y015759D01*
X013789Y015702D02*X013846Y015759D01*Y015417D01*X013903D01*X013846D02*
X013789D01*X014075Y015702D02*X014132Y015759D01*X014246D01*
X014303Y015702D01*Y015645D01*X014246Y015588D01*X014075Y015474D01*
Y015417D01*X014303D01*X013813Y014D02*X01387Y014057D01*Y013714D01*
X013928D01*X01387D02*X013813D01*X014156Y014D02*X014213Y014057D01*
Y013714D01*X01427D01*X014213D02*X014156D01*X014442D02*X01467Y014057D01*
X014842Y014D02*X014899Y014057D01*Y013714D01*X014956D01*X014899D02*
X014842D01*X015128Y014D02*X015185Y014057D01*X015299D01*X015356Y014D01*
Y013943D01*X015299Y013886D01*X015356Y013829D01*Y013772D01*
X015299Y013714D01*X015185D01*X015128Y013772D01*X015299Y013886D02*
X015242D01*X014783Y015702D02*X01484Y015759D01*Y015417D01*X014897D01*
X01484D02*X014783D01*X015068Y015702D02*X015126Y015759D01*X01524D01*
X015297Y015702D01*Y015645D01*X01524Y015588D01*X015068Y015474D01*
Y015417D01*X015297D01*X015411D02*X01564Y015759D01*X015811Y015702D02*
X015868Y015759D01*Y015417D01*X015926D01*X015868D02*X015811D01*
X016268D02*Y015759D01*X016097Y015559D01*X016326D01*X015817Y014D02*
X015874Y014057D01*Y013714D01*X015931D01*X015874D02*X015817D01*
X016103Y014D02*X01616Y014057D01*X016274D01*X016331Y014D01*Y013943D01*
X016274Y013886D01*X016331Y013829D01*Y013772D01*X016274Y013714D01*
X01616D01*X016103Y013772D01*X016274Y013886D02*X016217D01*
X016445Y013714D02*X016674Y014057D01*X016845Y014D02*X016903Y014057D01*
Y013714D01*X01696D01*X016903D02*X016845D01*X01736Y014057D02*X017131D01*
Y013886D01*X017188Y013943D01*X017303D01*X01736Y013886D01*Y013772D01*
X017303Y013714D01*X017188D01*X017131Y013772D01*X016736Y015702D02*
X016793Y015759D01*Y015417D01*X01685D01*X016793D02*X016736D01*
X017193D02*Y015759D01*X017022Y015559D01*X01725D01*X017364Y015417D02*
X017593Y015759D01*X017764Y015702D02*X017822Y015759D01*Y015417D01*
X017879D01*X017822D02*X017764D01*X018279Y015702D02*X018222Y015759D01*
X018107D01*X01805Y015702D01*Y015474D01*X018107Y015417D01*X018222D01*
X018279Y015474D01*Y015559D01*X018222Y015617D01*X018107D01*
X01805Y015559D01*X003409Y015702D02*X003466Y015759D01*X003581D01*
X003638Y015702D01*Y015645D01*X003581Y015588D01*X003409Y015474D01*
Y015417D01*X003638D01*X004501Y014D02*X004559Y014057D01*X004673D01*
X00473Y014D01*Y013943D01*X004673Y013886D01*X00473Y013829D01*Y013772D01*
X004673Y013714D01*X004559D01*X004501Y013772D01*X004673Y013886D02*
X004616D01*X005588Y015417D02*Y015759D01*X005417Y015559D01*X005646D01*
X006693Y014057D02*X006464D01*Y013886D01*X006521Y013943D01*X006635D01*
X006693Y013886D01*Y013772D01*X006635Y013714D01*X006521D01*
X006464Y013772D01*X007665Y015702D02*X007608Y015759D01*X007494D01*
X007437Y015702D01*Y015474D01*X007494Y015417D01*X007608D01*
X007665Y015474D01*Y015559D01*X007608Y015617D01*X007494D01*
X007437Y015559D01*X008442Y014057D02*X00867D01*X008499Y013714D01*
X011105Y015588D02*X011162Y015645D01*Y015702D01*X011105Y015759D01*
X010991D01*X010934Y015702D01*Y015645D01*X010991Y015588D01*X011105D01*
X011162Y015531D01*Y015474D01*X011105Y015417D01*X010991D01*
X010934Y015474D01*Y015531D01*X010991Y015588D01*X011277Y015417D02*
X011505Y015759D01*X011677Y015702D02*X011734Y015759D01*Y015417D01*
X011791D01*X011734D02*X011677D01*X012191Y015702D02*X012134Y015759D01*
X01202D01*X011962Y015702D01*Y015474D01*X01202Y015417D01*X012134D01*
X012191Y015474D01*Y015702D01*X012077Y015645D02*Y015531D01*
X01211Y013772D02*X012167Y013714D01*X012281D01*X012338Y013772D01*
Y014D01*X012281Y014057D01*X012167D01*X01211Y014D01*Y013914D01*
X012167Y013857D01*X012281D01*X012338Y013914D01*X012452Y013714D02*
X012681Y014057D01*X012852Y014D02*X01291Y014057D01*Y013714D01*
X012967D01*X01291D02*X012852D01*X013195Y014D02*X013252Y014057D01*
Y013714D01*X01331D01*X013252D02*X013195D01*X001281Y015702D02*
X001224Y015759D01*X001109D01*X001052Y015702D01*Y015474D01*
X001109Y015417D01*X001224D01*X001281Y015474D01*Y015559D01*X001224D01*
X001395Y015417D02*Y015759D01*X001624Y015417D01*Y015759D01*
X001966Y015702D02*X001909Y015759D01*X001738D01*Y015417D01*X001909D01*
X001966Y015474D01*Y015702D01*X000764Y011405D02*Y011748D01*
X000935Y011662D02*Y011405D01*Y011562D02*X001007Y011634D01*X001078D01*
X001149Y011562D01*Y011405D01*X001421D02*X001349D01*X001278Y011434D02*
X001307Y011405D01*X001464D01*X001492Y011434D01*Y011491D01*
X001464Y011519D01*X001307D01*X001278Y011548D01*Y011605D01*
X001307Y011634D01*X001464D01*X001492Y011605D01*X001621Y011534D02*
X001835D01*Y011562D01*X001764Y011634D01*X001692D01*X001621Y011577D01*
Y011477D01*Y011462D01*X001678Y011405D01*X001792D01*X001835Y011434D01*
X001964Y011662D02*Y011405D01*X002178Y011591D02*X002107Y011634D01*
X002035D01*X001964Y011591D01*X002364Y011691D02*Y011434D01*
X002392Y011405D01*X002435D01*X002464Y011434D01*X002307Y011634D02*
X002421D01*X003149D02*Y011605D01*X003107Y011634D01*X003092D01*
X003064Y011619D01*X003021Y011577D01*X002992Y011505D01*Y011477D01*
X003007Y011434D01*X003064Y011405D01*X003135D01*X003207Y011448D01*
X003335Y011748D02*Y011405D01*Y011577D02*X003407Y011634D01*X003478D01*
X003549Y011562D01*Y011405D01*X003735Y011627D02*Y011405D01*Y011719D02*
Y011727D01*X003907Y011634D02*Y011277D01*Y011477D02*X003978Y011405D01*
X004049D01*X004121Y011477D01*Y011562D01*X004049Y011634D01*X003978D01*
X003907Y011577D01*X004678Y011405D02*Y011719D01*X004707Y011748D01*
X004764D01*X004792Y011719D01*Y011705D01*X004621Y011577D02*X004735D01*
X004935Y011662D02*Y011405D01*X005149Y011591D02*X005078Y011634D01*
X005007D01*X004935Y011591D01*X005278Y011477D02*Y011562D01*
X005349Y011634D01*X005421D01*X005492Y011562D01*Y011477D01*
X005421Y011405D01*X005349D01*X005278Y011477D01*X005728Y011405D02*
Y011562D01*X005781Y011633D01*X005835Y011562D01*Y011405D01*
X005621Y011562D02*X005674Y011633D01*X005728Y011562D01*
X005621Y011662D02*Y011405D01*X000735Y009505D02*Y009848D01*X000907D01*
X000964Y009791D01*Y009734D01*X000907Y009677D01*X000964Y009619D01*
Y009562D01*X000907Y009505D01*X000735D01*X000907Y009677D02*X000735D01*
X001078Y009634D02*X001292D01*Y009662D01*X001221Y009734D01*X001149D01*
X001078Y009677D01*Y009577D01*Y009562D01*X001135Y009505D01*X001249D01*
X001292Y009534D01*X001421Y009762D02*Y009505D01*Y009662D02*
X001492Y009734D01*X001564D01*X001635Y009662D01*Y009505D01*
X001978Y009848D02*Y009505D01*Y009662D02*X001907Y009734D01*X001835D01*
X001764Y009677D01*Y009577D01*X001835Y009505D01*X001907D01*
X001978Y009577D01*X002678Y009791D02*X002621Y009848D01*X002507D01*
X002449Y009791D01*Y009562D01*X002507Y009505D01*X002621D01*
X002678Y009562D01*Y009648D01*X002621D01*X002792Y009505D02*Y009848D01*
X003021Y009505D01*Y009848D01*X003364Y009791D02*X003307Y009848D01*
X003135D01*Y009505D01*X003307D01*X003364Y009562D01*Y009791D01*
X003821Y009734D02*Y009377D01*Y009577D02*X003892Y009505D01*X003964D01*
X004035Y009577D01*Y009662D01*X003964Y009734D01*X003892D01*
X003821Y009677D01*X004221Y009727D02*Y009505D01*Y009819D02*Y009827D01*
X004392Y009762D02*Y009505D01*Y009662D02*X004464Y009734D01*X004535D01*
X004607Y009662D01*Y009505D01*X005078Y009577D02*Y009662D01*
X005149Y009734D01*X005221D01*X005292Y009662D01*Y009577D01*
X005221Y009505D01*X005149D01*X005078Y009577D01*X005635Y009734D02*
Y009505D01*Y009562D02*X005578Y009505D01*X005478D01*X005421Y009562D01*
Y009734D01*X005821Y009791D02*Y009534D01*X005849Y009505D01*X005892D01*
X005921Y009534D01*X005764Y009734D02*X005878D01*X000735Y007605D02*
Y007948D01*X000907D01*X000964Y007891D01*Y007834D01*X000907Y007777D01*
X000964Y007719D01*Y007662D01*X000907Y007605D01*X000735D01*
X000907Y007777D02*X000735D01*X001078Y007734D02*X001292D01*Y007762D01*
X001221Y007834D01*X001149D01*X001078Y007777D01*Y007677D01*Y007662D01*
X001135Y007605D01*X001249D01*X001292Y007634D01*X001421Y007862D02*
Y007605D01*Y007762D02*X001492Y007834D01*X001564D01*X001635Y007762D01*
Y007605D01*X001978Y007948D02*Y007605D01*Y007762D02*X001907Y007834D01*
X001835D01*X001764Y007777D01*Y007677D01*X001835Y007605D01*X001907D01*
X001978Y007677D01*X002449Y007948D02*X002564Y007605D01*
X002678Y007948D01*X002949Y007834D02*Y007805D01*X002907Y007834D01*
X002892D01*X002864Y007819D01*X002821Y007777D01*X002792Y007705D01*
Y007677D01*X002807Y007634D01*X002864Y007605D01*X002935D01*
X003007Y007648D01*X003292Y007834D02*Y007805D01*X003249Y007834D01*
X003235D01*X003207Y007819D01*X003164Y007777D01*X003135Y007705D01*
Y007677D01*X003149Y007634D01*X003207Y007605D01*X003278D01*
X003349Y007648D01*X003821Y007834D02*Y007477D01*Y007677D02*
X003892Y007605D01*X003964D01*X004035Y007677D01*Y007762D01*
X003964Y007834D01*X003892D01*X003821Y007777D01*X004221Y007827D02*
Y007605D01*Y007919D02*Y007927D01*X004392Y007862D02*Y007605D01*
Y007762D02*X004464Y007834D01*X004535D01*X004607Y007762D01*Y007605D01*
X005135Y007827D02*Y007605D01*Y007919D02*Y007927D01*X005307Y007862D02*
Y007605D01*Y007762D02*X005378Y007834D01*X005449D01*X005521Y007762D01*
Y007605D01*D11*X018546Y003787D02*X01906D01*Y00353D01*X018974Y003444D01*
X018889D01*X018803Y00353D01*X018717Y003444D01*X018632D01*
X018546Y00353D01*Y003787D01*X018803Y00353D02*Y003787D01*
X018974Y00293D02*X01906Y003016D01*Y003187D01*X018974Y003273D01*
X018632D01*X018546Y003187D01*Y003016D01*X018632Y00293D01*X018974D01*
X018546Y002587D02*X01906D01*Y002416D01*Y002587D02*Y002759D01*
X018546Y002073D02*X01906D01*Y001902D01*Y002073D02*Y002244D01*
X018974Y001387D02*X01906Y001473D01*Y001644D01*X018974Y00173D01*
X018632D01*X018546Y001644D01*Y001473D01*X018632Y001387D01*X018974D01*
X018546Y001216D02*X01906D01*X018803Y001044D01*X01906Y000873D01*
X018546D01*D10*X000892Y003477D02*Y003448D01*X000849Y003477D01*
X000835D01*X000807Y003462D01*X000764Y003419D01*X000735Y003348D01*
Y003319D01*X000749Y003277D01*X000807Y003248D01*X000878D01*
X000949Y003291D01*X001078Y003591D02*Y003248D01*Y003419D02*
X001149Y003477D01*X001221D01*X001292Y003405D01*Y003248D01*
X001478Y003469D02*Y003248D01*Y003562D02*Y003569D01*X001649Y003477D02*
Y003119D01*Y003319D02*X001721Y003248D01*X001792D01*X001864Y003319D01*
Y003405D01*X001792Y003477D01*X001721D01*X001649Y003419D01*
X002564Y003248D02*Y003477D01*X002335Y003322D02*X002355Y003394D01*
X002387Y003442D01*X002427Y003468D01*X002455Y003477D01*X002478D01*
X002518D01*X002564Y003454D01*X002335Y003319D02*Y003302D01*
X002338Y003291D01*X002347Y003277D01*X002367Y003265D01*
X002407Y003248D01*X002469D01*X002529Y003274D01*X002564Y003305D01*
X002678Y003505D02*Y003248D01*Y003405D02*X002749Y003477D01*X002821D01*
X002892Y003405D01*Y003248D01*X003235Y003591D02*Y003248D01*Y003405D02*
X003164Y003477D01*X003092D01*X003021Y003419D01*Y003319D01*
X003092Y003248D01*X003164D01*X003235Y003319D01*X003764Y003469D02*
Y003248D01*Y003562D02*Y003569D01*X004078Y003248D02*X004007D01*
X003935Y003277D02*X003964Y003248D01*X004121D01*X004149Y003277D01*
Y003334D01*X004121Y003362D01*X003964D01*X003935Y003391D01*Y003448D01*
X003964Y003477D01*X004121D01*X004149Y003448D01*X004278Y003319D02*
Y003405D01*X004349Y003477D01*X004421D01*X004492Y003405D01*Y003319D01*
X004421Y003248D01*X004349D01*X004278Y003319D01*X004678Y003248D02*
Y003591D01*X005192Y003248D02*Y003477D01*X004964Y003322D02*
X004984Y003394D01*X005015Y003442D01*X005055Y003468D01*
X005084Y003477D01*X005107D01*X005147D01*X005192Y003454D01*
X004964Y003319D02*Y003302D01*X004967Y003291D01*X004975Y003277D01*
X004995Y003265D01*X005035Y003248D01*X005098D01*X005158Y003274D01*
X005192Y003305D01*X005364Y003534D02*Y003277D01*X005392Y003248D01*
X005435D01*X005464Y003277D01*X005307Y003477D02*X005421D01*
X005649Y003377D02*X005864D01*Y003405D01*X005792Y003477D01*X005721D01*
X005649Y003419D01*Y003319D01*Y003305D01*X005707Y003248D01*X005821D01*
X005864Y003277D01*X000735Y002834D02*X000949D01*Y002862D01*
X000878Y002934D01*X000807D01*X000735Y002877D01*Y002777D01*Y002762D01*
X000792Y002705D01*X000907D01*X000949Y002734D01*X001292Y003048D02*
Y002705D01*Y002862D02*X001221Y002934D01*X001149D01*X001078Y002877D01*
Y002777D01*X001149Y002705D01*X001221D01*X001292Y002777D01*X001635D02*
X001564Y002705D01*X001492D01*X001421Y002777D01*Y002877D01*
X001492Y002934D01*X001564D01*X001635Y002862D01*Y002648D01*
X001564Y002577D01*X001492D01*X001421Y002619D01*X001764Y002834D02*
X001978D01*Y002862D01*X001907Y002934D01*X001835D01*X001764Y002877D01*
Y002777D01*Y002762D01*X001821Y002705D01*X001935D01*X001978Y002734D01*
X002607Y002934D02*Y002905D01*X002564Y002934D01*X002549D01*
X002521Y002919D01*X002478Y002877D01*X002449Y002805D01*Y002777D01*
X002464Y002734D01*X002521Y002705D01*X002592D01*X002664Y002748D01*
X002792Y002777D02*Y002862D01*X002864Y002934D01*X002935D01*
X003007Y002862D01*Y002777D01*X002935Y002705D01*X002864D01*
X002792Y002777D01*X003135Y002962D02*Y002705D01*Y002862D02*
X003207Y002934D01*X003278D01*X003349Y002862D01*Y002705D01*
X003478Y002962D02*Y002705D01*Y002862D02*X003549Y002934D01*X003621D01*
X003692Y002862D01*Y002705D01*X003821Y002834D02*X004035D01*Y002862D01*
X003964Y002934D01*X003892D01*X003821Y002877D01*Y002777D01*Y002762D01*
X003878Y002705D01*X003992D01*X004035Y002734D01*X004321Y002934D02*
Y002905D01*X004278Y002934D01*X004264D01*X004235Y002919D01*
X004192Y002877D01*X004164Y002805D01*Y002777D01*X004178Y002734D01*
X004235Y002705D01*X004307D01*X004378Y002748D01*X004564Y002991D02*
Y002734D01*X004592Y002705D01*X004635D01*X004664Y002734D01*
X004507Y002934D02*X004621D01*X004849Y002777D02*Y002862D01*
X004921Y002934D01*X004992D01*X005064Y002862D01*Y002777D01*
X004992Y002705D01*X004921D01*X004849Y002777D01*X005192Y002962D02*
Y002705D01*X005407Y002891D02*X005335Y002934D01*X005264D01*
X005192Y002891D01*X005678Y002705D02*X005607D01*X005535Y002734D02*
X005564Y002705D01*X005721D01*X005749Y002734D01*Y002791D01*
X005721Y002819D01*X005564D01*X005535Y002848D01*Y002905D01*
X005564Y002934D01*X005721D01*X005749Y002905D01*X006221Y002777D02*
Y002862D01*X006292Y002934D01*X006364D01*X006435Y002862D01*Y002777D01*
X006364Y002705D01*X006292D01*X006221Y002777D01*X006564Y002962D02*
Y002705D01*Y002862D02*X006635Y002934D01*X006707D01*X006778Y002862D01*
Y002705D01*X000792Y003791D02*Y004134D01*X001192Y004077D02*
X001135Y004134D01*X000964D01*Y003791D01*X001135D01*X001192Y003848D01*
Y004077D01*X001649Y003862D02*Y003948D01*X001721Y004019D01*X001792D01*
X001864Y003948D01*Y003862D01*X001792Y003791D01*X001721D01*
X001649Y003862D01*X002207Y004019D02*Y003791D01*Y003848D02*
X002149Y003791D01*X002049D01*X001992Y003848D01*Y004019D01*
X002392Y004077D02*Y003819D01*X002421Y003791D01*X002464D01*
X002492Y003819D01*X002335Y004019D02*X002449D01*X002678D02*Y003662D01*
Y003862D02*X002749Y003791D01*X002821D01*X002892Y003862D01*Y003948D01*
X002821Y004019D01*X002749D01*X002678Y003962D01*X003235Y004019D02*
Y003791D01*Y003848D02*X003178Y003791D01*X003078D01*X003021Y003848D01*
Y004019D01*X003421Y004077D02*Y003819D01*X003449Y003791D01*X003492D01*
X003521Y003819D01*X003364Y004019D02*X003478D01*X004049D02*Y003662D01*
Y003862D02*X004121Y003791D01*X004192D01*X004264Y003862D01*Y003948D01*
X004192Y004019D01*X004121D01*X004049Y003962D01*X004449Y004012D02*
Y003791D01*Y004105D02*Y004112D01*X004621Y004048D02*Y003791D01*
Y003948D02*X004692Y004019D01*X004764D01*X004835Y003948D01*Y003791D01*
X005107D02*X005035D01*X004964Y003819D02*X004992Y003791D01*X005149D01*
X005178Y003819D01*Y003877D01*X005149Y003905D01*X004992D01*
X004964Y003934D01*Y003991D01*X004992Y004019D01*X005149D01*
X005178Y003991D01*X005649Y003862D02*Y003948D01*X005721Y004019D01*
X005792D01*X005864Y003948D01*Y003862D01*X005792Y003791D01*X005721D01*
X005649Y003862D01*X006078Y003791D02*Y004105D01*X006107Y004134D01*
X006164D01*X006192Y004105D01*Y004091D01*X006021Y003962D02*X006135D01*
X013932Y01163D02*X013874Y011687D01*X01376D01*X013703Y01163D01*
Y011402D01*X01376Y011344D01*X013874D01*X013932Y011402D01*Y01163D01*
X014274Y011687D02*X014046D01*Y011516D01*Y011344D01*Y011516D02*
X014217D01*X014789Y01163D02*X014846Y011687D01*Y011344D01*X014903D01*
X014846D02*X014789D01*X015246D02*Y011687D01*X015074Y011487D01*
X015303D01*X01576Y011344D02*X015989Y011687D01*X016674Y01163D02*
X016617Y011687D01*X016503D01*X016446Y01163D01*Y011402D01*
X016503Y011344D01*X016617D01*X016674Y011402D01*Y01163D01*
X017017Y011687D02*X016789D01*Y011516D01*Y011344D01*Y011516D02*
X01696D01*X017532Y01163D02*X017589Y011687D01*Y011344D01*X017646D01*
X017589D02*X017532D01*X018046Y01163D02*X017989Y011687D01*X017874D01*
X017817Y01163D01*Y011402D01*X017874Y011344D01*X017989D01*
X018046Y011402D01*Y011487D01*X017989Y011544D01*X017874D01*
X017817Y011487D01*X000792Y002448D02*Y002191D01*X000821Y002162D01*
X000864D01*X000892Y002191D01*X000735Y002391D02*X000849D01*
X001078Y002505D02*Y002162D01*Y002334D02*X001149Y002391D01*X001221D01*
X001292Y002319D01*Y002162D01*X001478Y002384D02*Y002162D01*Y002477D02*
Y002484D01*X001792Y002162D02*X001721D01*X001649Y002191D02*
X001678Y002162D01*X001835D01*X001864Y002191D01*Y002248D01*
X001835Y002277D01*X001678D01*X001649Y002305D01*Y002362D01*
X001678Y002391D01*X001835D01*X001864Y002362D01*X002478Y002162D02*
X002407D01*X002335Y002191D02*X002364Y002162D01*X002521D01*
X002549Y002191D01*Y002248D01*X002521Y002277D01*X002364D01*
X002335Y002305D01*Y002362D01*X002364Y002391D01*X002521D01*
X002549Y002362D01*X002735Y002384D02*Y002162D01*Y002477D02*Y002484D01*
X003121Y002505D02*Y002162D01*Y002319D02*X003049Y002391D01*X002978D01*
X002907Y002334D01*Y002234D01*X002978Y002162D01*X003049D01*
X003121Y002234D01*X003249Y002291D02*X003464D01*Y002319D01*
X003392Y002391D01*X003321D01*X003249Y002334D01*Y002234D01*Y002219D01*
X003307Y002162D01*X003421D01*X003464Y002191D01*X003935Y002234D02*
Y002319D01*X004007Y002391D01*X004078D01*X004149Y002319D01*Y002234D01*
X004078Y002162D01*X004007D01*X003935Y002234D01*X004278Y002419D02*
Y002162D01*Y002319D02*X004349Y002391D01*X004421D01*X004492Y002319D01*
Y002162D01*X004678D02*Y002505D01*X004964Y002391D02*X004992D01*
X005092Y002162D01*X005178Y002391D02*Y002362D01*X005035Y002034D01*
X005007D01*X005649Y002505D02*Y002162D01*Y002234D02*X005721Y002162D01*
X005792D01*X005864Y002234D01*Y002319D01*X005792Y002391D01*X005721D01*
X005649Y002334D01*X005992Y002391D02*X006021D01*X006121Y002162D01*
X006207Y002391D02*Y002362D01*X006064Y002034D01*X006035D01*
X006678Y002419D02*Y002162D01*X006892Y002348D02*X006821Y002391D01*
X006749D01*X006678Y002348D01*X007021Y002291D02*X007235D01*Y002319D01*
X007164Y002391D01*X007092D01*X007021Y002334D01*Y002234D01*Y002219D01*
X007078Y002162D01*X007192D01*X007235Y002191D01*X007471Y002162D02*
Y002319D01*X007524Y002391D01*X007578Y002319D01*Y002162D01*
X007364Y002319D02*X007417Y002391D01*X007471Y002319D01*
X007364Y002419D02*Y002162D01*X007707Y002234D02*Y002319D01*
X007778Y002391D01*X007849D01*X007921Y002319D01*Y002234D01*
X007849Y002162D01*X007778D01*X007707Y002234D01*X008049Y002391D02*
X008164Y002162D01*X008278Y002391D01*X008449Y002384D02*Y002162D01*
Y002477D02*Y002484D01*X008621Y002419D02*Y002162D01*Y002319D02*
X008692Y002391D01*X008764D01*X008835Y002319D01*Y002162D01*
X009178Y002234D02*X009107Y002162D01*X009035D01*X008964Y002234D01*
Y002334D01*X009035Y002391D01*X009107D01*X009178Y002319D01*Y002105D01*
X009107Y002034D01*X009035D01*X008964Y002077D01*X009649Y002391D02*
X009764Y002162D01*X009878Y002391D01*X010049Y002384D02*Y002162D01*
Y002477D02*Y002484D01*X010449Y002162D02*Y002391D01*X010221Y002237D02*
X010241Y002308D01*X010272Y002357D01*X010312Y002382D01*
X010341Y002391D01*X010364D01*X010404D01*X010449Y002368D01*
X010221Y002234D02*Y002217D01*X010224Y002205D01*X010232Y002191D01*
X010252Y002179D01*X010292Y002162D01*X010355D01*X010415Y002188D01*
X010449Y002219D01*X010907Y002391D02*Y002034D01*Y002234D02*
X010978Y002162D01*X011049D01*X011121Y002234D01*Y002319D01*
X011049Y002391D01*X010978D01*X010907Y002334D01*X011478Y002162D02*
Y002391D01*X011249Y002237D02*X011269Y002308D01*X011301Y002357D01*
X011341Y002382D01*X011369Y002391D01*X011392D01*X011432D01*
X011478Y002368D01*X011249Y002234D02*Y002217D01*X011252Y002205D01*
X011261Y002191D01*X011281Y002179D01*X011321Y002162D01*X011384D01*
X011444Y002188D01*X011478Y002219D01*X011807Y002505D02*Y002162D01*
Y002319D02*X011735Y002391D01*X011664D01*X011592Y002334D01*Y002234D01*
X011664Y002162D01*X011735D01*X011807Y002234D01*X012507Y002162D02*
Y002391D01*X012278Y002237D02*X012298Y002308D01*X012329Y002357D01*
X012369Y002382D01*X012398Y002391D01*X012421D01*X012461D01*
X012507Y002368D01*X012278Y002234D02*Y002217D01*X012281Y002205D01*
X012289Y002191D01*X012309Y002179D01*X012349Y002162D01*X012412D01*
X012472Y002188D01*X012507Y002219D01*X012678Y002448D02*Y002191D01*
X012707Y002162D01*X012749D01*X012778Y002191D01*X012621Y002391D02*
X012735D01*X013307D02*Y002034D01*Y002234D02*X013378Y002162D01*
X013449D01*X013521Y002234D01*Y002319D01*X013449Y002391D01*X013378D01*
X013307Y002334D01*X013707Y002384D02*Y002162D01*Y002477D02*Y002484D01*
X013878Y002419D02*Y002162D01*Y002319D02*X013949Y002391D01*X014021D01*
X014092Y002319D01*Y002162D01*X014564Y002419D02*Y002162D01*Y002319D02*
X014635Y002391D01*X014707D01*X014778Y002319D01*Y002162D01*
X015121Y002391D02*Y002162D01*Y002219D02*X015064Y002162D01*X014964D01*
X014907Y002219D01*Y002391D01*X015357Y002162D02*Y002319D01*
X01541Y002391D01*X015464Y002319D01*Y002162D01*X015249Y002319D02*
X015303Y002391D01*X015356Y002319D01*X015249Y002419D02*Y002162D01*
X015592Y002505D02*Y002162D01*Y002234D02*X015664Y002162D01*X015735D01*
X015807Y002234D01*Y002319D01*X015735Y002391D01*X015664D01*
X015592Y002334D01*X015935Y002291D02*X016149D01*Y002319D01*
X016078Y002391D01*X016007D01*X015935Y002334D01*Y002234D01*Y002219D01*
X015992Y002162D01*X016107D01*X016149Y002191D01*X016278Y002419D02*
Y002162D01*X016492Y002348D02*X016421Y002391D01*X016349D01*
X016278Y002348D01*X000735Y010934D02*Y011019D01*X000807Y011091D01*
X000878D01*X000949Y011019D01*Y010934D01*X000878Y010862D01*X000807D01*
X000735Y010934D01*X001135Y011148D02*Y010891D01*X001164Y010862D01*
X001207D01*X001235Y010891D01*X001078Y011091D02*X001192D01*
X001421Y011205D02*Y010862D01*Y011034D02*X001492Y011091D01*X001564D01*
X001635Y011019D01*Y010862D01*X001764Y010991D02*X001978D01*Y011019D01*
X001907Y011091D01*X001835D01*X001764Y011034D01*Y010934D01*Y010919D01*
X001821Y010862D01*X001935D01*X001978Y010891D01*X002107Y011119D02*
Y010862D01*X002321Y011048D02*X002249Y011091D01*X002178D01*
X002107Y011048D01*X002935Y010862D02*X002864D01*X002792Y010891D02*
X002821Y010862D01*X002978D01*X003007Y010891D01*Y010948D01*
X002978Y010977D01*X002821D01*X002792Y011005D01*Y011062D01*
X002821Y011091D01*X002978D01*X003007Y011062D01*X003192Y011084D02*
Y010862D01*Y011177D02*Y011184D01*X003578Y011205D02*Y010862D01*
Y011019D02*X003507Y011091D01*X003435D01*X003364Y011034D01*Y010934D01*
X003435Y010862D01*X003507D01*X003578Y010934D01*X003707Y010991D02*
X003921D01*Y011019D01*X003849Y011091D01*X003778D01*X003707Y011034D01*
Y010934D01*Y010919D01*X003764Y010862D01*X003878D01*X003921Y010891D01*
X01396Y012116D02*Y011759D01*Y011959D02*X014032Y011887D01*X014103D01*
X014174Y011959D01*Y012044D01*X014103Y012116D01*X014032D01*
X01396Y012059D01*X01436Y012109D02*Y011887D01*Y012202D02*Y012209D01*
X014532Y012144D02*Y011887D01*Y012044D02*X014603Y012116D01*X014674D01*
X014746Y012044D01*Y011887D01*X015217Y012144D02*Y011887D01*Y012044D02*
X015289Y012116D01*X01536D01*X015432Y012044D01*Y011887D01*
X015774Y012116D02*Y011887D01*Y011944D02*X015717Y011887D01*X015617D01*
X01556Y011944D01*Y012116D01*X01601Y011887D02*Y012044D01*
X016063Y012116D01*X016117Y012044D01*Y011887D01*X015903Y012044D02*
X015956Y012116D01*X01601Y012044D01*X015903Y012144D02*Y011887D01*
X016246Y01223D02*Y011887D01*Y011959D02*X016317Y011887D01*X016389D01*
X01646Y011959D01*Y012044D01*X016389Y012116D01*X016317D01*
X016246Y012059D01*X016589Y012016D02*X016803D01*Y012044D01*
X016732Y012116D01*X01666D01*X016589Y012059D01*Y011959D01*Y011944D01*
X016646Y011887D01*X01676D01*X016803Y011916D01*X016932Y012144D02*
Y011887D01*X017146Y012073D02*X017074Y012116D01*X017003D01*
X016932Y012073D01*X000735Y005391D02*Y005034D01*Y005234D02*
X000807Y005162D01*X000878D01*X000949Y005234D01*Y005319D01*
X000878Y005391D01*X000807D01*X000735Y005334D01*X001135Y005384D02*
Y005162D01*Y005477D02*Y005484D01*X001307Y005419D02*Y005162D01*
Y005319D02*X001378Y005391D01*X001449D01*X001521Y005319D01*Y005162D01*
X001792D02*X001721D01*X001649Y005191D02*X001678Y005162D01*X001835D01*
X001864Y005191D01*Y005248D01*X001835Y005277D01*X001678D01*
X001649Y005305D01*Y005362D01*X001678Y005391D01*X001835D01*
X001864Y005362D01*X002564Y005162D02*Y005391D01*X002335Y005237D02*
X002355Y005308D01*X002387Y005357D01*X002427Y005382D01*
X002455Y005391D01*X002478D01*X002518D01*X002564Y005368D01*
X002335Y005234D02*Y005217D01*X002338Y005205D01*X002347Y005191D01*
X002367Y005179D01*X002407Y005162D01*X002469D01*X002529Y005188D01*
X002564Y005219D01*X002678Y005419D02*Y005162D01*Y005319D02*
X002749Y005391D01*X002821D01*X002892Y005319D01*Y005162D01*
X003235Y005505D02*Y005162D01*Y005319D02*X003164Y005391D01*X003092D01*
X003021Y005334D01*Y005234D01*X003092Y005162D01*X003164D01*
X003235Y005234D01*X003764Y005448D02*Y005191D01*X003792Y005162D01*
X003835D01*X003864Y005191D01*X003707Y005391D02*X003821D01*
X004049Y005419D02*Y005162D01*X004264Y005348D02*X004192Y005391D01*
X004121D01*X004049Y005348D01*X004449Y005384D02*Y005162D01*Y005477D02*
Y005484D01*X004728Y005162D02*Y005319D01*X004781Y005391D01*
X004835Y005319D01*Y005162D01*X004621Y005319D02*X004674Y005391D01*
X004728Y005319D01*X004621Y005419D02*Y005162D01*X000964Y005991D02*
X000907Y006048D01*X000792D01*X000735Y005991D01*Y005934D01*
X000792Y005877D01*X000907D01*X000964Y005819D01*Y005762D01*
X000907Y005705D01*X000792D01*X000735Y005762D01*X001078Y005777D02*
Y005862D01*X001149Y005934D01*X001221D01*X001292Y005862D01*Y005777D01*
X001221Y005705D01*X001149D01*X001078Y005777D01*X001478Y005705D02*
Y006048D01*X001978D02*Y005705D01*Y005862D02*X001907Y005934D01*
X001835D01*X001764Y005877D01*Y005777D01*X001835Y005705D01*X001907D01*
X001978Y005777D01*X002107Y005834D02*X002321D01*Y005862D01*
X002249Y005934D01*X002178D01*X002107Y005877D01*Y005777D01*Y005762D01*
X002164Y005705D01*X002278D01*X002321Y005734D01*X002449Y005962D02*
Y005705D01*X002664Y005891D02*X002592Y005934D01*X002521D01*
X002449Y005891D01*X003135Y005962D02*Y005705D01*X003349Y005891D02*
X003278Y005934D01*X003207D01*X003135Y005891D01*X003478Y005834D02*
X003692D01*Y005862D01*X003621Y005934D01*X003549D01*X003478Y005877D01*
Y005777D01*Y005762D01*X003535Y005705D01*X003649D01*X003692Y005734D01*
X003928Y005705D02*Y005862D01*X003981Y005933D01*X004035Y005862D01*
Y005705D01*X003821Y005862D02*X003874Y005933D01*X003928Y005862D01*
X003821Y005962D02*Y005705D01*X004392D02*Y005934D01*X004164Y005779D02*
X004184Y005851D01*X004215Y005899D01*X004255Y005925D01*
X004284Y005934D01*X004307D01*X004347D01*X004392Y005911D01*
X004164Y005777D02*Y005759D01*X004167Y005748D01*X004175Y005734D01*
X004195Y005722D01*X004235Y005705D01*X004298D01*X004358Y005731D01*
X004392Y005762D01*X004564Y005927D02*Y005705D01*Y006019D02*Y006027D01*
X004735Y005962D02*Y005705D01*Y005862D02*X004807Y005934D01*X004878D01*
X004949Y005862D01*Y005705D01*X005135Y005927D02*Y005705D01*Y006019D02*
Y006027D01*X005307Y005962D02*Y005705D01*Y005862D02*X005378Y005934D01*
X005449D01*X005521Y005862D01*Y005705D01*X005864Y005777D02*
X005792Y005705D01*X005721D01*X005649Y005777D01*Y005877D01*
X005721Y005934D01*X005792D01*X005864Y005862D01*Y005648D01*
X005792Y005577D01*X005721D01*X005649Y005619D01*X000878Y007062D02*
X000807D01*X000735Y007091D02*X000764Y007062D01*X000921D01*
X000949Y007091D01*Y007148D01*X000921Y007177D01*X000764D01*
X000735Y007205D01*Y007262D01*X000764Y007291D01*X000921D01*
X000949Y007262D01*X001078Y007134D02*Y007219D01*X001149Y007291D01*
X001221D01*X001292Y007219D01*Y007134D01*X001221Y007062D01*X001149D01*
X001078Y007134D01*X001478Y007062D02*Y007405D01*X001978D02*Y007062D01*
Y007219D02*X001907Y007291D01*X001835D01*X001764Y007234D01*Y007134D01*
X001835Y007062D01*X001907D01*X001978Y007134D01*X002107Y007191D02*
X002321D01*Y007219D01*X002249Y007291D01*X002178D01*X002107Y007234D01*
Y007134D01*Y007119D01*X002164Y007062D01*X002278D01*X002321Y007091D01*
X002449Y007319D02*Y007062D01*X002664Y007248D02*X002592Y007291D01*
X002521D01*X002449Y007248D01*X003192Y007348D02*Y007091D01*
X003221Y007062D01*X003264D01*X003292Y007091D01*X003135Y007291D02*
X003249D01*X003478Y007134D02*Y007219D01*X003549Y007291D01*X003621D01*
X003692Y007219D01*Y007134D01*X003621Y007062D01*X003549D01*
X003478Y007134D01*X004164Y007319D02*Y007062D01*X004378Y007248D02*
X004307Y007291D01*X004235D01*X004164Y007248D01*X004735Y007062D02*
Y007291D01*X004507Y007137D02*X004527Y007208D01*X004558Y007257D01*
X004598Y007282D01*X004627Y007291D01*X004649D01*X004689D01*
X004735Y007268D01*X004507Y007134D02*Y007117D01*X004509Y007105D01*
X004518Y007091D01*X004538Y007079D01*X004578Y007062D01*X004641D01*
X004701Y007088D01*X004735Y007119D01*X004907Y007284D02*Y007062D01*
Y007377D02*Y007384D01*X005135Y007062D02*Y007405D01*X000878Y008962D02*
X000807D01*X000735Y008991D02*X000764Y008962D01*X000921D01*
X000949Y008991D01*Y009048D01*X000921Y009077D01*X000764D01*
X000735Y009105D01*Y009162D01*X000764Y009191D01*X000921D01*
X000949Y009162D01*X001078Y009034D02*Y009119D01*X001149Y009191D01*
X001221D01*X001292Y009119D01*Y009034D01*X001221Y008962D01*X001149D01*
X001078Y009034D01*X001478Y008962D02*Y009305D01*X001978D02*Y008962D01*
Y009119D02*X001907Y009191D01*X001835D01*X001764Y009134D01*Y009034D01*
X001835Y008962D01*X001907D01*X001978Y009034D01*X002107Y009091D02*
X002321D01*Y009119D01*X002249Y009191D01*X002178D01*X002107Y009134D01*
Y009034D01*Y009019D01*X002164Y008962D01*X002278D01*X002321Y008991D01*
X002449Y009219D02*Y008962D01*X002664Y009148D02*X002592Y009191D01*
X002521D01*X002449Y009148D01*X003192Y009248D02*Y008991D01*
X003221Y008962D01*X003264D01*X003292Y008991D01*X003135Y009191D02*
X003249D01*X003478Y009034D02*Y009119D01*X003549Y009191D01*X003621D01*
X003692Y009119D01*Y009034D01*X003621Y008962D01*X003549D01*
X003478Y009034D01*X004164Y009219D02*Y008962D01*X004378Y009148D02*
X004307Y009191D01*X004235D01*X004164Y009148D01*X004735Y008962D02*
Y009191D01*X004507Y009037D02*X004527Y009108D01*X004558Y009157D01*
X004598Y009182D01*X004627Y009191D01*X004649D01*X004689D01*
X004735Y009168D01*X004507Y009034D02*Y009017D01*X004509Y009005D01*
X004518Y008991D01*X004538Y008979D01*X004578Y008962D01*X004641D01*
X004701Y008988D01*X004735Y009019D01*X004907Y009184D02*Y008962D01*
Y009277D02*Y009284D01*X005135Y008962D02*Y009305D01*X000735Y001962D02*
Y001677D01*X000792Y001619D01*X000907D01*X000964Y001677D01*Y001962D01*
X001307Y001905D02*X001249Y001962D01*X001135D01*X001078Y001905D01*
Y001848D01*X001135Y001791D01*X001249D01*X001307Y001734D01*Y001677D01*
X001249Y001619D01*X001135D01*X001078Y001677D01*X001649Y001962D02*
X001421D01*Y001791D01*Y001619D01*X001649D01*X001421Y001791D02*
X001592D01*X002335Y001905D02*X002278Y001962D01*X002164D01*
X002107Y001905D01*Y001677D01*X002164Y001619D01*X002278D01*
X002335Y001677D01*X002678Y001905D02*X002621Y001962D01*X002507D01*
X002449Y001905D01*Y001677D01*X002507Y001619D01*X002621D01*
X002678Y001677D01*Y001905D01*X002792Y001962D02*Y001677D01*
X002849Y001619D01*X002964D01*X003021Y001677D01*Y001962D01*
X003135Y001619D02*Y001962D01*X003364Y001619D01*Y001962D01*
X003592Y001619D02*Y001962D01*X003707D01*X003592D02*X003478D01*
X004049D02*X003821D01*Y001791D01*Y001619D01*X004049D01*
X003821Y001791D02*X003992D01*X004164Y001619D02*Y001962D01*X004335D01*
X004392Y001905D01*Y001848D01*X004335Y001791D01*X004392Y001619D01*
X004335Y001791D02*X004164D01*X004735Y001905D02*X004678Y001962D01*
X004564D01*X004507Y001905D01*Y001848D01*X004564Y001791D01*X004678D01*
X004735Y001734D01*Y001677D01*X004678Y001619D01*X004564D01*
X004507Y001677D01*X004907Y001619D02*Y001962D01*X005192Y001619D02*
Y001962D01*X005421Y001619D01*Y001962D01*X005535D02*Y001734D01*
Y001619D01*Y001734D02*X005592Y001791D01*X005764Y001619D01*
X005592Y001791D02*X005764Y001962D01*X006221Y001619D02*Y001962D01*
X006392D01*X006449Y001905D01*Y001848D01*X006392Y001791D01*
X006449Y001734D01*Y001677D01*X006392Y001619D01*X006221D01*
X006392Y001791D02*X006221D01*X006621Y001619D02*Y001962D01*
X007021Y001619D02*Y001962D01*X007135D01*X007021D02*X006907D01*
X007592Y001791D02*X007821D01*X008507Y001905D02*X008449Y001962D01*
X008278D01*Y001619D01*X008449D01*X008507Y001677D01*Y001905D01*
X008849D02*X008792Y001962D01*X008678D01*X008621Y001905D01*Y001677D01*
X008678Y001619D01*X008792D01*X008849Y001677D01*Y001905D01*
X009307Y001619D02*Y001962D01*X009535Y001619D01*Y001962D01*
X009878Y001905D02*X009821Y001962D01*X009707D01*X009649Y001905D01*
Y001677D01*X009707Y001619D01*X009821D01*X009878Y001677D01*Y001905D01*
X010107Y001619D02*Y001962D01*X010221D01*X010107D02*X009992D01*
X010907Y001905D02*X010849Y001962D01*X010678D01*Y001619D01*X010849D01*
X010907Y001677D01*Y001905D01*X011021Y001619D02*Y001962D01*X011192D01*
X011249Y001905D01*Y001848D01*X011192Y001791D01*X011249Y001619D01*
X011192Y001791D02*X011021D01*X011421Y001619D02*Y001962D01*X011707D02*
Y001619D01*X011935D01*X012049Y001962D02*Y001619D01*X012278D01*
X012849D02*Y001962D01*X012964D01*X012849D02*X012735D01*X013078D02*
Y001791D01*Y001619D01*Y001791D02*X013307D01*Y001962D01*Y001791D02*
Y001619D01*X013421D02*Y001962D01*X013592D01*X013649Y001905D01*
Y001848D01*X013592Y001791D01*X013649Y001619D01*X013592Y001791D02*
X013421D01*X013992Y001905D02*X013935Y001962D01*X013821D01*
X013764Y001905D01*Y001677D01*X013821Y001619D01*X013935D01*
X013992Y001677D01*Y001905D01*X014107Y001962D02*Y001677D01*
X014164Y001619D01*X014278D01*X014335Y001677D01*Y001962D01*
X014678Y001905D02*X014621Y001962D01*X014507D01*X014449Y001905D01*
Y001677D01*X014507Y001619D01*X014621D01*X014678Y001677D01*Y001762D01*
X014621D01*X014792Y001962D02*Y001791D01*Y001619D01*Y001791D02*
X015021D01*Y001962D01*Y001791D02*Y001619D01*X01808Y014057D02*
X018194Y013714D01*X018308Y014057D01*X01858Y013943D02*Y013914D01*
X018537Y013943D01*X018523D01*X018494Y013929D01*X018451Y013886D01*
X018423Y013814D01*Y013786D01*X018437Y013743D01*X018494Y013714D01*
X018565D01*X018637Y013757D01*X018923Y013943D02*Y013914D01*
X01888Y013943D01*X018865D01*X018837Y013929D01*X018794Y013886D01*
X018765Y013814D01*Y013786D01*X01878Y013743D01*X018837Y013714D01*
X018908D01*X01898Y013757D01*X009546Y00593D02*X00966Y005587D01*
X009774Y00593D01*X010046Y005816D02*Y005787D01*X010003Y005816D01*
X009989D01*X00996Y005802D01*X009917Y005759D01*X009889Y005687D01*
Y005659D01*X009903Y005616D01*X00996Y005587D01*X010032D01*
X010103Y00563D01*X010389Y005816D02*Y005787D01*X010346Y005816D01*
X010332D01*X010303Y005802D01*X01026Y005759D01*X010232Y005687D01*
Y005659D01*X010246Y005616D01*X010303Y005587D01*X010374D01*
X010446Y00563D01*X009052Y015645D02*X009095D01*X009238Y015417D01*
X009281D01*Y015645D02*X009052Y015417D01*X009395D02*X009624Y015759D01*
X009909Y015588D02*X009966Y015645D01*Y015702D01*X009909Y015759D01*
X009795D01*X009738Y015702D01*Y015645D01*X009795Y015588D01*X009909D01*
X009966Y015531D01*Y015474D01*X009909Y015417D01*X009795D01*
X009738Y015474D01*Y015531D01*X009795Y015588D01*X010145Y013943D02*
X010188D01*X010331Y013714D01*X010374D01*Y013943D02*X010145Y013714D01*
X010488D02*X010716Y014057D01*X010831Y013772D02*X010888Y013714D01*
X011002D01*X011059Y013772D01*Y014D01*X011002Y014057D01*X010888D01*
X010831Y014D01*Y013914D01*X010888Y013857D01*X011002D01*
X011059Y013914D01*D12*X01216Y004212D02*Y003837D01*X01241D02*X01191D01*
X012035Y003712D02*X012285D01*X012173Y003587D02*X012148D01*
X00966Y005287D02*Y005487D01*X00956Y005387D02*X00976D01*
M02*