%FSTAX24Y24*%
%MOIN*%
%IN card16drill..gbl *%
%ADD10C,0.0150*%
%ADD11C,0.0400*%
%ADD12C,0.0600*%
D12*X011535Y005662D03*X008535Y011662D03*Y010662D03*Y009662D03*
Y008662D03*Y007662D03*Y006662D03*Y005662D03*X011535Y006662D03*
Y007662D03*Y008662D03*Y009662D03*Y010662D03*Y011662D03*Y012662D03*
X008535D03*X018535Y014537D03*X016535D03*X014535D03*X012535D03*
X010535D03*X008535D03*X006535D03*X004535D03*X002535D03*
X003535Y016287D03*X005535D03*X007535D03*X009535D03*X011535D03*
X013535D03*X015535D03*X017535D03*X001535D03*D10*X011535Y005662D02*
G01X017535Y007787D01*Y017787D01*D12*Y020287D01*D10*X011535Y012662D02*
X010535Y013287D01*Y017787D01*D12*Y020287D01*D10*X011535Y006662D02*
X016535Y008412D01*Y017787D01*D12*Y020287D01*D10*X011535Y007662D02*
X015535Y009162D01*Y017787D01*D12*Y020287D01*D10*X008535Y009662D02*
X006535Y010662D01*Y017787D01*D12*Y020287D01*X001535D02*Y017787D01*D10*
Y016287D01*X008535Y005662D02*X002535Y008037D01*Y017787D01*D12*
Y020287D01*D10*X011535Y011662D02*X01241Y012037D01*Y013287D01*
X011535Y014037D01*Y017787D01*D12*Y020287D01*X012535D02*Y017787D01*D10*
Y014537D01*X01291Y014037D01*Y011162D01*X011535Y010662D01*
X008535Y012662D02*X009535Y013662D01*Y017787D01*D12*Y020287D01*
X018535D02*Y017787D01*D10*Y014537D01*X008535Y011662D02*
X007785Y012037D01*Y013037D01*X008535Y014037D01*Y017787D01*D12*
Y020287D01*D10*Y010662D02*X007285Y011287D01*Y013537D01*
X007535Y013912D01*Y017787D01*D12*Y020287D01*D10*X011535Y008662D02*
X014535Y009787D01*Y017787D01*D12*Y020287D01*D10*X011535Y009662D02*
X013535Y010412D01*Y017787D01*D12*Y020287D01*D10*X008535Y006662D02*
X003535Y008662D01*Y017787D01*D12*Y020287D01*D10*X008535Y007662D02*
X004535Y009412D01*Y017787D01*D12*Y020287D01*D10*X008535Y008662D02*
X005535Y009912D01*Y017787D01*D12*Y020287D01*D11*X01816Y014537D02*
X018173Y014634D01*X01821Y014725D01*X01827Y014803D01*X018348Y014862D01*
X018438Y0149D01*X018535Y014912D01*X018632Y0149D01*X018723Y014862D01*
X0188Y014803D01*X01886Y014725D01*X018897Y014634D01*X01891Y014537D01*
X018897Y01444D01*X01886Y01435D01*X0188Y014272D01*X018723Y014213D01*
X018632Y014175D01*X018535Y014162D01*X018438Y014175D01*
X018348Y014213D01*X01827Y014272D01*X01821Y01435D01*X018173Y01444D01*
X01816Y014537D01*X01716Y016287D02*X017173Y016384D01*X01721Y016475D01*
X01727Y016553D01*X017348Y016612D01*X017438Y01665D01*X017535Y016662D01*
X017632Y01665D01*X017723Y016612D01*X0178Y016553D01*X01786Y016475D01*
X017897Y016384D01*X01791Y016287D01*X017897Y01619D01*X01786Y0161D01*
X0178Y016022D01*X017723Y015963D01*X017632Y015925D01*X017535Y015912D01*
X017438Y015925D01*X017348Y015963D01*X01727Y016022D01*X01721Y0161D01*
X017173Y01619D01*X01716Y016287D01*X00216Y014537D02*X002173Y014634D01*
X00221Y014725D01*X00227Y014803D01*X002348Y014862D01*X002438Y0149D01*
X002535Y014912D01*X002632Y0149D01*X002723Y014862D01*X0028Y014803D01*
X00286Y014725D01*X002897Y014634D01*X00291Y014537D01*X002897Y01444D01*
X00286Y01435D01*X0028Y014272D01*X002723Y014213D01*X002632Y014175D01*
X002535Y014162D01*X002438Y014175D01*X002348Y014213D01*X00227Y014272D01*
X00221Y01435D01*X002173Y01444D01*X00216Y014537D01*X00116Y016287D02*
X001173Y016384D01*X00121Y016475D01*X00127Y016553D01*X001348Y016612D01*
X001438Y01665D01*X001535Y016662D01*X001632Y01665D01*X001723Y016612D01*
X0018Y016553D01*X00186Y016475D01*X001897Y016384D01*X00191Y016287D01*
X001897Y01619D01*X00186Y0161D01*X0018Y016022D01*X001723Y015963D01*
X001632Y015925D01*X001535Y015912D01*X001438Y015925D01*
X001348Y015963D01*X00127Y016022D01*X00121Y0161D01*X001173Y01619D01*
X00116Y016287D01*X004145Y014522D02*X004158Y014619D01*X004195Y01471D01*
X004255Y014787D01*X004332Y014847D01*X004423Y014884D01*X00452Y014897D01*
X004617Y014884D01*X004707Y014847D01*X004785Y014787D01*X004845Y01471D01*
X004882Y014619D01*X004895Y014522D01*X004882Y014425D01*
X004845Y014335D01*X004785Y014257D01*X004707Y014197D01*X004617Y01416D01*
X00452Y014147D01*X004423Y01416D01*X004332Y014197D01*X004255Y014257D01*
X004195Y014335D01*X004158Y014425D01*X004145Y014522D01*
X003145Y016272D02*X003158Y016369D01*X003195Y01646D01*X003255Y016537D01*
X003332Y016597D01*X003423Y016634D01*X00352Y016647D01*X003617Y016634D01*
X003707Y016597D01*X003785Y016537D01*X003845Y01646D01*X003882Y016369D01*
X003895Y016272D01*X003882Y016175D01*X003845Y016085D01*
X003785Y016007D01*X003707Y015947D01*X003617Y01591D01*X00352Y015897D01*
X003423Y01591D01*X003332Y015947D01*X003255Y016007D01*X003195Y016085D01*
X003158Y016175D01*X003145Y016272D01*X00616Y014537D02*X006173Y014634D01*
X00621Y014725D01*X00627Y014803D01*X006348Y014862D01*X006438Y0149D01*
X006535Y014912D01*X006632Y0149D01*X006723Y014862D01*X0068Y014803D01*
X00686Y014725D01*X006897Y014634D01*X00691Y014537D01*X006897Y01444D01*
X00686Y01435D01*X0068Y014272D01*X006723Y014213D01*X006632Y014175D01*
X006535Y014162D01*X006438Y014175D01*X006348Y014213D01*X00627Y014272D01*
X00621Y01435D01*X006173Y01444D01*X00616Y014537D01*X00516Y016287D02*
X005173Y016384D01*X00521Y016475D01*X00527Y016553D01*X005348Y016612D01*
X005438Y01665D01*X005535Y016662D01*X005632Y01665D01*X005723Y016612D01*
X0058Y016553D01*X00586Y016475D01*X005897Y016384D01*X00591Y016287D01*
X005897Y01619D01*X00586Y0161D01*X0058Y016022D01*X005723Y015963D01*
X005632Y015925D01*X005535Y015912D01*X005438Y015925D01*
X005348Y015963D01*X00527Y016022D01*X00521Y0161D01*X005173Y01619D01*
X00516Y016287D01*X00816Y014537D02*X008173Y014634D01*X00821Y014725D01*
X00827Y014803D01*X008348Y014862D01*X008438Y0149D01*X008535Y014912D01*
X008632Y0149D01*X008723Y014862D01*X0088Y014803D01*X00886Y014725D01*
X008897Y014634D01*X00891Y014537D01*X008897Y01444D01*X00886Y01435D01*
X0088Y014272D01*X008723Y014213D01*X008632Y014175D01*X008535Y014162D01*
X008438Y014175D01*X008348Y014213D01*X00827Y014272D01*X00821Y01435D01*
X008173Y01444D01*X00816Y014537D01*X00716Y016287D02*X007173Y016384D01*
X00721Y016475D01*X00727Y016553D01*X007348Y016612D01*X007438Y01665D01*
X007535Y016662D01*X007632Y01665D01*X007723Y016612D01*X0078Y016553D01*
X00786Y016475D01*X007897Y016384D01*X00791Y016287D01*X007897Y01619D01*
X00786Y0161D01*X0078Y016022D01*X007723Y015963D01*X007632Y015925D01*
X007535Y015912D01*X007438Y015925D01*X007348Y015963D01*X00727Y016022D01*
X00721Y0161D01*X007173Y01619D01*X00716Y016287D01*X01016Y014537D02*
X010173Y014634D01*X01021Y014725D01*X01027Y014803D01*X010348Y014862D01*
X010438Y0149D01*X010535Y014912D01*X010632Y0149D01*X010723Y014862D01*
X0108Y014803D01*X01086Y014725D01*X010897Y014634D01*X01091Y014537D01*
X010897Y01444D01*X01086Y01435D01*X0108Y014272D01*X010723Y014213D01*
X010632Y014175D01*X010535Y014162D01*X010438Y014175D01*
X010348Y014213D01*X01027Y014272D01*X01021Y01435D01*X010173Y01444D01*
X01016Y014537D01*X00916Y016287D02*X009173Y016384D01*X00921Y016475D01*
X00927Y016553D01*X009348Y016612D01*X009438Y01665D01*X009535Y016662D01*
X009632Y01665D01*X009723Y016612D01*X0098Y016553D01*X00986Y016475D01*
X009897Y016384D01*X00991Y016287D01*X009897Y01619D01*X00986Y0161D01*
X0098Y016022D01*X009723Y015963D01*X009632Y015925D01*X009535Y015912D01*
X009438Y015925D01*X009348Y015963D01*X00927Y016022D01*X00921Y0161D01*
X009173Y01619D01*X00916Y016287D01*X01216Y014537D02*X012173Y014634D01*
X01221Y014725D01*X01227Y014803D01*X012348Y014862D01*X012438Y0149D01*
X012535Y014912D01*X012632Y0149D01*X012723Y014862D01*X0128Y014803D01*
X01286Y014725D01*X012897Y014634D01*X01291Y014537D01*X012897Y01444D01*
X01286Y01435D01*X0128Y014272D01*X012723Y014213D01*X012632Y014175D01*
X012535Y014162D01*X012438Y014175D01*X012348Y014213D01*X01227Y014272D01*
X01221Y01435D01*X012173Y01444D01*X01216Y014537D01*X01116Y016287D02*
X011173Y016384D01*X01121Y016475D01*X01127Y016553D01*X011348Y016612D01*
X011438Y01665D01*X011535Y016662D01*X011632Y01665D01*X011723Y016612D01*
X0118Y016553D01*X01186Y016475D01*X011897Y016384D01*X01191Y016287D01*
X011897Y01619D01*X01186Y0161D01*X0118Y016022D01*X011723Y015963D01*
X011632Y015925D01*X011535Y015912D01*X011438Y015925D01*
X011348Y015963D01*X01127Y016022D01*X01121Y0161D01*X011173Y01619D01*
X01116Y016287D01*X01416Y014537D02*X014173Y014634D01*X01421Y014725D01*
X01427Y014803D01*X014348Y014862D01*X014438Y0149D01*X014535Y014912D01*
X014632Y0149D01*X014723Y014862D01*X0148Y014803D01*X01486Y014725D01*
X014897Y014634D01*X01491Y014537D01*X014897Y01444D01*X01486Y01435D01*
X0148Y014272D01*X014723Y014213D01*X014632Y014175D01*X014535Y014162D01*
X014438Y014175D01*X014348Y014213D01*X01427Y014272D01*X01421Y01435D01*
X014173Y01444D01*X01416Y014537D01*X01316Y016287D02*X013173Y016384D01*
X01321Y016475D01*X01327Y016553D01*X013348Y016612D01*X013438Y01665D01*
X013535Y016662D01*X013632Y01665D01*X013723Y016612D01*X0138Y016553D01*
X01386Y016475D01*X013897Y016384D01*X01391Y016287D01*X013897Y01619D01*
X01386Y0161D01*X0138Y016022D01*X013723Y015963D01*X013632Y015925D01*
X013535Y015912D01*X013438Y015925D01*X013348Y015963D01*X01327Y016022D01*
X01321Y0161D01*X013173Y01619D01*X01316Y016287D01*X01616Y014537D02*
X016173Y014634D01*X01621Y014725D01*X01627Y014803D01*X016348Y014862D01*
X016438Y0149D01*X016535Y014912D01*X016632Y0149D01*X016723Y014862D01*
X0168Y014803D01*X01686Y014725D01*X016897Y014634D01*X01691Y014537D01*
X016897Y01444D01*X01686Y01435D01*X0168Y014272D01*X016723Y014213D01*
X016632Y014175D01*X016535Y014162D01*X016438Y014175D01*
X016348Y014213D01*X01627Y014272D01*X01621Y01435D01*X016173Y01444D01*
X01616Y014537D01*X01516Y016287D02*X015173Y016384D01*X01521Y016475D01*
X01527Y016553D01*X015348Y016612D01*X015438Y01665D01*X015535Y016662D01*
X015632Y01665D01*X015723Y016612D01*X0158Y016553D01*X01586Y016475D01*
X015897Y016384D01*X01591Y016287D01*X015897Y01619D01*X01586Y0161D01*
X0158Y016022D01*X015723Y015963D01*X015632Y015925D01*X015535Y015912D01*
X015438Y015925D01*X015348Y015963D01*X01527Y016022D01*X01521Y0161D01*
X015173Y01619D01*X01516Y016287D01*
M02*