%FSTAX24Y24*%
%MOIN*%
%IN card16drill..gbs *%
%ADD10C,0.0100*%
%ADD11C,0.0800*%
D11*X011535Y005662D03*X008535Y011662D03*Y010662D03*Y009662D03*
Y008662D03*Y007662D03*Y006662D03*Y005662D03*X011535Y006662D03*
Y007662D03*Y008662D03*Y009662D03*Y010662D03*Y011662D03*Y012662D03*
X008535D03*X018535Y014537D03*X016535D03*X014535D03*X012535D03*
X010535D03*X008535D03*X006535D03*X004535D03*X002535D03*
X003535Y016287D03*X005535D03*X007535D03*X009535D03*X011535D03*
X013535D03*X015535D03*X017535D03*D10*X00076Y017287D02*G01X01936D01*
X00076Y017337D02*X01936D01*X00076Y017386D02*X01936D01*X00076Y017435D02*
X01936D01*X00076Y017485D02*X01936D01*X00076Y017534D02*X01936D01*
X00076Y017583D02*X01936D01*X00076Y017633D02*X01936D01*X00076Y017682D02*
X01936D01*X00076Y017731D02*X01936D01*X00076Y01778D02*X01936D01*
X00076Y01783D02*X01936D01*X00076Y017879D02*X01936D01*X00076Y017928D02*
X01936D01*X00076Y017978D02*X01936D01*X00076Y018027D02*X01936D01*
X00076Y018076D02*X01936D01*X00076Y018126D02*X01936D01*X00076Y018175D02*
X01936D01*X00076Y018224D02*X01936D01*X00076Y018274D02*X01936D01*
X00076Y018323D02*X01936D01*X00076Y018372D02*X01936D01*X00076Y018422D02*
X01936D01*X00076Y018471D02*X01936D01*X00076Y01852D02*X01936D01*
X00076Y01857D02*X01936D01*X00076Y018619D02*X01936D01*X00076Y018668D02*
X01936D01*X00076Y018717D02*X01936D01*X00076Y018767D02*X01936D01*
X00076Y018816D02*X01936D01*X00076Y018865D02*X01936D01*X00076Y018915D02*
X01936D01*X00076Y018964D02*X01936D01*X00076Y019013D02*X01936D01*
X00076Y019063D02*X01936D01*X00076Y019112D02*X01936D01*X00076Y019161D02*
X01936D01*X00076Y019211D02*X01936D01*X00076Y01926D02*X01936D01*
X00076Y019309D02*X01936D01*X00076Y019359D02*X01936D01*X00076Y019408D02*
X01936D01*X00076Y019457D02*X01936D01*X00076Y019507D02*X01936D01*
X00076Y019556D02*X01936D01*X00076Y019605D02*X01936D01*X00076Y019654D02*
X01936D01*X00076Y019704D02*X01936D01*X00076Y019753D02*X01936D01*
X00076Y019802D02*X01936D01*X00076Y019852D02*X01936D01*X00076Y019901D02*
X01936D01*X00076Y01995D02*X01936D01*X00076Y02D02*X01936D01*
X00076Y020049D02*X01936D01*X00076Y020098D02*X01936D01*X00076Y020148D02*
X01936D01*X00076Y020197D02*X01936D01*X00076Y020246D02*X01936D01*
X00076Y020296D02*X01936D01*X00076Y020345D02*X01936D01*X00076Y020394D02*
X01936D01*X00076Y020444D02*X01936D01*X00076Y020493D02*X01936D01*
X00076Y020542D02*X01936D01*X00076Y020591D02*X01936D01*X00076Y020641D02*
X01936D01*X00076Y02069D02*X01936D01*X00076Y020739D02*X01936D01*
X00076Y020789D02*X01936D01*X00076Y020838D02*X01936D01*X01006Y017287D02*
X01936D01*Y020887D01*X00076D01*Y017287D01*X01006D01*
M02*