M48
FMAT,2
INCH,LZ
T1C0.0130
T2C0.0300
T3C0.0400
%
T1
X008753Y01763
X006503Y02638
X007753Y00138
X008003Y02038
X016003Y02013
X017003Y02013
X008503Y01813
X003503Y02038
X009003Y01738
X006253Y01738
X023503Y02638
X009003Y01963
X018253Y00138
X005253Y016629
X006003Y02088
X005003Y01763
X004753Y02063
X002503Y02063
X017753Y02013
X020003Y02013
X011003Y01813
X011003Y016129
X020003Y02013
X005753Y01713
X005503Y01688
X022003Y02013
X006253Y02038
X010253Y016879
X009753Y017129
X021003Y02013
X004253Y01813
X010003Y02063
X006003Y016379
T2
X004253Y01713
X000753Y01713
X021753Y01213
X025253Y01213
X022003Y02538
X022003Y02188
X005253Y013629
X008753Y013629
X006003Y02538
X006003Y02188
X025253Y01513
X021753Y01513
X004253Y01513
X000753Y01513
X012003Y02538
X012003Y02188
X000753Y01613
X004253Y01613
X000753Y01013
X004253Y01013
X025253Y01113
X021753Y01113
X021753Y01013
X025253Y01013
X015003Y02538
X015003Y02188
X019003Y02538
X019003Y02188
X004253Y00713
X000753Y00713
X004003Y02538
X004003Y02188
X025253Y00513
X021753Y00513
X021753Y01413
X025253Y01413
X010003Y02538
X010003Y02188
X020253Y00213
X020253Y01113
X017253Y01113
X017253Y01013
X017253Y00913
X017253Y00813
X017253Y00713
X017253Y00613
X017253Y00513
X017253Y00413
X017253Y00313
X020253Y00313
X017253Y00213
X020253Y00413
X020253Y00513
X020253Y00613
X020253Y00713
X020253Y00813
X020253Y00913
X020253Y01013
X005753Y01113
X005753Y00213
X008753Y00213
X008753Y00313
X008753Y00413
X008753Y00513
X008753Y00613
X008753Y00713
X008753Y00813
X008753Y00913
X008753Y01013
X005753Y01013
X008753Y01113
X005753Y00913
X005753Y00813
X005753Y00713
X005753Y00613
X005753Y00513
X005753Y00413
X005753Y00313
X018003Y02538
X018003Y02188
X017253Y015629
X020753Y015629
X000753Y00613
X004253Y00613
X008753Y012629
X005253Y012629
X020753Y014629
X017253Y014629
X000753Y00213
X004253Y00213
X020753Y012629
X017253Y012629
X017253Y013629
X020753Y013629
X008003Y02538
X008003Y02188
X005003Y02538
X005003Y02188
X000753Y01213
X004253Y01213
X004253Y01313
X000753Y01313
X013003Y02538
X013003Y02188
X004253Y00913
X000753Y00913
X017003Y02538
X017003Y02188
X004253Y01113
X000753Y01113
X021003Y02538
X021003Y02188
X000753Y00813
X004253Y00813
X014003Y02538
X014003Y02188
X016003Y02538
X016003Y02188
X023003Y02538
X023003Y02188
X009747Y018129
X012503Y018129
X013585Y020505
X014372Y020505
X013585Y018537
X014372Y018537
X013585Y019521
X014372Y019521
X011497Y019755
X010513Y019755
X021753Y00813
X025253Y00813
X005253Y015629
X008753Y015629
X025253Y01713
X021753Y01713
X025253Y00313
X021753Y00313
X000753Y00413
X004253Y00413
X021753Y00213
X025253Y00213
X003003Y02538
X003003Y02188
X021753Y01613
X025253Y01613
X000753Y01413
X004253Y01413
X021753Y00613
X025253Y00613
X025253Y00713
X021753Y00713
X025253Y01313
X021753Y01313
X004253Y00513
X000753Y00513
X008753Y014629
X005253Y014629
X004253Y00313
X000753Y00313
X020003Y02538
X020003Y02188
X025253Y00913
X021753Y00913
X009003Y02538
X009003Y02188
X021753Y00413
X025253Y00413
X011003Y02538
X011003Y02188
T3
X014503Y00213
X011503Y00813
X011503Y01013
X011503Y00713
X011503Y00613
X011503Y00513
X011503Y00413
X011503Y00313
X011503Y00213
X014503Y01013
X014503Y00313
X014503Y00413
X014503Y00513
X014503Y01113
X011503Y01113
X014503Y00613
X014503Y00713
X014503Y00813
X014503Y00913
X011503Y00913
M30
