%FSTAX24Y24*%
%MOIN*%
%IN ucard20.gbl *%
%ADD10C,0.0100*%
%ADD11C,0.0150*%
%ADD12C,0.0200*%
%ADD13C,0.0600*%
%ADD14R,0.0600X0.0600*%
D13*X004253Y01713D03*Y01613D03*D12*X011003Y016129D03*D13*
X005753Y00913D03*X022003Y02538D03*Y02188D03*D12*Y02013D03*D13*
X005253Y013629D03*Y012629D03*D14*X005753Y01113D03*D13*X006003Y02538D03*
X025253Y01513D03*X004253Y01513D03*Y01413D03*X005753Y00813D03*
X012003Y02538D03*Y02188D03*X000753Y01613D03*Y01013D03*X004253D03*
Y01113D03*X025253Y01113D03*X021753D03*Y01013D03*X015003Y02538D03*
Y02188D03*X019003Y02538D03*X004253Y00713D03*Y00613D03*X005753Y00413D03*
D12*X008753Y01763D03*X005003D03*D13*X004003Y02538D03*Y02188D03*
X003003D03*X005003D03*D12*X006253Y02038D03*D13*X006003Y02188D03*
X025253Y00513D03*X021753D03*Y00413D03*X020253Y00313D03*
X021753Y01413D03*Y01513D03*D12*X003503Y02038D03*X006253Y01738D03*
X009003D03*X023503Y02638D03*D13*X010003Y02538D03*Y02188D03*D12*
Y02063D03*D13*X020253Y01113D03*X017253D03*Y01013D03*Y00913D03*
Y00813D03*Y00713D03*Y00613D03*Y00513D03*Y00413D03*Y00313D03*Y00213D03*
X020253Y00513D03*Y00613D03*Y00813D03*X008753Y00213D03*Y00313D03*
Y00413D03*Y00513D03*Y00613D03*Y00713D03*Y00813D03*Y00913D03*Y01013D03*
Y01113D03*X005753Y00713D03*Y00613D03*Y00513D03*X018003Y02538D03*
X000753Y00613D03*X020753Y014629D03*Y015629D03*D12*X005253Y016629D03*
D13*X000753Y00213D03*X017253Y013629D03*Y015629D03*D12*X018253Y00138D03*
D13*X008003Y02538D03*Y02188D03*D12*X008003Y02038D03*D13*
X005003Y02538D03*X000753Y01213D03*X004253Y01313D03*Y01213D03*
X013003Y02538D03*Y02188D03*X017003Y02538D03*Y02188D03*D12*
X017003Y02013D03*D13*X021003Y02538D03*Y02188D03*D12*Y02013D03*
X006003Y02088D03*D14*X014503Y00213D03*D13*X011503Y00813D03*Y01013D03*
Y00713D03*Y00613D03*Y00513D03*Y00413D03*Y00313D03*Y00213D03*
X014503Y01013D03*Y00313D03*Y00413D03*Y00513D03*Y01113D03*X011503D03*
X014503Y00613D03*Y00713D03*Y00813D03*Y00913D03*X011503D03*
X000753Y00813D03*X004253D03*Y00913D03*X014003Y02538D03*Y02188D03*
X016003Y02538D03*Y02188D03*D12*X016003Y02013D03*D13*X023003Y02538D03*
Y02188D03*X009747Y018129D03*X012503D03*D12*X004753Y02063D03*X002503D03*
X017753Y02013D03*D13*X018003Y02188D03*X019003D03*X020003Y02188D03*D12*
X020003Y02013D03*X011003Y01813D03*D13*X013585Y020505D03*X014372D03*
Y018537D03*X013585D03*X014372Y019521D03*X013585D03*X011497Y019755D03*
X010513D03*D12*X020003Y02013D03*X005503Y01688D03*X010253Y016879D03*D13*
X021753Y00813D03*Y00913D03*X005253Y015629D03*Y014629D03*
X005753Y01013D03*X008753Y015629D03*Y013629D03*X000753Y00313D03*
Y00513D03*Y00713D03*Y00913D03*Y01113D03*Y01313D03*Y01513D03*Y01713D03*
D12*X006503Y02638D03*D13*X025253Y00213D03*Y00613D03*Y00813D03*
Y01013D03*Y01213D03*Y01413D03*Y01613D03*Y00413D03*X017253Y012629D03*
Y014629D03*X025253Y01713D03*X021753D03*Y01613D03*X020253Y00913D03*
X025253Y00313D03*X021753D03*Y00213D03*D14*X020253D03*D12*
X009753Y017129D03*X005753Y01713D03*D13*X000753Y00413D03*D12*
X004253Y01813D03*X008503D03*X006003Y016379D03*D13*X020753Y013629D03*
Y012629D03*X020253Y01013D03*X003003Y02538D03*X000753Y01413D03*
X025253Y00713D03*X021753D03*Y00613D03*X020253Y00413D03*
X025253Y01313D03*X021753D03*Y01213D03*X020253Y00713D03*
X004253Y00513D03*Y00413D03*X005753Y00313D03*X008753Y014629D03*D12*
X007753Y00138D03*D13*X008753Y012629D03*X004253Y00313D03*Y00213D03*
X005753Y00213D03*X020003Y02538D03*X025253Y00913D03*X009003Y02538D03*
Y02188D03*D12*Y01963D03*D13*X011003Y02538D03*Y02188D03*D10*
X004253Y01713D02*G01Y01613D01*X006753Y01613D01*X011003Y016129D01*
X006753Y01613D02*Y00938D01*X006503Y00913D01*X005753D01*
X022003Y02188D02*Y02013D01*X005253Y013629D02*Y012629D01*
X005753Y012129D01*Y01113D01*X004253Y01513D02*Y01413D01*
X004753Y013629D01*Y008379D01*X005003Y008129D01*X005252Y00813D01*
X005753D01*X004253Y01013D02*Y01113D01*X021753Y01113D02*Y01013D01*
X004253Y00713D02*Y00613D01*X004753D01*X005003Y00588D01*Y00438D01*
X005253Y00413D01*X005753D01*X008753Y01763D02*X005003D01*
X004003Y02188D02*X004003Y02013D01*X003253D01*X003003Y02038D01*
X003003Y02188D01*X004003Y02013D02*X005253D01*Y02088D01*
X005003Y02113D01*X005003Y02188D01*X005253Y02013D02*X006003D01*
X006253Y02038D01*Y02163D01*X006003Y02188D01*X021753Y00513D02*Y00413D01*
X021253Y004129D01*X021003Y00388D01*Y00338D01*X020753Y00313D01*
X020253D01*X021753Y01413D02*Y01513D01*X006253Y01738D02*X009003D01*
X010003Y02188D02*Y02063D01*X020753Y014629D02*Y015629D01*Y016379D01*
X020503Y016629D01*X005253D01*D11*X017253Y013629D02*X018253Y01363D01*
Y01538D01*X018003Y01563D01*X017253Y015629D01*X018253Y01363D02*
X018253Y00138D01*D10*X008003Y02188D02*X008003Y02038D01*
X004253Y01313D02*Y01213D01*X017003Y02188D02*X017003Y02013D01*
X021003Y02188D02*Y02013D01*X004253Y00813D02*Y00913D01*X016003Y02188D02*
X016003Y02013D01*X017753D02*X018003Y02038D01*Y02188D01*X019003D01*
X020003Y02188D01*X020003Y02013D01*D11*X014372Y018537D02*X013585D01*D10*
X014372Y019521D02*X013585D01*X005503Y01688D02*X010253Y016879D01*
X021753Y00813D02*Y00913D01*X005253Y015629D02*Y014629D01*
X006253Y01463D01*X006503Y01438D01*Y01038D01*X006253Y01013D01*
X005753D01*D11*X008753Y015629D02*X009753Y01563D01*X010003Y01538D01*
X010003Y01388D01*X010003Y01363D01*X008753Y013629D01*X010003Y01363D02*
X010003Y00088D01*X002253Y00088D01*X002003Y00113D01*Y00313D01*
X000753Y00313D01*X002003Y00313D02*Y00513D01*X000753D01*X002003D02*
Y00713D01*X000753D01*X002003D02*Y00913D01*X000753D01*X002003D02*
Y01113D01*X000753Y01113D01*X002003Y01113D02*Y01313D01*X000753Y01313D01*
X002003Y01313D02*Y01513D01*X000753Y01513D01*X002003Y01513D02*Y01713D01*
X000753D01*X002003D02*Y01938D01*X002503Y01988D01*X006253D01*
X006503Y02013D01*X006503Y02638D01*X010003Y00088D02*X016003D01*
X024253D01*X024503Y00113D01*Y00213D01*X025253D01*X024503D02*Y00413D01*
Y00613D01*X025253Y00613D01*X024503Y00613D02*Y00813D01*X025253Y00813D01*
X024503Y00813D02*Y01013D01*X025253D01*X024503D02*Y01213D01*X025253D01*
X024503D02*Y01413D01*X025253D01*X024503D02*Y01588D01*X024753Y01613D01*
X025253D01*X024503Y00413D02*X025253D01*X016003Y00088D02*
X016003Y012629D01*X017253D01*X016003D02*Y01438D01*X016253Y01463D01*
X017253Y014629D01*D10*X021753Y01713D02*Y01613D01*X021253Y015629D01*
Y012129D01*X020753Y011629D01*Y009629D01*X020253Y00913D01*
X021753Y00313D02*Y00213D01*X020253D01*X009753Y017129D02*
X005753Y01713D01*X004253Y01813D02*X008503D01*X006003Y016379D02*
X019253D01*X019503Y016129D01*Y013879D01*X019753Y013629D01*X020753D01*
Y012629D01*X019753D01*X019503Y012379D01*Y010379D01*X019753Y010129D01*
X020253Y01013D01*X021753Y00713D02*Y00613D01*X021253Y00613D01*
X021003Y00588D01*Y00438D01*X020753Y00413D01*X020253D01*
X021753Y01313D02*Y01213D01*X021253Y011629D01*Y007379D01*
X021003Y007129D01*X020253Y00713D01*X004253Y00513D02*Y00413D01*
X004753Y00413D01*X004977Y003872D01*X005003Y00338D01*X005253Y00313D01*
X005753D01*D11*X008753Y014629D02*X008003Y01463D01*X007753Y01438D01*
Y01263D01*X007753Y00138D01*X007753Y01263D02*X008753Y012629D01*D10*
X004253Y00313D02*Y00213D01*X005753Y00213D01*X009003Y02188D02*Y01963D01*
D13*X007503Y02888D02*Y02638D01*X014503Y02888D02*Y02638D01*
X008503Y02888D02*Y02638D01*X009503Y02888D02*Y02638D01*X018503Y02888D02*
Y02638D01*X019503Y02888D02*Y02638D01*X023503Y02888D02*Y02638D01*
X022503Y02888D02*Y02638D01*X013503Y02888D02*Y02638D01*X012503Y02888D02*
Y02638D01*X015503Y02888D02*Y02638D01*X006503Y02888D02*Y02638D01*
X016503Y02888D02*Y02638D01*X017503Y02888D02*Y02638D01*X010503Y02888D02*
Y02638D01*X011503Y02888D02*Y02638D01*X021503Y02888D02*Y02638D01*
X020503Y02888D02*Y02638D01*D10*X013503Y02713D02*Y02363D01*
X013253Y02338D01*X010753D01*X010503Y02313D01*Y02063D01*
X010003Y02013D01*Y019629D01*X009003Y018629D01*Y018129D01*
X008753Y01788D01*X004003D01*X003753Y01763D01*Y01488D01*
X004003Y01463D01*X004253D01*X012503Y02713D02*Y02388D01*
X012253Y02363D01*X009753D01*X009503Y02338D01*X009503Y020005D01*
X009503Y01963D01*X008253Y018379D01*X004003Y01838D01*X003503Y01788D01*
Y01288D01*X003753Y01263D01*X004253D01*X011503Y02713D02*Y02413D01*
X011253Y02388D01*X008753D01*X008503Y02363D01*Y01913D01*
X008003Y01863D01*X003753D01*X003253Y01813D01*Y01088D01*
X003503Y01063D01*X004253D01*X010503Y02713D02*Y02438D01*
X010253Y02413D01*X007753D01*X007503Y02388D01*Y01913D01*
X007253Y01888D01*X003503D01*X003003Y01838D01*Y00888D01*
X003253Y00863D01*X004253D01*Y00663D02*X003003D01*X002753Y00688D01*
Y01863D01*X003253Y01913D01*X007003D01*X007253Y01938D01*
X007253Y02413D01*X007503Y02438D01*X009253D01*X009503Y02463D01*
Y02713D01*X008503D02*Y02488D01*X008253Y02463D01*X007253D01*
X007003Y02438D01*Y01963D01*X006753Y01938D01*X003003D01*
X002503Y01888D01*Y00488D01*X002753Y00463D01*X004253D01*D13*
X002503Y02888D02*Y02638D01*X003503Y02888D02*Y02638D01*X004503Y02888D02*
Y02638D01*X005503Y02888D02*Y02638D01*D11*Y026255D01*X004503D02*
Y02638D01*X003503D02*Y026255D01*X002503D02*Y02638D01*D10*
X002503Y02063D02*Y02738D01*X003503Y02038D02*X003503Y02763D01*
X004253Y00263D02*X002503D01*X002253Y00288D01*Y01913D01*
X002753Y01963D01*X006503D01*X006753Y01988D01*Y02463D01*
X007503Y02538D01*Y02638D01*X011003Y01813D02*X012003Y01913D01*Y02013D01*
X011503Y02063D01*Y02288D01*X011753Y02313D01*X014253D01*
X014503Y02338D01*Y02713D01*X021753Y01713D02*Y018379D01*
X021503Y018629D01*X015753D01*X015503Y018879D01*Y02638D01*X016503D02*
Y019129D01*X016753Y018879D01*X022003D01*X022253Y018629D01*Y01488D01*
X022003Y01463D01*X021753D01*X017503Y02638D02*Y019379D01*
X017753Y019129D01*X022253D01*X022503Y018879D01*Y01288D01*
X022253Y01263D01*X021753D01*X018503Y02638D02*Y02388D01*
X018753Y02363D01*X020253D01*X020503Y02338D01*Y019629D01*
X020753Y019379D01*X022503D01*X022753Y019129D01*Y01088D01*
X022503Y01063D01*X021753D01*Y00863D02*X022753D01*X023003Y00888D01*
Y019379D01*X022753Y019629D01*X021753D01*X021503Y019879D01*Y02363D01*
X021253Y02388D01*X019753D01*X019503Y02413D01*X019503Y02638D01*
X021753Y00663D02*X023003D01*X023253Y00688D01*Y019629D01*
X022503Y020379D01*Y02388D01*X022253Y02413D01*X020753D01*
X020503Y02438D01*X020503Y02663D01*X021753Y00463D02*X023253D01*
X023503Y00488D01*Y01938D01*X023503Y02413D01*X023253Y02438D01*
X021753D01*X021503Y02463D01*X021503Y02488D01*Y02663D01*X022503D02*
X022503Y02488D01*X022753Y02463D01*X023503D01*X023753Y02438D01*
Y00288D01*X023503Y00263D01*X021753D01*X004503Y02738D02*Y02088D01*
X004753Y02063D01*X005503Y02738D02*Y02138D01*X006003Y02088D01*
M02*