%FSTAX24Y24*%
%MOIN*%
%IN ucard20.gtl *%
%ADD10C,0.0100*%
%ADD11C,0.0150*%
%ADD12C,0.0200*%
%ADD13C,0.0600*%
%ADD14R,0.0600X0.0600*%
D13*X004253Y01713D03*X000753D03*X021753Y01213D03*X025253D03*
X022003Y02538D03*Y02188D03*X005253Y013629D03*D12*X002503Y02063D03*D13*
X008753Y013629D03*X006003Y02538D03*Y02188D03*X021753Y01513D03*
X004253Y01513D03*X000753D03*X012003Y02538D03*X004253Y01613D03*
Y01013D03*X005753Y00613D03*X021753Y01113D03*Y01013D03*X020253Y00613D03*
X025253Y01013D03*X015003Y02538D03*X019003D03*Y02188D03*
X004253Y00713D03*X000753D03*D12*X008753Y01763D03*D13*X008753Y01113D03*
X011503D03*D12*X006503Y02638D03*D13*X004003Y02538D03*Y02188D03*
X021753Y00513D03*Y01413D03*X020253Y00813D03*X025253Y01413D03*D12*
X008503Y01813D03*D13*X008753Y01013D03*X011503D03*X010003Y02538D03*
Y02188D03*D14*X020253Y00213D03*D13*X017253Y01113D03*X014503D03*D12*
X010253Y016879D03*D13*X017253Y01013D03*X014503D03*D12*
X009753Y017129D03*D13*X017253Y00913D03*X014503D03*X017253Y00813D03*
X014503D03*X017253Y00713D03*X014503D03*X017253Y00613D03*X014503D03*
X017253Y00513D03*X014503D03*X017253Y00413D03*X014503D03*
X017253Y00313D03*X014503D03*X020253D03*X017253Y00213D03*D14*X014503D03*
D13*X020253Y00413D03*Y00713D03*Y00913D03*Y01013D03*D14*
X005753Y01113D03*D13*Y00213D03*X008753D03*X011503D03*X008753Y00313D03*
X011503D03*X008753Y00413D03*X011503D03*X008753Y00513D03*X011503D03*
X008753Y00613D03*X011503D03*X008753Y00713D03*X011503D03*
X008753Y00813D03*X011503D03*X008753Y00913D03*X011503D03*
X005753Y01013D03*Y00913D03*Y00813D03*Y00413D03*Y00313D03*
X018003Y02538D03*Y02188D03*X017253Y015629D03*X020753D03*
X004253Y00613D03*X008753Y012629D03*X005253D03*X020753Y014629D03*
X020253Y01113D03*X004253Y00213D03*X020753Y012629D03*X017253D03*
X020753Y013629D03*X008003Y02538D03*Y02188D03*X005003Y02538D03*
Y02188D03*X004253Y01213D03*X005753Y00713D03*X004253Y01313D03*
X000753D03*X013003Y02538D03*X004253Y00913D03*X000753D03*
X017003Y02538D03*Y02188D03*X004253Y01113D03*X000753D03*
X021003Y02538D03*Y02188D03*D12*X006003Y02088D03*Y016379D03*D13*
X004253Y00813D03*X005753Y00513D03*X014003Y02538D03*X016003Y02538D03*
Y02188D03*X023003Y02538D03*Y02188D03*D12*X022003Y02013D03*X021003D03*
X020003D03*D03*D13*X012503Y018129D03*X017253Y013629D03*D12*
X005003Y01763D03*X004753Y02063D03*X005253Y016629D03*X011003Y01813D03*
Y016129D03*D13*X014372Y020505D03*X013585D03*X011497Y019755D03*
X013585Y018537D03*X014372D03*X017253Y014629D03*X013585Y019521D03*
X014372D03*D12*X016003Y02013D03*X017003D03*X017753D03*D13*
X015003Y02188D03*X014003D03*X013003D03*X012003D03*X011003D03*D12*
X010003Y02063D03*X009003Y01963D03*Y01738D03*D13*X010513Y019755D03*
X009747Y018129D03*D12*X005753Y01713D03*X005503Y01688D03*D13*
X021753Y00813D03*X020253Y00513D03*X025253Y00813D03*X005253Y015629D03*
D12*X003503Y02038D03*D13*X008753Y015629D03*X021753Y01713D03*D12*
X006253Y02038D03*Y01738D03*D13*X025253Y00313D03*D12*X018253Y00138D03*
X007753D03*D13*X000753Y00213D03*Y00413D03*Y00613D03*Y00813D03*
Y01013D03*Y01213D03*Y01413D03*Y01613D03*X025253Y00513D03*Y00713D03*
Y01113D03*Y01313D03*Y01713D03*D12*X023503Y02638D03*D13*
X025253Y01513D03*Y00913D03*X021753Y00313D03*X004253Y00413D03*D12*
Y01813D03*D13*X021753Y00213D03*X025253D03*X003003Y02538D03*Y02188D03*
X021753Y01613D03*X025253D03*X004253Y01413D03*X021753Y00613D03*
X025253D03*X021753Y00713D03*Y01313D03*X004253Y00513D03*X000753D03*
X008753Y014629D03*X005253D03*X004253Y00313D03*X000753D03*
X020003Y02538D03*Y02188D03*X021753Y00913D03*X009003Y02538D03*Y02188D03*
D12*X008003Y02038D03*D13*X021753Y00413D03*X025253D03*X011003Y02538D03*
D10*X005253Y013629D02*G01X003253Y01363D01*X003003Y01388D01*Y02013D01*
X002503Y02063D01*X004253Y01013D02*X005003Y00938D01*Y00638D01*
X005253Y00613D01*X005753D01*X021753Y01013D02*X021253Y010129D01*
X021003Y009879D01*Y006379D01*X020753Y006129D01*X020253Y00613D01*
X008753Y01763D02*Y016754D01*X009253Y016254D01*Y012129D01*
X008753Y011629D01*Y01113D01*X011503Y01113D01*X021753Y01413D02*
X021253Y013629D01*Y012129D01*X020753Y011629D01*Y008629D01*
X020253Y00813D01*X008503Y01813D02*Y016254D01*X008253Y016004D01*
X008253Y01163D01*Y01038D01*X008503Y01013D01*X008753Y01013D01*
X011503D01*X017253Y01113D02*X014503D01*X014503Y012129D01*
X014253Y012379D01*X010503D01*X010253Y012629D01*Y016879D01*
X017253Y01013D02*X014503D01*X014003Y010129D01*X013753Y010379D01*
Y011629D01*X013503Y011879D01*X010003D01*X009753Y012129D01*Y017129D01*
X017253Y00913D02*X014503D01*X017253Y00813D02*X014503D01*
X017253Y00713D02*X014503D01*X017253Y00613D02*X014503D01*
X017253Y00513D02*X014503D01*X017253Y00413D02*X014503D01*
X017253Y00313D02*X014503D01*X017253Y00213D02*X014503D01*X008753D02*
X011503D01*X008753Y00313D02*X011503D01*X008753Y00413D02*X011503D01*
X008753Y00513D02*X011503D01*X008753Y00613D02*X011503D01*
X008753Y00713D02*X011503D01*X008753Y00813D02*X011503D01*
X008753Y00913D02*X011503D01*X020753Y014629D02*X020253Y014129D01*
X020253Y01113D01*X004253Y01213D02*X005003Y01213D01*X005253Y01188D01*
Y00763D01*X005753Y00713D01*X006003Y02088D02*Y016379D01*
X004253Y00813D02*X004753Y00763D01*Y00538D01*X005003Y00513D01*
X005753D01*X023003Y02188D02*Y02038D01*X022753Y02013D01*X022003D01*
X021003D01*X020003D01*X012503Y018129D02*X012509Y013873D01*
X012753Y013629D01*X017253D01*X004753Y02063D02*X005253Y02013D01*
Y016629D01*X011003Y01813D02*Y016129D01*X014372Y020505D02*X013585D01*
X012753D01*X012003Y019755D01*X011497D01*D11*X014372Y018537D02*
Y014928D01*X014671Y014629D01*X017253D01*D10*X014372Y019521D02*
X014894D01*X015003Y01963D01*Y02013D01*X016003D01*X017003D01*X017753D01*
X015003D02*Y02188D01*X014003D01*X013003D01*X012003D01*X011003D01*
Y02088D01*X010753Y02063D01*X010003D01*X009003Y01963D01*Y01738D01*
X010513Y019755D02*X010128D01*X009747Y019374D01*Y018129D01*
X021753Y00813D02*X021253Y00763D01*Y00538D01*X021003Y00513D01*
X020253D01*X005253Y015629D02*X003753Y01563D01*X003503Y01588D01*
Y02038D01*X006253D02*Y01738D01*D11*X025253Y00313D02*X024503D01*
Y00163D01*X024253Y00138D01*X018253D01*X007753D01*X001753D01*
X001503Y00163D01*Y00213D01*X000753Y00213D01*X001503Y00213D02*Y00413D01*
X000753Y00413D01*X001503Y00413D02*Y00613D01*X000753D01*X001503D02*
Y00813D01*X000753D01*X001503D02*Y01013D01*X000753Y01013D01*
X001503Y01013D02*Y01213D01*X000753Y01213D01*X001503Y01213D02*Y01413D01*
X000753Y01413D01*X001503Y01413D02*Y01588D01*X001253Y01613D01*
X000753D01*X024503Y00313D02*Y00513D01*X025253Y00513D01*
X024503Y00513D02*Y00713D01*X025253Y00713D01*X024503Y00713D02*Y00913D01*
Y01113D01*X025253D01*X024503D02*Y01313D01*X025253D01*X024503D02*
Y01513D01*Y01713D01*X025253Y01713D01*X024503Y01713D02*X024003D01*
X023753Y01738D01*X023753Y02138D01*Y02563D01*X023503Y02588D01*Y02638D01*
X024503Y01513D02*X025253D01*X024503Y00913D02*X025253Y00913D01*D10*
X009003Y02188D02*Y02138D01*X008003Y02038D01*X007503Y02613D02*
X007503Y02538D01*X006503Y02438D01*Y017254D01*X006253Y017004D01*
X006253Y00238D01*X006503Y00213D01*X008753Y00213D01*Y00913D02*
X008253D01*X008003Y00938D01*Y01188D01*X008003Y016129D01*
X008253Y016379D01*Y01938D01*X010503Y02163D01*Y02288D01*
X010753Y02313D01*X014253Y02313D01*X014503Y02338D01*Y02613D01*
X009503D02*Y02463D01*X009253Y02438D01*X007503Y02438D01*
X007003Y02388D01*Y017004D01*X006753Y016754D01*X006753Y01313D01*
Y00438D01*X007003Y00413D01*X008753D01*X017253Y00613D02*X018503D01*
X018753Y00638D01*X018753Y012879D01*X018753Y019129D01*Y02113D01*
X018503Y02138D01*Y02613D01*D13*X023503Y02638D02*Y02888D01*
X022503Y02638D02*Y02888D01*D10*X008753Y00713D02*X007753D01*
X007503Y00738D01*Y01238D01*X007503Y016379D01*X007753Y016629D01*
Y02063D01*X008503Y02138D01*Y02313D01*X009003Y02363D01*X012253Y02363D01*
X012503Y02388D01*Y02613D01*D13*X006503Y02638D02*Y02888D01*D10*
X016503Y02613D02*Y02113D01*X016753Y02088D01*X018003D01*
X018253Y02063D01*X018253Y019629D01*Y012129D01*X018253Y00838D01*
X018003Y00813D01*X017253D01*X021503Y02613D02*Y02113D01*
X021253Y02088D01*X019753D01*X019503Y02063D01*X019503Y019379D01*
Y013379D01*X019503Y00338D01*X019253Y00313D01*X017253D01*D13*
X020503Y02638D02*Y02888D01*X002503Y02638D02*Y02888D01*X019503Y02638D02*
Y02888D01*D10*X017253Y00713D02*X018253Y00713D01*X018503Y00738D01*
X018503Y012379D01*Y019379D01*X018503Y02088D01*X018253Y02113D01*
X017753D01*X017503Y02138D01*Y02613D01*X015503D02*Y02088D01*
X015753Y02063D01*X017753D01*X018003Y02038D01*X018003Y019879D01*
Y011879D01*X018003Y00938D01*X017753Y00913D01*X017253D01*
X008753Y00813D02*X008003D01*X007753Y00838D01*X007753Y01213D01*
Y016254D01*X008003Y016504D01*Y01963D01*X009503Y02113D01*Y02313D01*
X009753Y02338D01*X013253D01*X013503Y02363D01*Y02613D01*X011503D02*
Y02413D01*X011253Y02388D01*X008003Y02388D01*X007503Y02338D01*
Y016754D01*X007253Y016504D01*Y01263D01*X007253Y00638D01*
X007503Y00613D01*X008753Y00613D01*Y00513D02*X007253D01*
X007003Y00538D01*Y016629D01*X007253Y016879D01*Y02363D01*
X007753Y02413D01*X010253D01*X010503Y02438D01*Y02613D01*
X008753Y00313D02*X006753D01*X006503Y00338D01*Y016879D01*
X006753Y017129D01*Y02413D01*X007253Y02463D01*X008253Y02463D01*
X008503Y02488D01*Y02613D01*D13*X003503Y02638D02*Y02888D01*
X004503Y02638D02*Y02888D01*X005503Y02638D02*Y02888D01*X007503Y02638D02*
Y02888D01*X008503Y02638D02*Y02888D01*X009503Y02638D02*Y02888D01*
X010503Y02638D02*Y02888D01*X011503Y02638D02*Y02888D01*X012503Y02638D02*
Y02888D01*X013503Y02638D02*Y02888D01*X014503Y02638D02*Y02888D01*
X015503Y02638D02*Y02888D01*X016503Y02638D02*Y02888D01*D10*
X017253Y00213D02*X019503D01*X019753Y00238D01*X019753Y011629D01*
Y019879D01*X019753Y02038D01*X020003Y02063D01*X022253D01*
X022503Y02088D01*X022503Y02113D01*Y02613D01*D13*X021503Y02638D02*
Y02888D01*D10*X017253Y00413D02*X019003D01*X019253Y00438D01*Y013379D01*
X019253Y018379D01*X019253Y018629D01*Y02088D01*X019503Y02113D01*
X020253D01*X020503Y02138D01*Y02613D01*X017253Y00513D02*X018753D01*
X019003Y00538D01*X019003Y014129D01*Y018879D01*X019003Y02113D01*
X019503Y02163D01*Y02613D01*D13*X017503Y02638D02*Y02888D01*
X018503Y02638D02*Y02888D01*D10*X005753Y01713D02*Y02063D01*
X005503Y02088D01*X005503Y02613D01*X005003Y01763D02*Y01988D01*
X003503Y02138D01*Y02163D01*X003503Y02538D01*Y02613D01*X003003Y02538D02*
X002503D01*Y02613D01*Y02538D02*X002253Y02513D01*Y02138D01*
X002503Y02113D01*X003253D01*X004253Y02013D01*Y01813D01*
X005503Y01688D02*Y02038D01*X004503Y02138D01*Y02538D01*X004503Y02613D01*
X004003Y02538D02*X003503Y02538D01*X004503D02*X005003Y02538D01*
X005503Y02538D02*X006003Y02538D01*X007503Y02538D02*X008003Y02538D01*
X008503Y02538D02*X009003D01*X009503D02*X010003D01*X010503D02*
X011003Y02538D01*X011503Y02538D02*X012003Y02538D01*X012503Y02538D02*
X013003D01*X013503D02*X014003D01*X014503D02*X015003Y02538D01*
X015503Y02538D02*X016003D01*X016503D02*X017003D01*X017503D02*
X018003Y02538D01*X018503Y02538D02*X019003Y02538D01*X019503Y02538D02*
X020003D01*X020503D02*X021003Y02538D01*X021503Y02538D02*
X022003Y02538D01*X022503Y02538D02*X023003Y02538D01*
M02*