%FSTAX24Y24*%
%MOIN*%
%IN ucard20.gbs *%
%ADD10C,0.0100*%
%ADD11C,0.0300*%
%ADD12C,0.0800*%
%ADD13R,0.0800X0.0800*%
D10*X0018Y0259D02*G01X001778Y029664D01*X002053D01*X024276D01*
X0243Y0259D01*X0018D01*G36*G01X001778Y029664D01*X002053D01*X024276D01*
X0243Y0259D01*X0018D01*G37*
%LPC*%
%LPD*%
D12*X004253Y01713D03*X000753D03*X021753Y01213D03*X025253D03*
X022003Y02538D03*Y02188D03*X005253Y013629D03*X008753D03*
X006003Y02538D03*Y02188D03*X025253Y01513D03*X021753D03*
X004253Y01513D03*X000753D03*X012003Y02538D03*Y02188D03*
X000753Y01613D03*X004253D03*X000753Y01013D03*X004253D03*
X025253Y01113D03*X021753D03*Y01013D03*X025253D03*X015003Y02538D03*
Y02188D03*X019003Y02538D03*Y02188D03*X004253Y00713D03*X000753D03*
X004003Y02538D03*Y02188D03*X025253Y00513D03*X021753D03*Y01413D03*
X025253D03*X010003Y02538D03*Y02188D03*D13*X020253Y00213D03*D12*
Y01113D03*X017253D03*Y01013D03*Y00913D03*Y00813D03*Y00713D03*Y00613D03*
Y00513D03*Y00413D03*Y00313D03*X020253D03*X017253Y00213D03*
X020253Y00413D03*Y00513D03*Y00613D03*Y00713D03*Y00813D03*Y00913D03*
Y01013D03*D13*X005753Y01113D03*D12*Y00213D03*X008753D03*Y00313D03*
Y00413D03*Y00513D03*Y00613D03*Y00713D03*Y00813D03*Y00913D03*Y01013D03*
X005753D03*X008753Y01113D03*X005753Y00913D03*Y00813D03*Y00713D03*
Y00613D03*Y00513D03*Y00413D03*Y00313D03*X018003Y02538D03*Y02188D03*
X017253Y015629D03*X020753D03*X000753Y00613D03*X004253D03*
X008753Y012629D03*X005253D03*X020753Y014629D03*X017253D03*
X000753Y00213D03*X004253D03*X020753Y012629D03*X017253D03*Y013629D03*
X020753D03*X008003Y02538D03*Y02188D03*X005003Y02538D03*Y02188D03*
X000753Y01213D03*X004253D03*Y01313D03*X000753D03*X013003Y02538D03*
Y02188D03*X004253Y00913D03*X000753D03*X017003Y02538D03*Y02188D03*
X004253Y01113D03*X000753D03*X021003Y02538D03*Y02188D03*D13*
X014503Y00213D03*D12*X011503Y00813D03*Y01013D03*Y00713D03*Y00613D03*
Y00513D03*Y00413D03*Y00313D03*Y00213D03*X014503Y01013D03*Y00313D03*
Y00413D03*Y00513D03*Y01113D03*X011503D03*X014503Y00613D03*Y00713D03*
Y00813D03*Y00913D03*X011503D03*X000753Y00813D03*X004253D03*
X014003Y02538D03*Y02188D03*X016003Y02538D03*Y02188D03*X023003Y02538D03*
Y02188D03*X009747Y018129D03*X012503D03*X013585Y020505D03*X014372D03*
X013585Y018537D03*X014372D03*X013585Y019521D03*X014372D03*
X011497Y019755D03*X010513D03*X021753Y00813D03*X025253D03*
X005253Y015629D03*X008753D03*X025253Y01713D03*X021753D03*
X025253Y00313D03*X021753D03*X000753Y00413D03*X004253D03*
X021753Y00213D03*X025253D03*X003003Y02538D03*Y02188D03*
X021753Y01613D03*X025253D03*X000753Y01413D03*X004253D03*
X021753Y00613D03*X025253D03*Y00713D03*X021753D03*X025253Y01313D03*
X021753D03*X004253Y00513D03*X000753D03*X008753Y014629D03*X005253D03*
X004253Y00313D03*X000753D03*X020003Y02538D03*Y02188D03*
X025253Y00913D03*X021753D03*X009003Y02538D03*Y02188D03*
X021753Y00413D03*X025253D03*X011003Y02538D03*Y02188D03*
M02*