M48
FMAT,2
INCH,LZ
T1C0.0100
T2C0.0260
T3C0.0400
%
T1
X015341Y011991
X015841Y012116
X017841Y012491
X017341Y012491
X016841Y012366
X016341Y012241
X017841Y006991
X017341Y007309
X016841Y007616
X016341Y007934
X014841Y008866
X015841Y008241
X015341Y008559
X014841Y011866
X018341Y012491
X019466Y010991
X018341Y009991
X019466Y012366
T2
X010466Y002491
X013466Y008491
X013466Y010491
X013466Y007491
X013466Y006491
X013466Y005491
X013466Y004491
X013466Y003491
X013466Y002491
X010466Y010491
X010466Y003491
X010466Y004491
X010466Y005491
X010466Y011491
X013466Y011491
X010466Y006491
X010466Y007491
X010466Y008491
X010466Y009491
X013466Y009491
T3
X015466Y016241
X011466Y016241
X020466Y014491
X010466Y014491
X008466Y014491
X006466Y014491
X004466Y014491
X002466Y014491
X007466Y016241
X021466Y016241
X003466Y016241
X013466Y016241
X005466Y016241
X012466Y014491
X019466Y016241
X016466Y014491
X018466Y014491
X014466Y014491
X001466Y016241
X022466Y014491
X009466Y016241
X017466Y016241
M30
