%FSTAX24Y24*%
%MOIN*%
%IN LAYER1.gtl *%
%ADD10C,0.0150*%
%ADD11C,0.0200*%
%ADD12C,0.0250*%
%ADD13C,0.0300*%
%ADD14C,0.0600*%
%ADD15R,0.0600X0.0600*%
D14*X011466Y016241D03*X015466D03*D12*X016341Y012241D03*Y007934D03*
X016841Y012366D03*Y007616D03*X017341Y012491D03*Y007309D03*
X017841Y012491D03*Y006991D03*X015841Y012116D03*Y008241D03*
X015341Y011991D03*Y008559D03*X014841Y011866D03*Y008866D03*
X018341Y012491D03*Y009991D03*X019466Y012366D03*Y010991D03*D14*
X007466Y016241D03*X021466D03*X003466D03*X013466D03*D15*
X010466Y002491D03*D14*X013466Y008491D03*Y010491D03*Y007491D03*
Y006491D03*Y005491D03*Y004491D03*Y003491D03*Y002491D03*
X010466Y010491D03*Y003491D03*Y004491D03*Y005491D03*Y011491D03*
X013466D03*X010466Y006491D03*Y007491D03*Y008491D03*Y009491D03*
X013466D03*X005466Y016241D03*X002466Y014491D03*X004466D03*X006466D03*
X008466D03*X010466D03*X020466D03*X012466D03*X019466Y016241D03*
X016466Y014491D03*X018466D03*X014466D03*X001466Y016241D03*X009466D03*
X022466Y014491D03*X017466Y016241D03*D10*X016341Y012241D02*
G01Y007934D01*X016841Y012366D02*Y007616D01*X017341Y012491D02*
Y007309D01*X017841Y012491D02*Y006991D01*X015841Y012116D02*Y008241D01*
X015341Y011991D02*Y008559D01*X014841Y011866D02*Y008866D01*
X018341Y012491D02*Y009991D01*X019466Y012366D02*Y010991D01*D14*
X017466Y020241D02*Y017741D01*X010466Y020241D02*Y017741D01*
X016466Y020241D02*Y017741D01*X015466Y020241D02*Y017741D01*
X006466Y020241D02*Y017741D01*X005466Y020241D02*Y017741D01*
X001466Y020241D02*Y017741D01*X002466Y020241D02*Y017741D01*
X011466Y020241D02*Y017741D01*X012466Y020241D02*Y017741D01*
X009466Y020241D02*Y017741D01*X018466Y020241D02*Y017741D01*
X008466Y020241D02*Y017741D01*X007466Y020241D02*Y017741D01*
X014466Y020241D02*Y017741D01*X013466Y020241D02*Y017741D01*
X003466Y020241D02*Y017741D01*X004466Y020241D02*Y017741D01*D11*
X001466Y017616D02*Y013366D01*X001841Y012991D01*X009841D01*
X009851Y012934D01*D13*Y001616D01*D11*Y001549D01*X014101D01*Y001616D01*
D13*X014091Y011741D01*D11*X018466Y017616D02*Y013491D01*
X017966Y012991D01*X012438D01*X011966Y012491D01*Y011866D01*
X011091Y002241D02*X011126Y002191D01*X012791D01*X012841Y002241D01*D13*
Y011741D01*D11*X012803Y011804D01*X011116D01*X011091Y011741D01*D13*
Y002241D01*D10*X002466Y014491D02*Y017616D01*X003466D02*Y016241D01*
X004466Y014491D02*Y017616D01*X005466Y016241D02*Y017616D01*
X006466Y014491D02*Y017616D01*X007466Y016241D02*Y017616D01*
X008466Y014491D02*Y017616D01*X009466Y016241D02*Y017616D01*
X010466Y014491D02*Y017616D01*X011466Y016241D02*Y017616D01*
X012466Y014491D02*Y017616D01*X013466Y016241D02*Y017616D01*
X014466Y014491D02*Y017616D01*X015466Y016241D02*Y017616D01*
X016466Y014491D02*Y017616D01*X017466Y016241D02*Y017616D01*D14*
X022466Y020241D02*Y017741D01*X021466Y020241D02*Y017741D01*
X020466Y020241D02*Y017741D01*X019466Y020241D02*Y017741D01*D10*
Y016241D02*Y017616D01*X020466Y014491D02*Y017616D01*X021466Y016241D02*
Y017616D01*X022466Y014491D02*Y017616D01*
M02*