%FSTAX24Y24*%
%MOIN*%
%IN LAYER2.gbl *%
%ADD10C,0.0150*%
%ADD11C,0.0250*%
%ADD12C,0.0400*%
%ADD13C,0.0600*%
%ADD14R,0.0600X0.0600*%
D11*X017341Y007309D03*D13*X013466Y003491D03*D11*X016341Y012241D03*D13*
X014466Y014491D03*D11*X016841Y012366D03*D13*X015466Y016241D03*D11*
X017841Y012491D03*D13*X017466Y016241D03*D11*X015841Y012116D03*D13*
X013466Y016241D03*D11*X014841Y011866D03*D13*X011466Y016241D03*D11*
X018341Y012491D03*D13*X019466Y016241D03*D11*X019466Y010991D03*D13*
X010466Y011491D03*D11*X018341Y009991D03*D13*X010466Y010491D03*D11*
X019466Y012366D03*D13*X020466Y014491D03*X007466Y016241D03*
X010466Y007491D03*X013466Y010491D03*X022466Y014491D03*
X013466Y005491D03*D11*X016341Y007934D03*D13*X013466Y004491D03*D11*
X016841Y007616D03*D13*X013466Y002491D03*D11*X017841Y006991D03*D13*
X010466Y003491D03*X003466Y016241D03*X013466Y011491D03*
X021466Y016241D03*X010466Y008491D03*X008466Y014491D03*
X013466Y009491D03*X010466Y014491D03*X005466Y016241D03*
X010466Y005491D03*X002466Y014491D03*D14*X010466Y002491D03*D13*
X004466Y014491D03*X010466Y004491D03*X006466Y014491D03*
X010466Y006491D03*X012466Y014491D03*D11*X015341Y011991D03*D13*
X016466Y014491D03*D11*X017341Y012491D03*D13*X018466Y014491D03*
X001466Y016241D03*X009466D03*X010466Y009491D03*D11*X015841Y008241D03*
D13*X013466Y006491D03*D11*X015341Y008559D03*D13*X013466Y007491D03*D11*
X014841Y008866D03*D13*X013466Y008491D03*D10*X017341Y007309D02*
G01X013466Y003491D01*X016341Y012241D02*X014466Y012991D01*Y014491D01*
X016841Y012366D02*X015466Y012991D01*Y016241D01*X017841Y012491D02*
X017466Y012991D01*X017466Y016241D01*X015841Y012116D02*
X013466Y012991D01*Y016241D01*X014841Y011866D02*X011466Y012991D01*
X011466Y016241D01*X018341Y012491D02*X019466Y013616D01*Y016241D01*
X019466Y010991D02*X010966D01*X010466Y011491D01*X018341Y009991D02*
X013091D01*X012591Y010491D01*X010466D01*X019466Y012366D02*
X020466Y013366D01*Y014491D01*X007466Y016241D02*X007466Y008991D01*
X010466Y007491D01*X013466Y010491D02*X020091D01*X022466Y012866D01*
Y014491D01*X013466Y005491D02*X016341Y007934D01*X013466Y004491D02*
X016841Y007616D01*X013466Y002491D02*X017841Y006991D01*
X010466Y003491D02*X003466Y007991D01*X003466Y016241D01*
X013466Y011491D02*X019841D01*X021466Y013116D01*Y016241D01*
X010466Y008491D02*X008466Y009241D01*Y014491D01*X013466Y009491D02*
X011466D01*X010966Y009991D01*X009966D01*X009716Y010116D01*Y012366D01*
X010466Y012991D01*Y014491D01*X005466Y016241D02*X005466Y008491D01*
X010466Y005491D01*X002466Y014491D02*X002466Y007741D01*
X010466Y002491D01*X004466Y014491D02*Y008241D01*X010466Y004491D01*
X006466Y014491D02*X006466Y008741D01*X010466Y006491D01*
X012466Y014491D02*X012466Y012991D01*X015341Y011991D01*
X016466Y014491D02*X016466Y012991D01*X017341Y012491D01*
X009466Y016241D02*Y012991D01*X009091Y012491D01*Y009616D01*
X009341Y009491D01*X010466D01*X015841Y008241D02*X013466Y006491D01*
X015341Y008559D02*X013466Y007491D01*X014841Y008866D02*
X013466Y008491D01*X017466Y016241D02*Y017741D01*D13*Y020241D01*D10*
X010466Y014491D02*Y017741D01*D13*Y020241D01*D10*X016466Y014491D02*
Y017741D01*D13*Y020241D01*D10*X015466Y016241D02*Y017741D01*D13*
Y020241D01*D10*X006466Y014491D02*Y017741D01*D13*Y020241D01*X001466D02*
Y017741D01*D10*Y016241D01*X002466Y014491D02*Y017741D01*D13*Y020241D01*
D10*X011466Y016241D02*Y017741D01*D13*Y020241D01*D10*X012466Y014491D02*
Y017741D01*D13*Y020241D01*D10*X009466Y016241D02*Y017741D01*D13*
Y020241D01*X018466D02*Y017741D01*D10*Y014491D01*X008466D02*Y017741D01*
D13*Y020241D01*D10*X007466Y016241D02*Y017741D01*D13*Y020241D01*D10*
X014466Y014491D02*Y017741D01*D13*Y020241D01*D10*X003466Y016241D02*
Y017741D01*D13*Y020241D01*D10*X004466Y014491D02*Y017741D01*D13*
Y020241D01*D10*X005466Y016241D02*Y017741D01*D13*Y020241D01*D12*
X018091Y014491D02*X018103Y014588D01*X018141Y014679D01*X0182Y014756D01*
X018278Y014816D01*X018369Y014853D01*X018466Y014866D01*
X018563Y014853D01*X018653Y014816D01*X018731Y014756D01*X01879Y014679D01*
X018828Y014588D01*X018841Y014491D01*X018828Y014394D01*X01879Y014304D01*
X018731Y014226D01*X018653Y014166D01*X018563Y014129D01*
X018466Y014116D01*X018369Y014129D01*X018278Y014166D01*X0182Y014226D01*
X018141Y014304D01*X018103Y014394D01*X018091Y014491D01*
X017091Y016241D02*X017103Y016338D01*X017141Y016429D01*X0172Y016506D01*
X017278Y016566D01*X017369Y016603D01*X017466Y016616D01*
X017563Y016603D01*X017653Y016566D01*X017731Y016506D01*X01779Y016429D01*
X017828Y016338D01*X017841Y016241D01*X017828Y016144D01*X01779Y016054D01*
X017731Y015976D01*X017653Y015916D01*X017563Y015879D01*
X017466Y015866D01*X017369Y015879D01*X017278Y015916D01*X0172Y015976D01*
X017141Y016054D01*X017103Y016144D01*X017091Y016241D01*
X002091Y014491D02*X002103Y014588D01*X002141Y014679D01*X0022Y014756D01*
X002278Y014816D01*X002369Y014853D01*X002466Y014866D01*
X002563Y014853D01*X002653Y014816D01*X002731Y014756D01*X00279Y014679D01*
X002828Y014588D01*X002841Y014491D01*X002828Y014394D01*X00279Y014304D01*
X002731Y014226D01*X002653Y014166D01*X002563Y014129D01*
X002466Y014116D01*X002369Y014129D01*X002278Y014166D01*X0022Y014226D01*
X002141Y014304D01*X002103Y014394D01*X002091Y014491D01*
X001091Y016241D02*X001103Y016338D01*X001141Y016429D01*X0012Y016506D01*
X001278Y016566D01*X001369Y016603D01*X001466Y016616D01*
X001563Y016603D01*X001653Y016566D01*X001731Y016506D01*X00179Y016429D01*
X001828Y016338D01*X001841Y016241D01*X001828Y016144D01*X00179Y016054D01*
X001731Y015976D01*X001653Y015916D01*X001563Y015879D01*
X001466Y015866D01*X001369Y015879D01*X001278Y015916D01*X0012Y015976D01*
X001141Y016054D01*X001103Y016144D01*X001091Y016241D01*
X004075Y014476D02*X004088Y014573D01*X004126Y014664D01*
X004185Y014741D01*X004263Y014801D01*X004353Y014838D01*X00445Y014851D01*
X004547Y014838D01*X004638Y014801D01*X004716Y014741D01*
X004775Y014664D01*X004813Y014573D01*X004825Y014476D01*
X004813Y014379D01*X004775Y014289D01*X004716Y014211D01*
X004638Y014151D01*X004547Y014114D01*X00445Y014101D01*X004353Y014114D01*
X004263Y014151D01*X004185Y014211D01*X004126Y014289D01*
X004088Y014379D01*X004075Y014476D01*X003075Y016226D02*
X003088Y016323D01*X003126Y016414D01*X003185Y016491D01*
X003263Y016551D01*X003353Y016588D01*X00345Y016601D01*X003547Y016588D01*
X003638Y016551D01*X003716Y016491D01*X003775Y016414D01*
X003813Y016323D01*X003825Y016226D01*X003813Y016129D01*
X003775Y016039D01*X003716Y015961D01*X003638Y015901D01*
X003547Y015864D01*X00345Y015851D01*X003353Y015864D01*X003263Y015901D01*
X003185Y015961D01*X003126Y016039D01*X003088Y016129D01*
X003075Y016226D01*X006091Y014491D02*X006103Y014588D01*
X006141Y014679D01*X0062Y014756D01*X006278Y014816D01*X006369Y014853D01*
X006466Y014866D01*X006563Y014853D01*X006653Y014816D01*
X006731Y014756D01*X00679Y014679D01*X006828Y014588D01*X006841Y014491D01*
X006828Y014394D01*X00679Y014304D01*X006731Y014226D01*X006653Y014166D01*
X006563Y014129D01*X006466Y014116D01*X006369Y014129D01*
X006278Y014166D01*X0062Y014226D01*X006141Y014304D01*X006103Y014394D01*
X006091Y014491D01*X005091Y016241D02*X005103Y016338D01*
X005141Y016429D01*X0052Y016506D01*X005278Y016566D01*X005369Y016603D01*
X005466Y016616D01*X005563Y016603D01*X005653Y016566D01*
X005731Y016506D01*X00579Y016429D01*X005828Y016338D01*X005841Y016241D01*
X005828Y016144D01*X00579Y016054D01*X005731Y015976D01*X005653Y015916D01*
X005563Y015879D01*X005466Y015866D01*X005369Y015879D01*
X005278Y015916D01*X0052Y015976D01*X005141Y016054D01*X005103Y016144D01*
X005091Y016241D01*X008091Y014491D02*X008103Y014588D01*
X008141Y014679D01*X0082Y014756D01*X008278Y014816D01*X008369Y014853D01*
X008466Y014866D01*X008563Y014853D01*X008653Y014816D01*
X008731Y014756D01*X00879Y014679D01*X008828Y014588D01*X008841Y014491D01*
X008828Y014394D01*X00879Y014304D01*X008731Y014226D01*X008653Y014166D01*
X008563Y014129D01*X008466Y014116D01*X008369Y014129D01*
X008278Y014166D01*X0082Y014226D01*X008141Y014304D01*X008103Y014394D01*
X008091Y014491D01*X007091Y016241D02*X007103Y016338D01*
X007141Y016429D01*X0072Y016506D01*X007278Y016566D01*X007369Y016603D01*
X007466Y016616D01*X007563Y016603D01*X007653Y016566D01*
X007731Y016506D01*X00779Y016429D01*X007828Y016338D01*X007841Y016241D01*
X007828Y016144D01*X00779Y016054D01*X007731Y015976D01*X007653Y015916D01*
X007563Y015879D01*X007466Y015866D01*X007369Y015879D01*
X007278Y015916D01*X0072Y015976D01*X007141Y016054D01*X007103Y016144D01*
X007091Y016241D01*X010091Y014491D02*X010103Y014588D01*
X010141Y014679D01*X0102Y014756D01*X010278Y014816D01*X010369Y014853D01*
X010466Y014866D01*X010563Y014853D01*X010653Y014816D01*
X010731Y014756D01*X01079Y014679D01*X010828Y014588D01*X010841Y014491D01*
X010828Y014394D01*X01079Y014304D01*X010731Y014226D01*X010653Y014166D01*
X010563Y014129D01*X010466Y014116D01*X010369Y014129D01*
X010278Y014166D01*X0102Y014226D01*X010141Y014304D01*X010103Y014394D01*
X010091Y014491D01*X009091Y016241D02*X009103Y016338D01*
X009141Y016429D01*X0092Y016506D01*X009278Y016566D01*X009369Y016603D01*
X009466Y016616D01*X009563Y016603D01*X009653Y016566D01*
X009731Y016506D01*X00979Y016429D01*X009828Y016338D01*X009841Y016241D01*
X009828Y016144D01*X00979Y016054D01*X009731Y015976D01*X009653Y015916D01*
X009563Y015879D01*X009466Y015866D01*X009369Y015879D01*
X009278Y015916D01*X0092Y015976D01*X009141Y016054D01*X009103Y016144D01*
X009091Y016241D01*X012091Y014491D02*X012103Y014588D01*
X012141Y014679D01*X0122Y014756D01*X012278Y014816D01*X012369Y014853D01*
X012466Y014866D01*X012563Y014853D01*X012653Y014816D01*
X012731Y014756D01*X01279Y014679D01*X012828Y014588D01*X012841Y014491D01*
X012828Y014394D01*X01279Y014304D01*X012731Y014226D01*X012653Y014166D01*
X012563Y014129D01*X012466Y014116D01*X012369Y014129D01*
X012278Y014166D01*X0122Y014226D01*X012141Y014304D01*X012103Y014394D01*
X012091Y014491D01*X011091Y016241D02*X011103Y016338D01*
X011141Y016429D01*X0112Y016506D01*X011278Y016566D01*X011369Y016603D01*
X011466Y016616D01*X011563Y016603D01*X011653Y016566D01*
X011731Y016506D01*X01179Y016429D01*X011828Y016338D01*X011841Y016241D01*
X011828Y016144D01*X01179Y016054D01*X011731Y015976D01*X011653Y015916D01*
X011563Y015879D01*X011466Y015866D01*X011369Y015879D01*
X011278Y015916D01*X0112Y015976D01*X011141Y016054D01*X011103Y016144D01*
X011091Y016241D01*X014091Y014491D02*X014103Y014588D01*
X014141Y014679D01*X0142Y014756D01*X014278Y014816D01*X014369Y014853D01*
X014466Y014866D01*X014563Y014853D01*X014653Y014816D01*
X014731Y014756D01*X01479Y014679D01*X014828Y014588D01*X014841Y014491D01*
X014828Y014394D01*X01479Y014304D01*X014731Y014226D01*X014653Y014166D01*
X014563Y014129D01*X014466Y014116D01*X014369Y014129D01*
X014278Y014166D01*X0142Y014226D01*X014141Y014304D01*X014103Y014394D01*
X014091Y014491D01*X013091Y016241D02*X013103Y016338D01*
X013141Y016429D01*X0132Y016506D01*X013278Y016566D01*X013369Y016603D01*
X013466Y016616D01*X013563Y016603D01*X013653Y016566D01*
X013731Y016506D01*X01379Y016429D01*X013828Y016338D01*X013841Y016241D01*
X013828Y016144D01*X01379Y016054D01*X013731Y015976D01*X013653Y015916D01*
X013563Y015879D01*X013466Y015866D01*X013369Y015879D01*
X013278Y015916D01*X0132Y015976D01*X013141Y016054D01*X013103Y016144D01*
X013091Y016241D01*X016091Y014491D02*X016103Y014588D01*
X016141Y014679D01*X0162Y014756D01*X016278Y014816D01*X016369Y014853D01*
X016466Y014866D01*X016563Y014853D01*X016653Y014816D01*
X016731Y014756D01*X01679Y014679D01*X016828Y014588D01*X016841Y014491D01*
X016828Y014394D01*X01679Y014304D01*X016731Y014226D01*X016653Y014166D01*
X016563Y014129D01*X016466Y014116D01*X016369Y014129D01*
X016278Y014166D01*X0162Y014226D01*X016141Y014304D01*X016103Y014394D01*
X016091Y014491D01*X015091Y016241D02*X015103Y016338D01*
X015141Y016429D01*X0152Y016506D01*X015278Y016566D01*X015369Y016603D01*
X015466Y016616D01*X015563Y016603D01*X015653Y016566D01*
X015731Y016506D01*X01579Y016429D01*X015828Y016338D01*X015841Y016241D01*
X015828Y016144D01*X01579Y016054D01*X015731Y015976D01*X015653Y015916D01*
X015563Y015879D01*X015466Y015866D01*X015369Y015879D01*
X015278Y015916D01*X0152Y015976D01*X015141Y016054D01*X015103Y016144D01*
X015091Y016241D01*D10*X019466D02*Y017741D01*D13*Y020241D01*D10*
X020466Y014491D02*Y017741D01*D13*Y020241D01*D10*X021466Y016241D02*
Y017741D01*D13*Y020241D01*D12*X019091Y016241D02*X019103Y016338D01*
X019141Y016429D01*X0192Y016506D01*X019278Y016566D01*X019369Y016603D01*
X019466Y016616D01*X019563Y016603D01*X019653Y016566D01*
X019731Y016506D01*X01979Y016429D01*X019828Y016338D01*X019841Y016241D01*
X019828Y016144D01*X01979Y016054D01*X019731Y015976D01*X019653Y015916D01*
X019563Y015879D01*X019466Y015866D01*X019369Y015879D01*
X019278Y015916D01*X0192Y015976D01*X019141Y016054D01*X019103Y016144D01*
X019091Y016241D01*X020091Y014491D02*X020103Y014588D01*
X020141Y014679D01*X0202Y014756D01*X020278Y014816D01*X020369Y014853D01*
X020466Y014866D01*X020563Y014853D01*X020653Y014816D01*
X020731Y014756D01*X02079Y014679D01*X020828Y014588D01*X020841Y014491D01*
X020828Y014394D01*X02079Y014304D01*X020731Y014226D01*X020653Y014166D01*
X020563Y014129D01*X020466Y014116D01*X020369Y014129D01*
X020278Y014166D01*X0202Y014226D01*X020141Y014304D01*X020103Y014394D01*
X020091Y014491D01*X021091Y016241D02*X021103Y016338D01*
X021141Y016429D01*X0212Y016506D01*X021278Y016566D01*X021369Y016603D01*
X021466Y016616D01*X021563Y016603D01*X021653Y016566D01*
X021731Y016506D01*X02179Y016429D01*X021828Y016338D01*X021841Y016241D01*
X021828Y016144D01*X02179Y016054D01*X021731Y015976D01*X021653Y015916D01*
X021563Y015879D01*X021466Y015866D01*X021369Y015879D01*
X021278Y015916D01*X0212Y015976D01*X021141Y016054D01*X021103Y016144D01*
X021091Y016241D01*X022091Y014491D02*X022103Y014588D01*
X022141Y014679D01*X0222Y014756D01*X022278Y014816D01*X022369Y014853D01*
X022466Y014866D01*X022563Y014853D01*X022653Y014816D01*
X022731Y014756D01*X02279Y014679D01*X022828Y014588D01*X022841Y014491D01*
X022828Y014394D01*X02279Y014304D01*X022731Y014226D01*X022653Y014166D01*
X022563Y014129D01*X022466Y014116D01*X022369Y014129D01*
X022278Y014166D01*X0222Y014226D01*X022141Y014304D01*X022103Y014394D01*
X022091Y014491D01*D10*X022466D02*Y017741D01*D13*Y020241D01*X013466D02*
Y017741D01*D10*Y016241D01*
M02*