%FSTAX24Y24*%
%MOIN*%
%IN MASK1.gts *%
%ADD10C,0.0100*%
%ADD11C,0.0800*%
%ADD12R,0.0800X0.0800*%
D11*X011466Y016241D03*X015466D03*X007466D03*X021466D03*X003466D03*
X013466D03*D12*X010466Y002491D03*D11*X013466Y008491D03*Y010491D03*
Y007491D03*Y006491D03*Y005491D03*Y004491D03*Y003491D03*Y002491D03*
X010466Y010491D03*Y003491D03*Y004491D03*Y005491D03*Y011491D03*
X013466D03*X010466Y006491D03*Y007491D03*Y008491D03*Y009491D03*
X013466D03*X005466Y016241D03*X002466Y014491D03*X004466D03*X006466D03*
X008466D03*X010466D03*X020466D03*X012466D03*X019466Y016241D03*
X016466Y014491D03*X018466D03*X014466D03*X001466Y016241D03*X009466D03*
X022466Y014491D03*X017466Y016241D03*D10*X000692Y017103D02*
G01X023192D01*X000692Y017152D02*X023192D01*X000693Y017202D02*
X023192D01*X000693Y017251D02*X023193D01*X000693Y017301D02*X023193D01*
X000693Y01735D02*X023193D01*X000694Y0174D02*X023194D01*
X000694Y017449D02*X023194D01*X000694Y017499D02*X023194D01*
X000695Y017548D02*X023194D01*X000695Y017598D02*X023195D01*
X000695Y017647D02*X023195D01*X000696Y017697D02*X023195D01*
X000696Y017746D02*X023196D01*X000696Y017796D02*X023196D01*
X000697Y017845D02*X023196D01*X000697Y017895D02*X023197D01*
X000697Y017944D02*X023197D01*X000698Y017994D02*X023197D01*
X000698Y018043D02*X023197D01*X000698Y018093D02*X023198D01*
X000698Y018142D02*X023198D01*X000699Y018192D02*X023198D01*
X000699Y018242D02*X023199D01*X000699Y018291D02*X023199D01*
X0007Y018341D02*X023199D01*X0007Y01839D02*X023199D01*X0007Y01844D02*
X0232D01*X000701Y018489D02*X0232D01*X000701Y018539D02*X0232D01*
X000701Y018588D02*X023201D01*X000702Y018638D02*X023201D01*
X000702Y018687D02*X023201D01*X000702Y018737D02*X023201D01*
X000702Y018786D02*X023202D01*X000703Y018836D02*X023202D01*
X000703Y018885D02*X023202D01*X000703Y018935D02*X023203D01*
X000704Y018984D02*X023203D01*X000704Y019034D02*X023203D01*
X000704Y019083D02*X023204D01*X000705Y019133D02*X023204D01*
X000705Y019182D02*X023204D01*X000705Y019232D02*X023204D01*
X000706Y019281D02*X023205D01*X000706Y019331D02*X023205D01*
X000706Y019381D02*X023205D01*X000707Y01943D02*X023206D01*
X000707Y01948D02*X023206D01*X000707Y019529D02*X023206D01*
X000707Y019579D02*X023206D01*X000708Y019628D02*X023207D01*
X000708Y019678D02*X023207D01*X000708Y019727D02*X023207D01*
X000709Y019777D02*X023208D01*X000709Y019826D02*X023208D01*
X000709Y019876D02*X023208D01*X00071Y019925D02*X023208D01*
X00071Y019975D02*X023209D01*X00071Y020024D02*X023209D01*
X000711Y020074D02*X023209D01*X000711Y020123D02*X02321D01*
X000711Y020173D02*X02321D01*X000712Y020222D02*X02321D01*
X000712Y020272D02*X023211D01*X000712Y020321D02*X023211D01*
X000712Y020371D02*X023211D01*X000713Y02042D02*X023211D01*
X000713Y02047D02*X023212D01*X000713Y02052D02*X023212D01*
X000714Y020569D02*X023212D01*X000714Y020619D02*X023213D01*
X000714Y020668D02*X023213D01*X000715Y020718D02*X023213D01*
X000715Y020767D02*X023213D01*X000715Y020817D02*X023214D01*
X009439Y001241D02*X014489D01*X009439Y001291D02*X014489D01*
X009439Y001341D02*X014489D01*X009439Y001391D02*X014489D01*
X009439Y001441D02*X014489D01*X009439Y001491D02*X014489D01*
X009439Y001541D02*X014489D01*X009439Y00159D02*X014489D01*
X009439Y00164D02*X014489D01*X009439Y00169D02*X014489D01*
X009439Y00174D02*X014489D01*X009439Y00179D02*X014489D01*
X009439Y00184D02*X014489D01*X009439Y00189D02*X014489D01*
X009439Y00194D02*X014489D01*X009439Y00199D02*X014489D01*
X009439Y002039D02*X014489D01*X009439Y002089D02*X014489D01*
X009439Y002139D02*X014489D01*X009439Y002189D02*X014489D01*
X009439Y002239D02*X014489D01*X009439Y002289D02*X014489D01*
X009439Y002339D02*X014489D01*X009439Y002389D02*X014489D01*
X009439Y002439D02*X014489D01*X009439Y002488D02*X014489D01*
X009439Y002538D02*X014489D01*X009439Y002588D02*X014489D01*
X009439Y002638D02*X014489D01*X009439Y002688D02*X014489D01*
X009439Y002738D02*X014489D01*X009439Y002788D02*X014489D01*
X009439Y002838D02*X014489D01*X009439Y002888D02*X014489D01*
X009439Y002937D02*X014489D01*X009439Y002987D02*X014489D01*
X009439Y003037D02*X014489D01*X009439Y003087D02*X014489D01*
X009439Y003137D02*X014489D01*X009439Y003187D02*X014489D01*
X009439Y003237D02*X014489D01*X009439Y003287D02*X014489D01*
X009439Y003337D02*X014489D01*X009439Y003386D02*X014489D01*
X009439Y003436D02*X014489D01*X009439Y003486D02*X014489D01*
X009439Y003536D02*X014489D01*X009439Y003586D02*X014489D01*
X009439Y003636D02*X014489D01*X009439Y003686D02*X014489D01*
X009439Y003736D02*X014489D01*X009439Y003786D02*X014489D01*
X009439Y003835D02*X014489D01*X009439Y003885D02*X014489D01*
X009439Y003935D02*X014489D01*X009439Y003985D02*X014489D01*
X009439Y004035D02*X014489D01*X009439Y004085D02*X014489D01*
X009439Y004135D02*X014489D01*X009439Y004185D02*X014489D01*
X009439Y004235D02*X014489D01*X009439Y004284D02*X014489D01*
X009439Y004334D02*X014489D01*X009439Y004384D02*X014489D01*
X009439Y004434D02*X014489D01*X009439Y004484D02*X014489D01*
X009439Y004534D02*X014489D01*X009439Y004584D02*X014489D01*
X009439Y004634D02*X014489D01*X009439Y004684D02*X014489D01*
X009439Y004734D02*X014489D01*X009439Y004783D02*X014489D01*
X009439Y004833D02*X014489D01*X009439Y004883D02*X014489D01*
X009439Y004933D02*X014489D01*X009439Y004983D02*X014489D01*
X009439Y005033D02*X014489D01*X009439Y005083D02*X014489D01*
X009439Y005133D02*X014489D01*X009439Y005183D02*X014489D01*
X009439Y005232D02*X014489D01*X009439Y005282D02*X014489D01*
X009439Y005332D02*X014489D01*X009439Y005382D02*X014489D01*
X009439Y005432D02*X014489D01*X009439Y005482D02*X014489D01*
X009439Y005532D02*X014489D01*X009439Y005582D02*X014489D01*
X009439Y005632D02*X014489D01*X009439Y005681D02*X014489D01*
X009439Y005731D02*X014489D01*X009439Y005781D02*X014489D01*
X009439Y005831D02*X014489D01*X009439Y005881D02*X014489D01*
X009439Y005931D02*X014489D01*X009439Y005981D02*X014489D01*
X009439Y006031D02*X014489D01*X009439Y006081D02*X014489D01*
X009439Y00613D02*X014489D01*X009439Y00618D02*X014489D01*
X009439Y00623D02*X014489D01*X009439Y00628D02*X014489D01*
X009439Y00633D02*X014489D01*X009439Y00638D02*X014489D01*
X009439Y00643D02*X014489D01*X009439Y00648D02*X014489D01*
X009439Y00653D02*X014489D01*X009439Y006579D02*X014489D01*
X009439Y006629D02*X014489D01*X009439Y006679D02*X014489D01*
X009439Y006729D02*X014489D01*X009439Y006779D02*X014489D01*
X009439Y006829D02*X014489D01*X009439Y006879D02*X014489D01*
X009439Y006929D02*X014489D01*X009439Y006979D02*X014489D01*
X009439Y007028D02*X014489D01*X009439Y007078D02*X014489D01*
X009439Y007128D02*X014489D01*X009439Y007178D02*X014489D01*
X009439Y007228D02*X014489D01*X009439Y007278D02*X014489D01*
X009439Y007328D02*X014489D01*X009439Y007378D02*X014489D01*
X009439Y007428D02*X014489D01*X009439Y007477D02*X014489D01*
X009439Y007527D02*X014489D01*X009439Y007577D02*X014489D01*
X009439Y007627D02*X014489D01*X009439Y007677D02*X014489D01*
X009439Y007727D02*X014489D01*X009439Y007777D02*X014489D01*
X009439Y007827D02*X014489D01*X009439Y007877D02*X014489D01*
X009439Y007926D02*X014489D01*X009439Y007976D02*X014489D01*
X009439Y008026D02*X014489D01*X009439Y008076D02*X014489D01*
X009439Y008126D02*X014489D01*X009439Y008176D02*X014489D01*
X009439Y008226D02*X014489D01*X009439Y008276D02*X014489D01*
X009439Y008326D02*X014489D01*X009439Y008376D02*X014489D01*
X009439Y008425D02*X014489D01*X009439Y008475D02*X014489D01*
X009439Y008525D02*X014489D01*X009439Y008575D02*X014489D01*
X009439Y008625D02*X014489D01*X009439Y008675D02*X014489D01*
X009439Y008725D02*X014489D01*X009439Y008775D02*X014489D01*
X009439Y008825D02*X014489D01*X009439Y008874D02*X014489D01*
X009439Y008924D02*X014489D01*X009439Y008974D02*X014489D01*
X009439Y009024D02*X014489D01*X009439Y009074D02*X014489D01*
X009439Y009124D02*X014489D01*X009439Y009174D02*X014489D01*
X009439Y009224D02*X014489D01*X009439Y009274D02*X014489D01*
X009439Y009323D02*X014489D01*X009439Y009373D02*X014489D01*
X009439Y009423D02*X014489D01*X009439Y009473D02*X014489D01*
X009439Y009523D02*X014489D01*X009439Y009573D02*X014489D01*
X009439Y009623D02*X014489D01*X009439Y009673D02*X014489D01*
X009439Y009723D02*X014489D01*X009439Y009772D02*X014489D01*
X009439Y009822D02*X014489D01*X009439Y009872D02*X014489D01*
X009439Y009922D02*X014489D01*X009439Y009972D02*X014489D01*
X009439Y010022D02*X014489D01*X009439Y010072D02*X014489D01*
X009439Y010122D02*X014489D01*X009439Y010172D02*X014489D01*
X009439Y010221D02*X014489D01*X009439Y010271D02*X014489D01*
X009439Y010321D02*X014489D01*X009439Y010371D02*X014489D01*
X009439Y010421D02*X014489D01*X009439Y010471D02*X014489D01*
X009439Y010521D02*X014489D01*X009439Y010571D02*X014489D01*
X009439Y010621D02*X014489D01*X009439Y01067D02*X014489D01*
X009439Y01072D02*X014489D01*X009439Y01077D02*X014489D01*
X009439Y01082D02*X014489D01*X009439Y01087D02*X014489D01*
X009439Y01092D02*X014489D01*X009439Y01097D02*X014489D01*
X009439Y01102D02*X014489D01*X009439Y01107D02*X014489D01*
X009439Y011119D02*X014489D01*X009439Y011169D02*X014489D01*
X009439Y011219D02*X014489D01*X009439Y011269D02*X014489D01*
X009439Y011319D02*X014489D01*X009439Y011369D02*X014489D01*
X009439Y011419D02*X014489D01*X009439Y011469D02*X014489D01*
X009439Y011519D02*X014489D01*X009439Y011568D02*X014489D01*
X009439Y011618D02*X014489D01*X009439Y011668D02*X014489D01*
X009439Y011718D02*X014489D01*X009439Y011768D02*X014489D01*
X009439Y011818D02*X014489D01*X009439Y011868D02*X014489D01*
X009439Y011918D02*X014489D01*X009439Y011968D02*X014489D01*
X009439Y012018D02*X014489D01*X009439Y012067D02*X014489D01*
X009439Y012117D02*X014489D01*X009439Y012167D02*X014489D01*
X009439Y012217D02*X014489D01*X009439Y012267D02*X014489D01*
X009439Y012317D02*X014489D01*X009439Y012367D02*X014489D01*
X009439Y012417D02*X014489D01*X009439Y012467D02*X014489D01*
X009439Y012516D02*X014489D01*X009439Y012566D02*X014489D01*Y012616D02*
X009439D01*Y001241D01*X014489D01*Y012616D01*X023192Y017103D02*
X000692D01*X000716Y020866D01*X022939D01*X023214D01*X023192Y017103D01*
M02*