%FSTAX24Y24*%
%MOIN*%
%IN MASK2.gbs *%
%ADD10C,0.0100*%
%ADD11C,0.0800*%
%ADD12R,0.0800X0.0800*%
D11*X011466Y016241D03*X015466D03*X007466D03*X021466D03*X003466D03*
X013466D03*D12*X010466Y002491D03*D11*X013466Y008491D03*Y010491D03*
Y007491D03*Y006491D03*Y005491D03*Y004491D03*Y003491D03*Y002491D03*
X010466Y010491D03*Y003491D03*Y004491D03*Y005491D03*Y011491D03*
X013466D03*X010466Y006491D03*Y007491D03*Y008491D03*Y009491D03*
X013466D03*X005466Y016241D03*X002466Y014491D03*X004466D03*X006466D03*
X008466D03*X010466D03*X020466D03*X012466D03*X019466Y016241D03*
X016466Y014491D03*X018466D03*X014466D03*X001466Y016241D03*X009466D03*
X022466Y014491D03*X017466Y016241D03*D10*X000689Y017241D02*
G01X023216D01*X000689Y017291D02*X023216D01*X000689Y017341D02*
X023216D01*X000689Y01739D02*X023216D01*X000689Y01744D02*X023216D01*
X000689Y017489D02*X023216D01*X000689Y017539D02*X023216D01*
X000689Y017589D02*X023216D01*X000689Y017638D02*X023216D01*
X000689Y017688D02*X023216D01*X000689Y017738D02*X023216D01*
X000689Y017787D02*X023216D01*X000689Y017837D02*X023216D01*
X000689Y017887D02*X023216D01*X000689Y017936D02*X023216D01*
X000689Y017986D02*X023216D01*X000689Y018036D02*X023216D01*
X000689Y018085D02*X023216D01*X000689Y018135D02*X023216D01*
X000689Y018185D02*X023216D01*X000689Y018234D02*X023216D01*
X000689Y018284D02*X023216D01*X000689Y018334D02*X023216D01*
X000689Y018383D02*X023216D01*X000689Y018433D02*X023216D01*
X000689Y018483D02*X023216D01*X000689Y018532D02*X023216D01*
X000689Y018582D02*X023216D01*X000689Y018632D02*X023216D01*
X000689Y018681D02*X023216D01*X000689Y018731D02*X023216D01*
X000689Y018781D02*X023216D01*X000689Y01883D02*X023216D01*
X000689Y01888D02*X023216D01*X000689Y01893D02*X023216D01*
X000689Y018979D02*X023216D01*X000689Y019029D02*X023216D01*
X000689Y019079D02*X023216D01*X000689Y019128D02*X023216D01*
X000689Y019178D02*X023216D01*X000689Y019227D02*X023216D01*
X000689Y019277D02*X023216D01*X000689Y019327D02*X023216D01*
X000689Y019376D02*X023216D01*X000689Y019426D02*X023216D01*
X000689Y019476D02*X023216D01*X000689Y019525D02*X023216D01*
X000689Y019575D02*X023216D01*X000689Y019625D02*X023216D01*
X000689Y019674D02*X023216D01*X000689Y019724D02*X023216D01*
X000689Y019774D02*X023216D01*X000689Y019823D02*X023216D01*
X000689Y019873D02*X023216D01*X000689Y019923D02*X023216D01*
X000689Y019972D02*X023216D01*X000689Y020022D02*X023216D01*
X000689Y020072D02*X023216D01*X000689Y020121D02*X023216D01*
X000689Y020171D02*X023216D01*X000689Y020221D02*X023216D01*
X000689Y02027D02*X023216D01*X000689Y02032D02*X023216D01*
X000689Y02037D02*X023216D01*X000689Y020419D02*X023216D01*
X000689Y020469D02*X023216D01*X000689Y020519D02*X023216D01*
X000689Y020568D02*X023216D01*X000689Y020618D02*X023216D01*
X000689Y020668D02*X023216D01*X000689Y020717D02*X023216D01*
X000689Y020767D02*X023216D01*X000689Y020817D02*X023216D01*
X012466Y017241D02*X023216D01*Y020866D01*X000689D01*Y017241D01*
X012466D01*
M02*