%FSTAX24Y24*%
%MOIN*%
%IN SILK1.gto *%
%ADD10C,0.0057*%
%ADD11C,0.0086*%
%ADD12C,0.0100*%
D10*X018866Y009991D02*G01Y010334D01*X019037D01*X019094Y010277D01*
Y01022D01*X019037Y010163D01*X018866D01*X019266Y009991D02*Y010334D01*
X019551Y009991D02*Y010334D01*X01978Y009991D01*Y010334D01*
X020237Y009991D02*Y010334D01*X020466Y009991D01*Y010334D01*X02058D02*
Y010048D01*X020637Y009991D01*X020751D01*X020808Y010048D01*Y010334D01*
X020923Y009991D02*Y010334D01*X021037Y010163D01*X021151Y010334D01*
Y009991D01*X021266D02*Y010334D01*X021437D01*X021494Y010277D01*
Y01022D01*X021437Y010163D01*X021494Y010105D01*Y010048D01*
X021437Y009991D01*X021266D01*X021437Y010163D02*X021266D01*
X021837Y010334D02*X021608D01*Y010163D01*Y009991D01*X021837D01*
X021608Y010163D02*X02178D01*X021951Y009991D02*Y010334D01*X022123D01*
X02218Y010277D01*Y01022D01*X022123Y010163D01*X02218Y009991D01*
X022123Y010163D02*X021951D01*X022523Y010277D02*X022466Y010334D01*
X022351D01*X022294Y010277D01*Y01022D01*X022351Y010163D01*X022466D01*
X022523Y010105D01*Y010048D01*X022466Y009991D01*X022351D01*
X022294Y010048D01*X019368Y015205D02*X019425Y015148D01*X019539D01*
X019596Y015205D01*Y015434D01*X019539Y015491D01*X019425D01*
X019368Y015434D01*Y015348D01*X019425Y015291D01*X019539D01*
X019596Y015348D01*X016227Y013867D02*X016284Y013924D01*Y013581D01*
X016341D01*X016284D02*X016227D01*X016513Y013924D02*X016741D01*
X01657Y013581D01*X000766Y001282D02*Y001625D01*X000938D01*
X000995Y001568D01*Y001511D01*X000938Y001454D01*X000766D01*
X001109Y001282D02*X001223Y001625D01*X001295Y001411D01*
X001338Y001282D01*X001295Y001411D02*X001152D01*X00168Y001568D02*
X001623Y001625D01*X001452D01*Y001282D01*X001623D01*X00168Y00134D01*
Y001568D01*X002138Y001282D02*X002252Y001625D01*X002323Y001411D01*
X002366Y001282D01*X002323Y001411D02*X00218D01*X002595Y001282D02*
Y001625D01*X002709D01*X002595D02*X00248D01*X003166Y001282D02*
Y001625D01*X003338D01*X003395Y001568D01*Y001511D01*X003338Y001454D01*
X003166D01*X003566Y001282D02*Y001625D01*X003738Y001282D02*Y001625D01*
X003966Y001282D01*Y001625D01*X004423Y001282D02*Y001625D01*
X004652Y001282D01*Y001625D01*X004766D02*Y00134D01*X004823Y001282D01*
X004938D01*X004995Y00134D01*Y001625D01*X005109Y001282D02*Y001625D01*
X005223Y001454D01*X005338Y001625D01*Y001282D01*X005452D02*Y001625D01*
X005623D01*X00568Y001568D01*Y001511D01*X005623Y001454D01*
X00568Y001397D01*Y00134D01*X005623Y001282D01*X005452D01*
X005623Y001454D02*X005452D01*X006023Y001625D02*X005795D01*Y001454D01*
Y001282D01*X006023D01*X005795Y001454D02*X005966D01*X006138Y001282D02*
Y001625D01*X006309D01*X006366Y001568D01*Y001511D01*X006309Y001454D01*
X006366Y001282D01*X006309Y001454D02*X006138D01*X006823Y001625D02*
X006938Y001282D01*X007052Y001625D01*X007223Y001282D02*Y001625D01*
X007395Y001282D02*X007509Y001625D01*X00758Y001411D01*X007623Y001282D01*
X00758Y001411D02*X007438D01*X000773Y00912D02*Y009463D01*X000945D01*
X001002Y009405D01*Y009348D01*X000945Y009291D01*X001002Y009234D01*
Y009177D01*X000945Y00912D01*X000773D01*X000945Y009291D02*X000773D01*
X001345Y009463D02*X001116D01*Y009291D01*Y00912D01*X001345D01*
X001116Y009291D02*X001288D01*X001459Y00912D02*Y009463D01*
X001688Y00912D01*Y009463D01*X00203Y009405D02*X001973Y009463D01*
X001802D01*Y00912D01*X001973D01*X00203Y009177D01*Y009405D01*X002716D02*
X002659Y009463D01*X002545D01*X002488Y009405D01*Y009177D01*
X002545Y00912D01*X002659D01*X002716Y009177D01*Y009263D01*X002659D01*
X00283Y00912D02*Y009463D01*X003059Y00912D01*Y009463D01*
X003402Y009405D02*X003345Y009463D01*X003173D01*Y00912D01*X003345D01*
X003402Y009177D01*Y009405D01*X003859Y00912D02*Y009463D01*X00403D01*
X004088Y009405D01*Y009348D01*X00403Y009291D01*X003859D01*
X004259Y00912D02*Y009463D01*X004545Y00912D02*Y009463D01*
X004773Y00912D01*Y009463D01*X005459Y009405D02*X005402Y009463D01*
X005288D01*X00523Y009405D01*Y009177D01*X005288Y00912D01*X005402D01*
X005459Y009177D01*Y009405D01*X005573Y009463D02*Y009177D01*
X00563Y00912D01*X005745D01*X005802Y009177D01*Y009463D01*
X00603Y00912D02*Y009463D01*X006145D01*X00603D02*X005916D01*
X015177Y015643D02*X015234Y0157D01*Y015358D01*X015291D01*X015234D02*
X015177D01*X015691Y015643D02*X015634Y0157D01*X01552D01*
X015463Y015643D01*Y015415D01*X01552Y015358D01*X015634D01*
X015691Y015415D01*Y0155D01*X015634Y015558D01*X01552D01*X015463Y0155D01*
X011251Y015193D02*X011309Y01525D01*Y014907D01*X011366D01*X011309D02*
X011251D01*X011709D02*Y01525D01*X011537Y01505D01*X011766D01*
X022248Y013866D02*X022305Y013923D01*Y013581D01*X022363D01*X022305D02*
X022248D01*X022763Y013866D02*X022705Y013923D01*X022591D01*
X022534Y013866D01*Y013638D01*X022591Y013581D01*X022705D01*
X022763Y013638D01*Y013866D01*X022648Y013809D02*Y013695D01*
X010247Y013379D02*X010305Y013436D01*Y013094D01*X010362D01*X010305D02*
X010247D01*X010533Y013379D02*X01059Y013436D01*X010705D01*
X010762Y013379D01*Y013322D01*X010705Y013265D01*X010762Y013208D01*
Y013151D01*X010705Y013094D01*X01059D01*X010533Y013151D01*
X010705Y013265D02*X010647D01*X015194Y015193D02*X015251Y01525D01*
Y014907D01*X015309D01*X015251D02*X015194D01*X015651Y015079D02*
X015709Y015136D01*Y015193D01*X015651Y01525D01*X015537D01*
X01548Y015193D01*Y015136D01*X015537Y015079D01*X015651D01*
X015709Y015022D01*Y014965D01*X015651Y014907D01*X015537D01*
X01548Y014965D01*Y015022D01*X015537Y015079D01*X010247Y013867D02*
X010305Y013924D01*Y013581D01*X010362D01*X010305D02*X010247D01*
X01059Y013867D02*X010647Y013924D01*Y013581D01*X010705D01*X010647D02*
X01059D01*X011501Y003159D02*X011616Y002816D01*X01173Y003159D01*
X012073Y003102D02*X012016Y003159D01*X011901D01*X011844Y003102D01*
Y002873D01*X011901Y002816D01*X012016D01*X012073Y002873D01*
X012416Y003102D02*X012358Y003159D01*X012244D01*X012187Y003102D01*
Y002873D01*X012244Y002816D01*X012358D01*X012416Y002873D01*
X022248Y013379D02*X022305Y013436D01*Y013093D01*X022363D01*X022305D02*
X022248D01*X022534Y013379D02*X022591Y013436D01*X022705D01*
X022763Y013379D01*Y013321D01*X022705Y013264D01*X022534Y01315D01*
Y013093D01*X022763D01*X000771Y001058D02*Y000772D01*X000828Y000715D01*
X000943D01*X001Y000772D01*Y001058D01*X001343Y001001D02*
X001285Y001058D01*X001171D01*X001114Y001001D01*Y000943D01*
X001171Y000886D01*X001285D01*X001343Y000829D01*Y000772D01*
X001285Y000715D01*X001171D01*X001114Y000772D01*X001685Y001058D02*
X001457D01*Y000886D01*Y000715D01*X001685D01*X001457Y000886D02*
X001628D01*X002371Y001001D02*X002314Y001058D01*X0022D01*
X002143Y001001D01*Y000772D01*X0022Y000715D01*X002314D01*
X002371Y000772D01*X002714Y001001D02*X002657Y001058D01*X002543D01*
X002485Y001001D01*Y000772D01*X002543Y000715D01*X002657D01*
X002714Y000772D01*Y001001D01*X002828Y001058D02*Y000772D01*
X002885Y000715D01*X003D01*X003057Y000772D01*Y001058D01*
X003171Y000715D02*Y001058D01*X0034Y000715D01*Y001058D01*
X003628Y000715D02*Y001058D01*X003743D01*X003628D02*X003514D01*
X004085D02*X003857D01*Y000886D01*Y000715D01*X004085D01*
X003857Y000886D02*X004028D01*X0042Y000715D02*Y001058D01*X004371D01*
X004428Y001001D01*Y000943D01*X004371Y000886D01*X004428Y000715D01*
X004371Y000886D02*X0042D01*X004771Y001001D02*X004714Y001058D01*
X0046D01*X004543Y001001D01*Y000943D01*X0046Y000886D01*X004714D01*
X004771Y000829D01*Y000772D01*X004714Y000715D01*X0046D01*
X004543Y000772D01*X004943Y000715D02*Y001058D01*X005228Y000715D02*
Y001058D01*X005457Y000715D01*Y001058D01*X005571D02*Y000829D01*
Y000715D01*Y000829D02*X005628Y000886D01*X0058Y000715D01*
X005628Y000886D02*X0058Y001058D01*X006257Y000715D02*Y001058D01*
X006428D01*X006485Y001001D01*Y000943D01*X006428Y000886D01*
X006485Y000829D01*Y000772D01*X006428Y000715D01*X006257D01*
X006428Y000886D02*X006257D01*X006657Y000715D02*Y001058D01*
X007057Y000715D02*Y001058D01*X007171D01*X007057D02*X006943D01*
X007628Y000886D02*X007857D01*X008543Y001001D02*X008485Y001058D01*
X008314D01*Y000715D01*X008485D01*X008543Y000772D01*Y001001D01*
X008885D02*X008828Y001058D01*X008714D01*X008657Y001001D01*Y000772D01*
X008714Y000715D01*X008828D01*X008885Y000772D01*Y001001D01*
X009343Y000715D02*Y001058D01*X009571Y000715D01*Y001058D01*
X009914Y001001D02*X009857Y001058D01*X009743D01*X009685Y001001D01*
Y000772D01*X009743Y000715D01*X009857D01*X009914Y000772D01*Y001001D01*
X010143Y000715D02*Y001058D01*X010257D01*X010143D02*X010028D01*
X010943Y001001D02*X010885Y001058D01*X010714D01*Y000715D01*X010885D01*
X010943Y000772D01*Y001001D01*X011057Y000715D02*Y001058D01*X011228D01*
X011285Y001001D01*Y000943D01*X011228Y000886D01*X011285Y000715D01*
X011228Y000886D02*X011057D01*X011457Y000715D02*Y001058D01*X011743D02*
Y000715D01*X011971D01*X012085Y001058D02*Y000715D01*X012314D01*
X012885D02*Y001058D01*X013D01*X012885D02*X012771D01*X013114D02*
Y000886D01*Y000715D01*Y000886D02*X013343D01*Y001058D01*Y000886D02*
Y000715D01*X013457D02*Y001058D01*X013628D01*X013685Y001001D01*
Y000943D01*X013628Y000886D01*X013685Y000715D01*X013628Y000886D02*
X013457D01*X014028Y001001D02*X013971Y001058D01*X013857D01*
X0138Y001001D01*Y000772D01*X013857Y000715D01*X013971D01*
X014028Y000772D01*Y001001D01*X014143Y001058D02*Y000772D01*
X0142Y000715D01*X014314D01*X014371Y000772D01*Y001058D01*
X014714Y001001D02*X014657Y001058D01*X014543D01*X014485Y001001D01*
Y000772D01*X014543Y000715D01*X014657D01*X014714Y000772D01*Y000858D01*
X014657D01*X014828Y001058D02*Y000886D01*Y000715D01*Y000886D02*
X015057D01*Y001058D01*Y000886D02*Y000715D01*X001Y008822D02*
X000943Y008879D01*X000828D01*X000771Y008822D01*Y008765D01*
X000828Y008708D01*X000943D01*X001Y008651D01*Y008593D01*
X000943Y008536D01*X000828D01*X000771Y008593D01*X001343Y008822D02*
X001285Y008879D01*X001171D01*X001114Y008822D01*Y008593D01*
X001171Y008536D01*X001285D01*X001343Y008593D01*Y008822D01*
X001457Y008879D02*Y008536D01*X001685D01*X002028Y008822D02*
X001971Y008879D01*X0018D01*Y008536D01*X001971D01*X002028Y008593D01*
Y008822D01*X002371Y008879D02*X002143D01*Y008708D01*Y008536D01*
X002371D01*X002143Y008708D02*X002314D01*X002485Y008536D02*Y008879D01*
X002657D01*X002714Y008822D01*Y008765D01*X002657Y008708D01*
X002714Y008536D01*X002657Y008708D02*X002485D01*X003285Y008536D02*
Y008879D01*X0034D01*X003285D02*X003171D01*X003743Y008822D02*
X003685Y008879D01*X003571D01*X003514Y008822D01*Y008593D01*
X003571Y008536D01*X003685D01*X003743Y008593D01*Y008822D01*
X0042Y008536D02*Y008879D01*X004371D01*X004428Y008822D01*Y008765D01*
X004371Y008708D01*X004428Y008536D01*X004371Y008708D02*X0042D01*
X004543Y008536D02*X004657Y008879D01*X004728Y008665D01*
X004771Y008536D01*X004728Y008665D02*X004585D01*X004943Y008536D02*
Y008879D01*X005228D02*Y008536D01*X005457D01*X004432Y013774D02*
X004489Y013831D01*X004603D01*X00466Y013774D01*Y013717D01*
X004603Y01366D01*X00466Y013603D01*Y013546D01*X004603Y013488D01*
X004489D01*X004432Y013546D01*X004603Y01366D02*X004546D01*
X001217Y015434D02*X00116Y015491D01*X001045D01*X000988Y015434D01*
Y015205D01*X001045Y015148D01*X00116D01*X001217Y015205D01*Y015291D01*
X00116D01*X001331Y015148D02*Y015491D01*X00156Y015148D01*Y015491D01*
X001903Y015434D02*X001845Y015491D01*X001674D01*Y015148D01*X001845D01*
X001903Y015205D01*Y015434D01*X01801Y013831D02*X018124Y013488D01*
X018238Y013831D01*X018581Y013774D02*X018524Y013831D01*X01841D01*
X018353Y013774D01*Y013546D01*X01841Y013488D01*X018524D01*
X018581Y013546D01*X018924Y013774D02*X018867Y013831D01*X018753D01*
X018696Y013774D01*Y013546D01*X018753Y013488D01*X018867D01*
X018924Y013546D01*X010408Y002027D02*X010466Y002084D01*Y001741D01*
X010523D01*X010466D02*X010408D01*X009539Y015319D02*X009596Y015376D01*
Y015434D01*X009539Y015491D01*X009425D01*X009368Y015434D01*Y015376D01*
X009425Y015319D01*X009539D01*X009596Y015262D01*Y015205D01*
X009539Y015148D01*X009425D01*X009368Y015205D01*Y015262D01*
X009425Y015319D01*X000995Y002176D02*X000937Y002233D01*X000823D01*
X000766Y002176D01*Y001948D01*X000823Y00189D01*X000937D01*
X000995Y001948D01*Y002176D01*X001109Y00189D02*Y002233D01*
X001337Y00189D01*Y002233D01*X001909Y00189D02*Y002233D01*X002023D01*
X001909D02*X001795D01*X002137D02*Y002062D01*Y00189D01*Y002062D02*
X002366D01*Y002233D01*Y002062D02*Y00189D01*X002537D02*Y002233D01*
X002937Y002176D02*X00288Y002233D01*X002766D01*X002709Y002176D01*
Y002119D01*X002766Y002062D01*X00288D01*X002937Y002005D01*Y001948D01*
X00288Y00189D01*X002766D01*X002709Y001948D01*X003623Y002176D02*
X003566Y002233D01*X003452D01*X003395Y002176D01*Y002119D01*
X003452Y002062D01*X003566D01*X003623Y002005D01*Y001948D01*
X003566Y00189D01*X003452D01*X003395Y001948D01*X003795Y00189D02*
Y002233D01*X004195Y002176D02*X004137Y002233D01*X003966D01*Y00189D01*
X004137D01*X004195Y001948D01*Y002176D01*X004537Y002233D02*X004309D01*
Y002062D01*Y00189D01*X004537D01*X004309Y002062D02*X00448D01*
X004995Y00189D02*Y002233D01*X005166D01*X005223Y002176D01*Y002119D01*
X005166Y002062D01*X005223Y002005D01*Y001948D01*X005166Y00189D01*
X004995D01*X005166Y002062D02*X004995D01*X005337Y002233D02*
X005452Y002062D01*Y00189D01*Y002062D02*X005566Y002233D01*
X006023Y00189D02*Y002233D01*X006195D01*X006252Y002176D01*Y002119D01*
X006195Y002062D01*X006252Y00189D01*X006195Y002062D02*X006023D01*
X006595Y002233D02*X006366D01*Y002062D01*Y00189D01*X006595D01*
X006366Y002062D02*X006537D01*X006709Y00189D02*Y002233D01*
X006823Y002062D01*X006937Y002233D01*Y00189D01*X00728Y002176D02*
X007223Y002233D01*X007109D01*X007052Y002176D01*Y001948D01*
X007109Y00189D01*X007223D01*X00728Y001948D01*Y002176D01*
X007395Y002233D02*X007509Y00189D01*X007623Y002233D01*X007795Y00189D02*
Y002233D01*X007966Y00189D02*Y002233D01*X008195Y00189D01*Y002233D01*
X008537Y002176D02*X00848Y002233D01*X008366D01*X008309Y002176D01*
Y001948D01*X008366Y00189D01*X00848D01*X008537Y001948D01*Y002033D01*
X00848D01*X012227Y013871D02*X012284Y013928D01*Y013586D01*X012341D01*
X012284D02*X012227D01*X012512Y013871D02*X01257Y013928D01*X012684D01*
X012741Y013871D01*Y013814D01*X012684Y013757D01*X012741Y0137D01*
Y013643D01*X012684Y013586D01*X01257D01*X012512Y013643D01*
X012684Y013757D02*X012627D01*X000768Y002482D02*Y002825D01*
X001168Y002768D02*X001111Y002825D01*X000996D01*X000939Y002768D01*
Y002711D01*X000996Y002654D01*X001111D01*X001168Y002597D01*Y00254D01*
X001111Y002482D01*X000996D01*X000939Y00254D01*X001511Y002768D02*
X001453Y002825D01*X001339D01*X001282Y002768D01*Y00254D01*
X001339Y002482D01*X001453D01*X001511Y00254D01*Y002768D01*
X001625Y002825D02*Y002482D01*X001853D01*X001968D02*X002082Y002825D01*
X002153Y002611D01*X002196Y002482D01*X002153Y002611D02*X002011D01*
X002425Y002482D02*Y002825D01*X002539D01*X002425D02*X002311D01*
X002882D02*X002653D01*Y002654D01*Y002482D01*X002882D01*
X002653Y002654D02*X002825D01*X003568Y002825D02*X003339D01*Y002654D01*
Y002482D01*X003568D01*X003339Y002654D02*X003511D01*X003911Y002768D02*
X003853Y002825D01*X003682D01*Y002482D01*X003853D01*X003911Y00254D01*
Y002768D01*X004253D02*X004196Y002825D01*X004082D01*X004025Y002768D01*
Y00254D01*X004082Y002482D01*X004196D01*X004253Y00254D01*Y002625D01*
X004196D01*X004596Y002825D02*X004368D01*Y002654D01*Y002482D01*
X004596D01*X004368Y002654D02*X004539D01*X005282Y002768D02*
X005225Y002825D01*X005111D01*X005053Y002768D01*Y00254D01*
X005111Y002482D01*X005225D01*X005282Y00254D01*X005625Y002768D02*
X005568Y002825D01*X005453D01*X005396Y002768D01*Y00254D01*
X005453Y002482D01*X005568D01*X005625Y00254D01*Y002768D01*
X005739Y002482D02*Y002825D01*X005968Y002482D01*Y002825D01*
X006082Y002482D02*Y002825D01*X006311Y002482D01*Y002825D01*X006653D02*
X006425D01*Y002654D01*Y002482D01*X006653D01*X006425Y002654D02*
X006596D01*X006996Y002768D02*X006939Y002825D01*X006825D01*
X006768Y002768D01*Y00254D01*X006825Y002482D01*X006939D01*
X006996Y00254D01*X007225Y002482D02*Y002825D01*X007339D01*X007225D02*
X007111D01*X007682Y002768D02*X007625Y002825D01*X007511D01*
X007453Y002768D01*Y00254D01*X007511Y002482D01*X007625D01*
X007682Y00254D01*Y002768D01*X007796Y002482D02*Y002825D01*X007968D01*
X008025Y002768D01*Y002711D01*X007968Y002654D01*X008025Y002482D01*
X007968Y002654D02*X007796D01*X008368Y002768D02*X008311Y002825D01*
X008196D01*X008139Y002768D01*Y002711D01*X008196Y002654D01*X008311D01*
X008368Y002597D01*Y00254D01*X008311Y002482D01*X008196D01*
X008139Y00254D01*X013258Y015643D02*X013315Y0157D01*Y015358D01*
X013372D01*X013315D02*X013258D01*X013715D02*Y0157D01*X013543Y0155D01*
X013772D01*X017215Y01518D02*X017272Y015237D01*X017386D01*
X017444Y01518D01*Y015123D01*X017386Y015066D01*X017215Y014951D01*
Y014894D01*X017444D01*X017786Y01518D02*X017729Y015237D01*X017615D01*
X017558Y01518D01*Y014951D01*X017615Y014894D01*X017729D01*
X017786Y014951D01*Y01518D01*X017672Y015123D02*Y015009D01*
X018805Y009723D02*X018748Y00978D01*X018633D01*X018576Y009723D01*
Y009495D01*X018633Y009438D01*X018748D01*X018805Y009495D01*Y009723D01*
X019148Y00978D02*X018919D01*Y009609D01*Y009438D01*Y009609D02*
X019091D01*X019662Y009723D02*X019719Y00978D01*Y009438D01*X019776D01*
X019719D02*X019662D01*X020119Y009609D02*X020176Y009666D01*Y009723D01*
X020119Y00978D01*X020005D01*X019948Y009723D01*Y009666D01*
X020005Y009609D01*X020119D01*X020176Y009552D01*Y009495D01*
X020119Y009438D01*X020005D01*X019948Y009495D01*Y009552D01*
X020005Y009609D01*X020633Y009438D02*X020862Y00978D01*X021548Y009723D02*
X021491Y00978D01*X021376D01*X021319Y009723D01*Y009495D01*
X021376Y009438D01*X021491D01*X021548Y009495D01*Y009723D01*
X021891Y00978D02*X021662D01*Y009609D01*Y009438D01*Y009609D02*
X021833D01*X022348Y009723D02*X022405Y00978D01*X022519D01*
X022576Y009723D01*Y009666D01*X022519Y009609D01*X022348Y009495D01*
Y009438D01*X022576D01*X022919Y009723D02*X022862Y00978D01*X022748D01*
X022691Y009723D01*Y009495D01*X022748Y009438D01*X022862D01*
X022919Y009495D01*Y009723D01*X022805Y009666D02*Y009552D01*
X021286Y01518D02*X021343Y015237D01*Y014894D01*X0214D01*X021343D02*
X021286D01*X021628Y01518D02*X021686Y015237D01*Y014894D01*X021743D01*
X021686D02*X021628D01*X012227Y013384D02*X012284Y013441D01*Y013098D01*
X012341D01*X012284D02*X012227D01*X012741Y013441D02*X012512D01*
Y013269D01*X01257Y013326D01*X012684D01*X012741Y013269D01*Y013155D01*
X012684Y013098D01*X01257D01*X012512Y013155D01*X001012Y00545D02*
X000955Y005508D01*X000841D01*X000784Y00545D01*Y005393D01*
X000841Y005336D01*X000955D01*X001012Y005279D01*Y005222D01*
X000955Y005165D01*X000841D01*X000784Y005222D01*X001355Y00545D02*
X001298Y005508D01*X001184D01*X001126Y00545D01*Y005222D01*
X001184Y005165D01*X001298D01*X001355Y005222D01*Y00545D01*
X001469Y005508D02*Y005165D01*X001698D01*X002041Y00545D02*
X001984Y005508D01*X001812D01*Y005165D01*X001984D01*X002041Y005222D01*
Y00545D01*X002384Y005508D02*X002155D01*Y005336D01*Y005165D01*
X002384D01*X002155Y005336D02*X002326D01*X002498Y005165D02*Y005508D01*
X002669D01*X002726Y00545D01*Y005393D01*X002669Y005336D01*
X002726Y005165D01*X002669Y005336D02*X002498D01*X003184Y005165D02*
Y005508D01*X003355D01*X003412Y00545D01*Y005393D01*X003355Y005336D01*
X003412Y005165D01*X003355Y005336D02*X003184D01*X003755Y005508D02*
X003526D01*Y005336D01*Y005165D01*X003755D01*X003526Y005336D02*
X003698D01*X003869Y005165D02*Y005508D01*X003984Y005336D01*
X004098Y005508D01*Y005165D01*X004212D02*X004326Y005508D01*
X004398Y005293D01*X004441Y005165D01*X004398Y005293D02*X004255D01*
X004612Y005165D02*Y005508D01*X004898Y005165D02*Y005508D01*
X005126Y005165D01*Y005508D01*X005298Y005165D02*Y005508D01*
X005584Y005165D02*Y005508D01*X005812Y005165D01*Y005508D01*
X006155Y00545D02*X006098Y005508D01*X005984D01*X005926Y00545D01*
Y005222D01*X005984Y005165D01*X006098D01*X006155Y005222D01*Y005308D01*
X006098D01*X014227Y013867D02*X014284Y013924D01*Y013581D01*X014341D01*
X014284D02*X014227D01*X014741Y013924D02*X014513D01*Y013752D01*
X01457Y01381D01*X014684D01*X014741Y013752D01*Y013638D01*
X014684Y013581D01*X01457D01*X014513Y013638D01*X011234Y015643D02*
X011291Y0157D01*Y015358D01*X011349D01*X011291D02*X011234D01*
X01152Y015643D02*X011577Y0157D01*X011691D01*X011749Y015643D01*
Y015586D01*X011691Y015529D01*X01152Y015415D01*Y015358D01*X011749D01*
X020249Y013379D02*X020306Y013436D01*Y013094D01*X020363D01*X020306D02*
X020249D01*X020763Y013379D02*X020706Y013436D01*X020592D01*
X020534Y013379D01*Y013151D01*X020592Y013094D01*X020706D01*
X020763Y013151D01*Y013379D01*X020649Y013322D02*Y013208D01*
X000993Y006836D02*X000936Y006893D01*X000821D01*X000764Y006836D01*
Y006779D01*X000821Y006722D01*X000936D01*X000993Y006665D01*Y006608D01*
X000936Y006551D01*X000821D01*X000764Y006608D01*X001336Y006836D02*
X001279Y006893D01*X001164D01*X001107Y006836D01*Y006608D01*
X001164Y006551D01*X001279D01*X001336Y006608D01*Y006836D01*
X00145Y006893D02*Y006551D01*X001679D01*X002021Y006836D02*
X001964Y006893D01*X001793D01*Y006551D01*X001964D01*X002021Y006608D01*
Y006836D01*X002364Y006893D02*X002136D01*Y006722D01*Y006551D01*
X002364D01*X002136Y006722D02*X002307D01*X002479Y006551D02*Y006893D01*
X00265D01*X002707Y006836D01*Y006779D01*X00265Y006722D01*
X002707Y006551D01*X00265Y006722D02*X002479D01*X003279Y006551D02*
Y006893D01*X003393D01*X003279D02*X003164D01*X003736Y006836D02*
X003679Y006893D01*X003564D01*X003507Y006836D01*Y006608D01*
X003564Y006551D01*X003679D01*X003736Y006608D01*Y006836D01*
X004193Y006551D02*Y006893D01*X004364D01*X004421Y006836D01*Y006779D01*
X004364Y006722D01*X004421Y006551D01*X004364Y006722D02*X004193D01*
X004536Y006551D02*X00465Y006893D01*X004721Y006679D01*X004764Y006551D01*
X004721Y006679D02*X004579D01*X004936Y006551D02*Y006893D01*X005221D02*
Y006551D01*X00545D01*X000989Y010836D02*X000932Y010893D01*X000818D01*
X00076Y010836D01*Y010607D01*X000818Y01055D01*X000932D01*
X000989Y010607D01*Y010836D01*X001218Y01055D02*Y010893D01*X001332D01*
X001218D02*X001103D01*X001446D02*Y010722D01*Y01055D01*Y010722D02*
X001675D01*Y010893D01*Y010722D02*Y01055D01*X002018Y010893D02*
X001789D01*Y010722D01*Y01055D01*X002018D01*X001789Y010722D02*X00196D01*
X002132Y01055D02*Y010893D01*X002303D01*X00236Y010836D01*Y010779D01*
X002303Y010722D01*X00236Y01055D01*X002303Y010722D02*X002132D01*
X003046Y010836D02*X002989Y010893D01*X002875D01*X002818Y010836D01*
Y010779D01*X002875Y010722D01*X002989D01*X003046Y010664D01*Y010607D01*
X002989Y01055D01*X002875D01*X002818Y010607D01*X003218Y01055D02*
Y010893D01*X003732Y010836D02*X003675Y010893D01*X003503D01*Y01055D01*
X003675D01*X003732Y010607D01*Y010836D01*X004075Y010893D02*X003846D01*
Y010722D01*Y01055D01*X004075D01*X003846Y010722D02*X004018D01*
X013263Y015193D02*X01332Y01525D01*Y014907D01*X013377D01*X01332D02*
X013263D01*X013777Y015193D02*X01372Y01525D01*X013605D01*
X013548Y015193D01*Y014965D01*X013605Y014907D01*X01372D01*
X013777Y014965D01*Y01505D01*X01372Y015107D01*X013605D01*
X013548Y01505D01*X014227Y013379D02*X014284Y013436D01*Y013093D01*
X014341D01*X014284D02*X014227D01*X014513Y013436D02*X014741D01*
X01457Y013093D01*X020192Y013581D02*Y013924D01*X02042Y013581D01*
Y013924D01*X020763Y013867D02*X020706Y013924D01*X020592D01*
X020534Y013867D01*Y013638D01*X020592Y013581D01*X020706D01*
X020763Y013638D01*X021219Y015344D02*Y015687D01*X021447Y015344D01*
Y015687D01*X02179Y01563D02*X021733Y015687D01*X021619D01*
X021562Y01563D01*Y015401D01*X021619Y015344D01*X021733D01*
X02179Y015401D01*X006623Y013831D02*X006394D01*Y01366D01*
X006451Y013717D01*X006566D01*X006623Y01366D01*Y013546D01*
X006566Y013488D01*X006451D01*X006394Y013546D01*D11*X018935Y003345D02*
X019449D01*Y003088D01*X019363Y003003D01*X019278D01*X019192Y003088D01*
X019106Y003003D01*X01902D01*X018935Y003088D01*Y003345D01*
X019192Y003088D02*Y003345D01*X019363Y002488D02*X019449Y002574D01*
Y002745D01*X019363Y002831D01*X01902D01*X018935Y002745D01*Y002574D01*
X01902Y002488D01*X019363D01*X018935Y002145D02*X019449D01*Y001974D01*
Y002145D02*Y002317D01*X018935Y001631D02*X019449D01*Y00146D01*
Y001631D02*Y001803D01*X019363Y000945D02*X019449Y001031D01*Y001203D01*
X019363Y001288D01*X01902D01*X018935Y001203D01*Y001031D01*
X01902Y000945D01*X019363D01*X018935Y000774D02*X019449D01*
X019192Y000603D01*X019449Y000431D01*X018935D01*D10*X016227Y013379D02*
X016284Y013436D01*Y013093D01*X016341D01*X016284D02*X016227D01*
X016513Y01315D02*X01657Y013093D01*X016684D01*X016741Y01315D01*
Y013379D01*X016684Y013436D01*X01657D01*X016513Y013379D01*Y013293D01*
X01657Y013236D01*X016684D01*X016741Y013293D01*X003345Y015434D02*
X003402Y015491D01*X003517D01*X003574Y015434D01*Y015376D01*
X003517Y015319D01*X003345Y015205D01*Y015148D01*X003574D01*
X0008Y004552D02*Y004894D01*X000972D01*X001029Y004837D01*Y00478D01*
X000972Y004723D01*X0008D01*X0012Y004552D02*Y004894D01*
X001486Y004552D02*Y004894D01*X001715Y004552D01*Y004894D01*
X002057Y004837D02*X002Y004894D01*X001886D01*X001829Y004837D01*
Y00478D01*X001886Y004723D01*X002D01*X002057Y004666D01*Y004609D01*
X002Y004552D01*X001886D01*X001829Y004609D01*X002515Y004552D02*
X002629Y004894D01*X0027Y00468D01*X002743Y004552D01*X0027Y00468D02*
X002557D01*X002857Y004552D02*Y004894D01*X003086Y004552D01*Y004894D01*
X003429Y004837D02*X003372Y004894D01*X0032D01*Y004552D01*X003372D01*
X003429Y004609D01*Y004837D01*X004Y004552D02*Y004894D01*X004115D01*
X004D02*X003886D01*X004229Y004552D02*Y004894D01*X0044D01*
X004457Y004837D01*Y00478D01*X0044Y004723D01*X004457Y004552D01*
X0044Y004723D02*X004229D01*X004629Y004552D02*Y004894D01*
X004915Y004552D02*Y004894D01*X005029Y004723D01*X005143Y004894D01*
Y004552D01*X007601Y015434D02*X007544Y015491D01*X00743D01*
X007373Y015434D01*Y015205D01*X00743Y015148D01*X007544D01*
X007601Y015205D01*Y015291D01*X007544Y015348D01*X00743D01*
X007373Y015291D01*X008372Y013831D02*X0086D01*X008429Y013488D01*
X005524Y015148D02*Y015491D01*X005353Y015291D01*X005582D01*
X01724Y01563D02*X017297Y015687D01*Y015344D01*X017355D01*X017297D02*
X01724D01*X017697Y015516D02*X017755Y015573D01*Y01563D01*
X017697Y015687D01*X017583D01*X017526Y01563D01*Y015573D01*
X017583Y015516D01*X017697D01*X017755Y015459D01*Y015401D01*
X017697Y015344D01*X017583D01*X017526Y015401D01*Y015459D01*
X017583Y015516D01*X000787Y011148D02*Y011491D01*X000959Y011148D02*
Y011491D01*X001187Y011148D01*Y011491D01*X00153Y011434D02*
X001473Y011491D01*X001359D01*X001302Y011434D01*Y011377D01*
X001359Y011319D01*X001473D01*X00153Y011262D01*Y011205D01*
X001473Y011148D01*X001359D01*X001302Y011205D01*X001873Y011491D02*
X001644D01*Y011319D01*Y011148D01*X001873D01*X001644Y011319D02*
X001816D01*X001987Y011148D02*Y011491D01*X002159D01*X002216Y011434D01*
Y011377D01*X002159Y011319D01*X002216Y011148D01*X002159Y011319D02*
X001987D01*X002444Y011148D02*Y011491D01*X002559D01*X002444D02*
X00233D01*X003244Y011434D02*X003187Y011491D01*X003073D01*
X003016Y011434D01*Y011205D01*X003073Y011148D01*X003187D01*
X003244Y011205D01*X003359Y011491D02*Y011319D01*Y011148D01*Y011319D02*
X003587D01*Y011491D01*Y011319D02*Y011148D01*X003759D02*Y011491D01*
X004044Y011148D02*Y011491D01*X004216D01*X004273Y011434D01*Y011377D01*
X004216Y011319D01*X004044D01*X004959Y011491D02*X00473D01*Y011319D01*
Y011148D01*Y011319D02*X004902D01*X005073Y011148D02*Y011491D01*
X005244D01*X005302Y011434D01*Y011377D01*X005244Y011319D01*
X005302Y011148D01*X005244Y011319D02*X005073D01*X005644Y011434D02*
X005587Y011491D01*X005473D01*X005416Y011434D01*Y011205D01*
X005473Y011148D01*X005587D01*X005644Y011205D01*Y011434D01*
X005759Y011148D02*Y011491D01*X005873Y011319D01*X005987Y011491D01*
Y011148D01*X00078Y003077D02*Y003419D01*X00118Y003362D02*
X001123Y003419D01*X000951D01*Y003077D01*X001123D01*X00118Y003134D01*
Y003362D01*X001866D02*X001809Y003419D01*X001694D01*X001637Y003362D01*
Y003134D01*X001694Y003077D01*X001809D01*X001866Y003134D01*Y003362D01*
X00198Y003419D02*Y003134D01*X002037Y003077D01*X002151D01*
X002209Y003134D01*Y003419D01*X002437Y003077D02*Y003419D01*X002551D01*
X002437D02*X002323D01*X002666Y003077D02*Y003419D01*X002837D01*
X002894Y003362D01*Y003305D01*X002837Y003248D01*X002666D01*
X003009Y003419D02*Y003134D01*X003066Y003077D01*X00318D01*
X003237Y003134D01*Y003419D01*X003466Y003077D02*Y003419D01*X00358D01*
X003466D02*X003351D01*X004037Y003077D02*Y003419D01*X004209D01*
X004266Y003362D01*Y003305D01*X004209Y003248D01*X004037D01*
X004437Y003077D02*Y003419D01*X004609Y003077D02*Y003419D01*
X004837Y003077D01*Y003419D01*X00518Y003362D02*X005123Y003419D01*
X005009D01*X004951Y003362D01*Y003305D01*X005009Y003248D01*X005123D01*
X00518Y003191D01*Y003134D01*X005123Y003077D01*X005009D01*
X004951Y003134D01*X005866Y003362D02*X005809Y003419D01*X005694D01*
X005637Y003362D01*Y003134D01*X005694Y003077D01*X005809D01*
X005866Y003134D01*Y003362D01*X006209Y003419D02*X00598D01*Y003248D01*
Y003077D01*Y003248D02*X006151D01*X006894Y003362D02*X006837Y003419D01*
X006723D01*X006666Y003362D01*Y003134D01*X006723Y003077D01*X006837D01*
X006894Y003134D01*X007009Y003419D02*Y003248D01*Y003077D01*Y003248D02*
X007237D01*Y003419D01*Y003248D02*Y003077D01*X007409D02*Y003419D01*
X00758Y003077D02*Y003419D01*X007751D01*X007809Y003362D01*Y003305D01*
X007751Y003248D01*X00758D01*X002474Y013774D02*X002531Y013831D01*
Y013488D01*X002589D01*X002531D02*X002474D01*X000781Y007134D02*
Y007477D01*X000952D01*X00101Y00742D01*Y007363D01*X000952Y007306D01*
X00101Y007249D01*Y007192D01*X000952Y007134D01*X000781D01*
X000952Y007306D02*X000781D01*X001352Y007477D02*X001124D01*Y007306D01*
Y007134D01*X001352D01*X001124Y007306D02*X001295D01*X001467Y007134D02*
Y007477D01*X001695Y007134D01*Y007477D01*X002038Y00742D02*
X001981Y007477D01*X00181D01*Y007134D01*X001981D01*X002038Y007192D01*
Y00742D01*X002495Y007477D02*X00261Y007134D01*X002724Y007477D01*
X003067Y00742D02*X00301Y007477D01*X002895D01*X002838Y00742D01*
Y007192D01*X002895Y007134D01*X00301D01*X003067Y007192D01*
X00341Y00742D02*X003352Y007477D01*X003238D01*X003181Y00742D01*
Y007192D01*X003238Y007134D01*X003352D01*X00341Y007192D01*
X003867Y007134D02*Y007477D01*X004038D01*X004095Y00742D01*Y007363D01*
X004038Y007306D01*X003867D01*X004267Y007134D02*Y007477D01*
X004552Y007134D02*Y007477D01*X004781Y007134D01*Y007477D01*
X005295Y007134D02*Y007477D01*X005581Y007134D02*Y007477D01*
X00581Y007134D01*Y007477D01*D12*X014192Y002603D02*X015067D01*
Y002228D01*X015317D02*X014817D01*X014942Y002103D02*X015192D01*
X015067Y001978D02*X015042D01*X011616Y002516D02*Y002716D01*
X011516Y002616D02*X011716D01*
M02*