%FSTAX24Y24*%
%MOIN*%
%IN SILK2.gbo *%
%ADD10C,0.0050*%
%ADD11C,0.0057*%
%ADD12C,0.0100*%
D12*X014166Y000125D02*G01X019666D01*X014166Y000175D02*X019666D01*
X014166Y000224D02*X019666D01*X014166Y000273D02*X019666D01*
X014166Y000323D02*X019666D01*X014166Y000372D02*X019666D01*
X014166Y000422D02*X019666D01*X014166Y000471D02*X019666D01*
X014166Y000521D02*X019666D01*X014166Y00057D02*X019666D01*
X014166Y00062D02*X019666D01*X014166Y000669D02*X019666D01*
X014166Y000719D02*X019666D01*X014166Y000768D02*X019666D01*
X014166Y000818D02*X019666D01*X014166Y000867D02*X019666D01*
X014166Y000917D02*X019666D01*X014166Y000966D02*X019666D01*
X014166Y001016D02*X019666D01*X014166Y001065D02*X019666D01*
X014166Y001115D02*X019666D01*X014166Y001164D02*X019666D01*
X014166Y001214D02*X019666D01*X014166Y001263D02*X019666D01*
X014166Y001313D02*X019666D01*X014166Y001362D02*X019666D01*
X014166Y001412D02*X019666D01*X014166Y001461D02*X019666D01*
X014166Y00151D02*X019666D01*X014166Y00156D02*X019666D01*
X014166Y001609D02*X019666D01*X014166Y001659D02*X019666D01*
X014166Y001708D02*X019666D01*X014166Y001758D02*X019666D01*
X014166Y001807D02*X019666D01*X014166Y001857D02*X019666D01*
X014166Y001906D02*X019666D01*X014166Y001956D02*X019666D01*
X014166Y002005D02*X019666D01*X014166Y002055D02*X019666D01*
X014166Y002104D02*X019666D01*X014166Y002154D02*X019666D01*
X014166Y002203D02*X019666D01*X014166Y002253D02*X019666D01*
X014166Y002302D02*X019666D01*X014166Y002352D02*X019666D01*
X014166Y002401D02*X019666D01*X014166Y002451D02*X019666D01*
X014166Y0025D02*X019666D01*X014166Y00255D02*X019666D01*
X014166Y002599D02*X019666D01*X014166Y002648D02*X019666D01*
X014166Y002698D02*X019666D01*X014166Y002747D02*X019666D01*
X014166Y002797D02*X019666D01*X014166Y002846D02*X019666D01*
X014166Y002896D02*X019666D01*X014166Y002945D02*X019666D01*
X014166Y002995D02*X019666D01*X014166Y003044D02*X019666D01*
X014166Y003094D02*X019666D01*X014166Y003143D02*X019666D01*
X014166Y003193D02*X019666D01*X014166Y003242D02*X019666D01*
X014166Y003292D02*X019666D01*X014166Y003341D02*X019666D01*
X014166Y003391D02*X019666D01*X014166Y00344D02*X019666D01*
X014166Y00349D02*X019666D01*X014166Y003539D02*X019666D01*
X014166Y003589D02*X019666D01*X014166Y003638D02*X019666D01*
X014166Y003688D02*X019666D01*X014166Y003737D02*X019666D01*
X014166Y003787D02*X019666D01*X014166Y003836D02*X019666D01*
X014166Y003885D02*X019666D01*X014166Y003935D02*X019666D01*
X014166Y003984D02*X019666D01*X014166Y004034D02*X019666D01*
X014166Y004083D02*X019666D01*X014166Y004133D02*X019666D01*
X014166Y004182D02*X019666D01*X014166Y004232D02*X019666D01*
X014166Y004281D02*X019666D01*X014166Y004331D02*X019666D01*
X014166Y00438D02*X019666D01*X014166Y00443D02*X019666D01*
X014166Y004479D02*X019666D01*X014166Y004529D02*X019666D01*
X014166Y004578D02*X019666D01*X014166Y004628D02*X019666D01*
X014166Y004677D02*X019666D01*X014166Y004727D02*X019666D01*
X014166Y004776D02*X019666D01*X014166Y004826D02*X019666D01*D10*
X012966Y001991D02*Y011991D01*X010966D01*Y001991D01*X011591D01*
X011603Y002088D01*X011641Y002179D01*X0117Y002256D01*X011778Y002316D01*
X011869Y002353D01*X011966Y002366D01*X012063Y002353D01*
X012153Y002316D01*X012231Y002256D01*X01229Y002179D01*X012328Y002088D01*
X012341Y001991D01*X012966D01*D12*X009791Y000125D02*X000166D01*
X009791Y000175D02*X000166D01*X009791Y000224D02*X000166D01*
X009791Y000273D02*X000166D01*X009791Y000323D02*X000166D01*
X009791Y000372D02*X000166D01*X009791Y000422D02*X000166D01*
X009791Y000471D02*X000166D01*X009791Y000521D02*X000166D01*
X009791Y00057D02*X000166D01*X009791Y00062D02*X000166D01*
X009791Y000669D02*X000166D01*X009791Y000719D02*X000166D01*
X009791Y000768D02*X000166D01*X009791Y000818D02*X000166D01*
X009791Y000867D02*X000166D01*X009791Y000917D02*X000166D01*
X009791Y000966D02*X000166D01*X009791Y001016D02*X000166D01*
X009791Y001065D02*X000166D01*X009791Y001115D02*X000166D01*
X009791Y001164D02*X000166D01*X009791Y001214D02*X000166D01*
X009791Y001263D02*X000166D01*X009791Y001313D02*X000166D01*
X009791Y001362D02*X000166D01*X009791Y001412D02*X000166D01*
X009791Y001461D02*X000166D01*X009791Y00151D02*X000166D01*
X009791Y00156D02*X000166D01*X009791Y001609D02*X000166D01*
X009791Y001659D02*X000166D01*X009791Y001708D02*X000166D01*
X009791Y001758D02*X000166D01*X009791Y001807D02*X000166D01*
X009791Y001857D02*X000166D01*X009791Y001906D02*X000166D01*
X009791Y001956D02*X000166D01*X009791Y002005D02*X000166D01*
X009791Y002055D02*X000166D01*X009791Y002104D02*X000166D01*
X009791Y002154D02*X000166D01*X009791Y002203D02*X000166D01*
X009791Y002253D02*X000166D01*X009791Y002302D02*X000166D01*
X009791Y002352D02*X000166D01*X009791Y002401D02*X000166D01*
X009791Y002451D02*X000166D01*X009791Y0025D02*X000166D01*
X009791Y00255D02*X000166D01*X009791Y002599D02*X000166D01*
X009791Y002648D02*X000166D01*X009791Y002698D02*X000166D01*
X009791Y002747D02*X000166D01*X009791Y002797D02*X000166D01*
X009791Y002846D02*X000166D01*X009791Y002896D02*X000166D01*
X009791Y002945D02*X000166D01*X009791Y002995D02*X000166D01*
X009791Y003044D02*X000166D01*X009791Y003094D02*X000166D01*
X009791Y003143D02*X000166D01*X009791Y003193D02*X000166D01*
X009791Y003242D02*X000166D01*X009791Y003292D02*X000166D01*
X009791Y003341D02*X000166D01*X009791Y003391D02*X000166D01*
X009791Y00344D02*X000166D01*X009791Y00349D02*X000166D01*
X009791Y003539D02*X000166D01*X009791Y003589D02*X000166D01*
X009791Y003638D02*X000166D01*X009791Y003688D02*X000166D01*
X009791Y003737D02*X000166D01*X009791Y003787D02*X000166D01*
X009791Y003836D02*X000166D01*X009791Y003885D02*X000166D01*
X009791Y003935D02*X000166D01*X009791Y003984D02*X000166D01*
X009791Y004034D02*X000166D01*X009791Y004083D02*X000166D01*
X009791Y004133D02*X000166D01*X009791Y004182D02*X000166D01*
X009791Y004232D02*X000166D01*X009791Y004281D02*X000166D01*
X009791Y004331D02*X000166D01*X009791Y00438D02*X000166D01*
X009791Y00443D02*X000166D01*X009791Y004479D02*X000166D01*
X009791Y004529D02*X000166D01*X009791Y004578D02*X000166D01*
X009791Y004628D02*X000166D01*X009791Y004677D02*X000166D01*
X009791Y004727D02*X000166D01*X009791Y004776D02*X000166D01*
X009791Y004826D02*X000166D01*X019666Y000125D02*Y004875D01*X014166D01*
Y000125D01*X019666D01*X009791D02*Y004875D01*X000166D01*Y000125D01*
X009791D01*D11*X000658Y006541D02*X000716Y006598D01*Y006713D01*
X000658Y00677D01*X000601D01*X000544Y006713D01*X00043Y006541D01*
X000373D01*Y00677D01*X000658Y007113D02*X000716Y007055D01*Y006941D01*
X000658Y006884D01*X00043D01*X000373Y006941D01*Y007055D01*
X00043Y007113D01*X000658D01*X000601Y006998D02*X000487D01*
X000658Y007284D02*X000716Y007341D01*X000373D01*Y007398D01*Y007341D02*
Y007284D01*Y007741D02*X000716D01*X000516Y00757D01*Y007798D01*
X000716Y008255D02*X000373Y008313D01*X000716Y00837D01*X000373Y008427D01*
X000716Y008484D01*Y008598D02*X000373Y008655D01*X000716Y008713D01*
X000373Y00877D01*X000716Y008827D01*Y008941D02*X000373Y008998D01*
X000716Y009055D01*X000373Y009113D01*X000716Y00917D01*X000373Y00937D02*
Y009398D01*X000401D01*Y00937D01*X000373D01*X000658Y009855D02*
X000716Y009798D01*Y009684D01*X000658Y009627D01*X00043D01*
X000373Y009684D01*Y009798D01*X00043Y009855D01*X000516D01*Y009798D01*
X000373Y00997D02*X000716Y010084D01*X000501Y010155D01*X000373Y010198D01*
X000501Y010155D02*Y010013D01*X000716Y010313D02*X00043D01*
X000373Y01037D01*Y010484D01*X00043Y010541D01*X000716D01*
X000658Y010884D02*X000716Y010827D01*Y010713D01*X000658Y010655D01*
X00043D01*X000373Y010713D01*Y010827D01*X00043Y010884D01*
X000716Y010998D02*X000487D01*X000373D01*X000487D02*X000544Y011055D01*
X000373Y011227D01*X000544Y011055D02*X000716Y011227D01*
X000373Y011427D02*Y011455D01*X000401D01*Y011427D01*X000373D01*
X000658Y011913D02*X000716Y011855D01*Y011741D01*X000658Y011684D01*
X00043D01*X000373Y011741D01*Y011855D01*X00043Y011913D01*
X000658Y012255D02*X000716Y012198D01*Y012084D01*X000658Y012027D01*
X00043D01*X000373Y012084D01*Y012198D01*X00043Y012255D01*X000658D01*
X000373Y01237D02*X000716D01*X000544Y012484D01*X000716Y012598D01*
X000373D01*
M02*